%TF.GenerationSoftware,KiCad,Pcbnew,5.1.10-88a1d61d58~90~ubuntu20.04.1*%
%TF.CreationDate,2022-06-01T14:19:09-07:00*%
%TF.ProjectId,sd_bt_streamer,73645f62-745f-4737-9472-65616d65722e,rev?*%
%TF.SameCoordinates,Original*%
%TF.FileFunction,Legend,Top*%
%TF.FilePolarity,Positive*%
%FSLAX46Y46*%
G04 Gerber Fmt 4.6, Leading zero omitted, Abs format (unit mm)*
G04 Created by KiCad (PCBNEW 5.1.10-88a1d61d58~90~ubuntu20.04.1) date 2022-06-01 14:19:09*
%MOMM*%
%LPD*%
G01*
G04 APERTURE LIST*
%ADD10C,0.120000*%
%ADD11C,0.150000*%
G04 APERTURE END LIST*
D10*
%TO.C,U2*%
X175430000Y-106410000D02*
X152570000Y-106410000D01*
X175430000Y-60590000D02*
X152570000Y-60590000D01*
X152570000Y-60590000D02*
X152570000Y-106410000D01*
X175430000Y-106410000D02*
X175430000Y-60590000D01*
%TO.C,J1*%
X170070000Y-103200000D02*
X170070000Y-98750000D01*
X170070000Y-97350000D02*
X170070000Y-95050000D01*
X170070000Y-93650000D02*
X170070000Y-92930000D01*
X170070000Y-92930000D02*
X167390000Y-92930000D01*
X165090000Y-92930000D02*
X161420000Y-92930000D01*
X159120000Y-92930000D02*
X157890000Y-92930000D01*
X157890000Y-92930000D02*
X157890000Y-102750000D01*
X168590000Y-104570000D02*
X167730000Y-104570000D01*
%TO.C,U2*%
D11*
X162952380Y-84261904D02*
X163761904Y-84261904D01*
X163857142Y-84214285D01*
X163904761Y-84166666D01*
X163952380Y-84071428D01*
X163952380Y-83880952D01*
X163904761Y-83785714D01*
X163857142Y-83738095D01*
X163761904Y-83690476D01*
X162952380Y-83690476D01*
X163047619Y-83261904D02*
X163000000Y-83214285D01*
X162952380Y-83119047D01*
X162952380Y-82880952D01*
X163000000Y-82785714D01*
X163047619Y-82738095D01*
X163142857Y-82690476D01*
X163238095Y-82690476D01*
X163380952Y-82738095D01*
X163952380Y-83309523D01*
X163952380Y-82690476D01*
%TO.C,J1*%
X163666666Y-105382380D02*
X163666666Y-106096666D01*
X163619047Y-106239523D01*
X163523809Y-106334761D01*
X163380952Y-106382380D01*
X163285714Y-106382380D01*
X164666666Y-106382380D02*
X164095238Y-106382380D01*
X164380952Y-106382380D02*
X164380952Y-105382380D01*
X164285714Y-105525238D01*
X164190476Y-105620476D01*
X164095238Y-105668095D01*
%TD*%
M02*
