M48
; DRILL file {KiCad (6.0.7-1)-1} date Tuesday, September 20, 2022 at 03:59:35 PM
; FORMAT={-:-/ absolute / inch / decimal}
; #@! TF.CreationDate,2022-09-20T15:59:35-07:00
; #@! TF.GenerationSoftware,Kicad,Pcbnew,(6.0.7-1)-1
; #@! TF.FileFunction,Plated,1,2,PTH
FMAT,2
INCH
; #@! TA.AperFunction,Plated,PTH,ViaDrill
T1C0.0157
; #@! TA.AperFunction,Plated,PTH,ComponentDrill
T2C0.0394
%
G90
G05
T1
X6.0591Y-3.4055
X6.2008Y-3.0354
X6.2126Y-3.8425
X6.2598Y-3.8701
X6.2756Y-3.252
X6.3543Y-3.874
X6.3661Y-3.1299
X6.4213Y-2.9331
X6.4213Y-3.6575
X6.4291Y-3.3386
X6.4528Y-3.7992
X6.4921Y-3.8701
X6.5157Y-2.937
X6.5315Y-3.8937
X6.5472Y-3.0472
X6.5669Y-3.815
X6.8031Y-3.3386
X6.9055Y-3.5433
X6.9646Y-3.2913
X7.0039Y-3.5591
X7.0118Y-3.4967
X7.0945Y-2.8858
X7.5945Y-2.8583
X7.626Y-3.0315
X7.626Y-3.6299
X7.7165Y-2.9291
X7.7205Y-3.2362
T2
X6.078Y-2.6331
X6.078Y-2.7331
X6.078Y-2.8331
X6.078Y-2.9331
X6.078Y-3.0331
X6.078Y-3.1331
X6.078Y-3.2331
X6.678Y-2.6331
X6.678Y-2.7331
X6.678Y-2.8331
X6.678Y-2.9331
X6.678Y-3.0331
X6.678Y-3.1299
X6.678Y-3.2331
T0
M30
