%TF.GenerationSoftware,KiCad,Pcbnew,(6.0.7-1)-1*%
%TF.CreationDate,2022-09-20T15:59:29-07:00*%
%TF.ProjectId,sd_bt_qtpy,73645f62-745f-4717-9470-792e6b696361,rev?*%
%TF.SameCoordinates,Original*%
%TF.FileFunction,Legend,Top*%
%TF.FilePolarity,Positive*%
%FSLAX46Y46*%
G04 Gerber Fmt 4.6, Leading zero omitted, Abs format (unit mm)*
G04 Created by KiCad (PCBNEW (6.0.7-1)-1) date 2022-09-20 15:59:29*
%MOMM*%
%LPD*%
G01*
G04 APERTURE LIST*
%ADD10C,0.150000*%
%ADD11C,0.120000*%
G04 APERTURE END LIST*
D10*
%TO.C,J1*%
X162166666Y-102132380D02*
X162166666Y-102846666D01*
X162119047Y-102989523D01*
X162023809Y-103084761D01*
X161880952Y-103132380D01*
X161785714Y-103132380D01*
X163166666Y-103132380D02*
X162595238Y-103132380D01*
X162880952Y-103132380D02*
X162880952Y-102132380D01*
X162785714Y-102275238D01*
X162690476Y-102370476D01*
X162595238Y-102418095D01*
%TO.C,U2*%
X161238095Y-73452380D02*
X161238095Y-74261904D01*
X161285714Y-74357142D01*
X161333333Y-74404761D01*
X161428571Y-74452380D01*
X161619047Y-74452380D01*
X161714285Y-74404761D01*
X161761904Y-74357142D01*
X161809523Y-74261904D01*
X161809523Y-73452380D01*
X162238095Y-73547619D02*
X162285714Y-73500000D01*
X162380952Y-73452380D01*
X162619047Y-73452380D01*
X162714285Y-73500000D01*
X162761904Y-73547619D01*
X162809523Y-73642857D01*
X162809523Y-73738095D01*
X162761904Y-73880952D01*
X162190476Y-74452380D01*
X162809523Y-74452380D01*
%TO.C,D1*%
X174752380Y-78238095D02*
X173752380Y-78238095D01*
X173752380Y-78000000D01*
X173800000Y-77857142D01*
X173895238Y-77761904D01*
X173990476Y-77714285D01*
X174180952Y-77666666D01*
X174323809Y-77666666D01*
X174514285Y-77714285D01*
X174609523Y-77761904D01*
X174704761Y-77857142D01*
X174752380Y-78000000D01*
X174752380Y-78238095D01*
X174752380Y-76714285D02*
X174752380Y-77285714D01*
X174752380Y-77000000D02*
X173752380Y-77000000D01*
X173895238Y-77095238D01*
X173990476Y-77190476D01*
X174038095Y-77285714D01*
%TO.C,C2*%
X150333333Y-71017142D02*
X150285714Y-71064761D01*
X150142857Y-71112380D01*
X150047619Y-71112380D01*
X149904761Y-71064761D01*
X149809523Y-70969523D01*
X149761904Y-70874285D01*
X149714285Y-70683809D01*
X149714285Y-70540952D01*
X149761904Y-70350476D01*
X149809523Y-70255238D01*
X149904761Y-70160000D01*
X150047619Y-70112380D01*
X150142857Y-70112380D01*
X150285714Y-70160000D01*
X150333333Y-70207619D01*
X150714285Y-70207619D02*
X150761904Y-70160000D01*
X150857142Y-70112380D01*
X151095238Y-70112380D01*
X151190476Y-70160000D01*
X151238095Y-70207619D01*
X151285714Y-70302857D01*
X151285714Y-70398095D01*
X151238095Y-70540952D01*
X150666666Y-71112380D01*
X151285714Y-71112380D01*
%TO.C,R1*%
X174986666Y-91216666D02*
X174653333Y-91450000D01*
X174986666Y-91616666D02*
X174286666Y-91616666D01*
X174286666Y-91350000D01*
X174320000Y-91283333D01*
X174353333Y-91250000D01*
X174420000Y-91216666D01*
X174520000Y-91216666D01*
X174586666Y-91250000D01*
X174620000Y-91283333D01*
X174653333Y-91350000D01*
X174653333Y-91616666D01*
X174986666Y-90550000D02*
X174986666Y-90950000D01*
X174986666Y-90750000D02*
X174286666Y-90750000D01*
X174386666Y-90816666D01*
X174453333Y-90883333D01*
X174486666Y-90950000D01*
%TO.C,C1*%
X150225497Y-66357142D02*
X150177878Y-66404761D01*
X150035021Y-66452380D01*
X149939783Y-66452380D01*
X149796925Y-66404761D01*
X149701687Y-66309523D01*
X149654068Y-66214285D01*
X149606449Y-66023809D01*
X149606449Y-65880952D01*
X149654068Y-65690476D01*
X149701687Y-65595238D01*
X149796925Y-65500000D01*
X149939783Y-65452380D01*
X150035021Y-65452380D01*
X150177878Y-65500000D01*
X150225497Y-65547619D01*
X151177878Y-66452380D02*
X150606449Y-66452380D01*
X150892164Y-66452380D02*
X150892164Y-65452380D01*
X150796925Y-65595238D01*
X150701687Y-65690476D01*
X150606449Y-65738095D01*
D11*
%TO.C,J1*%
X167090000Y-101320000D02*
X166230000Y-101320000D01*
X157620000Y-89680000D02*
X156390000Y-89680000D01*
X168570000Y-94100000D02*
X168570000Y-91800000D01*
X163590000Y-89680000D02*
X159920000Y-89680000D01*
X168570000Y-90400000D02*
X168570000Y-89680000D01*
X168570000Y-99950000D02*
X168570000Y-95500000D01*
X156390000Y-89680000D02*
X156390000Y-99500000D01*
X168570000Y-89680000D02*
X165890000Y-89680000D01*
%TO.C,U2*%
X165000000Y-63500000D02*
X165000000Y-64086000D01*
X155904000Y-84914000D02*
X168096000Y-84914000D01*
X158500000Y-64086000D02*
X158500000Y-63500000D01*
X158500000Y-63500000D02*
X165000000Y-63500000D01*
X155904000Y-64086000D02*
X168096000Y-64086000D01*
X153110000Y-82120000D02*
G75*
G03*
X155904000Y-84914000I2794001J1D01*
G01*
X155904000Y-64086000D02*
G75*
G03*
X153110000Y-66880000I1J-2794001D01*
G01*
X170890000Y-66880000D02*
G75*
G03*
X168096000Y-64086000I-2794000J0D01*
G01*
X168096000Y-84914000D02*
G75*
G03*
X170890000Y-82120000I0J2794000D01*
G01*
%TO.C,D1*%
X175300000Y-71450000D02*
X175300000Y-75350000D01*
X175300000Y-71450000D02*
X173300000Y-71450000D01*
X173300000Y-71450000D02*
X173300000Y-75350000D01*
%TO.C,C2*%
X150607836Y-69140000D02*
X150392164Y-69140000D01*
X150607836Y-69860000D02*
X150392164Y-69860000D01*
D10*
%TO.C,R1*%
X172725000Y-91600000D02*
X172725000Y-90600000D01*
X174075000Y-90600000D02*
X174075000Y-91600000D01*
D11*
%TO.C,C1*%
X150607836Y-66640000D02*
X150392164Y-66640000D01*
X150607836Y-67360000D02*
X150392164Y-67360000D01*
%TD*%
M02*
