%TF.GenerationSoftware,KiCad,Pcbnew,(6.0.6-0)*%
%TF.CreationDate,2022-07-29T16:47:40-07:00*%
%TF.ProjectId,sd_bt_streamer,73645f62-745f-4737-9472-65616d65722e,rev?*%
%TF.SameCoordinates,Original*%
%TF.FileFunction,Copper,L2,Bot*%
%TF.FilePolarity,Positive*%
%FSLAX46Y46*%
G04 Gerber Fmt 4.6, Leading zero omitted, Abs format (unit mm)*
G04 Created by KiCad (PCBNEW (6.0.6-0)) date 2022-07-29 16:47:40*
%MOMM*%
%LPD*%
G01*
G04 APERTURE LIST*
%TA.AperFunction,SMDPad,CuDef*%
%ADD10C,0.500000*%
%TD*%
%TA.AperFunction,ComponentPad*%
%ADD11C,1.600000*%
%TD*%
%TA.AperFunction,SMDPad,CuDef*%
%ADD12R,5.000000X2.000000*%
%TD*%
%TA.AperFunction,SMDPad,CuDef*%
%ADD13R,6.000000X1.250000*%
%TD*%
%TA.AperFunction,SMDPad,CuDef*%
%ADD14R,6.000000X1.750000*%
%TD*%
%TA.AperFunction,ViaPad*%
%ADD15C,0.800000*%
%TD*%
%TA.AperFunction,Conductor*%
%ADD16C,0.200000*%
%TD*%
%TA.AperFunction,Conductor*%
%ADD17C,0.500000*%
%TD*%
%TA.AperFunction,Conductor*%
%ADD18C,1.000000*%
%TD*%
G04 APERTURE END LIST*
%TO.C,NT4*%
G36*
X178500000Y-92750000D02*
G01*
X177500000Y-92750000D01*
X177500000Y-92250000D01*
X178500000Y-92250000D01*
X178500000Y-92750000D01*
G37*
%TO.C,NT3*%
G36*
X177750000Y-71850000D02*
G01*
X176750000Y-71850000D01*
X176750000Y-71350000D01*
X177750000Y-71350000D01*
X177750000Y-71850000D01*
G37*
%TO.C,NT1*%
G36*
X177750000Y-75750000D02*
G01*
X176750000Y-75750000D01*
X176750000Y-75250000D01*
X177750000Y-75250000D01*
X177750000Y-75750000D01*
G37*
%TD*%
D10*
%TO.P,NT4,1,1*%
%TO.N,/DAT2*%
X177500000Y-92500000D03*
%TO.P,NT4,2,2*%
%TO.N,/DAT2_T*%
X178500000Y-92500000D03*
%TD*%
%TO.P,NT3,1,1*%
%TO.N,/DAT1*%
X176750000Y-71600000D03*
%TO.P,NT3,2,2*%
%TO.N,/DAT1_T*%
X177750000Y-71600000D03*
%TD*%
%TO.P,NT1,1,1*%
%TO.N,/MISO_ESP32*%
X176750000Y-75500000D03*
%TO.P,NT1,2,2*%
%TO.N,/MISO*%
X177750000Y-75500000D03*
%TD*%
D11*
%TO.P,U2,1,3V3*%
%TO.N,+3.3VP*%
X149300000Y-58640000D03*
%TO.P,U2,2,EN*%
%TO.N,unconnected-(U2-Pad2)*%
X149300000Y-61180000D03*
%TO.P,U2,3,VP*%
%TO.N,unconnected-(U2-Pad3)*%
X149300000Y-63720000D03*
%TO.P,U2,4,VN*%
%TO.N,unconnected-(U2-Pad4)*%
X149300000Y-66260000D03*
%TO.P,U2,5,34*%
%TO.N,unconnected-(U2-Pad5)*%
X149300000Y-68800000D03*
%TO.P,U2,6,35*%
%TO.N,unconnected-(U2-Pad6)*%
X149300000Y-71340000D03*
%TO.P,U2,7,32*%
%TO.N,unconnected-(U2-Pad7)*%
X149300000Y-73880000D03*
%TO.P,U2,8,33*%
%TO.N,unconnected-(U2-Pad8)*%
X149300000Y-76420000D03*
%TO.P,U2,9,25*%
%TO.N,unconnected-(U2-Pad9)*%
X149300000Y-78960000D03*
%TO.P,U2,10,26*%
%TO.N,unconnected-(U2-Pad10)*%
X149300000Y-81500000D03*
%TO.P,U2,11,27*%
%TO.N,unconnected-(U2-Pad11)*%
X149300000Y-84040000D03*
%TO.P,U2,12,14*%
%TO.N,/CLK*%
X149300000Y-86580000D03*
%TO.P,U2,13,12*%
%TO.N,/MISO_ESP32*%
X149300000Y-89120000D03*
%TO.P,U2,14,GND*%
%TO.N,GND*%
X149300000Y-91660000D03*
%TO.P,U2,15,13*%
%TO.N,/MOSI*%
X149300000Y-94200000D03*
%TO.P,U2,16,D2*%
%TO.N,unconnected-(U2-Pad16)*%
X149300000Y-96740000D03*
%TO.P,U2,17,D3*%
%TO.N,unconnected-(U2-Pad17)*%
X149300000Y-99280000D03*
%TO.P,U2,18,CMD*%
%TO.N,unconnected-(U2-Pad18)*%
X149300000Y-101820000D03*
%TO.P,U2,19,5V*%
%TO.N,unconnected-(U2-Pad19)*%
X149300000Y-104360000D03*
%TO.P,U2,20,SCLK*%
%TO.N,unconnected-(U2-Pad20)*%
X174700000Y-104360000D03*
%TO.P,U2,21,D0*%
%TO.N,unconnected-(U2-Pad21)*%
X174700000Y-101820000D03*
%TO.P,U2,22,D1*%
%TO.N,unconnected-(U2-Pad22)*%
X174700000Y-99280000D03*
%TO.P,U2,23,15*%
%TO.N,/CS*%
X174700000Y-96740000D03*
%TO.P,U2,24,2*%
%TO.N,unconnected-(U2-Pad24)*%
X174700000Y-94200000D03*
%TO.P,U2,25,0*%
%TO.N,unconnected-(U2-Pad25)*%
X174700000Y-91660000D03*
%TO.P,U2,26,4*%
%TO.N,unconnected-(U2-Pad26)*%
X174700000Y-89120000D03*
%TO.P,U2,27,16*%
%TO.N,unconnected-(U2-Pad27)*%
X174700000Y-86580000D03*
%TO.P,U2,28,17*%
%TO.N,unconnected-(U2-Pad28)*%
X174700000Y-84040000D03*
%TO.P,U2,29,5*%
%TO.N,/CS*%
X174700000Y-81500000D03*
%TO.P,U2,30,18*%
%TO.N,/CLK*%
X174700000Y-78960000D03*
%TO.P,U2,31,19*%
%TO.N,/MISO_ESP32*%
X174700000Y-76420000D03*
%TO.P,U2,32,GND*%
%TO.N,GND*%
X174700000Y-73880000D03*
%TO.P,U2,33,21*%
%TO.N,unconnected-(U2-Pad33)*%
X174700000Y-71340000D03*
%TO.P,U2,34,RX*%
%TO.N,unconnected-(U2-Pad34)*%
X174700000Y-68800000D03*
%TO.P,U2,35,TX*%
%TO.N,unconnected-(U2-Pad35)*%
X174700000Y-66260000D03*
%TO.P,U2,36,22*%
%TO.N,unconnected-(U2-Pad36)*%
X174700000Y-63720000D03*
%TO.P,U2,37,23*%
%TO.N,/MOSI*%
X174700000Y-61180000D03*
%TO.P,U2,38,GND*%
%TO.N,GND*%
X174700000Y-58640000D03*
%TD*%
D12*
%TO.P,U1,9,DAT2/NC*%
%TO.N,/DAT2_T*%
X205030000Y-92300000D03*
D13*
%TO.P,U1,8,DAT1/IRQ*%
%TO.N,/DAT1_T*%
X207703000Y-72340000D03*
D14*
%TO.P,U1,7,DAT0/MISO*%
%TO.N,/MISO*%
X207703000Y-74340000D03*
%TO.P,U1,6,VSS2*%
%TO.N,GND*%
X207703000Y-76740000D03*
%TO.P,U1,5,CLOCK*%
%TO.N,/CLK*%
X207703000Y-79305000D03*
%TO.P,U1,4,VDD*%
%TO.N,+3.3V*%
X207703000Y-81840000D03*
%TO.P,U1,3,VSS1*%
%TO.N,GND*%
X207703000Y-84370000D03*
%TO.P,U1,2,CMD/MOSI*%
%TO.N,/MOSI*%
X207703000Y-86965000D03*
%TO.P,U1,1,DAT3/CS*%
%TO.N,/CS*%
X207703000Y-89514600D03*
%TD*%
D15*
%TO.N,/MISO*%
X162200000Y-78600000D03*
X161300000Y-100400000D03*
%TO.N,/DAT1*%
X159500000Y-73400000D03*
X159500000Y-99900000D03*
%TO.N,/CLK*%
X166400000Y-79700000D03*
%TO.N,/MISO*%
X176900000Y-77600000D03*
%TO.N,/DAT1*%
X176500000Y-72500000D03*
%TO.N,/CS*%
X180785400Y-89514600D03*
%TO.N,/MOSI*%
X170100000Y-62400000D03*
X151400000Y-62400000D03*
%TO.N,/CLK*%
X166375000Y-87875000D03*
%TO.N,/MISO_ESP32*%
X153100000Y-76800000D03*
X152900000Y-88800000D03*
%TO.N,/CS*%
X167250000Y-96950000D03*
%TO.N,/MOSI*%
X166250000Y-95650000D03*
%TO.N,+3.3V*%
X155800000Y-81100000D03*
X155800000Y-102900000D03*
%TO.N,/CLK*%
X164750000Y-98750000D03*
%TO.N,+3.3V*%
X195000000Y-81750000D03*
%TO.N,/MOSI*%
X165750000Y-100250000D03*
%TO.N,/CS*%
X167250000Y-100750000D03*
%TO.N,/DAT2*%
X168500000Y-102500000D03*
%TD*%
D16*
%TO.N,/MISO*%
X162200000Y-99500000D02*
X162200000Y-78600000D01*
X161300000Y-100400000D02*
X162200000Y-99500000D01*
%TO.N,/DAT1*%
X159500000Y-99900000D02*
X159500000Y-73400000D01*
%TO.N,/CLK*%
X166375000Y-79725000D02*
X166400000Y-79700000D01*
X166375000Y-87875000D02*
X166375000Y-79725000D01*
X207703000Y-79305000D02*
X182405000Y-79305000D01*
X182060000Y-78960000D02*
X174700000Y-78960000D01*
X182405000Y-79305000D02*
X182060000Y-78960000D01*
%TO.N,/MISO*%
X177750000Y-75500000D02*
X177750000Y-76750000D01*
X177750000Y-76750000D02*
X176900000Y-77600000D01*
%TO.N,/DAT1*%
X176500000Y-72500000D02*
X176500000Y-71850000D01*
X176500000Y-71850000D02*
X176750000Y-71600000D01*
%TO.N,/DAT1_T*%
X177750000Y-71600000D02*
X178490000Y-72340000D01*
X207703000Y-72340000D02*
X178490000Y-72340000D01*
%TO.N,/CS*%
X207703000Y-89514600D02*
X180785400Y-89514600D01*
X180785400Y-89514600D02*
X179685400Y-89514600D01*
%TO.N,/MOSI*%
X151400000Y-62400000D02*
X170100000Y-62400000D01*
%TO.N,/MISO*%
X180425000Y-75325000D02*
X181410000Y-74340000D01*
X177750000Y-75500000D02*
X180250000Y-75500000D01*
X180250000Y-75500000D02*
X180425000Y-75325000D01*
%TO.N,/MISO_ESP32*%
X176750000Y-75500000D02*
X175620000Y-75500000D01*
X175620000Y-75500000D02*
X174700000Y-76420000D01*
%TO.N,/CLK*%
X164750000Y-89500000D02*
X166375000Y-87875000D01*
%TO.N,/MISO_ESP32*%
X153100000Y-88600000D02*
X152900000Y-88800000D01*
X153100000Y-76800000D02*
X153100000Y-88600000D01*
%TO.N,/CS*%
X167250000Y-93579200D02*
X167250000Y-96950000D01*
X167250000Y-96950000D02*
X167250000Y-100750000D01*
%TO.N,/MOSI*%
X166250000Y-92000000D02*
X166250000Y-95650000D01*
X166250000Y-95650000D02*
X166250000Y-99750000D01*
D17*
%TO.N,+3.3V*%
X155800000Y-102900000D02*
X155800000Y-81100000D01*
D16*
%TO.N,/CLK*%
X164750000Y-98750000D02*
X164750000Y-89500000D01*
%TO.N,/MOSI*%
X207703000Y-86965000D02*
X184265000Y-86965000D01*
X184265000Y-86965000D02*
X183330000Y-87900000D01*
X183330000Y-87900000D02*
X170350000Y-87900000D01*
X170350000Y-87900000D02*
X166250000Y-92000000D01*
X166250000Y-99750000D02*
X165750000Y-100250000D01*
%TO.N,/CS*%
X179685400Y-89514600D02*
X178800000Y-90400000D01*
X178800000Y-90400000D02*
X170429200Y-90400000D01*
X170429200Y-90400000D02*
X167250000Y-93579200D01*
%TO.N,/DAT2*%
X177500000Y-92500000D02*
X177100000Y-92900000D01*
X168500000Y-94300000D02*
X169250000Y-93550000D01*
X169900000Y-92900000D02*
X169250000Y-93550000D01*
X177100000Y-92900000D02*
X169900000Y-92900000D01*
%TO.N,/DAT2_T*%
X178500000Y-92500000D02*
X179100000Y-92500000D01*
X179100000Y-92500000D02*
X179300000Y-92300000D01*
%TO.N,/DAT2*%
X168500000Y-102500000D02*
X168500000Y-94300000D01*
%TO.N,/MISO*%
X181410000Y-74340000D02*
X207703000Y-74340000D01*
D18*
%TO.N,+3.3V*%
X195090000Y-81840000D02*
X195000000Y-81750000D01*
X207703000Y-81840000D02*
X195090000Y-81840000D01*
D16*
%TO.N,/DAT2_T*%
X205030000Y-92300000D02*
X179300000Y-92300000D01*
%TD*%
%TA.AperFunction,Conductor*%
%TO.N,GND*%
G36*
X176691621Y-56270502D02*
G01*
X176738114Y-56324158D01*
X176749500Y-56376500D01*
X176749500Y-70032915D01*
X176747079Y-70057496D01*
X176744592Y-70070000D01*
X176764034Y-70167740D01*
X176819399Y-70250601D01*
X176902260Y-70305966D01*
X176952533Y-70315966D01*
X177000000Y-70325408D01*
X177012171Y-70322987D01*
X177012172Y-70322987D01*
X177012504Y-70322921D01*
X177037085Y-70320500D01*
X210393680Y-70320500D01*
X210461801Y-70340502D01*
X210508294Y-70394158D01*
X210519680Y-70446438D01*
X210520117Y-71331406D01*
X210520120Y-71338438D01*
X210500152Y-71406568D01*
X210446519Y-71453088D01*
X210394120Y-71464500D01*
X204678326Y-71464500D01*
X204605260Y-71479034D01*
X204522399Y-71534399D01*
X204515507Y-71544714D01*
X204478567Y-71600000D01*
X204467034Y-71617260D01*
X204452500Y-71690326D01*
X204452500Y-71863500D01*
X204432498Y-71931621D01*
X204378842Y-71978114D01*
X204326500Y-71989500D01*
X178687372Y-71989500D01*
X178619251Y-71969498D01*
X178598277Y-71952595D01*
X178286994Y-71641312D01*
X178252968Y-71579000D01*
X178251362Y-71570079D01*
X178236596Y-71466968D01*
X178236595Y-71466965D01*
X178235323Y-71458082D01*
X178175984Y-71327572D01*
X178157598Y-71306234D01*
X178088260Y-71225763D01*
X178088257Y-71225760D01*
X178082400Y-71218963D01*
X177962095Y-71140985D01*
X177824739Y-71099907D01*
X177815763Y-71099852D01*
X177815762Y-71099852D01*
X177811063Y-71099823D01*
X177787213Y-71099677D01*
X177763406Y-71097259D01*
X177750000Y-71094592D01*
X177737825Y-71097014D01*
X177736709Y-71097014D01*
X177713508Y-71099228D01*
X177681376Y-71099031D01*
X177680047Y-71099411D01*
X177678738Y-71099500D01*
X176787085Y-71099500D01*
X176762504Y-71097079D01*
X176762173Y-71097013D01*
X176762171Y-71097013D01*
X176750000Y-71094592D01*
X176737825Y-71097014D01*
X176736709Y-71097014D01*
X176713508Y-71099228D01*
X176681376Y-71099031D01*
X176543529Y-71138428D01*
X176422280Y-71214930D01*
X176327377Y-71322388D01*
X176266447Y-71452163D01*
X176248452Y-71567744D01*
X176246805Y-71578321D01*
X176224811Y-71632207D01*
X176221320Y-71637091D01*
X176217764Y-71641827D01*
X176188608Y-71678811D01*
X176185807Y-71686787D01*
X176180889Y-71693669D01*
X176167381Y-71738836D01*
X176165559Y-71744442D01*
X176152572Y-71781423D01*
X176152571Y-71781429D01*
X176149945Y-71788906D01*
X176149500Y-71794044D01*
X176149500Y-71796763D01*
X176149405Y-71798945D01*
X176149245Y-71799480D01*
X176149218Y-71799479D01*
X176149211Y-71799597D01*
X176147456Y-71805464D01*
X176147865Y-71815872D01*
X176149403Y-71855019D01*
X176149500Y-71859966D01*
X176149500Y-71885197D01*
X176129498Y-71953318D01*
X176106332Y-71980144D01*
X176013034Y-72061533D01*
X175983543Y-72103495D01*
X175959442Y-72137787D01*
X175922501Y-72190348D01*
X175865309Y-72337039D01*
X175864318Y-72344568D01*
X175848705Y-72463161D01*
X175844758Y-72493138D01*
X175862035Y-72649633D01*
X175916143Y-72797490D01*
X175920380Y-72803796D01*
X175920382Y-72803799D01*
X175946801Y-72843114D01*
X176003958Y-72928172D01*
X176120410Y-73034135D01*
X176127085Y-73037759D01*
X176252099Y-73105637D01*
X176252101Y-73105638D01*
X176258776Y-73109262D01*
X176266125Y-73111190D01*
X176403719Y-73147287D01*
X176403721Y-73147287D01*
X176411069Y-73149215D01*
X176494380Y-73150524D01*
X176560898Y-73151569D01*
X176560901Y-73151569D01*
X176568495Y-73151688D01*
X176721968Y-73116538D01*
X176862625Y-73045795D01*
X176915556Y-73000588D01*
X176976574Y-72948474D01*
X176976576Y-72948471D01*
X176982348Y-72943542D01*
X177074224Y-72815683D01*
X177082966Y-72793938D01*
X177104413Y-72740586D01*
X177132950Y-72669598D01*
X177143072Y-72598477D01*
X177154553Y-72517807D01*
X177154553Y-72517804D01*
X177155134Y-72513723D01*
X177155278Y-72500000D01*
X177136363Y-72343694D01*
X177131175Y-72329963D01*
X177108909Y-72271037D01*
X177103541Y-72200244D01*
X177137299Y-72137787D01*
X177199465Y-72103495D01*
X177226775Y-72100500D01*
X177702628Y-72100500D01*
X177770749Y-72120502D01*
X177791723Y-72137405D01*
X178206217Y-72551899D01*
X178218295Y-72566853D01*
X178221527Y-72570405D01*
X178227175Y-72579152D01*
X178235352Y-72585598D01*
X178251086Y-72598002D01*
X178255021Y-72601499D01*
X178255109Y-72601395D01*
X178259068Y-72604750D01*
X178262746Y-72608428D01*
X178266971Y-72611447D01*
X178266979Y-72611454D01*
X178277080Y-72618672D01*
X178281827Y-72622236D01*
X178318811Y-72651392D01*
X178326787Y-72654193D01*
X178333669Y-72659111D01*
X178378836Y-72672619D01*
X178384442Y-72674441D01*
X178421423Y-72687428D01*
X178421429Y-72687429D01*
X178428906Y-72690055D01*
X178434044Y-72690500D01*
X178436763Y-72690500D01*
X178438945Y-72690595D01*
X178439480Y-72690755D01*
X178439479Y-72690782D01*
X178439597Y-72690789D01*
X178445464Y-72692544D01*
X178495019Y-72690597D01*
X178499966Y-72690500D01*
X204326500Y-72690500D01*
X204394621Y-72710502D01*
X204441114Y-72764158D01*
X204452500Y-72816500D01*
X204452500Y-72989674D01*
X204467034Y-73062740D01*
X204513493Y-73132271D01*
X204521997Y-73144999D01*
X204543211Y-73212752D01*
X204521997Y-73285000D01*
X204467034Y-73367260D01*
X204452500Y-73440326D01*
X204452500Y-73863500D01*
X204432498Y-73931621D01*
X204378842Y-73978114D01*
X204326500Y-73989500D01*
X181460824Y-73989500D01*
X181441725Y-73987467D01*
X181436917Y-73987240D01*
X181426739Y-73985049D01*
X181396509Y-73988627D01*
X181391254Y-73988937D01*
X181391265Y-73989072D01*
X181386087Y-73989500D01*
X181380885Y-73989500D01*
X181363515Y-73992391D01*
X181357644Y-73993227D01*
X181321200Y-73997540D01*
X181321198Y-73997541D01*
X181310861Y-73998764D01*
X181303240Y-74002423D01*
X181294897Y-74003812D01*
X181285733Y-74008757D01*
X181285732Y-74008757D01*
X181253428Y-74026187D01*
X181248138Y-74028882D01*
X181212820Y-74045841D01*
X181212813Y-74045845D01*
X181205673Y-74049274D01*
X181201726Y-74052592D01*
X181199791Y-74054527D01*
X181198196Y-74055990D01*
X181197706Y-74056254D01*
X181197687Y-74056234D01*
X181197598Y-74056313D01*
X181192206Y-74059222D01*
X181185136Y-74066870D01*
X181185135Y-74066871D01*
X181158545Y-74095636D01*
X181155116Y-74099202D01*
X180141723Y-75112595D01*
X180079411Y-75146621D01*
X180052628Y-75149500D01*
X178162704Y-75149500D01*
X178094583Y-75129498D01*
X178085779Y-75122884D01*
X178082400Y-75118963D01*
X177962095Y-75040985D01*
X177824739Y-74999907D01*
X177815763Y-74999852D01*
X177815762Y-74999852D01*
X177811063Y-74999823D01*
X177787213Y-74999677D01*
X177763406Y-74997259D01*
X177750000Y-74994592D01*
X177737825Y-74997014D01*
X177736709Y-74997014D01*
X177713508Y-74999228D01*
X177681376Y-74999031D01*
X177680047Y-74999411D01*
X177678738Y-74999500D01*
X176787085Y-74999500D01*
X176762504Y-74997079D01*
X176762173Y-74997013D01*
X176762171Y-74997013D01*
X176750000Y-74994592D01*
X176737825Y-74997014D01*
X176736709Y-74997014D01*
X176713508Y-74999228D01*
X176681376Y-74999031D01*
X176543529Y-75038428D01*
X176422280Y-75114930D01*
X176417866Y-75119927D01*
X176354088Y-75148372D01*
X176337265Y-75149500D01*
X175670824Y-75149500D01*
X175651725Y-75147467D01*
X175646917Y-75147240D01*
X175636739Y-75145049D01*
X175606509Y-75148627D01*
X175601254Y-75148937D01*
X175601265Y-75149072D01*
X175596087Y-75149500D01*
X175590885Y-75149500D01*
X175573515Y-75152391D01*
X175567643Y-75153227D01*
X175546730Y-75155702D01*
X175476731Y-75143844D01*
X175424254Y-75096025D01*
X175405961Y-75027425D01*
X175421535Y-74978908D01*
X175422545Y-74969146D01*
X175414356Y-74953566D01*
X174712812Y-74252022D01*
X174698868Y-74244408D01*
X174697035Y-74244539D01*
X174690420Y-74248790D01*
X173984923Y-74954287D01*
X173978493Y-74966062D01*
X173987789Y-74978077D01*
X174038994Y-75013931D01*
X174048489Y-75019414D01*
X174245947Y-75111490D01*
X174256239Y-75115236D01*
X174428428Y-75161374D01*
X174489051Y-75198326D01*
X174520072Y-75262187D01*
X174511644Y-75332681D01*
X174466441Y-75387428D01*
X174431393Y-75403955D01*
X174304572Y-75441280D01*
X174299107Y-75444137D01*
X174258244Y-75465500D01*
X174122002Y-75536726D01*
X174117201Y-75540586D01*
X174117198Y-75540588D01*
X174106971Y-75548811D01*
X173961447Y-75665815D01*
X173829024Y-75823630D01*
X173826056Y-75829028D01*
X173826053Y-75829033D01*
X173784558Y-75904513D01*
X173729776Y-76004162D01*
X173707572Y-76074158D01*
X173671969Y-76186395D01*
X173667484Y-76200532D01*
X173666798Y-76206649D01*
X173666797Y-76206653D01*
X173649985Y-76356538D01*
X173644520Y-76405262D01*
X173645036Y-76411406D01*
X173652771Y-76503514D01*
X173661759Y-76610553D01*
X173663458Y-76616478D01*
X173700306Y-76744981D01*
X173718544Y-76808586D01*
X173721359Y-76814063D01*
X173721360Y-76814066D01*
X173809197Y-76984978D01*
X173812712Y-76991818D01*
X173940677Y-77153270D01*
X173945370Y-77157264D01*
X173945371Y-77157265D01*
X174052542Y-77248474D01*
X174097564Y-77286791D01*
X174102942Y-77289797D01*
X174102944Y-77289798D01*
X174182276Y-77334135D01*
X174277398Y-77387297D01*
X174366691Y-77416310D01*
X174467471Y-77449056D01*
X174467475Y-77449057D01*
X174473329Y-77450959D01*
X174677894Y-77475351D01*
X174684029Y-77474879D01*
X174684031Y-77474879D01*
X174740039Y-77470569D01*
X174883300Y-77459546D01*
X174889230Y-77457890D01*
X174889232Y-77457890D01*
X175013104Y-77423304D01*
X175081725Y-77404145D01*
X175087214Y-77401372D01*
X175087220Y-77401370D01*
X175242133Y-77323117D01*
X175265610Y-77311258D01*
X175427951Y-77184424D01*
X175452022Y-77156538D01*
X175558540Y-77033134D01*
X175558540Y-77033133D01*
X175562564Y-77028472D01*
X175583387Y-76991818D01*
X175607651Y-76949105D01*
X175664323Y-76849344D01*
X175729351Y-76653863D01*
X175755171Y-76449474D01*
X175755583Y-76420000D01*
X175735480Y-76214970D01*
X175679642Y-76030026D01*
X175679101Y-75959032D01*
X175711169Y-75904513D01*
X175728277Y-75887405D01*
X175790589Y-75853379D01*
X175817372Y-75850500D01*
X176337184Y-75850500D01*
X176405305Y-75870502D01*
X176411538Y-75875244D01*
X176412970Y-75876948D01*
X176419424Y-75881244D01*
X176419429Y-75881248D01*
X176524836Y-75951413D01*
X176532313Y-75956390D01*
X176669157Y-75999142D01*
X176712268Y-75999932D01*
X176734541Y-76002333D01*
X176750000Y-76005408D01*
X176762172Y-76002987D01*
X176766436Y-76002987D01*
X176785592Y-76001277D01*
X176803522Y-76001606D01*
X176803526Y-76001606D01*
X176812499Y-76001770D01*
X176816256Y-76000746D01*
X176820217Y-76000500D01*
X177273500Y-76000500D01*
X177341621Y-76020502D01*
X177388114Y-76074158D01*
X177399500Y-76126500D01*
X177399500Y-76552628D01*
X177379498Y-76620749D01*
X177362595Y-76641723D01*
X177089151Y-76915167D01*
X177026839Y-76949193D01*
X176986476Y-76950981D01*
X176982128Y-76949889D01*
X176974533Y-76949849D01*
X176974531Y-76949849D01*
X176904921Y-76949485D01*
X176824684Y-76949065D01*
X176817305Y-76950837D01*
X176817301Y-76950837D01*
X176678967Y-76984048D01*
X176678963Y-76984049D01*
X176671588Y-76985820D01*
X176531679Y-77058032D01*
X176525957Y-77063024D01*
X176525955Y-77063025D01*
X176418759Y-77156538D01*
X176418756Y-77156541D01*
X176413034Y-77161533D01*
X176408667Y-77167747D01*
X176351931Y-77248474D01*
X176322501Y-77290348D01*
X176265309Y-77437039D01*
X176262598Y-77457632D01*
X176254584Y-77518506D01*
X176244758Y-77593138D01*
X176262035Y-77749633D01*
X176316143Y-77897490D01*
X176320380Y-77903796D01*
X176320382Y-77903799D01*
X176336510Y-77927799D01*
X176403958Y-78028172D01*
X176426270Y-78048474D01*
X176492417Y-78108663D01*
X176520410Y-78134135D01*
X176527085Y-78137759D01*
X176652099Y-78205637D01*
X176652101Y-78205638D01*
X176658776Y-78209262D01*
X176666125Y-78211190D01*
X176803719Y-78247287D01*
X176803721Y-78247287D01*
X176811069Y-78249215D01*
X176894380Y-78250524D01*
X176960898Y-78251569D01*
X176960901Y-78251569D01*
X176968495Y-78251688D01*
X177121968Y-78216538D01*
X177262625Y-78145795D01*
X177338973Y-78080588D01*
X177376574Y-78048474D01*
X177376576Y-78048471D01*
X177382348Y-78043542D01*
X177474224Y-77915683D01*
X177478743Y-77904443D01*
X177530114Y-77776652D01*
X177532950Y-77769598D01*
X177555134Y-77613723D01*
X177555278Y-77600000D01*
X177545416Y-77518505D01*
X177557089Y-77448476D01*
X177581408Y-77414274D01*
X177961899Y-77033783D01*
X177976853Y-77021705D01*
X177980405Y-77018473D01*
X177989152Y-77012825D01*
X178008002Y-76988914D01*
X178011500Y-76984978D01*
X178011396Y-76984890D01*
X178014751Y-76980931D01*
X178018429Y-76977253D01*
X178021448Y-76973028D01*
X178021455Y-76973020D01*
X178028669Y-76962924D01*
X178032236Y-76958174D01*
X178054944Y-76929369D01*
X178054945Y-76929366D01*
X178061392Y-76921189D01*
X178064194Y-76913211D01*
X178069111Y-76906330D01*
X178082621Y-76861157D01*
X178084442Y-76855553D01*
X178084739Y-76854707D01*
X178100055Y-76811094D01*
X178100500Y-76805956D01*
X178100500Y-76803251D01*
X178100595Y-76801054D01*
X178100755Y-76800520D01*
X178100782Y-76800521D01*
X178100789Y-76800403D01*
X178102544Y-76794536D01*
X178100597Y-76744981D01*
X178100500Y-76740034D01*
X178100500Y-75976500D01*
X178120502Y-75908379D01*
X178174158Y-75861886D01*
X178226500Y-75850500D01*
X180199176Y-75850500D01*
X180218275Y-75852533D01*
X180223083Y-75852760D01*
X180233261Y-75854951D01*
X180263491Y-75851373D01*
X180268746Y-75851063D01*
X180268735Y-75850928D01*
X180273914Y-75850500D01*
X180279115Y-75850500D01*
X180284243Y-75849646D01*
X180284249Y-75849646D01*
X180296473Y-75847611D01*
X180302349Y-75846774D01*
X180338799Y-75842460D01*
X180338801Y-75842460D01*
X180349138Y-75841236D01*
X180356758Y-75837577D01*
X180365103Y-75836188D01*
X180406584Y-75813806D01*
X180411870Y-75811113D01*
X180454326Y-75790726D01*
X180458274Y-75787408D01*
X180460207Y-75785475D01*
X180461804Y-75784010D01*
X180462294Y-75783746D01*
X180462313Y-75783766D01*
X180462402Y-75783687D01*
X180467794Y-75780778D01*
X180484553Y-75762649D01*
X180501455Y-75744364D01*
X180504884Y-75740798D01*
X181518277Y-74727405D01*
X181580589Y-74693379D01*
X181607372Y-74690500D01*
X204326500Y-74690500D01*
X204394621Y-74710502D01*
X204441114Y-74764158D01*
X204452500Y-74816500D01*
X204452500Y-75239674D01*
X204453707Y-75245741D01*
X204467034Y-75312740D01*
X204463600Y-75313423D01*
X204468973Y-75363338D01*
X204437202Y-75426830D01*
X204420537Y-75441809D01*
X204347276Y-75496715D01*
X204334715Y-75509276D01*
X204258214Y-75611351D01*
X204249676Y-75626946D01*
X204204522Y-75747394D01*
X204200895Y-75762649D01*
X204195369Y-75813514D01*
X204195000Y-75820328D01*
X204195000Y-76467885D01*
X204199475Y-76483124D01*
X204200865Y-76484329D01*
X204208548Y-76486000D01*
X207831000Y-76486000D01*
X207899121Y-76506002D01*
X207945614Y-76559658D01*
X207957000Y-76612000D01*
X207957000Y-76868000D01*
X207936998Y-76936121D01*
X207883342Y-76982614D01*
X207831000Y-76994000D01*
X204213116Y-76994000D01*
X204197877Y-76998475D01*
X204196672Y-76999865D01*
X204195001Y-77007548D01*
X204195001Y-77659669D01*
X204195371Y-77666490D01*
X204200895Y-77717352D01*
X204204521Y-77732604D01*
X204249676Y-77853054D01*
X204258214Y-77868649D01*
X204334715Y-77970724D01*
X204347276Y-77983285D01*
X204449351Y-78059786D01*
X204472818Y-78072634D01*
X204471298Y-78075411D01*
X204515557Y-78108663D01*
X204540253Y-78175226D01*
X204525042Y-78244574D01*
X204519325Y-78253999D01*
X204467034Y-78332260D01*
X204452500Y-78405326D01*
X204452500Y-78828500D01*
X204432498Y-78896621D01*
X204378842Y-78943114D01*
X204326500Y-78954500D01*
X182602372Y-78954500D01*
X182534251Y-78934498D01*
X182513277Y-78917595D01*
X182343783Y-78748101D01*
X182331705Y-78733147D01*
X182328473Y-78729595D01*
X182322825Y-78720848D01*
X182298914Y-78701998D01*
X182294979Y-78698501D01*
X182294891Y-78698605D01*
X182290932Y-78695250D01*
X182287254Y-78691572D01*
X182283029Y-78688553D01*
X182283021Y-78688546D01*
X182272920Y-78681328D01*
X182268173Y-78677764D01*
X182257718Y-78669522D01*
X182231189Y-78648608D01*
X182223213Y-78645807D01*
X182216331Y-78640889D01*
X182171164Y-78627381D01*
X182165558Y-78625559D01*
X182128577Y-78612572D01*
X182128571Y-78612571D01*
X182121094Y-78609945D01*
X182115956Y-78609500D01*
X182113237Y-78609500D01*
X182111055Y-78609405D01*
X182110520Y-78609245D01*
X182110521Y-78609218D01*
X182110403Y-78609211D01*
X182104536Y-78607456D01*
X182054981Y-78609403D01*
X182050034Y-78609500D01*
X175779160Y-78609500D01*
X175711039Y-78589498D01*
X175667908Y-78542653D01*
X175619301Y-78451234D01*
X175579218Y-78375849D01*
X175504414Y-78284131D01*
X175452906Y-78220975D01*
X175452903Y-78220972D01*
X175449011Y-78216200D01*
X175442173Y-78210543D01*
X175295025Y-78088811D01*
X175295021Y-78088809D01*
X175290275Y-78084882D01*
X175109055Y-77986897D01*
X174912254Y-77925977D01*
X174906129Y-77925333D01*
X174906128Y-77925333D01*
X174713498Y-77905087D01*
X174713496Y-77905087D01*
X174707369Y-77904443D01*
X174620529Y-77912346D01*
X174508342Y-77922555D01*
X174508339Y-77922556D01*
X174502203Y-77923114D01*
X174304572Y-77981280D01*
X174122002Y-78076726D01*
X174117201Y-78080586D01*
X174117198Y-78080588D01*
X174050599Y-78134135D01*
X173961447Y-78205815D01*
X173829024Y-78363630D01*
X173826056Y-78369028D01*
X173826053Y-78369033D01*
X173784528Y-78444568D01*
X173729776Y-78544162D01*
X173667484Y-78740532D01*
X173666798Y-78746649D01*
X173666797Y-78746653D01*
X173657617Y-78828500D01*
X173644520Y-78945262D01*
X173645036Y-78951406D01*
X173653386Y-79050837D01*
X173661759Y-79150553D01*
X173663458Y-79156478D01*
X173713359Y-79330502D01*
X173718544Y-79348586D01*
X173721359Y-79354063D01*
X173721360Y-79354066D01*
X173809897Y-79526341D01*
X173812712Y-79531818D01*
X173940677Y-79693270D01*
X174097564Y-79826791D01*
X174102942Y-79829797D01*
X174102944Y-79829798D01*
X174134563Y-79847469D01*
X174277398Y-79927297D01*
X174372238Y-79958113D01*
X174467471Y-79989056D01*
X174467475Y-79989057D01*
X174473329Y-79990959D01*
X174677894Y-80015351D01*
X174684029Y-80014879D01*
X174684031Y-80014879D01*
X174740039Y-80010569D01*
X174883300Y-79999546D01*
X174889230Y-79997890D01*
X174889232Y-79997890D01*
X175075797Y-79945800D01*
X175075796Y-79945800D01*
X175081725Y-79944145D01*
X175087214Y-79941372D01*
X175087220Y-79941370D01*
X175260116Y-79854033D01*
X175265610Y-79851258D01*
X175427951Y-79724424D01*
X175440749Y-79709598D01*
X175558540Y-79573134D01*
X175558540Y-79573133D01*
X175562564Y-79568472D01*
X175565672Y-79563002D01*
X175661277Y-79394706D01*
X175664323Y-79389344D01*
X175665811Y-79384870D01*
X175711463Y-79331157D01*
X175780593Y-79310500D01*
X181862628Y-79310500D01*
X181930749Y-79330502D01*
X181951723Y-79347405D01*
X182121217Y-79516899D01*
X182133295Y-79531853D01*
X182136527Y-79535405D01*
X182142175Y-79544152D01*
X182165016Y-79562159D01*
X182166086Y-79563002D01*
X182170022Y-79566500D01*
X182170110Y-79566396D01*
X182174069Y-79569751D01*
X182177747Y-79573429D01*
X182181972Y-79576448D01*
X182181980Y-79576455D01*
X182192076Y-79583669D01*
X182196826Y-79587236D01*
X182225631Y-79609944D01*
X182225634Y-79609945D01*
X182233811Y-79616392D01*
X182241789Y-79619194D01*
X182248670Y-79624111D01*
X182293843Y-79637621D01*
X182299440Y-79639440D01*
X182343906Y-79655055D01*
X182349044Y-79655500D01*
X182351749Y-79655500D01*
X182353946Y-79655595D01*
X182354480Y-79655755D01*
X182354479Y-79655782D01*
X182354597Y-79655789D01*
X182360464Y-79657544D01*
X182410019Y-79655597D01*
X182414966Y-79655500D01*
X204326500Y-79655500D01*
X204394621Y-79675502D01*
X204441114Y-79729158D01*
X204452500Y-79781500D01*
X204452500Y-80204674D01*
X204467034Y-80277740D01*
X204522399Y-80360601D01*
X204605260Y-80415966D01*
X204678326Y-80430500D01*
X210398658Y-80430500D01*
X210466779Y-80450502D01*
X210513272Y-80504158D01*
X210524658Y-80556437D01*
X210524674Y-80588437D01*
X210504706Y-80656568D01*
X210451074Y-80703087D01*
X210398674Y-80714500D01*
X204678326Y-80714500D01*
X204605260Y-80729034D01*
X204594943Y-80735928D01*
X204594942Y-80735928D01*
X204580145Y-80745815D01*
X204522399Y-80784399D01*
X204467034Y-80867260D01*
X204452500Y-80940326D01*
X204452500Y-80963500D01*
X204432498Y-81031621D01*
X204378842Y-81078114D01*
X204326500Y-81089500D01*
X195387342Y-81089500D01*
X195333993Y-81077648D01*
X195245139Y-81036120D01*
X195245135Y-81036119D01*
X195238507Y-81033021D01*
X195067169Y-80997382D01*
X194892228Y-81002116D01*
X194723068Y-81046968D01*
X194716618Y-81050419D01*
X194716616Y-81050420D01*
X194598309Y-81113723D01*
X194568764Y-81129532D01*
X194437592Y-81245380D01*
X194336588Y-81388296D01*
X194271172Y-81550615D01*
X194270071Y-81557854D01*
X194248983Y-81696478D01*
X194244852Y-81723630D01*
X194245445Y-81730922D01*
X194245445Y-81730925D01*
X194258445Y-81890757D01*
X194259039Y-81898059D01*
X194261296Y-81905025D01*
X194261296Y-81905027D01*
X194267278Y-81923491D01*
X194312973Y-82064546D01*
X194316769Y-82070802D01*
X194316771Y-82070806D01*
X194400850Y-82209363D01*
X194403761Y-82214160D01*
X194411085Y-82222452D01*
X194512322Y-82323689D01*
X194524709Y-82338102D01*
X194533041Y-82349425D01*
X194533045Y-82349429D01*
X194537383Y-82355324D01*
X194577200Y-82389151D01*
X194584704Y-82396071D01*
X194590303Y-82401670D01*
X194612351Y-82419114D01*
X194615727Y-82421883D01*
X194665175Y-82463892D01*
X194665178Y-82463894D01*
X194670755Y-82468632D01*
X194677274Y-82471960D01*
X194682184Y-82475235D01*
X194687204Y-82478336D01*
X194692949Y-82482881D01*
X194699587Y-82485983D01*
X194699588Y-82485984D01*
X194758343Y-82513444D01*
X194762289Y-82515372D01*
X194826616Y-82548219D01*
X194833725Y-82549958D01*
X194839260Y-82552017D01*
X194844868Y-82553883D01*
X194851493Y-82556979D01*
X194858653Y-82558468D01*
X194858655Y-82558469D01*
X194922184Y-82571683D01*
X194926468Y-82572653D01*
X194996606Y-82589815D01*
X195002206Y-82590162D01*
X195002210Y-82590163D01*
X195007648Y-82590500D01*
X195007646Y-82590531D01*
X195011770Y-82590780D01*
X195015672Y-82591128D01*
X195022830Y-82592617D01*
X195099378Y-82590546D01*
X195102786Y-82590500D01*
X204326500Y-82590500D01*
X204394621Y-82610502D01*
X204441114Y-82664158D01*
X204452500Y-82716500D01*
X204452500Y-82739674D01*
X204467034Y-82812740D01*
X204473928Y-82823057D01*
X204473928Y-82823058D01*
X204502013Y-82865091D01*
X204523227Y-82932844D01*
X204504443Y-83001311D01*
X204457756Y-83045612D01*
X204449354Y-83050212D01*
X204347276Y-83126715D01*
X204334715Y-83139276D01*
X204258214Y-83241351D01*
X204249676Y-83256946D01*
X204204522Y-83377394D01*
X204200895Y-83392649D01*
X204195369Y-83443514D01*
X204195000Y-83450328D01*
X204195000Y-84097885D01*
X204199475Y-84113124D01*
X204200865Y-84114329D01*
X204208548Y-84116000D01*
X207831000Y-84116000D01*
X207899121Y-84136002D01*
X207945614Y-84189658D01*
X207957000Y-84242000D01*
X207957000Y-84498000D01*
X207936998Y-84566121D01*
X207883342Y-84612614D01*
X207831000Y-84624000D01*
X204213116Y-84624000D01*
X204197877Y-84628475D01*
X204196672Y-84629865D01*
X204195001Y-84637548D01*
X204195001Y-85289669D01*
X204195371Y-85296490D01*
X204200895Y-85347352D01*
X204204521Y-85362604D01*
X204249676Y-85483054D01*
X204258214Y-85498649D01*
X204334715Y-85600724D01*
X204347276Y-85613285D01*
X204449351Y-85689786D01*
X204464950Y-85698326D01*
X204479500Y-85703781D01*
X204536264Y-85746423D01*
X204560963Y-85812985D01*
X204545755Y-85882333D01*
X204528529Y-85905303D01*
X204522399Y-85909399D01*
X204467034Y-85992260D01*
X204452500Y-86065326D01*
X204452500Y-86488500D01*
X204432498Y-86556621D01*
X204378842Y-86603114D01*
X204326500Y-86614500D01*
X184315826Y-86614500D01*
X184296727Y-86612467D01*
X184291923Y-86612240D01*
X184281740Y-86610048D01*
X184271398Y-86611272D01*
X184251501Y-86613627D01*
X184246253Y-86613936D01*
X184246264Y-86614072D01*
X184241085Y-86614500D01*
X184235885Y-86614500D01*
X184230759Y-86615353D01*
X184230750Y-86615354D01*
X184218537Y-86617387D01*
X184212661Y-86618224D01*
X184176203Y-86622539D01*
X184176202Y-86622539D01*
X184165862Y-86623763D01*
X184158239Y-86627424D01*
X184149897Y-86628812D01*
X184140730Y-86633758D01*
X184140731Y-86633758D01*
X184108436Y-86651184D01*
X184103145Y-86653880D01*
X184060674Y-86674274D01*
X184056726Y-86677592D01*
X184054787Y-86679531D01*
X184053196Y-86680990D01*
X184052706Y-86681254D01*
X184052687Y-86681234D01*
X184052598Y-86681313D01*
X184047206Y-86684222D01*
X184040136Y-86691870D01*
X184040135Y-86691871D01*
X184013545Y-86720636D01*
X184010116Y-86724202D01*
X183221723Y-87512595D01*
X183159411Y-87546621D01*
X183132628Y-87549500D01*
X175526143Y-87549500D01*
X175458022Y-87529498D01*
X175411529Y-87475842D01*
X175401425Y-87405568D01*
X175430761Y-87341170D01*
X175558536Y-87193140D01*
X175558542Y-87193132D01*
X175562564Y-87188472D01*
X175583387Y-87151818D01*
X175661276Y-87014707D01*
X175664323Y-87009344D01*
X175729351Y-86813863D01*
X175755171Y-86609474D01*
X175755583Y-86580000D01*
X175735480Y-86374970D01*
X175675935Y-86177749D01*
X175579218Y-85995849D01*
X175505859Y-85905902D01*
X175452906Y-85840975D01*
X175452903Y-85840972D01*
X175449011Y-85836200D01*
X175420949Y-85812985D01*
X175295025Y-85708811D01*
X175295021Y-85708809D01*
X175290275Y-85704882D01*
X175109055Y-85606897D01*
X174912254Y-85545977D01*
X174906129Y-85545333D01*
X174906128Y-85545333D01*
X174713498Y-85525087D01*
X174713496Y-85525087D01*
X174707369Y-85524443D01*
X174620529Y-85532346D01*
X174508342Y-85542555D01*
X174508339Y-85542556D01*
X174502203Y-85543114D01*
X174304572Y-85601280D01*
X174122002Y-85696726D01*
X174117201Y-85700586D01*
X174117198Y-85700588D01*
X174106971Y-85708811D01*
X173961447Y-85825815D01*
X173829024Y-85983630D01*
X173826056Y-85989028D01*
X173826053Y-85989033D01*
X173784111Y-86065326D01*
X173729776Y-86164162D01*
X173667484Y-86360532D01*
X173666798Y-86366649D01*
X173666797Y-86366653D01*
X173653130Y-86488500D01*
X173644520Y-86565262D01*
X173645036Y-86571406D01*
X173654259Y-86681234D01*
X173661759Y-86770553D01*
X173718544Y-86968586D01*
X173721359Y-86974063D01*
X173721360Y-86974066D01*
X173742247Y-87014707D01*
X173812712Y-87151818D01*
X173940677Y-87313270D01*
X173945371Y-87317265D01*
X173945372Y-87317266D01*
X173957452Y-87327547D01*
X173996364Y-87386930D01*
X173996995Y-87457924D01*
X173959143Y-87517988D01*
X173894826Y-87548053D01*
X173875788Y-87549500D01*
X170400826Y-87549500D01*
X170381727Y-87547467D01*
X170376923Y-87547240D01*
X170366740Y-87545048D01*
X170356398Y-87546272D01*
X170336501Y-87548627D01*
X170331253Y-87548936D01*
X170331264Y-87549072D01*
X170326085Y-87549500D01*
X170320885Y-87549500D01*
X170315759Y-87550353D01*
X170315750Y-87550354D01*
X170303537Y-87552387D01*
X170297661Y-87553224D01*
X170261203Y-87557539D01*
X170261202Y-87557539D01*
X170250862Y-87558763D01*
X170243239Y-87562424D01*
X170234897Y-87563812D01*
X170193416Y-87586194D01*
X170188169Y-87588867D01*
X170145674Y-87609273D01*
X170141726Y-87612592D01*
X170139797Y-87614521D01*
X170138196Y-87615990D01*
X170137719Y-87616247D01*
X170137698Y-87616224D01*
X170137597Y-87616313D01*
X170132206Y-87619222D01*
X170125136Y-87626870D01*
X170125135Y-87626871D01*
X170098545Y-87655636D01*
X170095116Y-87659202D01*
X166038101Y-91716217D01*
X166023147Y-91728295D01*
X166019595Y-91731527D01*
X166010848Y-91737175D01*
X165992841Y-91760016D01*
X165991998Y-91761086D01*
X165988501Y-91765021D01*
X165988605Y-91765109D01*
X165985250Y-91769068D01*
X165981572Y-91772746D01*
X165978553Y-91776971D01*
X165978546Y-91776979D01*
X165971328Y-91787080D01*
X165967764Y-91791827D01*
X165938608Y-91828811D01*
X165935807Y-91836787D01*
X165930889Y-91843669D01*
X165917381Y-91888836D01*
X165915559Y-91894442D01*
X165902572Y-91931423D01*
X165902571Y-91931429D01*
X165899945Y-91938906D01*
X165899500Y-91944044D01*
X165899500Y-91946763D01*
X165899405Y-91948945D01*
X165899245Y-91949480D01*
X165899218Y-91949479D01*
X165899211Y-91949597D01*
X165897456Y-91955464D01*
X165899091Y-91997079D01*
X165899403Y-92005019D01*
X165899500Y-92009966D01*
X165899500Y-95035197D01*
X165879498Y-95103318D01*
X165856332Y-95130144D01*
X165763034Y-95211533D01*
X165672501Y-95340348D01*
X165615309Y-95487039D01*
X165614318Y-95494568D01*
X165600141Y-95602253D01*
X165594758Y-95643138D01*
X165612035Y-95799633D01*
X165666143Y-95947490D01*
X165670380Y-95953796D01*
X165670382Y-95953799D01*
X165710709Y-96013811D01*
X165753958Y-96078172D01*
X165759573Y-96083281D01*
X165759578Y-96083287D01*
X165858300Y-96173117D01*
X165895222Y-96233757D01*
X165899500Y-96266310D01*
X165899500Y-99473581D01*
X165879498Y-99541702D01*
X165825842Y-99588195D01*
X165772841Y-99599579D01*
X165674684Y-99599065D01*
X165667305Y-99600837D01*
X165667301Y-99600837D01*
X165528967Y-99634048D01*
X165528963Y-99634049D01*
X165521588Y-99635820D01*
X165381679Y-99708032D01*
X165375957Y-99713024D01*
X165375955Y-99713025D01*
X165268759Y-99806538D01*
X165268756Y-99806541D01*
X165263034Y-99811533D01*
X165234721Y-99851818D01*
X165180221Y-99929364D01*
X165172501Y-99940348D01*
X165115309Y-100087039D01*
X165114318Y-100094568D01*
X165096493Y-100229963D01*
X165094758Y-100243138D01*
X165112035Y-100399633D01*
X165166143Y-100547490D01*
X165170380Y-100553796D01*
X165170382Y-100553799D01*
X165185739Y-100576652D01*
X165253958Y-100678172D01*
X165370410Y-100784135D01*
X165382796Y-100790860D01*
X165502099Y-100855637D01*
X165502101Y-100855638D01*
X165508776Y-100859262D01*
X165516125Y-100861190D01*
X165653719Y-100897287D01*
X165653721Y-100897287D01*
X165661069Y-100899215D01*
X165744380Y-100900524D01*
X165810898Y-100901569D01*
X165810901Y-100901569D01*
X165818495Y-100901688D01*
X165971968Y-100866538D01*
X166112625Y-100795795D01*
X166138869Y-100773381D01*
X166226574Y-100698474D01*
X166226576Y-100698471D01*
X166232348Y-100693542D01*
X166324224Y-100565683D01*
X166382950Y-100419598D01*
X166395044Y-100334622D01*
X166404553Y-100267807D01*
X166404553Y-100267804D01*
X166405134Y-100263723D01*
X166405278Y-100250000D01*
X166395416Y-100168505D01*
X166407089Y-100098476D01*
X166431408Y-100064274D01*
X166461899Y-100033783D01*
X166476863Y-100021697D01*
X166480407Y-100018472D01*
X166489152Y-100012825D01*
X166508005Y-99988910D01*
X166511498Y-99984980D01*
X166511394Y-99984892D01*
X166514753Y-99980928D01*
X166518428Y-99977253D01*
X166525222Y-99967747D01*
X166528656Y-99962941D01*
X166532219Y-99958195D01*
X166554947Y-99929364D01*
X166561392Y-99921189D01*
X166564193Y-99913213D01*
X166569111Y-99906331D01*
X166582619Y-99861164D01*
X166584441Y-99855558D01*
X166597428Y-99818577D01*
X166597429Y-99818571D01*
X166600055Y-99811094D01*
X166600500Y-99805956D01*
X166600500Y-99803237D01*
X166600595Y-99801055D01*
X166600755Y-99800520D01*
X166600782Y-99800521D01*
X166600789Y-99800403D01*
X166602544Y-99794536D01*
X166600597Y-99744981D01*
X166600500Y-99740034D01*
X166600500Y-97523543D01*
X166620502Y-97455422D01*
X166674158Y-97408929D01*
X166744432Y-97398825D01*
X166811300Y-97430350D01*
X166858300Y-97473117D01*
X166895222Y-97533757D01*
X166899500Y-97566310D01*
X166899500Y-100135197D01*
X166879498Y-100203318D01*
X166856332Y-100230144D01*
X166763034Y-100311533D01*
X166740538Y-100343542D01*
X166682127Y-100426652D01*
X166672501Y-100440348D01*
X166615309Y-100587039D01*
X166614318Y-100594568D01*
X166597561Y-100721849D01*
X166594758Y-100743138D01*
X166612035Y-100899633D01*
X166666143Y-101047490D01*
X166670380Y-101053796D01*
X166670382Y-101053799D01*
X166682795Y-101072271D01*
X166753958Y-101178172D01*
X166870410Y-101284135D01*
X166877085Y-101287759D01*
X167002099Y-101355637D01*
X167002101Y-101355638D01*
X167008776Y-101359262D01*
X167016125Y-101361190D01*
X167153719Y-101397287D01*
X167153721Y-101397287D01*
X167161069Y-101399215D01*
X167244380Y-101400524D01*
X167310898Y-101401569D01*
X167310901Y-101401569D01*
X167318495Y-101401688D01*
X167471968Y-101366538D01*
X167612625Y-101295795D01*
X167688405Y-101231073D01*
X167726574Y-101198474D01*
X167726576Y-101198471D01*
X167732348Y-101193542D01*
X167824224Y-101065683D01*
X167882950Y-100919598D01*
X167898757Y-100808531D01*
X167925631Y-100749462D01*
X167902604Y-100713631D01*
X167898413Y-100693270D01*
X167887275Y-100601234D01*
X167886363Y-100593694D01*
X167879923Y-100576652D01*
X167833394Y-100453514D01*
X167833393Y-100453511D01*
X167830710Y-100446412D01*
X167741531Y-100316657D01*
X167642680Y-100228584D01*
X167605125Y-100168335D01*
X167600500Y-100134509D01*
X167600500Y-97564237D01*
X167620502Y-97496116D01*
X167644670Y-97468426D01*
X167726574Y-97398474D01*
X167726576Y-97398471D01*
X167732348Y-97393542D01*
X167824224Y-97265683D01*
X167882950Y-97119598D01*
X167898757Y-97008531D01*
X167925631Y-96949462D01*
X167902604Y-96913631D01*
X167898413Y-96893270D01*
X167887275Y-96801234D01*
X167886363Y-96793694D01*
X167864749Y-96736494D01*
X167833394Y-96653514D01*
X167833393Y-96653511D01*
X167830710Y-96646412D01*
X167741531Y-96516657D01*
X167642680Y-96428584D01*
X167605125Y-96368335D01*
X167600500Y-96334509D01*
X167600500Y-93776572D01*
X167620502Y-93708451D01*
X167637405Y-93687477D01*
X170537477Y-90787405D01*
X170599789Y-90753379D01*
X170626572Y-90750500D01*
X173821565Y-90750500D01*
X173889686Y-90770502D01*
X173936179Y-90824158D01*
X173946283Y-90894432D01*
X173918087Y-90957489D01*
X173829024Y-91063630D01*
X173826056Y-91069028D01*
X173826053Y-91069033D01*
X173792694Y-91129714D01*
X173729776Y-91244162D01*
X173667484Y-91440532D01*
X173666798Y-91446649D01*
X173666797Y-91446653D01*
X173663352Y-91477371D01*
X173644520Y-91645262D01*
X173647937Y-91685949D01*
X173661094Y-91842629D01*
X173661759Y-91850553D01*
X173663458Y-91856478D01*
X173715627Y-92038412D01*
X173718544Y-92048586D01*
X173721359Y-92054063D01*
X173721360Y-92054066D01*
X173809897Y-92226341D01*
X173812712Y-92231818D01*
X173816539Y-92236646D01*
X173902605Y-92345235D01*
X173929243Y-92411046D01*
X173916072Y-92480810D01*
X173867275Y-92532379D01*
X173803860Y-92549500D01*
X169950824Y-92549500D01*
X169931725Y-92547467D01*
X169926917Y-92547240D01*
X169916739Y-92545049D01*
X169886509Y-92548627D01*
X169881254Y-92548937D01*
X169881265Y-92549072D01*
X169876086Y-92549500D01*
X169870885Y-92549500D01*
X169865757Y-92550354D01*
X169865751Y-92550354D01*
X169853527Y-92552389D01*
X169847651Y-92553226D01*
X169811201Y-92557540D01*
X169811199Y-92557540D01*
X169800862Y-92558764D01*
X169793242Y-92562423D01*
X169784897Y-92563812D01*
X169743420Y-92586192D01*
X169738135Y-92588884D01*
X169695674Y-92609274D01*
X169691726Y-92612592D01*
X169689793Y-92614525D01*
X169688196Y-92615990D01*
X169687706Y-92616254D01*
X169687687Y-92616234D01*
X169687598Y-92616313D01*
X169682206Y-92619222D01*
X169675136Y-92626870D01*
X169675135Y-92626871D01*
X169648545Y-92655636D01*
X169645116Y-92659202D01*
X168288101Y-94016217D01*
X168273147Y-94028295D01*
X168269595Y-94031527D01*
X168260848Y-94037175D01*
X168254402Y-94045352D01*
X168241998Y-94061086D01*
X168238501Y-94065021D01*
X168238605Y-94065109D01*
X168235250Y-94069068D01*
X168231572Y-94072746D01*
X168228553Y-94076971D01*
X168228546Y-94076979D01*
X168221328Y-94087080D01*
X168217764Y-94091827D01*
X168209539Y-94102260D01*
X168188608Y-94128811D01*
X168185807Y-94136787D01*
X168180889Y-94143669D01*
X168167381Y-94188836D01*
X168165559Y-94194442D01*
X168152572Y-94231423D01*
X168152571Y-94231429D01*
X168149945Y-94238906D01*
X168149500Y-94244044D01*
X168149500Y-94246763D01*
X168149405Y-94248945D01*
X168149245Y-94249480D01*
X168149218Y-94249479D01*
X168149211Y-94249597D01*
X168147456Y-94255464D01*
X168147865Y-94265872D01*
X168149403Y-94305019D01*
X168149500Y-94309966D01*
X168149500Y-96878133D01*
X168129498Y-96946254D01*
X168122562Y-96952264D01*
X168148192Y-97008174D01*
X168149500Y-97026284D01*
X168149500Y-100678133D01*
X168129498Y-100746254D01*
X168122562Y-100752264D01*
X168148192Y-100808174D01*
X168149500Y-100826284D01*
X168149500Y-101885197D01*
X168129498Y-101953318D01*
X168106332Y-101980144D01*
X168013034Y-102061533D01*
X167922501Y-102190348D01*
X167865309Y-102337039D01*
X167864318Y-102344568D01*
X167846384Y-102480790D01*
X167844758Y-102493138D01*
X167862035Y-102649633D01*
X167916143Y-102797490D01*
X167920380Y-102803796D01*
X167920382Y-102803799D01*
X167950794Y-102849056D01*
X168003958Y-102928172D01*
X168120410Y-103034135D01*
X168141885Y-103045795D01*
X168252099Y-103105637D01*
X168252101Y-103105638D01*
X168258776Y-103109262D01*
X168266125Y-103111190D01*
X168403719Y-103147287D01*
X168403721Y-103147287D01*
X168411069Y-103149215D01*
X168494380Y-103150524D01*
X168560898Y-103151569D01*
X168560901Y-103151569D01*
X168568495Y-103151688D01*
X168721968Y-103116538D01*
X168862625Y-103045795D01*
X168888869Y-103023381D01*
X168976574Y-102948474D01*
X168976576Y-102948471D01*
X168982348Y-102943542D01*
X169074224Y-102815683D01*
X169132950Y-102669598D01*
X169155134Y-102513723D01*
X169155278Y-102500000D01*
X169136363Y-102343694D01*
X169102738Y-102254707D01*
X169083394Y-102203514D01*
X169083393Y-102203511D01*
X169080710Y-102196412D01*
X168991531Y-102066657D01*
X168892680Y-101978584D01*
X168855125Y-101918335D01*
X168850500Y-101884509D01*
X168850500Y-101805262D01*
X173644520Y-101805262D01*
X173645036Y-101811406D01*
X173659206Y-101980146D01*
X173661759Y-102010553D01*
X173663458Y-102016478D01*
X173713260Y-102190157D01*
X173718544Y-102208586D01*
X173721359Y-102214063D01*
X173721360Y-102214066D01*
X173788429Y-102344568D01*
X173812712Y-102391818D01*
X173940677Y-102553270D01*
X173945370Y-102557264D01*
X173945371Y-102557265D01*
X174085651Y-102676652D01*
X174097564Y-102686791D01*
X174277398Y-102787297D01*
X174343073Y-102808636D01*
X174467471Y-102849056D01*
X174467475Y-102849057D01*
X174473329Y-102850959D01*
X174677894Y-102875351D01*
X174684029Y-102874879D01*
X174684031Y-102874879D01*
X174740039Y-102870569D01*
X174883300Y-102859546D01*
X174889230Y-102857890D01*
X174889232Y-102857890D01*
X175075797Y-102805800D01*
X175075796Y-102805800D01*
X175081725Y-102804145D01*
X175087214Y-102801372D01*
X175087220Y-102801370D01*
X175260116Y-102714033D01*
X175265610Y-102711258D01*
X175427951Y-102584424D01*
X175490509Y-102511950D01*
X175558540Y-102433134D01*
X175558540Y-102433133D01*
X175562564Y-102428472D01*
X175583387Y-102391818D01*
X175661276Y-102254707D01*
X175664323Y-102249344D01*
X175729351Y-102053863D01*
X175755171Y-101849474D01*
X175755583Y-101820000D01*
X175735480Y-101614970D01*
X175675935Y-101417749D01*
X175579218Y-101235849D01*
X175505859Y-101145902D01*
X175452906Y-101080975D01*
X175452903Y-101080972D01*
X175449011Y-101076200D01*
X175436458Y-101065815D01*
X175295025Y-100948811D01*
X175295021Y-100948809D01*
X175290275Y-100944882D01*
X175109055Y-100846897D01*
X174912254Y-100785977D01*
X174906129Y-100785333D01*
X174906128Y-100785333D01*
X174713498Y-100765087D01*
X174713496Y-100765087D01*
X174707369Y-100764443D01*
X174620529Y-100772346D01*
X174508342Y-100782555D01*
X174508339Y-100782556D01*
X174502203Y-100783114D01*
X174304572Y-100841280D01*
X174122002Y-100936726D01*
X174117201Y-100940586D01*
X174117198Y-100940588D01*
X173976392Y-101053799D01*
X173961447Y-101065815D01*
X173829024Y-101223630D01*
X173826056Y-101229028D01*
X173826053Y-101229033D01*
X173756453Y-101355637D01*
X173729776Y-101404162D01*
X173667484Y-101600532D01*
X173666798Y-101606649D01*
X173666797Y-101606653D01*
X173645207Y-101799137D01*
X173644520Y-101805262D01*
X168850500Y-101805262D01*
X168850500Y-99265262D01*
X173644520Y-99265262D01*
X173645036Y-99271406D01*
X173661002Y-99461533D01*
X173661759Y-99470553D01*
X173663458Y-99476478D01*
X173716210Y-99660445D01*
X173718544Y-99668586D01*
X173721359Y-99674063D01*
X173721360Y-99674066D01*
X173809897Y-99846341D01*
X173812712Y-99851818D01*
X173940677Y-100013270D01*
X173945370Y-100017264D01*
X173945371Y-100017265D01*
X174083133Y-100134509D01*
X174097564Y-100146791D01*
X174277398Y-100247297D01*
X174372238Y-100278113D01*
X174467471Y-100309056D01*
X174467475Y-100309057D01*
X174473329Y-100310959D01*
X174677894Y-100335351D01*
X174684029Y-100334879D01*
X174684031Y-100334879D01*
X174740039Y-100330569D01*
X174883300Y-100319546D01*
X174889230Y-100317890D01*
X174889232Y-100317890D01*
X175075797Y-100265800D01*
X175075796Y-100265800D01*
X175081725Y-100264145D01*
X175087214Y-100261372D01*
X175087220Y-100261370D01*
X175260116Y-100174033D01*
X175265610Y-100171258D01*
X175427951Y-100044424D01*
X175445323Y-100024299D01*
X175558540Y-99893134D01*
X175558540Y-99893133D01*
X175562564Y-99888472D01*
X175583387Y-99851818D01*
X175618952Y-99789211D01*
X175664323Y-99709344D01*
X175729351Y-99513863D01*
X175755171Y-99309474D01*
X175755475Y-99287759D01*
X175755534Y-99283522D01*
X175755534Y-99283518D01*
X175755583Y-99280000D01*
X175735480Y-99074970D01*
X175675935Y-98877749D01*
X175579218Y-98695849D01*
X175495902Y-98593694D01*
X175452906Y-98540975D01*
X175452903Y-98540972D01*
X175449011Y-98536200D01*
X175341707Y-98447430D01*
X175295025Y-98408811D01*
X175295021Y-98408809D01*
X175290275Y-98404882D01*
X175109055Y-98306897D01*
X174912254Y-98245977D01*
X174906129Y-98245333D01*
X174906128Y-98245333D01*
X174713498Y-98225087D01*
X174713496Y-98225087D01*
X174707369Y-98224443D01*
X174644702Y-98230146D01*
X174508342Y-98242555D01*
X174508339Y-98242556D01*
X174502203Y-98243114D01*
X174304572Y-98301280D01*
X174299107Y-98304137D01*
X174213287Y-98349003D01*
X174122002Y-98396726D01*
X174117201Y-98400586D01*
X174117198Y-98400588D01*
X173966254Y-98521950D01*
X173961447Y-98525815D01*
X173829024Y-98683630D01*
X173826056Y-98689028D01*
X173826053Y-98689033D01*
X173782747Y-98767807D01*
X173729776Y-98864162D01*
X173667484Y-99060532D01*
X173666798Y-99066649D01*
X173666797Y-99066653D01*
X173652011Y-99198474D01*
X173644520Y-99265262D01*
X168850500Y-99265262D01*
X168850500Y-96725262D01*
X173644520Y-96725262D01*
X173661759Y-96930553D01*
X173663458Y-96936478D01*
X173715967Y-97119598D01*
X173718544Y-97128586D01*
X173721359Y-97134063D01*
X173721360Y-97134066D01*
X173742247Y-97174707D01*
X173812712Y-97311818D01*
X173940677Y-97473270D01*
X174097564Y-97606791D01*
X174277398Y-97707297D01*
X174372238Y-97738113D01*
X174467471Y-97769056D01*
X174467475Y-97769057D01*
X174473329Y-97770959D01*
X174677894Y-97795351D01*
X174684029Y-97794879D01*
X174684031Y-97794879D01*
X174740039Y-97790569D01*
X174883300Y-97779546D01*
X174889230Y-97777890D01*
X174889232Y-97777890D01*
X175075797Y-97725800D01*
X175075796Y-97725800D01*
X175081725Y-97724145D01*
X175087214Y-97721372D01*
X175087220Y-97721370D01*
X175260116Y-97634033D01*
X175265610Y-97631258D01*
X175427951Y-97504424D01*
X175435123Y-97496116D01*
X175558540Y-97353134D01*
X175558540Y-97353133D01*
X175562564Y-97348472D01*
X175583387Y-97311818D01*
X175661276Y-97174707D01*
X175664323Y-97169344D01*
X175729351Y-96973863D01*
X175755171Y-96769474D01*
X175755583Y-96740000D01*
X175735480Y-96534970D01*
X175675935Y-96337749D01*
X175579218Y-96155849D01*
X175505859Y-96065902D01*
X175452906Y-96000975D01*
X175452903Y-96000972D01*
X175449011Y-95996200D01*
X175431786Y-95981950D01*
X175295025Y-95868811D01*
X175295021Y-95868809D01*
X175290275Y-95864882D01*
X175109055Y-95766897D01*
X174912254Y-95705977D01*
X174906129Y-95705333D01*
X174906128Y-95705333D01*
X174713498Y-95685087D01*
X174713496Y-95685087D01*
X174707369Y-95684443D01*
X174620529Y-95692346D01*
X174508342Y-95702555D01*
X174508339Y-95702556D01*
X174502203Y-95703114D01*
X174304572Y-95761280D01*
X174122002Y-95856726D01*
X174117201Y-95860586D01*
X174117198Y-95860588D01*
X174106971Y-95868811D01*
X173961447Y-95985815D01*
X173829024Y-96143630D01*
X173826056Y-96149028D01*
X173826053Y-96149033D01*
X173784788Y-96224095D01*
X173729776Y-96324162D01*
X173727913Y-96330035D01*
X173676857Y-96490986D01*
X173667484Y-96520532D01*
X173666798Y-96526649D01*
X173666797Y-96526653D01*
X173653364Y-96646412D01*
X173644520Y-96725262D01*
X168850500Y-96725262D01*
X168850500Y-94497372D01*
X168870502Y-94429251D01*
X168887405Y-94408277D01*
X169761018Y-93534664D01*
X170008276Y-93287405D01*
X170070588Y-93253379D01*
X170097371Y-93250500D01*
X173855129Y-93250500D01*
X173923250Y-93270502D01*
X173969743Y-93324158D01*
X173979847Y-93394432D01*
X173951651Y-93457489D01*
X173829024Y-93603630D01*
X173826056Y-93609028D01*
X173826053Y-93609033D01*
X173779105Y-93694432D01*
X173729776Y-93784162D01*
X173667484Y-93980532D01*
X173666798Y-93986649D01*
X173666797Y-93986653D01*
X173650238Y-94134286D01*
X173644520Y-94185262D01*
X173645036Y-94191406D01*
X173659167Y-94359681D01*
X173661759Y-94390553D01*
X173663458Y-94396478D01*
X173678949Y-94450500D01*
X173718544Y-94588586D01*
X173721359Y-94594063D01*
X173721360Y-94594066D01*
X173742247Y-94634707D01*
X173812712Y-94771818D01*
X173940677Y-94933270D01*
X173945370Y-94937264D01*
X173945371Y-94937265D01*
X174059633Y-95034509D01*
X174097564Y-95066791D01*
X174102942Y-95069797D01*
X174102944Y-95069798D01*
X174134563Y-95087469D01*
X174277398Y-95167297D01*
X174350342Y-95190998D01*
X174467471Y-95229056D01*
X174467475Y-95229057D01*
X174473329Y-95230959D01*
X174677894Y-95255351D01*
X174684029Y-95254879D01*
X174684031Y-95254879D01*
X174740039Y-95250569D01*
X174883300Y-95239546D01*
X174889230Y-95237890D01*
X174889232Y-95237890D01*
X175075797Y-95185800D01*
X175075796Y-95185800D01*
X175081725Y-95184145D01*
X175087214Y-95181372D01*
X175087220Y-95181370D01*
X175260116Y-95094033D01*
X175265610Y-95091258D01*
X175427951Y-94964424D01*
X175562564Y-94808472D01*
X175583387Y-94771818D01*
X175661276Y-94634707D01*
X175664323Y-94629344D01*
X175729351Y-94433863D01*
X175755171Y-94229474D01*
X175755583Y-94200000D01*
X175735480Y-93994970D01*
X175675935Y-93797749D01*
X175579218Y-93615849D01*
X175449011Y-93456200D01*
X175451331Y-93454308D01*
X175423469Y-93403283D01*
X175428534Y-93332468D01*
X175471081Y-93275632D01*
X175537601Y-93250821D01*
X175546590Y-93250500D01*
X177049176Y-93250500D01*
X177068275Y-93252533D01*
X177073083Y-93252760D01*
X177083261Y-93254951D01*
X177113491Y-93251373D01*
X177118746Y-93251063D01*
X177118735Y-93250928D01*
X177123914Y-93250500D01*
X177129115Y-93250500D01*
X177134243Y-93249646D01*
X177134249Y-93249646D01*
X177146473Y-93247611D01*
X177152349Y-93246774D01*
X177188799Y-93242460D01*
X177188801Y-93242460D01*
X177199138Y-93241236D01*
X177206758Y-93237577D01*
X177215103Y-93236188D01*
X177256584Y-93213806D01*
X177261870Y-93211113D01*
X177304326Y-93190726D01*
X177308274Y-93187408D01*
X177310207Y-93185475D01*
X177311804Y-93184010D01*
X177312294Y-93183746D01*
X177312313Y-93183766D01*
X177312402Y-93183687D01*
X177317794Y-93180778D01*
X177351455Y-93144364D01*
X177354884Y-93140798D01*
X177457281Y-93038401D01*
X177519593Y-93004375D01*
X177548683Y-93001517D01*
X177553521Y-93001606D01*
X177553525Y-93001606D01*
X177562499Y-93001770D01*
X177566256Y-93000746D01*
X177570217Y-93000500D01*
X178462915Y-93000500D01*
X178487496Y-93002921D01*
X178487828Y-93002987D01*
X178487829Y-93002987D01*
X178500000Y-93005408D01*
X178512171Y-93002987D01*
X178516434Y-93002987D01*
X178535592Y-93001277D01*
X178553522Y-93001606D01*
X178553526Y-93001606D01*
X178562499Y-93001770D01*
X178619691Y-92986178D01*
X178692158Y-92966421D01*
X178692160Y-92966420D01*
X178700817Y-92964060D01*
X178822991Y-92889045D01*
X178829015Y-92882390D01*
X178832427Y-92879557D01*
X178897615Y-92851432D01*
X178912913Y-92850500D01*
X179049176Y-92850500D01*
X179068275Y-92852533D01*
X179073083Y-92852760D01*
X179083261Y-92854951D01*
X179113491Y-92851373D01*
X179118746Y-92851063D01*
X179118735Y-92850928D01*
X179123914Y-92850500D01*
X179129115Y-92850500D01*
X179134243Y-92849646D01*
X179134249Y-92849646D01*
X179146473Y-92847611D01*
X179152349Y-92846774D01*
X179188799Y-92842460D01*
X179188801Y-92842460D01*
X179199138Y-92841236D01*
X179206758Y-92837577D01*
X179215103Y-92836188D01*
X179256584Y-92813806D01*
X179261870Y-92811113D01*
X179304326Y-92790726D01*
X179308274Y-92787408D01*
X179310207Y-92785475D01*
X179311804Y-92784010D01*
X179312294Y-92783746D01*
X179312313Y-92783766D01*
X179312402Y-92783687D01*
X179317794Y-92780778D01*
X179339321Y-92757491D01*
X179351455Y-92744364D01*
X179354884Y-92740798D01*
X179408277Y-92687405D01*
X179470589Y-92653379D01*
X179497372Y-92650500D01*
X202153500Y-92650500D01*
X202221621Y-92670502D01*
X202268114Y-92724158D01*
X202279500Y-92776500D01*
X202279500Y-93324674D01*
X202294034Y-93397740D01*
X202300928Y-93408057D01*
X202300928Y-93408058D01*
X202309633Y-93421086D01*
X202349399Y-93480601D01*
X202359714Y-93487493D01*
X202421365Y-93528686D01*
X202432260Y-93535966D01*
X202505326Y-93550500D01*
X206961050Y-93550500D01*
X207029171Y-93570502D01*
X207075664Y-93624158D01*
X207085768Y-93694432D01*
X207056274Y-93759012D01*
X207050145Y-93765595D01*
X206903145Y-93912595D01*
X206840833Y-93946621D01*
X206814050Y-93949500D01*
X177037085Y-93949500D01*
X177012504Y-93947079D01*
X177012172Y-93947013D01*
X177012171Y-93947013D01*
X177000000Y-93944592D01*
X176975326Y-93949500D01*
X176902260Y-93964034D01*
X176891943Y-93970928D01*
X176891942Y-93970928D01*
X176868408Y-93986653D01*
X176819399Y-94019399D01*
X176764034Y-94102260D01*
X176744592Y-94200000D01*
X176747013Y-94212171D01*
X176747013Y-94212172D01*
X176747079Y-94212504D01*
X176749500Y-94237085D01*
X176749500Y-106123500D01*
X176729498Y-106191621D01*
X176675842Y-106238114D01*
X176623500Y-106249500D01*
X147876500Y-106249500D01*
X147808379Y-106229498D01*
X147761886Y-106175842D01*
X147750500Y-106123500D01*
X147750500Y-104345262D01*
X148244520Y-104345262D01*
X148261759Y-104550553D01*
X148318544Y-104748586D01*
X148321359Y-104754063D01*
X148321360Y-104754066D01*
X148342247Y-104794707D01*
X148412712Y-104931818D01*
X148540677Y-105093270D01*
X148697564Y-105226791D01*
X148877398Y-105327297D01*
X148972238Y-105358113D01*
X149067471Y-105389056D01*
X149067475Y-105389057D01*
X149073329Y-105390959D01*
X149277894Y-105415351D01*
X149284029Y-105414879D01*
X149284031Y-105414879D01*
X149340039Y-105410569D01*
X149483300Y-105399546D01*
X149489230Y-105397890D01*
X149489232Y-105397890D01*
X149675797Y-105345800D01*
X149675796Y-105345800D01*
X149681725Y-105344145D01*
X149687214Y-105341372D01*
X149687220Y-105341370D01*
X149860116Y-105254033D01*
X149865610Y-105251258D01*
X150027951Y-105124424D01*
X150162564Y-104968472D01*
X150183387Y-104931818D01*
X150261276Y-104794707D01*
X150264323Y-104789344D01*
X150329351Y-104593863D01*
X150355171Y-104389474D01*
X150355583Y-104360000D01*
X150354138Y-104345262D01*
X173644520Y-104345262D01*
X173661759Y-104550553D01*
X173718544Y-104748586D01*
X173721359Y-104754063D01*
X173721360Y-104754066D01*
X173742247Y-104794707D01*
X173812712Y-104931818D01*
X173940677Y-105093270D01*
X174097564Y-105226791D01*
X174277398Y-105327297D01*
X174372238Y-105358113D01*
X174467471Y-105389056D01*
X174467475Y-105389057D01*
X174473329Y-105390959D01*
X174677894Y-105415351D01*
X174684029Y-105414879D01*
X174684031Y-105414879D01*
X174740039Y-105410569D01*
X174883300Y-105399546D01*
X174889230Y-105397890D01*
X174889232Y-105397890D01*
X175075797Y-105345800D01*
X175075796Y-105345800D01*
X175081725Y-105344145D01*
X175087214Y-105341372D01*
X175087220Y-105341370D01*
X175260116Y-105254033D01*
X175265610Y-105251258D01*
X175427951Y-105124424D01*
X175562564Y-104968472D01*
X175583387Y-104931818D01*
X175661276Y-104794707D01*
X175664323Y-104789344D01*
X175729351Y-104593863D01*
X175755171Y-104389474D01*
X175755583Y-104360000D01*
X175735480Y-104154970D01*
X175675935Y-103957749D01*
X175579218Y-103775849D01*
X175505859Y-103685902D01*
X175452906Y-103620975D01*
X175452903Y-103620972D01*
X175449011Y-103616200D01*
X175431786Y-103601950D01*
X175295025Y-103488811D01*
X175295021Y-103488809D01*
X175290275Y-103484882D01*
X175109055Y-103386897D01*
X174912254Y-103325977D01*
X174906129Y-103325333D01*
X174906128Y-103325333D01*
X174713498Y-103305087D01*
X174713496Y-103305087D01*
X174707369Y-103304443D01*
X174620529Y-103312346D01*
X174508342Y-103322555D01*
X174508339Y-103322556D01*
X174502203Y-103323114D01*
X174304572Y-103381280D01*
X174122002Y-103476726D01*
X174117201Y-103480586D01*
X174117198Y-103480588D01*
X173966254Y-103601950D01*
X173961447Y-103605815D01*
X173829024Y-103763630D01*
X173826056Y-103769028D01*
X173826053Y-103769033D01*
X173819315Y-103781290D01*
X173729776Y-103944162D01*
X173667484Y-104140532D01*
X173666798Y-104146649D01*
X173666797Y-104146653D01*
X173645207Y-104339137D01*
X173644520Y-104345262D01*
X150354138Y-104345262D01*
X150335480Y-104154970D01*
X150275935Y-103957749D01*
X150179218Y-103775849D01*
X150105859Y-103685902D01*
X150052906Y-103620975D01*
X150052903Y-103620972D01*
X150049011Y-103616200D01*
X150031786Y-103601950D01*
X149895025Y-103488811D01*
X149895021Y-103488809D01*
X149890275Y-103484882D01*
X149709055Y-103386897D01*
X149512254Y-103325977D01*
X149506129Y-103325333D01*
X149506128Y-103325333D01*
X149313498Y-103305087D01*
X149313496Y-103305087D01*
X149307369Y-103304443D01*
X149220529Y-103312346D01*
X149108342Y-103322555D01*
X149108339Y-103322556D01*
X149102203Y-103323114D01*
X148904572Y-103381280D01*
X148722002Y-103476726D01*
X148717201Y-103480586D01*
X148717198Y-103480588D01*
X148566254Y-103601950D01*
X148561447Y-103605815D01*
X148429024Y-103763630D01*
X148426056Y-103769028D01*
X148426053Y-103769033D01*
X148419315Y-103781290D01*
X148329776Y-103944162D01*
X148267484Y-104140532D01*
X148266798Y-104146649D01*
X148266797Y-104146653D01*
X148245207Y-104339137D01*
X148244520Y-104345262D01*
X147750500Y-104345262D01*
X147750500Y-102893138D01*
X155144758Y-102893138D01*
X155162035Y-103049633D01*
X155216143Y-103197490D01*
X155220380Y-103203796D01*
X155220382Y-103203799D01*
X155260709Y-103263811D01*
X155303958Y-103328172D01*
X155420410Y-103434135D01*
X155427085Y-103437759D01*
X155552099Y-103505637D01*
X155552101Y-103505638D01*
X155558776Y-103509262D01*
X155566125Y-103511190D01*
X155703719Y-103547287D01*
X155703721Y-103547287D01*
X155711069Y-103549215D01*
X155794380Y-103550524D01*
X155860898Y-103551569D01*
X155860901Y-103551569D01*
X155868495Y-103551688D01*
X156021968Y-103516538D01*
X156162625Y-103445795D01*
X156233719Y-103385075D01*
X156276574Y-103348474D01*
X156276576Y-103348471D01*
X156282348Y-103343542D01*
X156374224Y-103215683D01*
X156432950Y-103069598D01*
X156451768Y-102937377D01*
X156454553Y-102917807D01*
X156454553Y-102917804D01*
X156455134Y-102913723D01*
X156455278Y-102900000D01*
X156436363Y-102743694D01*
X156422675Y-102707469D01*
X156383394Y-102603514D01*
X156383393Y-102603511D01*
X156380710Y-102596412D01*
X156376412Y-102590158D01*
X156376408Y-102590151D01*
X156322661Y-102511950D01*
X156300500Y-102440582D01*
X156300500Y-99893138D01*
X158844758Y-99893138D01*
X158862035Y-100049633D01*
X158916143Y-100197490D01*
X158920380Y-100203796D01*
X158920382Y-100203799D01*
X158949612Y-100247297D01*
X159003958Y-100328172D01*
X159026270Y-100348474D01*
X159078383Y-100395893D01*
X159120410Y-100434135D01*
X159180369Y-100466690D01*
X159252099Y-100505637D01*
X159252101Y-100505638D01*
X159258776Y-100509262D01*
X159266125Y-100511190D01*
X159403719Y-100547287D01*
X159403721Y-100547287D01*
X159411069Y-100549215D01*
X159494380Y-100550524D01*
X159560898Y-100551569D01*
X159560901Y-100551569D01*
X159568495Y-100551688D01*
X159721968Y-100516538D01*
X159862625Y-100445795D01*
X159921053Y-100395893D01*
X159924279Y-100393138D01*
X160644758Y-100393138D01*
X160662035Y-100549633D01*
X160716143Y-100697490D01*
X160720380Y-100703796D01*
X160720382Y-100703799D01*
X160746817Y-100743138D01*
X160803958Y-100828172D01*
X160821503Y-100844137D01*
X160879915Y-100897287D01*
X160920410Y-100934135D01*
X160941885Y-100945795D01*
X161052099Y-101005637D01*
X161052101Y-101005638D01*
X161058776Y-101009262D01*
X161066125Y-101011190D01*
X161203719Y-101047287D01*
X161203721Y-101047287D01*
X161211069Y-101049215D01*
X161294380Y-101050524D01*
X161360898Y-101051569D01*
X161360901Y-101051569D01*
X161368495Y-101051688D01*
X161521968Y-101016538D01*
X161662625Y-100945795D01*
X161714407Y-100901569D01*
X161776574Y-100848474D01*
X161776576Y-100848471D01*
X161782348Y-100843542D01*
X161874224Y-100715683D01*
X161932950Y-100569598D01*
X161955134Y-100413723D01*
X161955278Y-100400000D01*
X161945416Y-100318505D01*
X161957089Y-100248476D01*
X161981408Y-100214274D01*
X162411899Y-99783783D01*
X162426853Y-99771705D01*
X162430405Y-99768473D01*
X162439152Y-99762825D01*
X162458002Y-99738914D01*
X162461499Y-99734979D01*
X162461395Y-99734891D01*
X162464750Y-99730932D01*
X162468428Y-99727254D01*
X162471447Y-99723029D01*
X162471454Y-99723021D01*
X162478672Y-99712920D01*
X162482236Y-99708173D01*
X162504946Y-99679365D01*
X162511392Y-99671189D01*
X162514193Y-99663213D01*
X162519111Y-99656331D01*
X162532605Y-99611209D01*
X162534439Y-99605563D01*
X162547429Y-99568573D01*
X162547430Y-99568570D01*
X162550055Y-99561094D01*
X162550500Y-99555956D01*
X162550500Y-99553251D01*
X162550595Y-99551052D01*
X162550754Y-99550520D01*
X162550781Y-99550521D01*
X162550788Y-99550405D01*
X162552543Y-99544537D01*
X162550597Y-99494996D01*
X162550500Y-99490050D01*
X162550500Y-98743138D01*
X164094758Y-98743138D01*
X164112035Y-98899633D01*
X164166143Y-99047490D01*
X164170380Y-99053796D01*
X164170382Y-99053799D01*
X164184609Y-99074970D01*
X164253958Y-99178172D01*
X164276270Y-99198474D01*
X164362013Y-99276494D01*
X164370410Y-99284135D01*
X164423532Y-99312978D01*
X164502099Y-99355637D01*
X164502101Y-99355638D01*
X164508776Y-99359262D01*
X164516125Y-99361190D01*
X164653719Y-99397287D01*
X164653721Y-99397287D01*
X164661069Y-99399215D01*
X164744380Y-99400524D01*
X164810898Y-99401569D01*
X164810901Y-99401569D01*
X164818495Y-99401688D01*
X164971968Y-99366538D01*
X165112625Y-99295795D01*
X165155546Y-99259137D01*
X165226574Y-99198474D01*
X165226576Y-99198471D01*
X165232348Y-99193542D01*
X165324224Y-99065683D01*
X165382950Y-98919598D01*
X165405134Y-98763723D01*
X165405278Y-98750000D01*
X165386363Y-98593694D01*
X165330710Y-98446412D01*
X165241531Y-98316657D01*
X165142680Y-98228584D01*
X165105125Y-98168335D01*
X165100500Y-98134509D01*
X165100500Y-89697372D01*
X165120502Y-89629251D01*
X165137405Y-89608277D01*
X166185833Y-88559849D01*
X166248145Y-88525823D01*
X166286067Y-88524343D01*
X166286069Y-88524215D01*
X166288400Y-88524252D01*
X166288407Y-88524252D01*
X166364782Y-88525451D01*
X166435898Y-88526569D01*
X166435901Y-88526569D01*
X166443495Y-88526688D01*
X166596968Y-88491538D01*
X166737625Y-88420795D01*
X166789839Y-88376200D01*
X166851574Y-88323474D01*
X166851576Y-88323471D01*
X166857348Y-88318542D01*
X166949224Y-88190683D01*
X167007950Y-88044598D01*
X167020292Y-87957876D01*
X167029553Y-87892807D01*
X167029553Y-87892804D01*
X167030134Y-87888723D01*
X167030278Y-87875000D01*
X167029029Y-87864674D01*
X167012275Y-87726234D01*
X167011363Y-87718694D01*
X166988220Y-87657448D01*
X166958394Y-87578514D01*
X166958393Y-87578511D01*
X166955710Y-87571412D01*
X166866531Y-87441657D01*
X166767680Y-87353584D01*
X166730125Y-87293335D01*
X166725500Y-87259509D01*
X166725500Y-84025262D01*
X173644520Y-84025262D01*
X173661759Y-84230553D01*
X173718544Y-84428586D01*
X173721359Y-84434063D01*
X173721360Y-84434066D01*
X173789227Y-84566121D01*
X173812712Y-84611818D01*
X173940677Y-84773270D01*
X174097564Y-84906791D01*
X174277398Y-85007297D01*
X174372238Y-85038113D01*
X174467471Y-85069056D01*
X174467475Y-85069057D01*
X174473329Y-85070959D01*
X174677894Y-85095351D01*
X174684029Y-85094879D01*
X174684031Y-85094879D01*
X174740039Y-85090569D01*
X174883300Y-85079546D01*
X174889230Y-85077890D01*
X174889232Y-85077890D01*
X175075797Y-85025800D01*
X175075796Y-85025800D01*
X175081725Y-85024145D01*
X175087214Y-85021372D01*
X175087220Y-85021370D01*
X175260116Y-84934033D01*
X175265610Y-84931258D01*
X175427951Y-84804424D01*
X175562564Y-84648472D01*
X175583387Y-84611818D01*
X175661276Y-84474707D01*
X175664323Y-84469344D01*
X175729351Y-84273863D01*
X175755171Y-84069474D01*
X175755583Y-84040000D01*
X175735480Y-83834970D01*
X175675935Y-83637749D01*
X175579218Y-83455849D01*
X175505859Y-83365902D01*
X175452906Y-83300975D01*
X175452903Y-83300972D01*
X175449011Y-83296200D01*
X175431786Y-83281950D01*
X175295025Y-83168811D01*
X175295021Y-83168809D01*
X175290275Y-83164882D01*
X175109055Y-83066897D01*
X174912254Y-83005977D01*
X174906129Y-83005333D01*
X174906128Y-83005333D01*
X174713498Y-82985087D01*
X174713496Y-82985087D01*
X174707369Y-82984443D01*
X174620529Y-82992346D01*
X174508342Y-83002555D01*
X174508339Y-83002556D01*
X174502203Y-83003114D01*
X174304572Y-83061280D01*
X174122002Y-83156726D01*
X174117201Y-83160586D01*
X174117198Y-83160588D01*
X174106971Y-83168811D01*
X173961447Y-83285815D01*
X173829024Y-83443630D01*
X173826056Y-83449028D01*
X173826053Y-83449033D01*
X173819315Y-83461290D01*
X173729776Y-83624162D01*
X173667484Y-83820532D01*
X173666798Y-83826649D01*
X173666797Y-83826653D01*
X173645207Y-84019137D01*
X173644520Y-84025262D01*
X166725500Y-84025262D01*
X166725500Y-81485262D01*
X173644520Y-81485262D01*
X173661759Y-81690553D01*
X173718544Y-81888586D01*
X173721359Y-81894063D01*
X173721360Y-81894066D01*
X173809897Y-82066341D01*
X173812712Y-82071818D01*
X173940677Y-82233270D01*
X173945370Y-82237264D01*
X173945371Y-82237265D01*
X174089659Y-82360063D01*
X174097564Y-82366791D01*
X174102942Y-82369797D01*
X174102944Y-82369798D01*
X174164018Y-82403931D01*
X174277398Y-82467297D01*
X174334911Y-82485984D01*
X174467471Y-82529056D01*
X174467475Y-82529057D01*
X174473329Y-82530959D01*
X174677894Y-82555351D01*
X174684029Y-82554879D01*
X174684031Y-82554879D01*
X174740039Y-82550569D01*
X174883300Y-82539546D01*
X174889230Y-82537890D01*
X174889232Y-82537890D01*
X175075797Y-82485800D01*
X175075796Y-82485800D01*
X175081725Y-82484145D01*
X175087214Y-82481372D01*
X175087220Y-82481370D01*
X175240522Y-82403931D01*
X175265610Y-82391258D01*
X175427951Y-82264424D01*
X175465452Y-82220979D01*
X175558540Y-82113134D01*
X175558540Y-82113133D01*
X175562564Y-82108472D01*
X175583387Y-82071818D01*
X175661276Y-81934707D01*
X175664323Y-81929344D01*
X175729351Y-81733863D01*
X175755171Y-81529474D01*
X175755583Y-81500000D01*
X175735480Y-81294970D01*
X175675935Y-81097749D01*
X175579218Y-80915849D01*
X175505859Y-80825902D01*
X175452906Y-80760975D01*
X175452903Y-80760972D01*
X175449011Y-80756200D01*
X175431786Y-80741950D01*
X175295025Y-80628811D01*
X175295021Y-80628809D01*
X175290275Y-80624882D01*
X175109055Y-80526897D01*
X174912254Y-80465977D01*
X174906129Y-80465333D01*
X174906128Y-80465333D01*
X174713498Y-80445087D01*
X174713496Y-80445087D01*
X174707369Y-80444443D01*
X174640790Y-80450502D01*
X174508342Y-80462555D01*
X174508339Y-80462556D01*
X174502203Y-80463114D01*
X174304572Y-80521280D01*
X174122002Y-80616726D01*
X174117201Y-80620586D01*
X174117198Y-80620588D01*
X173982318Y-80729034D01*
X173961447Y-80745815D01*
X173829024Y-80903630D01*
X173826056Y-80909028D01*
X173826053Y-80909033D01*
X173748326Y-81050420D01*
X173729776Y-81084162D01*
X173727913Y-81090035D01*
X173676739Y-81251358D01*
X173667484Y-81280532D01*
X173666798Y-81286649D01*
X173666797Y-81286653D01*
X173654365Y-81397490D01*
X173644520Y-81485262D01*
X166725500Y-81485262D01*
X166725500Y-80335589D01*
X166745502Y-80267468D01*
X166769670Y-80239778D01*
X166876574Y-80148474D01*
X166876576Y-80148471D01*
X166882348Y-80143542D01*
X166974224Y-80015683D01*
X167032950Y-79869598D01*
X167045488Y-79781500D01*
X167054553Y-79717807D01*
X167054553Y-79717804D01*
X167055134Y-79713723D01*
X167055278Y-79700000D01*
X167036363Y-79543694D01*
X166980710Y-79396412D01*
X166891531Y-79266657D01*
X166809829Y-79193863D01*
X166779648Y-79166972D01*
X166779645Y-79166970D01*
X166773976Y-79161919D01*
X166634831Y-79088245D01*
X166618122Y-79084048D01*
X166489498Y-79051740D01*
X166489496Y-79051740D01*
X166482128Y-79049889D01*
X166474530Y-79049849D01*
X166474528Y-79049849D01*
X166407319Y-79049497D01*
X166324684Y-79049065D01*
X166317305Y-79050837D01*
X166317301Y-79050837D01*
X166178967Y-79084048D01*
X166178963Y-79084049D01*
X166171588Y-79085820D01*
X166031679Y-79158032D01*
X166025957Y-79163024D01*
X166025955Y-79163025D01*
X165918759Y-79256538D01*
X165918756Y-79256541D01*
X165913034Y-79261533D01*
X165908667Y-79267747D01*
X165848001Y-79354066D01*
X165822501Y-79390348D01*
X165765309Y-79537039D01*
X165764318Y-79544568D01*
X165747080Y-79675502D01*
X165744758Y-79693138D01*
X165762035Y-79849633D01*
X165816143Y-79997490D01*
X165820380Y-80003796D01*
X165820382Y-80003799D01*
X165860709Y-80063811D01*
X165903958Y-80128172D01*
X165909573Y-80133281D01*
X165909578Y-80133287D01*
X165983300Y-80200369D01*
X166020222Y-80261009D01*
X166024500Y-80293562D01*
X166024500Y-87260197D01*
X166004498Y-87328318D01*
X165981332Y-87355144D01*
X165888034Y-87436533D01*
X165860407Y-87475842D01*
X165809036Y-87548936D01*
X165797501Y-87565348D01*
X165740309Y-87712039D01*
X165739318Y-87719568D01*
X165721029Y-87858487D01*
X165719758Y-87868138D01*
X165727442Y-87937740D01*
X165729665Y-87957876D01*
X165717259Y-88027780D01*
X165693521Y-88060797D01*
X164538101Y-89216217D01*
X164523147Y-89228295D01*
X164519595Y-89231527D01*
X164510848Y-89237175D01*
X164504402Y-89245352D01*
X164491998Y-89261086D01*
X164488501Y-89265021D01*
X164488605Y-89265109D01*
X164485250Y-89269068D01*
X164481572Y-89272746D01*
X164478553Y-89276971D01*
X164478546Y-89276979D01*
X164471328Y-89287080D01*
X164467764Y-89291827D01*
X164438608Y-89328811D01*
X164435807Y-89336787D01*
X164430889Y-89343669D01*
X164417381Y-89388836D01*
X164415559Y-89394442D01*
X164402572Y-89431423D01*
X164402571Y-89431429D01*
X164399945Y-89438906D01*
X164399500Y-89444044D01*
X164399500Y-89446763D01*
X164399405Y-89448945D01*
X164399245Y-89449480D01*
X164399218Y-89449479D01*
X164399211Y-89449597D01*
X164397456Y-89455464D01*
X164397865Y-89465872D01*
X164399403Y-89505019D01*
X164399500Y-89509966D01*
X164399500Y-98135197D01*
X164379498Y-98203318D01*
X164356332Y-98230144D01*
X164263034Y-98311533D01*
X164258667Y-98317747D01*
X164194666Y-98408811D01*
X164172501Y-98440348D01*
X164115309Y-98587039D01*
X164114318Y-98594568D01*
X164100984Y-98695849D01*
X164094758Y-98743138D01*
X162550500Y-98743138D01*
X162550500Y-79214237D01*
X162570502Y-79146116D01*
X162594670Y-79118426D01*
X162676574Y-79048474D01*
X162676576Y-79048471D01*
X162682348Y-79043542D01*
X162774224Y-78915683D01*
X162832950Y-78769598D01*
X162843054Y-78698605D01*
X162854553Y-78617807D01*
X162854553Y-78617804D01*
X162855134Y-78613723D01*
X162855278Y-78600000D01*
X162836363Y-78443694D01*
X162821865Y-78405326D01*
X162783394Y-78303514D01*
X162783393Y-78303511D01*
X162780710Y-78296412D01*
X162691531Y-78166657D01*
X162599749Y-78084882D01*
X162579648Y-78066972D01*
X162579645Y-78066970D01*
X162573976Y-78061919D01*
X162434831Y-77988245D01*
X162418122Y-77984048D01*
X162289498Y-77951740D01*
X162289496Y-77951740D01*
X162282128Y-77949889D01*
X162274530Y-77949849D01*
X162274528Y-77949849D01*
X162207319Y-77949497D01*
X162124684Y-77949065D01*
X162117305Y-77950837D01*
X162117301Y-77950837D01*
X161978967Y-77984048D01*
X161978963Y-77984049D01*
X161971588Y-77985820D01*
X161964843Y-77989301D01*
X161964844Y-77989301D01*
X161871698Y-78037377D01*
X161831679Y-78058032D01*
X161825957Y-78063024D01*
X161825955Y-78063025D01*
X161718759Y-78156538D01*
X161718756Y-78156541D01*
X161713034Y-78161533D01*
X161700407Y-78179500D01*
X161648048Y-78253999D01*
X161622501Y-78290348D01*
X161565309Y-78437039D01*
X161564318Y-78444568D01*
X161550433Y-78550035D01*
X161544758Y-78593138D01*
X161562035Y-78749633D01*
X161616143Y-78897490D01*
X161620380Y-78903796D01*
X161620382Y-78903799D01*
X161652373Y-78951406D01*
X161703958Y-79028172D01*
X161709573Y-79033281D01*
X161709578Y-79033287D01*
X161808300Y-79123117D01*
X161845222Y-79183757D01*
X161849500Y-79216310D01*
X161849500Y-99302628D01*
X161829498Y-99370749D01*
X161812595Y-99391723D01*
X161489151Y-99715167D01*
X161426839Y-99749193D01*
X161386476Y-99750981D01*
X161382128Y-99749889D01*
X161374533Y-99749849D01*
X161374531Y-99749849D01*
X161304921Y-99749485D01*
X161224684Y-99749065D01*
X161217305Y-99750837D01*
X161217301Y-99750837D01*
X161078967Y-99784048D01*
X161078963Y-99784049D01*
X161071588Y-99785820D01*
X160931679Y-99858032D01*
X160925957Y-99863024D01*
X160925955Y-99863025D01*
X160818759Y-99956538D01*
X160818756Y-99956541D01*
X160813034Y-99961533D01*
X160780068Y-100008439D01*
X160729800Y-100079963D01*
X160722501Y-100090348D01*
X160665309Y-100237039D01*
X160661523Y-100265800D01*
X160654385Y-100320018D01*
X160644758Y-100393138D01*
X159924279Y-100393138D01*
X159976574Y-100348474D01*
X159976576Y-100348471D01*
X159982348Y-100343542D01*
X160074224Y-100215683D01*
X160132950Y-100069598D01*
X160141654Y-100008439D01*
X160154553Y-99917807D01*
X160154553Y-99917804D01*
X160155134Y-99913723D01*
X160155278Y-99900000D01*
X160136363Y-99743694D01*
X160104026Y-99658115D01*
X160083394Y-99603514D01*
X160083393Y-99603511D01*
X160080710Y-99596412D01*
X159991531Y-99466657D01*
X159892680Y-99378584D01*
X159855125Y-99318335D01*
X159850500Y-99284509D01*
X159850500Y-74014237D01*
X159870502Y-73946116D01*
X159894670Y-73918426D01*
X159933251Y-73885475D01*
X173387483Y-73885475D01*
X173406472Y-74102519D01*
X173408375Y-74113312D01*
X173464764Y-74323761D01*
X173468510Y-74334053D01*
X173560586Y-74531511D01*
X173566069Y-74541006D01*
X173602509Y-74593048D01*
X173612988Y-74601424D01*
X173626434Y-74594356D01*
X174327978Y-73892812D01*
X174334356Y-73881132D01*
X175064408Y-73881132D01*
X175064539Y-73882965D01*
X175068790Y-73889580D01*
X175774287Y-74595077D01*
X175786062Y-74601507D01*
X175798077Y-74592211D01*
X175833931Y-74541006D01*
X175839414Y-74531511D01*
X175931490Y-74334053D01*
X175935236Y-74323761D01*
X175991625Y-74113312D01*
X175993528Y-74102519D01*
X176012517Y-73885475D01*
X176012517Y-73874525D01*
X175993528Y-73657481D01*
X175991625Y-73646688D01*
X175935236Y-73436239D01*
X175931490Y-73425947D01*
X175839414Y-73228489D01*
X175833931Y-73218994D01*
X175797491Y-73166952D01*
X175787012Y-73158576D01*
X175773566Y-73165644D01*
X175072022Y-73867188D01*
X175064408Y-73881132D01*
X174334356Y-73881132D01*
X174335592Y-73878868D01*
X174335461Y-73877035D01*
X174331210Y-73870420D01*
X173625713Y-73164923D01*
X173613938Y-73158493D01*
X173601923Y-73167789D01*
X173566069Y-73218994D01*
X173560586Y-73228489D01*
X173468510Y-73425947D01*
X173464764Y-73436239D01*
X173408375Y-73646688D01*
X173406472Y-73657481D01*
X173387483Y-73874525D01*
X173387483Y-73885475D01*
X159933251Y-73885475D01*
X159976574Y-73848474D01*
X159976576Y-73848471D01*
X159982348Y-73843542D01*
X160074224Y-73715683D01*
X160132950Y-73569598D01*
X160148724Y-73458765D01*
X160154553Y-73417807D01*
X160154553Y-73417804D01*
X160155134Y-73413723D01*
X160155278Y-73400000D01*
X160136363Y-73243694D01*
X160127030Y-73218994D01*
X160083394Y-73103514D01*
X160083393Y-73103511D01*
X160080710Y-73096412D01*
X159991531Y-72966657D01*
X159922413Y-72905075D01*
X159879648Y-72866972D01*
X159879645Y-72866970D01*
X159873976Y-72861919D01*
X159734831Y-72788245D01*
X159638936Y-72764158D01*
X159589498Y-72751740D01*
X159589496Y-72751740D01*
X159582128Y-72749889D01*
X159574530Y-72749849D01*
X159574528Y-72749849D01*
X159507319Y-72749497D01*
X159424684Y-72749065D01*
X159417305Y-72750837D01*
X159417301Y-72750837D01*
X159278967Y-72784048D01*
X159278963Y-72784049D01*
X159271588Y-72785820D01*
X159131679Y-72858032D01*
X159125957Y-72863024D01*
X159125955Y-72863025D01*
X159018759Y-72956538D01*
X159018756Y-72956541D01*
X159013034Y-72961533D01*
X158993256Y-72989674D01*
X158934653Y-73073058D01*
X158922501Y-73090348D01*
X158865309Y-73237039D01*
X158859175Y-73283630D01*
X158846563Y-73379431D01*
X158844758Y-73393138D01*
X158862035Y-73549633D01*
X158916143Y-73697490D01*
X158920380Y-73703796D01*
X158920382Y-73703799D01*
X158960709Y-73763811D01*
X159003958Y-73828172D01*
X159009573Y-73833281D01*
X159009578Y-73833287D01*
X159108300Y-73923117D01*
X159145222Y-73983757D01*
X159149500Y-74016310D01*
X159149500Y-99285197D01*
X159129498Y-99353318D01*
X159106332Y-99380144D01*
X159013034Y-99461533D01*
X158992992Y-99490050D01*
X158937805Y-99568573D01*
X158922501Y-99590348D01*
X158865309Y-99737039D01*
X158863461Y-99751079D01*
X158846078Y-99883114D01*
X158844758Y-99893138D01*
X156300500Y-99893138D01*
X156300500Y-81558857D01*
X156324177Y-81485331D01*
X156369793Y-81421849D01*
X156374224Y-81415683D01*
X156387636Y-81382321D01*
X156426094Y-81286653D01*
X156432950Y-81269598D01*
X156455134Y-81113723D01*
X156455278Y-81100000D01*
X156454348Y-81092310D01*
X156448860Y-81046968D01*
X156436363Y-80943694D01*
X156407481Y-80867260D01*
X156383394Y-80803514D01*
X156383393Y-80803511D01*
X156380710Y-80796412D01*
X156291531Y-80666657D01*
X156203739Y-80588437D01*
X156179648Y-80566972D01*
X156179645Y-80566970D01*
X156173976Y-80561919D01*
X156163623Y-80556437D01*
X156097223Y-80521280D01*
X156034831Y-80488245D01*
X156018122Y-80484048D01*
X155889498Y-80451740D01*
X155889496Y-80451740D01*
X155882128Y-80449889D01*
X155874530Y-80449849D01*
X155874528Y-80449849D01*
X155807319Y-80449497D01*
X155724684Y-80449065D01*
X155717305Y-80450837D01*
X155717301Y-80450837D01*
X155578967Y-80484048D01*
X155578963Y-80484049D01*
X155571588Y-80485820D01*
X155564843Y-80489301D01*
X155564844Y-80489301D01*
X155486326Y-80529827D01*
X155431679Y-80558032D01*
X155425957Y-80563024D01*
X155425955Y-80563025D01*
X155318759Y-80656538D01*
X155318756Y-80656541D01*
X155313034Y-80661533D01*
X155308667Y-80667747D01*
X155231526Y-80777507D01*
X155222501Y-80790348D01*
X155165309Y-80937039D01*
X155164318Y-80944568D01*
X155145940Y-81084162D01*
X155144758Y-81093138D01*
X155162035Y-81249633D01*
X155216143Y-81397490D01*
X155220380Y-81403796D01*
X155220382Y-81403799D01*
X155263486Y-81467943D01*
X155275124Y-81485262D01*
X155278081Y-81489663D01*
X155299500Y-81559939D01*
X155299500Y-102440941D01*
X155276587Y-102513392D01*
X155222501Y-102590348D01*
X155165309Y-102737039D01*
X155164318Y-102744568D01*
X155147100Y-102875351D01*
X155144758Y-102893138D01*
X147750500Y-102893138D01*
X147750500Y-101805262D01*
X148244520Y-101805262D01*
X148245036Y-101811406D01*
X148259206Y-101980146D01*
X148261759Y-102010553D01*
X148263458Y-102016478D01*
X148313260Y-102190157D01*
X148318544Y-102208586D01*
X148321359Y-102214063D01*
X148321360Y-102214066D01*
X148388429Y-102344568D01*
X148412712Y-102391818D01*
X148540677Y-102553270D01*
X148545370Y-102557264D01*
X148545371Y-102557265D01*
X148685651Y-102676652D01*
X148697564Y-102686791D01*
X148877398Y-102787297D01*
X148943073Y-102808636D01*
X149067471Y-102849056D01*
X149067475Y-102849057D01*
X149073329Y-102850959D01*
X149277894Y-102875351D01*
X149284029Y-102874879D01*
X149284031Y-102874879D01*
X149340039Y-102870569D01*
X149483300Y-102859546D01*
X149489230Y-102857890D01*
X149489232Y-102857890D01*
X149675797Y-102805800D01*
X149675796Y-102805800D01*
X149681725Y-102804145D01*
X149687214Y-102801372D01*
X149687220Y-102801370D01*
X149860116Y-102714033D01*
X149865610Y-102711258D01*
X150027951Y-102584424D01*
X150090509Y-102511950D01*
X150158540Y-102433134D01*
X150158540Y-102433133D01*
X150162564Y-102428472D01*
X150183387Y-102391818D01*
X150261276Y-102254707D01*
X150264323Y-102249344D01*
X150329351Y-102053863D01*
X150355171Y-101849474D01*
X150355583Y-101820000D01*
X150335480Y-101614970D01*
X150275935Y-101417749D01*
X150179218Y-101235849D01*
X150105859Y-101145902D01*
X150052906Y-101080975D01*
X150052903Y-101080972D01*
X150049011Y-101076200D01*
X150036458Y-101065815D01*
X149895025Y-100948811D01*
X149895021Y-100948809D01*
X149890275Y-100944882D01*
X149709055Y-100846897D01*
X149512254Y-100785977D01*
X149506129Y-100785333D01*
X149506128Y-100785333D01*
X149313498Y-100765087D01*
X149313496Y-100765087D01*
X149307369Y-100764443D01*
X149220529Y-100772346D01*
X149108342Y-100782555D01*
X149108339Y-100782556D01*
X149102203Y-100783114D01*
X148904572Y-100841280D01*
X148722002Y-100936726D01*
X148717201Y-100940586D01*
X148717198Y-100940588D01*
X148576392Y-101053799D01*
X148561447Y-101065815D01*
X148429024Y-101223630D01*
X148426056Y-101229028D01*
X148426053Y-101229033D01*
X148356453Y-101355637D01*
X148329776Y-101404162D01*
X148267484Y-101600532D01*
X148266798Y-101606649D01*
X148266797Y-101606653D01*
X148245207Y-101799137D01*
X148244520Y-101805262D01*
X147750500Y-101805262D01*
X147750500Y-99265262D01*
X148244520Y-99265262D01*
X148245036Y-99271406D01*
X148261002Y-99461533D01*
X148261759Y-99470553D01*
X148263458Y-99476478D01*
X148316210Y-99660445D01*
X148318544Y-99668586D01*
X148321359Y-99674063D01*
X148321360Y-99674066D01*
X148409897Y-99846341D01*
X148412712Y-99851818D01*
X148540677Y-100013270D01*
X148545370Y-100017264D01*
X148545371Y-100017265D01*
X148683133Y-100134509D01*
X148697564Y-100146791D01*
X148877398Y-100247297D01*
X148972238Y-100278113D01*
X149067471Y-100309056D01*
X149067475Y-100309057D01*
X149073329Y-100310959D01*
X149277894Y-100335351D01*
X149284029Y-100334879D01*
X149284031Y-100334879D01*
X149340039Y-100330569D01*
X149483300Y-100319546D01*
X149489230Y-100317890D01*
X149489232Y-100317890D01*
X149675797Y-100265800D01*
X149675796Y-100265800D01*
X149681725Y-100264145D01*
X149687214Y-100261372D01*
X149687220Y-100261370D01*
X149860116Y-100174033D01*
X149865610Y-100171258D01*
X150027951Y-100044424D01*
X150045323Y-100024299D01*
X150158540Y-99893134D01*
X150158540Y-99893133D01*
X150162564Y-99888472D01*
X150183387Y-99851818D01*
X150218952Y-99789211D01*
X150264323Y-99709344D01*
X150329351Y-99513863D01*
X150355171Y-99309474D01*
X150355475Y-99287759D01*
X150355534Y-99283522D01*
X150355534Y-99283518D01*
X150355583Y-99280000D01*
X150335480Y-99074970D01*
X150275935Y-98877749D01*
X150179218Y-98695849D01*
X150095902Y-98593694D01*
X150052906Y-98540975D01*
X150052903Y-98540972D01*
X150049011Y-98536200D01*
X149941707Y-98447430D01*
X149895025Y-98408811D01*
X149895021Y-98408809D01*
X149890275Y-98404882D01*
X149709055Y-98306897D01*
X149512254Y-98245977D01*
X149506129Y-98245333D01*
X149506128Y-98245333D01*
X149313498Y-98225087D01*
X149313496Y-98225087D01*
X149307369Y-98224443D01*
X149244702Y-98230146D01*
X149108342Y-98242555D01*
X149108339Y-98242556D01*
X149102203Y-98243114D01*
X148904572Y-98301280D01*
X148899107Y-98304137D01*
X148813287Y-98349003D01*
X148722002Y-98396726D01*
X148717201Y-98400586D01*
X148717198Y-98400588D01*
X148566254Y-98521950D01*
X148561447Y-98525815D01*
X148429024Y-98683630D01*
X148426056Y-98689028D01*
X148426053Y-98689033D01*
X148382747Y-98767807D01*
X148329776Y-98864162D01*
X148267484Y-99060532D01*
X148266798Y-99066649D01*
X148266797Y-99066653D01*
X148252011Y-99198474D01*
X148244520Y-99265262D01*
X147750500Y-99265262D01*
X147750500Y-96725262D01*
X148244520Y-96725262D01*
X148261759Y-96930553D01*
X148263458Y-96936478D01*
X148315967Y-97119598D01*
X148318544Y-97128586D01*
X148321359Y-97134063D01*
X148321360Y-97134066D01*
X148342247Y-97174707D01*
X148412712Y-97311818D01*
X148540677Y-97473270D01*
X148697564Y-97606791D01*
X148877398Y-97707297D01*
X148972238Y-97738113D01*
X149067471Y-97769056D01*
X149067475Y-97769057D01*
X149073329Y-97770959D01*
X149277894Y-97795351D01*
X149284029Y-97794879D01*
X149284031Y-97794879D01*
X149340039Y-97790569D01*
X149483300Y-97779546D01*
X149489230Y-97777890D01*
X149489232Y-97777890D01*
X149675797Y-97725800D01*
X149675796Y-97725800D01*
X149681725Y-97724145D01*
X149687214Y-97721372D01*
X149687220Y-97721370D01*
X149860116Y-97634033D01*
X149865610Y-97631258D01*
X150027951Y-97504424D01*
X150035123Y-97496116D01*
X150158540Y-97353134D01*
X150158540Y-97353133D01*
X150162564Y-97348472D01*
X150183387Y-97311818D01*
X150261276Y-97174707D01*
X150264323Y-97169344D01*
X150329351Y-96973863D01*
X150355171Y-96769474D01*
X150355583Y-96740000D01*
X150335480Y-96534970D01*
X150275935Y-96337749D01*
X150179218Y-96155849D01*
X150105859Y-96065902D01*
X150052906Y-96000975D01*
X150052903Y-96000972D01*
X150049011Y-95996200D01*
X150031786Y-95981950D01*
X149895025Y-95868811D01*
X149895021Y-95868809D01*
X149890275Y-95864882D01*
X149709055Y-95766897D01*
X149512254Y-95705977D01*
X149506129Y-95705333D01*
X149506128Y-95705333D01*
X149313498Y-95685087D01*
X149313496Y-95685087D01*
X149307369Y-95684443D01*
X149220529Y-95692346D01*
X149108342Y-95702555D01*
X149108339Y-95702556D01*
X149102203Y-95703114D01*
X148904572Y-95761280D01*
X148722002Y-95856726D01*
X148717201Y-95860586D01*
X148717198Y-95860588D01*
X148706971Y-95868811D01*
X148561447Y-95985815D01*
X148429024Y-96143630D01*
X148426056Y-96149028D01*
X148426053Y-96149033D01*
X148384788Y-96224095D01*
X148329776Y-96324162D01*
X148327913Y-96330035D01*
X148276857Y-96490986D01*
X148267484Y-96520532D01*
X148266798Y-96526649D01*
X148266797Y-96526653D01*
X148253364Y-96646412D01*
X148244520Y-96725262D01*
X147750500Y-96725262D01*
X147750500Y-94185262D01*
X148244520Y-94185262D01*
X148245036Y-94191406D01*
X148259167Y-94359681D01*
X148261759Y-94390553D01*
X148263458Y-94396478D01*
X148278949Y-94450500D01*
X148318544Y-94588586D01*
X148321359Y-94594063D01*
X148321360Y-94594066D01*
X148342247Y-94634707D01*
X148412712Y-94771818D01*
X148540677Y-94933270D01*
X148545370Y-94937264D01*
X148545371Y-94937265D01*
X148659633Y-95034509D01*
X148697564Y-95066791D01*
X148702942Y-95069797D01*
X148702944Y-95069798D01*
X148734563Y-95087469D01*
X148877398Y-95167297D01*
X148950342Y-95190998D01*
X149067471Y-95229056D01*
X149067475Y-95229057D01*
X149073329Y-95230959D01*
X149277894Y-95255351D01*
X149284029Y-95254879D01*
X149284031Y-95254879D01*
X149340039Y-95250569D01*
X149483300Y-95239546D01*
X149489230Y-95237890D01*
X149489232Y-95237890D01*
X149675797Y-95185800D01*
X149675796Y-95185800D01*
X149681725Y-95184145D01*
X149687214Y-95181372D01*
X149687220Y-95181370D01*
X149860116Y-95094033D01*
X149865610Y-95091258D01*
X150027951Y-94964424D01*
X150162564Y-94808472D01*
X150183387Y-94771818D01*
X150261276Y-94634707D01*
X150264323Y-94629344D01*
X150329351Y-94433863D01*
X150355171Y-94229474D01*
X150355583Y-94200000D01*
X150335480Y-93994970D01*
X150275935Y-93797749D01*
X150179218Y-93615849D01*
X150103691Y-93523244D01*
X150052906Y-93460975D01*
X150052903Y-93460972D01*
X150049011Y-93456200D01*
X150006566Y-93421086D01*
X149895025Y-93328811D01*
X149895021Y-93328809D01*
X149890275Y-93324882D01*
X149709055Y-93226897D01*
X149567868Y-93183192D01*
X149508709Y-93143942D01*
X149480162Y-93078938D01*
X149491290Y-93008819D01*
X149538561Y-92955847D01*
X149572516Y-92941121D01*
X149743764Y-92895235D01*
X149754053Y-92891490D01*
X149951511Y-92799414D01*
X149961006Y-92793931D01*
X150013048Y-92757491D01*
X150021424Y-92747012D01*
X150014356Y-92733566D01*
X149312812Y-92032022D01*
X149298868Y-92024408D01*
X149297035Y-92024539D01*
X149290420Y-92028790D01*
X148584923Y-92734287D01*
X148578493Y-92746062D01*
X148587789Y-92758077D01*
X148638994Y-92793931D01*
X148648489Y-92799414D01*
X148845947Y-92891490D01*
X148856239Y-92895236D01*
X149028428Y-92941374D01*
X149089051Y-92978326D01*
X149120072Y-93042187D01*
X149111644Y-93112681D01*
X149066441Y-93167428D01*
X149031393Y-93183955D01*
X148904572Y-93221280D01*
X148899107Y-93224137D01*
X148870495Y-93239095D01*
X148722002Y-93316726D01*
X148717201Y-93320586D01*
X148717198Y-93320588D01*
X148595099Y-93418758D01*
X148561447Y-93445815D01*
X148429024Y-93603630D01*
X148426056Y-93609028D01*
X148426053Y-93609033D01*
X148379105Y-93694432D01*
X148329776Y-93784162D01*
X148267484Y-93980532D01*
X148266798Y-93986649D01*
X148266797Y-93986653D01*
X148250238Y-94134286D01*
X148244520Y-94185262D01*
X147750500Y-94185262D01*
X147750500Y-91842629D01*
X147770502Y-91774508D01*
X147824158Y-91728015D01*
X147894432Y-91717911D01*
X147959012Y-91747405D01*
X147997396Y-91807131D01*
X148002021Y-91831648D01*
X148006472Y-91882519D01*
X148008375Y-91893312D01*
X148064764Y-92103761D01*
X148068510Y-92114053D01*
X148160586Y-92311511D01*
X148166069Y-92321006D01*
X148202509Y-92373048D01*
X148212988Y-92381424D01*
X148226434Y-92374356D01*
X148927978Y-91672812D01*
X148934356Y-91661132D01*
X149664408Y-91661132D01*
X149664539Y-91662965D01*
X149668790Y-91669580D01*
X150374287Y-92375077D01*
X150386062Y-92381507D01*
X150398077Y-92372211D01*
X150433931Y-92321006D01*
X150439414Y-92311511D01*
X150531490Y-92114053D01*
X150535236Y-92103761D01*
X150591625Y-91893312D01*
X150593528Y-91882519D01*
X150612517Y-91665475D01*
X150612517Y-91654525D01*
X150593528Y-91437481D01*
X150591625Y-91426688D01*
X150535236Y-91216239D01*
X150531490Y-91205947D01*
X150439414Y-91008489D01*
X150433931Y-90998994D01*
X150397491Y-90946952D01*
X150387012Y-90938576D01*
X150373566Y-90945644D01*
X149672022Y-91647188D01*
X149664408Y-91661132D01*
X148934356Y-91661132D01*
X148935592Y-91658868D01*
X148935461Y-91657035D01*
X148931210Y-91650420D01*
X148225713Y-90944923D01*
X148213938Y-90938493D01*
X148201923Y-90947789D01*
X148166069Y-90998994D01*
X148160586Y-91008489D01*
X148068510Y-91205947D01*
X148064764Y-91216239D01*
X148008375Y-91426688D01*
X148006472Y-91437481D01*
X148002021Y-91488352D01*
X147976158Y-91554471D01*
X147918654Y-91596110D01*
X147847767Y-91600051D01*
X147786002Y-91565042D01*
X147752970Y-91502198D01*
X147750500Y-91477371D01*
X147750500Y-89105262D01*
X148244520Y-89105262D01*
X148245036Y-89111406D01*
X148260187Y-89291827D01*
X148261759Y-89310553D01*
X148263458Y-89316478D01*
X148303312Y-89455464D01*
X148318544Y-89508586D01*
X148321359Y-89514063D01*
X148321360Y-89514066D01*
X148342247Y-89554707D01*
X148412712Y-89691818D01*
X148540677Y-89853270D01*
X148545370Y-89857264D01*
X148545371Y-89857265D01*
X148669697Y-89963074D01*
X148697564Y-89986791D01*
X148877398Y-90087297D01*
X149032496Y-90137691D01*
X149091101Y-90177764D01*
X149118738Y-90243161D01*
X149106631Y-90313118D01*
X149058625Y-90365424D01*
X149026170Y-90379231D01*
X148856239Y-90424764D01*
X148845947Y-90428510D01*
X148648489Y-90520586D01*
X148638994Y-90526069D01*
X148586952Y-90562509D01*
X148578576Y-90572988D01*
X148585644Y-90586434D01*
X149287188Y-91287978D01*
X149301132Y-91295592D01*
X149302965Y-91295461D01*
X149309580Y-91291210D01*
X150015077Y-90585713D01*
X150021507Y-90573938D01*
X150012211Y-90561923D01*
X149961006Y-90526069D01*
X149951511Y-90520586D01*
X149754053Y-90428510D01*
X149743761Y-90424764D01*
X149571015Y-90378477D01*
X149510392Y-90341525D01*
X149479371Y-90277665D01*
X149487799Y-90207170D01*
X149533002Y-90152423D01*
X149569742Y-90135411D01*
X149681725Y-90104145D01*
X149687214Y-90101372D01*
X149687220Y-90101370D01*
X149819952Y-90034322D01*
X149865610Y-90011258D01*
X150027951Y-89884424D01*
X150065288Y-89841169D01*
X150158540Y-89733134D01*
X150158540Y-89733133D01*
X150162564Y-89728472D01*
X150183387Y-89691818D01*
X150261276Y-89554707D01*
X150264323Y-89549344D01*
X150329351Y-89353863D01*
X150355171Y-89149474D01*
X150355583Y-89120000D01*
X150335480Y-88914970D01*
X150298696Y-88793138D01*
X152244758Y-88793138D01*
X152262035Y-88949633D01*
X152316143Y-89097490D01*
X152320380Y-89103796D01*
X152320382Y-89103799D01*
X152354642Y-89154783D01*
X152403958Y-89228172D01*
X152520410Y-89334135D01*
X152541885Y-89345795D01*
X152652099Y-89405637D01*
X152652101Y-89405638D01*
X152658776Y-89409262D01*
X152666125Y-89411190D01*
X152803719Y-89447287D01*
X152803721Y-89447287D01*
X152811069Y-89449215D01*
X152894380Y-89450524D01*
X152960898Y-89451569D01*
X152960901Y-89451569D01*
X152968495Y-89451688D01*
X153121968Y-89416538D01*
X153262625Y-89345795D01*
X153303888Y-89310553D01*
X153376574Y-89248474D01*
X153376576Y-89248471D01*
X153382348Y-89243542D01*
X153474224Y-89115683D01*
X153480876Y-89099137D01*
X153530114Y-88976652D01*
X153532950Y-88969598D01*
X153555134Y-88813723D01*
X153555278Y-88800000D01*
X153536363Y-88643694D01*
X153504681Y-88559849D01*
X153483396Y-88503519D01*
X153483394Y-88503516D01*
X153480710Y-88496412D01*
X153472660Y-88484700D01*
X153450500Y-88413333D01*
X153450500Y-77414237D01*
X153470502Y-77346116D01*
X153494670Y-77318426D01*
X153576574Y-77248474D01*
X153576576Y-77248471D01*
X153582348Y-77243542D01*
X153674224Y-77115683D01*
X153732950Y-76969598D01*
X153749301Y-76854707D01*
X153754553Y-76817807D01*
X153754553Y-76817804D01*
X153755134Y-76813723D01*
X153755278Y-76800000D01*
X153736363Y-76643694D01*
X153680710Y-76496412D01*
X153591531Y-76366657D01*
X153544971Y-76325174D01*
X153479648Y-76266972D01*
X153479645Y-76266970D01*
X153473976Y-76261919D01*
X153334831Y-76188245D01*
X153318122Y-76184048D01*
X153189498Y-76151740D01*
X153189496Y-76151740D01*
X153182128Y-76149889D01*
X153174530Y-76149849D01*
X153174528Y-76149849D01*
X153107319Y-76149497D01*
X153024684Y-76149065D01*
X153017305Y-76150837D01*
X153017301Y-76150837D01*
X152878967Y-76184048D01*
X152878963Y-76184049D01*
X152871588Y-76185820D01*
X152731679Y-76258032D01*
X152725957Y-76263024D01*
X152725955Y-76263025D01*
X152618759Y-76356538D01*
X152618756Y-76356541D01*
X152613034Y-76361533D01*
X152522501Y-76490348D01*
X152465309Y-76637039D01*
X152444758Y-76793138D01*
X152462035Y-76949633D01*
X152516143Y-77097490D01*
X152520380Y-77103796D01*
X152520382Y-77103799D01*
X152550379Y-77148439D01*
X152603958Y-77228172D01*
X152609573Y-77233281D01*
X152609578Y-77233287D01*
X152708300Y-77323117D01*
X152745222Y-77383757D01*
X152749500Y-77416310D01*
X152749500Y-88070246D01*
X152729498Y-88138367D01*
X152675940Y-88184775D01*
X152671588Y-88185820D01*
X152583582Y-88231243D01*
X152544581Y-88251373D01*
X152531679Y-88258032D01*
X152525957Y-88263024D01*
X152525955Y-88263025D01*
X152418759Y-88356538D01*
X152418756Y-88356541D01*
X152413034Y-88361533D01*
X152408667Y-88367747D01*
X152344534Y-88458999D01*
X152322501Y-88490348D01*
X152265309Y-88637039D01*
X152264318Y-88644568D01*
X152257183Y-88698765D01*
X152244758Y-88793138D01*
X150298696Y-88793138D01*
X150275935Y-88717749D01*
X150179218Y-88535849D01*
X150079296Y-88413333D01*
X150052906Y-88380975D01*
X150052903Y-88380972D01*
X150049011Y-88376200D01*
X149994577Y-88331168D01*
X149895025Y-88248811D01*
X149895021Y-88248809D01*
X149890275Y-88244882D01*
X149709055Y-88146897D01*
X149512254Y-88085977D01*
X149506129Y-88085333D01*
X149506128Y-88085333D01*
X149313498Y-88065087D01*
X149313496Y-88065087D01*
X149307369Y-88064443D01*
X149220529Y-88072346D01*
X149108342Y-88082555D01*
X149108339Y-88082556D01*
X149102203Y-88083114D01*
X148904572Y-88141280D01*
X148722002Y-88236726D01*
X148717201Y-88240586D01*
X148717198Y-88240588D01*
X148614109Y-88323474D01*
X148561447Y-88365815D01*
X148429024Y-88523630D01*
X148426056Y-88529028D01*
X148426053Y-88529033D01*
X148375432Y-88621113D01*
X148329776Y-88704162D01*
X148267484Y-88900532D01*
X148266798Y-88906649D01*
X148266797Y-88906653D01*
X148258394Y-88981572D01*
X148244520Y-89105262D01*
X147750500Y-89105262D01*
X147750500Y-86565262D01*
X148244520Y-86565262D01*
X148245036Y-86571406D01*
X148254259Y-86681234D01*
X148261759Y-86770553D01*
X148318544Y-86968586D01*
X148321359Y-86974063D01*
X148321360Y-86974066D01*
X148342247Y-87014707D01*
X148412712Y-87151818D01*
X148540677Y-87313270D01*
X148545370Y-87317264D01*
X148545371Y-87317265D01*
X148691532Y-87441657D01*
X148697564Y-87446791D01*
X148702942Y-87449797D01*
X148702944Y-87449798D01*
X148787481Y-87497044D01*
X148877398Y-87547297D01*
X148943442Y-87568756D01*
X149067471Y-87609056D01*
X149067475Y-87609057D01*
X149073329Y-87610959D01*
X149277894Y-87635351D01*
X149284029Y-87634879D01*
X149284031Y-87634879D01*
X149340039Y-87630569D01*
X149483300Y-87619546D01*
X149489230Y-87617890D01*
X149489232Y-87617890D01*
X149675797Y-87565800D01*
X149675796Y-87565800D01*
X149681725Y-87564145D01*
X149687214Y-87561372D01*
X149687220Y-87561370D01*
X149860116Y-87474033D01*
X149865610Y-87471258D01*
X149916445Y-87431542D01*
X149970694Y-87389158D01*
X150027951Y-87344424D01*
X150035653Y-87335502D01*
X150158540Y-87193134D01*
X150158540Y-87193133D01*
X150162564Y-87188472D01*
X150183387Y-87151818D01*
X150261276Y-87014707D01*
X150264323Y-87009344D01*
X150329351Y-86813863D01*
X150355171Y-86609474D01*
X150355583Y-86580000D01*
X150335480Y-86374970D01*
X150275935Y-86177749D01*
X150179218Y-85995849D01*
X150105859Y-85905902D01*
X150052906Y-85840975D01*
X150052903Y-85840972D01*
X150049011Y-85836200D01*
X150020949Y-85812985D01*
X149895025Y-85708811D01*
X149895021Y-85708809D01*
X149890275Y-85704882D01*
X149709055Y-85606897D01*
X149512254Y-85545977D01*
X149506129Y-85545333D01*
X149506128Y-85545333D01*
X149313498Y-85525087D01*
X149313496Y-85525087D01*
X149307369Y-85524443D01*
X149220529Y-85532346D01*
X149108342Y-85542555D01*
X149108339Y-85542556D01*
X149102203Y-85543114D01*
X148904572Y-85601280D01*
X148722002Y-85696726D01*
X148717201Y-85700586D01*
X148717198Y-85700588D01*
X148706971Y-85708811D01*
X148561447Y-85825815D01*
X148429024Y-85983630D01*
X148426056Y-85989028D01*
X148426053Y-85989033D01*
X148384111Y-86065326D01*
X148329776Y-86164162D01*
X148267484Y-86360532D01*
X148266798Y-86366649D01*
X148266797Y-86366653D01*
X148253130Y-86488500D01*
X148244520Y-86565262D01*
X147750500Y-86565262D01*
X147750500Y-84025262D01*
X148244520Y-84025262D01*
X148261759Y-84230553D01*
X148318544Y-84428586D01*
X148321359Y-84434063D01*
X148321360Y-84434066D01*
X148389227Y-84566121D01*
X148412712Y-84611818D01*
X148540677Y-84773270D01*
X148697564Y-84906791D01*
X148877398Y-85007297D01*
X148972238Y-85038113D01*
X149067471Y-85069056D01*
X149067475Y-85069057D01*
X149073329Y-85070959D01*
X149277894Y-85095351D01*
X149284029Y-85094879D01*
X149284031Y-85094879D01*
X149340039Y-85090569D01*
X149483300Y-85079546D01*
X149489230Y-85077890D01*
X149489232Y-85077890D01*
X149675797Y-85025800D01*
X149675796Y-85025800D01*
X149681725Y-85024145D01*
X149687214Y-85021372D01*
X149687220Y-85021370D01*
X149860116Y-84934033D01*
X149865610Y-84931258D01*
X150027951Y-84804424D01*
X150162564Y-84648472D01*
X150183387Y-84611818D01*
X150261276Y-84474707D01*
X150264323Y-84469344D01*
X150329351Y-84273863D01*
X150355171Y-84069474D01*
X150355583Y-84040000D01*
X150335480Y-83834970D01*
X150275935Y-83637749D01*
X150179218Y-83455849D01*
X150105859Y-83365902D01*
X150052906Y-83300975D01*
X150052903Y-83300972D01*
X150049011Y-83296200D01*
X150031786Y-83281950D01*
X149895025Y-83168811D01*
X149895021Y-83168809D01*
X149890275Y-83164882D01*
X149709055Y-83066897D01*
X149512254Y-83005977D01*
X149506129Y-83005333D01*
X149506128Y-83005333D01*
X149313498Y-82985087D01*
X149313496Y-82985087D01*
X149307369Y-82984443D01*
X149220529Y-82992346D01*
X149108342Y-83002555D01*
X149108339Y-83002556D01*
X149102203Y-83003114D01*
X148904572Y-83061280D01*
X148722002Y-83156726D01*
X148717201Y-83160586D01*
X148717198Y-83160588D01*
X148706971Y-83168811D01*
X148561447Y-83285815D01*
X148429024Y-83443630D01*
X148426056Y-83449028D01*
X148426053Y-83449033D01*
X148419315Y-83461290D01*
X148329776Y-83624162D01*
X148267484Y-83820532D01*
X148266798Y-83826649D01*
X148266797Y-83826653D01*
X148245207Y-84019137D01*
X148244520Y-84025262D01*
X147750500Y-84025262D01*
X147750500Y-81485262D01*
X148244520Y-81485262D01*
X148261759Y-81690553D01*
X148318544Y-81888586D01*
X148321359Y-81894063D01*
X148321360Y-81894066D01*
X148409897Y-82066341D01*
X148412712Y-82071818D01*
X148540677Y-82233270D01*
X148545370Y-82237264D01*
X148545371Y-82237265D01*
X148689659Y-82360063D01*
X148697564Y-82366791D01*
X148702942Y-82369797D01*
X148702944Y-82369798D01*
X148764018Y-82403931D01*
X148877398Y-82467297D01*
X148934911Y-82485984D01*
X149067471Y-82529056D01*
X149067475Y-82529057D01*
X149073329Y-82530959D01*
X149277894Y-82555351D01*
X149284029Y-82554879D01*
X149284031Y-82554879D01*
X149340039Y-82550569D01*
X149483300Y-82539546D01*
X149489230Y-82537890D01*
X149489232Y-82537890D01*
X149675797Y-82485800D01*
X149675796Y-82485800D01*
X149681725Y-82484145D01*
X149687214Y-82481372D01*
X149687220Y-82481370D01*
X149840522Y-82403931D01*
X149865610Y-82391258D01*
X150027951Y-82264424D01*
X150065452Y-82220979D01*
X150158540Y-82113134D01*
X150158540Y-82113133D01*
X150162564Y-82108472D01*
X150183387Y-82071818D01*
X150261276Y-81934707D01*
X150264323Y-81929344D01*
X150329351Y-81733863D01*
X150355171Y-81529474D01*
X150355583Y-81500000D01*
X150335480Y-81294970D01*
X150275935Y-81097749D01*
X150179218Y-80915849D01*
X150105859Y-80825902D01*
X150052906Y-80760975D01*
X150052903Y-80760972D01*
X150049011Y-80756200D01*
X150031786Y-80741950D01*
X149895025Y-80628811D01*
X149895021Y-80628809D01*
X149890275Y-80624882D01*
X149709055Y-80526897D01*
X149512254Y-80465977D01*
X149506129Y-80465333D01*
X149506128Y-80465333D01*
X149313498Y-80445087D01*
X149313496Y-80445087D01*
X149307369Y-80444443D01*
X149240790Y-80450502D01*
X149108342Y-80462555D01*
X149108339Y-80462556D01*
X149102203Y-80463114D01*
X148904572Y-80521280D01*
X148722002Y-80616726D01*
X148717201Y-80620586D01*
X148717198Y-80620588D01*
X148582318Y-80729034D01*
X148561447Y-80745815D01*
X148429024Y-80903630D01*
X148426056Y-80909028D01*
X148426053Y-80909033D01*
X148348326Y-81050420D01*
X148329776Y-81084162D01*
X148327913Y-81090035D01*
X148276739Y-81251358D01*
X148267484Y-81280532D01*
X148266798Y-81286649D01*
X148266797Y-81286653D01*
X148254365Y-81397490D01*
X148244520Y-81485262D01*
X147750500Y-81485262D01*
X147750500Y-78945262D01*
X148244520Y-78945262D01*
X148245036Y-78951406D01*
X148253386Y-79050837D01*
X148261759Y-79150553D01*
X148263458Y-79156478D01*
X148313359Y-79330502D01*
X148318544Y-79348586D01*
X148321359Y-79354063D01*
X148321360Y-79354066D01*
X148409897Y-79526341D01*
X148412712Y-79531818D01*
X148540677Y-79693270D01*
X148697564Y-79826791D01*
X148702942Y-79829797D01*
X148702944Y-79829798D01*
X148734563Y-79847469D01*
X148877398Y-79927297D01*
X148972238Y-79958113D01*
X149067471Y-79989056D01*
X149067475Y-79989057D01*
X149073329Y-79990959D01*
X149277894Y-80015351D01*
X149284029Y-80014879D01*
X149284031Y-80014879D01*
X149340039Y-80010569D01*
X149483300Y-79999546D01*
X149489230Y-79997890D01*
X149489232Y-79997890D01*
X149675797Y-79945800D01*
X149675796Y-79945800D01*
X149681725Y-79944145D01*
X149687214Y-79941372D01*
X149687220Y-79941370D01*
X149860116Y-79854033D01*
X149865610Y-79851258D01*
X150027951Y-79724424D01*
X150040749Y-79709598D01*
X150158540Y-79573134D01*
X150158540Y-79573133D01*
X150162564Y-79568472D01*
X150165672Y-79563002D01*
X150256273Y-79403514D01*
X150264323Y-79389344D01*
X150329351Y-79193863D01*
X150355171Y-78989474D01*
X150355583Y-78960000D01*
X150335480Y-78754970D01*
X150275935Y-78557749D01*
X150179218Y-78375849D01*
X150104414Y-78284131D01*
X150052906Y-78220975D01*
X150052903Y-78220972D01*
X150049011Y-78216200D01*
X150042173Y-78210543D01*
X149895025Y-78088811D01*
X149895021Y-78088809D01*
X149890275Y-78084882D01*
X149709055Y-77986897D01*
X149512254Y-77925977D01*
X149506129Y-77925333D01*
X149506128Y-77925333D01*
X149313498Y-77905087D01*
X149313496Y-77905087D01*
X149307369Y-77904443D01*
X149220529Y-77912346D01*
X149108342Y-77922555D01*
X149108339Y-77922556D01*
X149102203Y-77923114D01*
X148904572Y-77981280D01*
X148722002Y-78076726D01*
X148717201Y-78080586D01*
X148717198Y-78080588D01*
X148650599Y-78134135D01*
X148561447Y-78205815D01*
X148429024Y-78363630D01*
X148426056Y-78369028D01*
X148426053Y-78369033D01*
X148384528Y-78444568D01*
X148329776Y-78544162D01*
X148267484Y-78740532D01*
X148266798Y-78746649D01*
X148266797Y-78746653D01*
X148257617Y-78828500D01*
X148244520Y-78945262D01*
X147750500Y-78945262D01*
X147750500Y-76405262D01*
X148244520Y-76405262D01*
X148245036Y-76411406D01*
X148252771Y-76503514D01*
X148261759Y-76610553D01*
X148263458Y-76616478D01*
X148300306Y-76744981D01*
X148318544Y-76808586D01*
X148321359Y-76814063D01*
X148321360Y-76814066D01*
X148409197Y-76984978D01*
X148412712Y-76991818D01*
X148540677Y-77153270D01*
X148545370Y-77157264D01*
X148545371Y-77157265D01*
X148652542Y-77248474D01*
X148697564Y-77286791D01*
X148702942Y-77289797D01*
X148702944Y-77289798D01*
X148782276Y-77334135D01*
X148877398Y-77387297D01*
X148966691Y-77416310D01*
X149067471Y-77449056D01*
X149067475Y-77449057D01*
X149073329Y-77450959D01*
X149277894Y-77475351D01*
X149284029Y-77474879D01*
X149284031Y-77474879D01*
X149340039Y-77470569D01*
X149483300Y-77459546D01*
X149489230Y-77457890D01*
X149489232Y-77457890D01*
X149613104Y-77423304D01*
X149681725Y-77404145D01*
X149687214Y-77401372D01*
X149687220Y-77401370D01*
X149842133Y-77323117D01*
X149865610Y-77311258D01*
X150027951Y-77184424D01*
X150052022Y-77156538D01*
X150158540Y-77033134D01*
X150158540Y-77033133D01*
X150162564Y-77028472D01*
X150183387Y-76991818D01*
X150207651Y-76949105D01*
X150264323Y-76849344D01*
X150329351Y-76653863D01*
X150355171Y-76449474D01*
X150355583Y-76420000D01*
X150335480Y-76214970D01*
X150275935Y-76017749D01*
X150179218Y-75835849D01*
X150101696Y-75740798D01*
X150052906Y-75680975D01*
X150052903Y-75680972D01*
X150049011Y-75676200D01*
X150031786Y-75661950D01*
X149895025Y-75548811D01*
X149895021Y-75548809D01*
X149890275Y-75544882D01*
X149743461Y-75465500D01*
X149714474Y-75449827D01*
X149709055Y-75446897D01*
X149512254Y-75385977D01*
X149506129Y-75385333D01*
X149506128Y-75385333D01*
X149313498Y-75365087D01*
X149313496Y-75365087D01*
X149307369Y-75364443D01*
X149220529Y-75372346D01*
X149108342Y-75382555D01*
X149108339Y-75382556D01*
X149102203Y-75383114D01*
X148904572Y-75441280D01*
X148899107Y-75444137D01*
X148858244Y-75465500D01*
X148722002Y-75536726D01*
X148717201Y-75540586D01*
X148717198Y-75540588D01*
X148706971Y-75548811D01*
X148561447Y-75665815D01*
X148429024Y-75823630D01*
X148426056Y-75829028D01*
X148426053Y-75829033D01*
X148384558Y-75904513D01*
X148329776Y-76004162D01*
X148307572Y-76074158D01*
X148271969Y-76186395D01*
X148267484Y-76200532D01*
X148266798Y-76206649D01*
X148266797Y-76206653D01*
X148249985Y-76356538D01*
X148244520Y-76405262D01*
X147750500Y-76405262D01*
X147750500Y-73865262D01*
X148244520Y-73865262D01*
X148247937Y-73905949D01*
X148260557Y-74056234D01*
X148261759Y-74070553D01*
X148263458Y-74076478D01*
X148312868Y-74248790D01*
X148318544Y-74268586D01*
X148321359Y-74274063D01*
X148321360Y-74274066D01*
X148342247Y-74314707D01*
X148412712Y-74451818D01*
X148540677Y-74613270D01*
X148697564Y-74746791D01*
X148702942Y-74749797D01*
X148702944Y-74749798D01*
X148734563Y-74767469D01*
X148877398Y-74847297D01*
X148972238Y-74878113D01*
X149067471Y-74909056D01*
X149067475Y-74909057D01*
X149073329Y-74910959D01*
X149277894Y-74935351D01*
X149284029Y-74934879D01*
X149284031Y-74934879D01*
X149340039Y-74930569D01*
X149483300Y-74919546D01*
X149489230Y-74917890D01*
X149489232Y-74917890D01*
X149675797Y-74865800D01*
X149675796Y-74865800D01*
X149681725Y-74864145D01*
X149687214Y-74861372D01*
X149687220Y-74861370D01*
X149860116Y-74774033D01*
X149865610Y-74771258D01*
X150027951Y-74644424D01*
X150065068Y-74601424D01*
X150158540Y-74493134D01*
X150158540Y-74493133D01*
X150162564Y-74488472D01*
X150183387Y-74451818D01*
X150261276Y-74314707D01*
X150264323Y-74309344D01*
X150329351Y-74113863D01*
X150355171Y-73909474D01*
X150355449Y-73889580D01*
X150355534Y-73883522D01*
X150355534Y-73883518D01*
X150355583Y-73880000D01*
X150335480Y-73674970D01*
X150275935Y-73477749D01*
X150179218Y-73295849D01*
X150101833Y-73200966D01*
X150052906Y-73140975D01*
X150052903Y-73140972D01*
X150049011Y-73136200D01*
X150025244Y-73116538D01*
X149895025Y-73008811D01*
X149895021Y-73008809D01*
X149890275Y-73004882D01*
X149709055Y-72906897D01*
X149512254Y-72845977D01*
X149506129Y-72845333D01*
X149506128Y-72845333D01*
X149313498Y-72825087D01*
X149313496Y-72825087D01*
X149307369Y-72824443D01*
X149220529Y-72832346D01*
X149108342Y-72842555D01*
X149108339Y-72842556D01*
X149102203Y-72843114D01*
X148904572Y-72901280D01*
X148722002Y-72996726D01*
X148717201Y-73000586D01*
X148717198Y-73000588D01*
X148605797Y-73090157D01*
X148561447Y-73125815D01*
X148429024Y-73283630D01*
X148426056Y-73289028D01*
X148426053Y-73289033D01*
X148359773Y-73409598D01*
X148329776Y-73464162D01*
X148267484Y-73660532D01*
X148266798Y-73666649D01*
X148266797Y-73666653D01*
X148247648Y-73837377D01*
X148244520Y-73865262D01*
X147750500Y-73865262D01*
X147750500Y-71325262D01*
X148244520Y-71325262D01*
X148245036Y-71331406D01*
X148256420Y-71466968D01*
X148261759Y-71530553D01*
X148263458Y-71536478D01*
X148308532Y-71693669D01*
X148318544Y-71728586D01*
X148321359Y-71734063D01*
X148321360Y-71734066D01*
X148409897Y-71906341D01*
X148412712Y-71911818D01*
X148540677Y-72073270D01*
X148545370Y-72077264D01*
X148545371Y-72077265D01*
X148685369Y-72196412D01*
X148697564Y-72206791D01*
X148877398Y-72307297D01*
X148947157Y-72329963D01*
X149067471Y-72369056D01*
X149067475Y-72369057D01*
X149073329Y-72370959D01*
X149277894Y-72395351D01*
X149284029Y-72394879D01*
X149284031Y-72394879D01*
X149340039Y-72390569D01*
X149483300Y-72379546D01*
X149489230Y-72377890D01*
X149489232Y-72377890D01*
X149675797Y-72325800D01*
X149675796Y-72325800D01*
X149681725Y-72324145D01*
X149687214Y-72321372D01*
X149687220Y-72321370D01*
X149860116Y-72234033D01*
X149865610Y-72231258D01*
X150027951Y-72104424D01*
X150059610Y-72067747D01*
X150158540Y-71953134D01*
X150158540Y-71953133D01*
X150162564Y-71948472D01*
X150183387Y-71911818D01*
X150247204Y-71799479D01*
X150264323Y-71769344D01*
X150329351Y-71573863D01*
X150355171Y-71369474D01*
X150355583Y-71340000D01*
X150354138Y-71325262D01*
X173644520Y-71325262D01*
X173645036Y-71331406D01*
X173656420Y-71466968D01*
X173661759Y-71530553D01*
X173663458Y-71536478D01*
X173708532Y-71693669D01*
X173718544Y-71728586D01*
X173721359Y-71734063D01*
X173721360Y-71734066D01*
X173809897Y-71906341D01*
X173812712Y-71911818D01*
X173940677Y-72073270D01*
X173945370Y-72077264D01*
X173945371Y-72077265D01*
X174085369Y-72196412D01*
X174097564Y-72206791D01*
X174277398Y-72307297D01*
X174432496Y-72357691D01*
X174491101Y-72397764D01*
X174518738Y-72463161D01*
X174506631Y-72533118D01*
X174458625Y-72585424D01*
X174426170Y-72599231D01*
X174256239Y-72644764D01*
X174245947Y-72648510D01*
X174048489Y-72740586D01*
X174038994Y-72746069D01*
X173986952Y-72782509D01*
X173978576Y-72792988D01*
X173985644Y-72806434D01*
X174687188Y-73507978D01*
X174701132Y-73515592D01*
X174702965Y-73515461D01*
X174709580Y-73511210D01*
X175415077Y-72805713D01*
X175421507Y-72793938D01*
X175412211Y-72781923D01*
X175361006Y-72746069D01*
X175351511Y-72740586D01*
X175154053Y-72648510D01*
X175143761Y-72644764D01*
X174971015Y-72598477D01*
X174910392Y-72561525D01*
X174879371Y-72497665D01*
X174887799Y-72427170D01*
X174933002Y-72372423D01*
X174969742Y-72355411D01*
X175081725Y-72324145D01*
X175087214Y-72321372D01*
X175087220Y-72321370D01*
X175260116Y-72234033D01*
X175265610Y-72231258D01*
X175427951Y-72104424D01*
X175459610Y-72067747D01*
X175558540Y-71953134D01*
X175558540Y-71953133D01*
X175562564Y-71948472D01*
X175583387Y-71911818D01*
X175647204Y-71799479D01*
X175664323Y-71769344D01*
X175729351Y-71573863D01*
X175755171Y-71369474D01*
X175755583Y-71340000D01*
X175735480Y-71134970D01*
X175675935Y-70937749D01*
X175579218Y-70755849D01*
X175505859Y-70665902D01*
X175452906Y-70600975D01*
X175452903Y-70600972D01*
X175449011Y-70596200D01*
X175431786Y-70581950D01*
X175295025Y-70468811D01*
X175295021Y-70468809D01*
X175290275Y-70464882D01*
X175109055Y-70366897D01*
X174912254Y-70305977D01*
X174906129Y-70305333D01*
X174906128Y-70305333D01*
X174713498Y-70285087D01*
X174713496Y-70285087D01*
X174707369Y-70284443D01*
X174620529Y-70292346D01*
X174508342Y-70302555D01*
X174508339Y-70302556D01*
X174502203Y-70303114D01*
X174304572Y-70361280D01*
X174122002Y-70456726D01*
X174117201Y-70460586D01*
X174117198Y-70460588D01*
X174106971Y-70468811D01*
X173961447Y-70585815D01*
X173829024Y-70743630D01*
X173826056Y-70749028D01*
X173826053Y-70749033D01*
X173819315Y-70761290D01*
X173729776Y-70924162D01*
X173667484Y-71120532D01*
X173666798Y-71126649D01*
X173666797Y-71126653D01*
X173645597Y-71315659D01*
X173644520Y-71325262D01*
X150354138Y-71325262D01*
X150335480Y-71134970D01*
X150275935Y-70937749D01*
X150179218Y-70755849D01*
X150105859Y-70665902D01*
X150052906Y-70600975D01*
X150052903Y-70600972D01*
X150049011Y-70596200D01*
X150031786Y-70581950D01*
X149895025Y-70468811D01*
X149895021Y-70468809D01*
X149890275Y-70464882D01*
X149709055Y-70366897D01*
X149512254Y-70305977D01*
X149506129Y-70305333D01*
X149506128Y-70305333D01*
X149313498Y-70285087D01*
X149313496Y-70285087D01*
X149307369Y-70284443D01*
X149220529Y-70292346D01*
X149108342Y-70302555D01*
X149108339Y-70302556D01*
X149102203Y-70303114D01*
X148904572Y-70361280D01*
X148722002Y-70456726D01*
X148717201Y-70460586D01*
X148717198Y-70460588D01*
X148706971Y-70468811D01*
X148561447Y-70585815D01*
X148429024Y-70743630D01*
X148426056Y-70749028D01*
X148426053Y-70749033D01*
X148419315Y-70761290D01*
X148329776Y-70924162D01*
X148267484Y-71120532D01*
X148266798Y-71126649D01*
X148266797Y-71126653D01*
X148245597Y-71315659D01*
X148244520Y-71325262D01*
X147750500Y-71325262D01*
X147750500Y-68785262D01*
X148244520Y-68785262D01*
X148261759Y-68990553D01*
X148318544Y-69188586D01*
X148321359Y-69194063D01*
X148321360Y-69194066D01*
X148342247Y-69234707D01*
X148412712Y-69371818D01*
X148540677Y-69533270D01*
X148697564Y-69666791D01*
X148877398Y-69767297D01*
X148972238Y-69798113D01*
X149067471Y-69829056D01*
X149067475Y-69829057D01*
X149073329Y-69830959D01*
X149277894Y-69855351D01*
X149284029Y-69854879D01*
X149284031Y-69854879D01*
X149340039Y-69850569D01*
X149483300Y-69839546D01*
X149489230Y-69837890D01*
X149489232Y-69837890D01*
X149675797Y-69785800D01*
X149675796Y-69785800D01*
X149681725Y-69784145D01*
X149687214Y-69781372D01*
X149687220Y-69781370D01*
X149860116Y-69694033D01*
X149865610Y-69691258D01*
X150027951Y-69564424D01*
X150162564Y-69408472D01*
X150183387Y-69371818D01*
X150261276Y-69234707D01*
X150264323Y-69229344D01*
X150329351Y-69033863D01*
X150355171Y-68829474D01*
X150355583Y-68800000D01*
X150354138Y-68785262D01*
X173644520Y-68785262D01*
X173661759Y-68990553D01*
X173718544Y-69188586D01*
X173721359Y-69194063D01*
X173721360Y-69194066D01*
X173742247Y-69234707D01*
X173812712Y-69371818D01*
X173940677Y-69533270D01*
X174097564Y-69666791D01*
X174277398Y-69767297D01*
X174372238Y-69798113D01*
X174467471Y-69829056D01*
X174467475Y-69829057D01*
X174473329Y-69830959D01*
X174677894Y-69855351D01*
X174684029Y-69854879D01*
X174684031Y-69854879D01*
X174740039Y-69850569D01*
X174883300Y-69839546D01*
X174889230Y-69837890D01*
X174889232Y-69837890D01*
X175075797Y-69785800D01*
X175075796Y-69785800D01*
X175081725Y-69784145D01*
X175087214Y-69781372D01*
X175087220Y-69781370D01*
X175260116Y-69694033D01*
X175265610Y-69691258D01*
X175427951Y-69564424D01*
X175562564Y-69408472D01*
X175583387Y-69371818D01*
X175661276Y-69234707D01*
X175664323Y-69229344D01*
X175729351Y-69033863D01*
X175755171Y-68829474D01*
X175755583Y-68800000D01*
X175735480Y-68594970D01*
X175675935Y-68397749D01*
X175579218Y-68215849D01*
X175505859Y-68125902D01*
X175452906Y-68060975D01*
X175452903Y-68060972D01*
X175449011Y-68056200D01*
X175431786Y-68041950D01*
X175295025Y-67928811D01*
X175295021Y-67928809D01*
X175290275Y-67924882D01*
X175109055Y-67826897D01*
X174912254Y-67765977D01*
X174906129Y-67765333D01*
X174906128Y-67765333D01*
X174713498Y-67745087D01*
X174713496Y-67745087D01*
X174707369Y-67744443D01*
X174620529Y-67752346D01*
X174508342Y-67762555D01*
X174508339Y-67762556D01*
X174502203Y-67763114D01*
X174304572Y-67821280D01*
X174122002Y-67916726D01*
X174117201Y-67920586D01*
X174117198Y-67920588D01*
X174106971Y-67928811D01*
X173961447Y-68045815D01*
X173829024Y-68203630D01*
X173826056Y-68209028D01*
X173826053Y-68209033D01*
X173819315Y-68221290D01*
X173729776Y-68384162D01*
X173667484Y-68580532D01*
X173666798Y-68586649D01*
X173666797Y-68586653D01*
X173645207Y-68779137D01*
X173644520Y-68785262D01*
X150354138Y-68785262D01*
X150335480Y-68594970D01*
X150275935Y-68397749D01*
X150179218Y-68215849D01*
X150105859Y-68125902D01*
X150052906Y-68060975D01*
X150052903Y-68060972D01*
X150049011Y-68056200D01*
X150031786Y-68041950D01*
X149895025Y-67928811D01*
X149895021Y-67928809D01*
X149890275Y-67924882D01*
X149709055Y-67826897D01*
X149512254Y-67765977D01*
X149506129Y-67765333D01*
X149506128Y-67765333D01*
X149313498Y-67745087D01*
X149313496Y-67745087D01*
X149307369Y-67744443D01*
X149220529Y-67752346D01*
X149108342Y-67762555D01*
X149108339Y-67762556D01*
X149102203Y-67763114D01*
X148904572Y-67821280D01*
X148722002Y-67916726D01*
X148717201Y-67920586D01*
X148717198Y-67920588D01*
X148706971Y-67928811D01*
X148561447Y-68045815D01*
X148429024Y-68203630D01*
X148426056Y-68209028D01*
X148426053Y-68209033D01*
X148419315Y-68221290D01*
X148329776Y-68384162D01*
X148267484Y-68580532D01*
X148266798Y-68586649D01*
X148266797Y-68586653D01*
X148245207Y-68779137D01*
X148244520Y-68785262D01*
X147750500Y-68785262D01*
X147750500Y-66245262D01*
X148244520Y-66245262D01*
X148261759Y-66450553D01*
X148318544Y-66648586D01*
X148321359Y-66654063D01*
X148321360Y-66654066D01*
X148342247Y-66694707D01*
X148412712Y-66831818D01*
X148540677Y-66993270D01*
X148697564Y-67126791D01*
X148877398Y-67227297D01*
X148972238Y-67258113D01*
X149067471Y-67289056D01*
X149067475Y-67289057D01*
X149073329Y-67290959D01*
X149277894Y-67315351D01*
X149284029Y-67314879D01*
X149284031Y-67314879D01*
X149340039Y-67310569D01*
X149483300Y-67299546D01*
X149489230Y-67297890D01*
X149489232Y-67297890D01*
X149675797Y-67245800D01*
X149675796Y-67245800D01*
X149681725Y-67244145D01*
X149687214Y-67241372D01*
X149687220Y-67241370D01*
X149860116Y-67154033D01*
X149865610Y-67151258D01*
X150027951Y-67024424D01*
X150162564Y-66868472D01*
X150183387Y-66831818D01*
X150261276Y-66694707D01*
X150264323Y-66689344D01*
X150329351Y-66493863D01*
X150355171Y-66289474D01*
X150355583Y-66260000D01*
X150354138Y-66245262D01*
X173644520Y-66245262D01*
X173661759Y-66450553D01*
X173718544Y-66648586D01*
X173721359Y-66654063D01*
X173721360Y-66654066D01*
X173742247Y-66694707D01*
X173812712Y-66831818D01*
X173940677Y-66993270D01*
X174097564Y-67126791D01*
X174277398Y-67227297D01*
X174372238Y-67258113D01*
X174467471Y-67289056D01*
X174467475Y-67289057D01*
X174473329Y-67290959D01*
X174677894Y-67315351D01*
X174684029Y-67314879D01*
X174684031Y-67314879D01*
X174740039Y-67310569D01*
X174883300Y-67299546D01*
X174889230Y-67297890D01*
X174889232Y-67297890D01*
X175075797Y-67245800D01*
X175075796Y-67245800D01*
X175081725Y-67244145D01*
X175087214Y-67241372D01*
X175087220Y-67241370D01*
X175260116Y-67154033D01*
X175265610Y-67151258D01*
X175427951Y-67024424D01*
X175562564Y-66868472D01*
X175583387Y-66831818D01*
X175661276Y-66694707D01*
X175664323Y-66689344D01*
X175729351Y-66493863D01*
X175755171Y-66289474D01*
X175755583Y-66260000D01*
X175735480Y-66054970D01*
X175675935Y-65857749D01*
X175579218Y-65675849D01*
X175505859Y-65585902D01*
X175452906Y-65520975D01*
X175452903Y-65520972D01*
X175449011Y-65516200D01*
X175431786Y-65501950D01*
X175295025Y-65388811D01*
X175295021Y-65388809D01*
X175290275Y-65384882D01*
X175109055Y-65286897D01*
X174912254Y-65225977D01*
X174906129Y-65225333D01*
X174906128Y-65225333D01*
X174713498Y-65205087D01*
X174713496Y-65205087D01*
X174707369Y-65204443D01*
X174620529Y-65212346D01*
X174508342Y-65222555D01*
X174508339Y-65222556D01*
X174502203Y-65223114D01*
X174304572Y-65281280D01*
X174122002Y-65376726D01*
X174117201Y-65380586D01*
X174117198Y-65380588D01*
X174106971Y-65388811D01*
X173961447Y-65505815D01*
X173829024Y-65663630D01*
X173826056Y-65669028D01*
X173826053Y-65669033D01*
X173819315Y-65681290D01*
X173729776Y-65844162D01*
X173667484Y-66040532D01*
X173666798Y-66046649D01*
X173666797Y-66046653D01*
X173645207Y-66239137D01*
X173644520Y-66245262D01*
X150354138Y-66245262D01*
X150335480Y-66054970D01*
X150275935Y-65857749D01*
X150179218Y-65675849D01*
X150105859Y-65585902D01*
X150052906Y-65520975D01*
X150052903Y-65520972D01*
X150049011Y-65516200D01*
X150031786Y-65501950D01*
X149895025Y-65388811D01*
X149895021Y-65388809D01*
X149890275Y-65384882D01*
X149709055Y-65286897D01*
X149512254Y-65225977D01*
X149506129Y-65225333D01*
X149506128Y-65225333D01*
X149313498Y-65205087D01*
X149313496Y-65205087D01*
X149307369Y-65204443D01*
X149220529Y-65212346D01*
X149108342Y-65222555D01*
X149108339Y-65222556D01*
X149102203Y-65223114D01*
X148904572Y-65281280D01*
X148722002Y-65376726D01*
X148717201Y-65380586D01*
X148717198Y-65380588D01*
X148706971Y-65388811D01*
X148561447Y-65505815D01*
X148429024Y-65663630D01*
X148426056Y-65669028D01*
X148426053Y-65669033D01*
X148419315Y-65681290D01*
X148329776Y-65844162D01*
X148267484Y-66040532D01*
X148266798Y-66046649D01*
X148266797Y-66046653D01*
X148245207Y-66239137D01*
X148244520Y-66245262D01*
X147750500Y-66245262D01*
X147750500Y-63705262D01*
X148244520Y-63705262D01*
X148261759Y-63910553D01*
X148318544Y-64108586D01*
X148321359Y-64114063D01*
X148321360Y-64114066D01*
X148342247Y-64154707D01*
X148412712Y-64291818D01*
X148540677Y-64453270D01*
X148697564Y-64586791D01*
X148877398Y-64687297D01*
X148972238Y-64718113D01*
X149067471Y-64749056D01*
X149067475Y-64749057D01*
X149073329Y-64750959D01*
X149277894Y-64775351D01*
X149284029Y-64774879D01*
X149284031Y-64774879D01*
X149340039Y-64770569D01*
X149483300Y-64759546D01*
X149489230Y-64757890D01*
X149489232Y-64757890D01*
X149675797Y-64705800D01*
X149675796Y-64705800D01*
X149681725Y-64704145D01*
X149687214Y-64701372D01*
X149687220Y-64701370D01*
X149860116Y-64614033D01*
X149865610Y-64611258D01*
X150027951Y-64484424D01*
X150162564Y-64328472D01*
X150183387Y-64291818D01*
X150261276Y-64154707D01*
X150264323Y-64149344D01*
X150329351Y-63953863D01*
X150355171Y-63749474D01*
X150355583Y-63720000D01*
X150354138Y-63705262D01*
X173644520Y-63705262D01*
X173661759Y-63910553D01*
X173718544Y-64108586D01*
X173721359Y-64114063D01*
X173721360Y-64114066D01*
X173742247Y-64154707D01*
X173812712Y-64291818D01*
X173940677Y-64453270D01*
X174097564Y-64586791D01*
X174277398Y-64687297D01*
X174372238Y-64718113D01*
X174467471Y-64749056D01*
X174467475Y-64749057D01*
X174473329Y-64750959D01*
X174677894Y-64775351D01*
X174684029Y-64774879D01*
X174684031Y-64774879D01*
X174740039Y-64770569D01*
X174883300Y-64759546D01*
X174889230Y-64757890D01*
X174889232Y-64757890D01*
X175075797Y-64705800D01*
X175075796Y-64705800D01*
X175081725Y-64704145D01*
X175087214Y-64701372D01*
X175087220Y-64701370D01*
X175260116Y-64614033D01*
X175265610Y-64611258D01*
X175427951Y-64484424D01*
X175562564Y-64328472D01*
X175583387Y-64291818D01*
X175661276Y-64154707D01*
X175664323Y-64149344D01*
X175729351Y-63953863D01*
X175755171Y-63749474D01*
X175755583Y-63720000D01*
X175735480Y-63514970D01*
X175675935Y-63317749D01*
X175579218Y-63135849D01*
X175505859Y-63045902D01*
X175452906Y-62980975D01*
X175452903Y-62980972D01*
X175449011Y-62976200D01*
X175431786Y-62961950D01*
X175295025Y-62848811D01*
X175295021Y-62848809D01*
X175290275Y-62844882D01*
X175109055Y-62746897D01*
X174912254Y-62685977D01*
X174906129Y-62685333D01*
X174906128Y-62685333D01*
X174713498Y-62665087D01*
X174713496Y-62665087D01*
X174707369Y-62664443D01*
X174620529Y-62672346D01*
X174508342Y-62682555D01*
X174508339Y-62682556D01*
X174502203Y-62683114D01*
X174304572Y-62741280D01*
X174122002Y-62836726D01*
X174117201Y-62840586D01*
X174117198Y-62840588D01*
X174000849Y-62934135D01*
X173961447Y-62965815D01*
X173829024Y-63123630D01*
X173826056Y-63129028D01*
X173826053Y-63129033D01*
X173819315Y-63141290D01*
X173729776Y-63304162D01*
X173667484Y-63500532D01*
X173666798Y-63506649D01*
X173666797Y-63506653D01*
X173645207Y-63699137D01*
X173644520Y-63705262D01*
X150354138Y-63705262D01*
X150335480Y-63514970D01*
X150275935Y-63317749D01*
X150179218Y-63135849D01*
X150105859Y-63045902D01*
X150052906Y-62980975D01*
X150052903Y-62980972D01*
X150049011Y-62976200D01*
X150031786Y-62961950D01*
X149895025Y-62848811D01*
X149895021Y-62848809D01*
X149890275Y-62844882D01*
X149709055Y-62746897D01*
X149512254Y-62685977D01*
X149506129Y-62685333D01*
X149506128Y-62685333D01*
X149313498Y-62665087D01*
X149313496Y-62665087D01*
X149307369Y-62664443D01*
X149220529Y-62672346D01*
X149108342Y-62682555D01*
X149108339Y-62682556D01*
X149102203Y-62683114D01*
X148904572Y-62741280D01*
X148722002Y-62836726D01*
X148717201Y-62840586D01*
X148717198Y-62840588D01*
X148600849Y-62934135D01*
X148561447Y-62965815D01*
X148429024Y-63123630D01*
X148426056Y-63129028D01*
X148426053Y-63129033D01*
X148419315Y-63141290D01*
X148329776Y-63304162D01*
X148267484Y-63500532D01*
X148266798Y-63506649D01*
X148266797Y-63506653D01*
X148245207Y-63699137D01*
X148244520Y-63705262D01*
X147750500Y-63705262D01*
X147750500Y-62393138D01*
X150744758Y-62393138D01*
X150762035Y-62549633D01*
X150816143Y-62697490D01*
X150820380Y-62703796D01*
X150820382Y-62703799D01*
X150848119Y-62745075D01*
X150903958Y-62828172D01*
X151020410Y-62934135D01*
X151027085Y-62937759D01*
X151152099Y-63005637D01*
X151152101Y-63005638D01*
X151158776Y-63009262D01*
X151166125Y-63011190D01*
X151303719Y-63047287D01*
X151303721Y-63047287D01*
X151311069Y-63049215D01*
X151394380Y-63050524D01*
X151460898Y-63051569D01*
X151460901Y-63051569D01*
X151468495Y-63051688D01*
X151621968Y-63016538D01*
X151762625Y-62945795D01*
X151876179Y-62848811D01*
X151876574Y-62848474D01*
X151876576Y-62848471D01*
X151882348Y-62843542D01*
X151911499Y-62802974D01*
X151967494Y-62759326D01*
X152013822Y-62750500D01*
X169484628Y-62750500D01*
X169552749Y-62770502D01*
X169589208Y-62806222D01*
X169603958Y-62828172D01*
X169720410Y-62934135D01*
X169727085Y-62937759D01*
X169852099Y-63005637D01*
X169852101Y-63005638D01*
X169858776Y-63009262D01*
X169866125Y-63011190D01*
X170003719Y-63047287D01*
X170003721Y-63047287D01*
X170011069Y-63049215D01*
X170094380Y-63050524D01*
X170160898Y-63051569D01*
X170160901Y-63051569D01*
X170168495Y-63051688D01*
X170321968Y-63016538D01*
X170462625Y-62945795D01*
X170576179Y-62848811D01*
X170576574Y-62848474D01*
X170576576Y-62848471D01*
X170582348Y-62843542D01*
X170674224Y-62715683D01*
X170732950Y-62569598D01*
X170755134Y-62413723D01*
X170755278Y-62400000D01*
X170736363Y-62243694D01*
X170723994Y-62210959D01*
X170683394Y-62103514D01*
X170683393Y-62103511D01*
X170680710Y-62096412D01*
X170591531Y-61966657D01*
X170526189Y-61908439D01*
X170479648Y-61866972D01*
X170479645Y-61866970D01*
X170473976Y-61861919D01*
X170334831Y-61788245D01*
X170318122Y-61784048D01*
X170189498Y-61751740D01*
X170189496Y-61751740D01*
X170182128Y-61749889D01*
X170174530Y-61749849D01*
X170174528Y-61749849D01*
X170107319Y-61749497D01*
X170024684Y-61749065D01*
X170017305Y-61750837D01*
X170017301Y-61750837D01*
X169878967Y-61784048D01*
X169878963Y-61784049D01*
X169871588Y-61785820D01*
X169731679Y-61858032D01*
X169725957Y-61863024D01*
X169725955Y-61863025D01*
X169668359Y-61913270D01*
X169613034Y-61961533D01*
X169608667Y-61967747D01*
X169608662Y-61967753D01*
X169588844Y-61995951D01*
X169533310Y-62040183D01*
X169485758Y-62049500D01*
X152014760Y-62049500D01*
X151946639Y-62029498D01*
X151910920Y-61994867D01*
X151895836Y-61972920D01*
X151895834Y-61972917D01*
X151891531Y-61966657D01*
X151826189Y-61908439D01*
X151779648Y-61866972D01*
X151779645Y-61866970D01*
X151773976Y-61861919D01*
X151634831Y-61788245D01*
X151618122Y-61784048D01*
X151489498Y-61751740D01*
X151489496Y-61751740D01*
X151482128Y-61749889D01*
X151474530Y-61749849D01*
X151474528Y-61749849D01*
X151407319Y-61749497D01*
X151324684Y-61749065D01*
X151317305Y-61750837D01*
X151317301Y-61750837D01*
X151178967Y-61784048D01*
X151178963Y-61784049D01*
X151171588Y-61785820D01*
X151031679Y-61858032D01*
X151025957Y-61863024D01*
X151025955Y-61863025D01*
X150918759Y-61956538D01*
X150918756Y-61956541D01*
X150913034Y-61961533D01*
X150888845Y-61995951D01*
X150835918Y-62071258D01*
X150822501Y-62090348D01*
X150765309Y-62237039D01*
X150744758Y-62393138D01*
X147750500Y-62393138D01*
X147750500Y-61165262D01*
X148244520Y-61165262D01*
X148261759Y-61370553D01*
X148318544Y-61568586D01*
X148321359Y-61574063D01*
X148321360Y-61574066D01*
X148342247Y-61614707D01*
X148412712Y-61751818D01*
X148540677Y-61913270D01*
X148545370Y-61917264D01*
X148545371Y-61917265D01*
X148689800Y-62040183D01*
X148697564Y-62046791D01*
X148877398Y-62147297D01*
X148972238Y-62178112D01*
X149067471Y-62209056D01*
X149067475Y-62209057D01*
X149073329Y-62210959D01*
X149277894Y-62235351D01*
X149284029Y-62234879D01*
X149284031Y-62234879D01*
X149340039Y-62230569D01*
X149483300Y-62219546D01*
X149489230Y-62217890D01*
X149489232Y-62217890D01*
X149675797Y-62165800D01*
X149675796Y-62165800D01*
X149681725Y-62164145D01*
X149687214Y-62161372D01*
X149687220Y-62161370D01*
X149860116Y-62074033D01*
X149865610Y-62071258D01*
X149905385Y-62040183D01*
X149961999Y-61995951D01*
X150027951Y-61944424D01*
X150102236Y-61858364D01*
X150158540Y-61793134D01*
X150158540Y-61793133D01*
X150162564Y-61788472D01*
X150183387Y-61751818D01*
X150261276Y-61614707D01*
X150264323Y-61609344D01*
X150329351Y-61413863D01*
X150355171Y-61209474D01*
X150355583Y-61180000D01*
X150354138Y-61165262D01*
X173644520Y-61165262D01*
X173661759Y-61370553D01*
X173718544Y-61568586D01*
X173721359Y-61574063D01*
X173721360Y-61574066D01*
X173742247Y-61614707D01*
X173812712Y-61751818D01*
X173940677Y-61913270D01*
X173945370Y-61917264D01*
X173945371Y-61917265D01*
X174089800Y-62040183D01*
X174097564Y-62046791D01*
X174277398Y-62147297D01*
X174372238Y-62178112D01*
X174467471Y-62209056D01*
X174467475Y-62209057D01*
X174473329Y-62210959D01*
X174677894Y-62235351D01*
X174684029Y-62234879D01*
X174684031Y-62234879D01*
X174740039Y-62230569D01*
X174883300Y-62219546D01*
X174889230Y-62217890D01*
X174889232Y-62217890D01*
X175075797Y-62165800D01*
X175075796Y-62165800D01*
X175081725Y-62164145D01*
X175087214Y-62161372D01*
X175087220Y-62161370D01*
X175260116Y-62074033D01*
X175265610Y-62071258D01*
X175305385Y-62040183D01*
X175361999Y-61995951D01*
X175427951Y-61944424D01*
X175502236Y-61858364D01*
X175558540Y-61793134D01*
X175558540Y-61793133D01*
X175562564Y-61788472D01*
X175583387Y-61751818D01*
X175661276Y-61614707D01*
X175664323Y-61609344D01*
X175729351Y-61413863D01*
X175755171Y-61209474D01*
X175755583Y-61180000D01*
X175735480Y-60974970D01*
X175675935Y-60777749D01*
X175579218Y-60595849D01*
X175505859Y-60505902D01*
X175452906Y-60440975D01*
X175452903Y-60440972D01*
X175449011Y-60436200D01*
X175431786Y-60421950D01*
X175295025Y-60308811D01*
X175295021Y-60308809D01*
X175290275Y-60304882D01*
X175109055Y-60206897D01*
X174967868Y-60163192D01*
X174908709Y-60123942D01*
X174880162Y-60058938D01*
X174891290Y-59988819D01*
X174938561Y-59935847D01*
X174972516Y-59921121D01*
X175143764Y-59875235D01*
X175154053Y-59871490D01*
X175351511Y-59779414D01*
X175361006Y-59773931D01*
X175413048Y-59737491D01*
X175421424Y-59727012D01*
X175414356Y-59713566D01*
X174712812Y-59012022D01*
X174698868Y-59004408D01*
X174697035Y-59004539D01*
X174690420Y-59008790D01*
X173984923Y-59714287D01*
X173978493Y-59726062D01*
X173987789Y-59738077D01*
X174038994Y-59773931D01*
X174048489Y-59779414D01*
X174245947Y-59871490D01*
X174256239Y-59875236D01*
X174428428Y-59921374D01*
X174489051Y-59958326D01*
X174520072Y-60022187D01*
X174511644Y-60092681D01*
X174466441Y-60147428D01*
X174431393Y-60163955D01*
X174304572Y-60201280D01*
X174122002Y-60296726D01*
X174117201Y-60300586D01*
X174117198Y-60300588D01*
X174106971Y-60308811D01*
X173961447Y-60425815D01*
X173829024Y-60583630D01*
X173826056Y-60589028D01*
X173826053Y-60589033D01*
X173819315Y-60601290D01*
X173729776Y-60764162D01*
X173667484Y-60960532D01*
X173666798Y-60966649D01*
X173666797Y-60966653D01*
X173645207Y-61159137D01*
X173644520Y-61165262D01*
X150354138Y-61165262D01*
X150335480Y-60974970D01*
X150275935Y-60777749D01*
X150179218Y-60595849D01*
X150105859Y-60505902D01*
X150052906Y-60440975D01*
X150052903Y-60440972D01*
X150049011Y-60436200D01*
X150031786Y-60421950D01*
X149895025Y-60308811D01*
X149895021Y-60308809D01*
X149890275Y-60304882D01*
X149709055Y-60206897D01*
X149512254Y-60145977D01*
X149506129Y-60145333D01*
X149506128Y-60145333D01*
X149313498Y-60125087D01*
X149313496Y-60125087D01*
X149307369Y-60124443D01*
X149220529Y-60132346D01*
X149108342Y-60142555D01*
X149108339Y-60142556D01*
X149102203Y-60143114D01*
X148904572Y-60201280D01*
X148722002Y-60296726D01*
X148717201Y-60300586D01*
X148717198Y-60300588D01*
X148706971Y-60308811D01*
X148561447Y-60425815D01*
X148429024Y-60583630D01*
X148426056Y-60589028D01*
X148426053Y-60589033D01*
X148419315Y-60601290D01*
X148329776Y-60764162D01*
X148267484Y-60960532D01*
X148266798Y-60966649D01*
X148266797Y-60966653D01*
X148245207Y-61159137D01*
X148244520Y-61165262D01*
X147750500Y-61165262D01*
X147750500Y-58625262D01*
X148244520Y-58625262D01*
X148261759Y-58830553D01*
X148263458Y-58836478D01*
X148312868Y-59008790D01*
X148318544Y-59028586D01*
X148321359Y-59034063D01*
X148321360Y-59034066D01*
X148342247Y-59074707D01*
X148412712Y-59211818D01*
X148540677Y-59373270D01*
X148697564Y-59506791D01*
X148877398Y-59607297D01*
X148972238Y-59638113D01*
X149067471Y-59669056D01*
X149067475Y-59669057D01*
X149073329Y-59670959D01*
X149277894Y-59695351D01*
X149284029Y-59694879D01*
X149284031Y-59694879D01*
X149340039Y-59690569D01*
X149483300Y-59679546D01*
X149489230Y-59677890D01*
X149489232Y-59677890D01*
X149675797Y-59625800D01*
X149675796Y-59625800D01*
X149681725Y-59624145D01*
X149687214Y-59621372D01*
X149687220Y-59621370D01*
X149860116Y-59534033D01*
X149865610Y-59531258D01*
X150027951Y-59404424D01*
X150065068Y-59361424D01*
X150158540Y-59253134D01*
X150158540Y-59253133D01*
X150162564Y-59248472D01*
X150183387Y-59211818D01*
X150261276Y-59074707D01*
X150264323Y-59069344D01*
X150329351Y-58873863D01*
X150355171Y-58669474D01*
X150355449Y-58649580D01*
X150355507Y-58645475D01*
X173387483Y-58645475D01*
X173406472Y-58862519D01*
X173408375Y-58873312D01*
X173464764Y-59083761D01*
X173468510Y-59094053D01*
X173560586Y-59291511D01*
X173566069Y-59301006D01*
X173602509Y-59353048D01*
X173612988Y-59361424D01*
X173626434Y-59354356D01*
X174327978Y-58652812D01*
X174334356Y-58641132D01*
X175064408Y-58641132D01*
X175064539Y-58642965D01*
X175068790Y-58649580D01*
X175774287Y-59355077D01*
X175786062Y-59361507D01*
X175798077Y-59352211D01*
X175833931Y-59301006D01*
X175839414Y-59291511D01*
X175931490Y-59094053D01*
X175935236Y-59083761D01*
X175991625Y-58873312D01*
X175993528Y-58862519D01*
X176012517Y-58645475D01*
X176012517Y-58634525D01*
X175993528Y-58417481D01*
X175991625Y-58406688D01*
X175935236Y-58196239D01*
X175931490Y-58185947D01*
X175839414Y-57988489D01*
X175833931Y-57978994D01*
X175797491Y-57926952D01*
X175787012Y-57918576D01*
X175773566Y-57925644D01*
X175072022Y-58627188D01*
X175064408Y-58641132D01*
X174334356Y-58641132D01*
X174335592Y-58638868D01*
X174335461Y-58637035D01*
X174331210Y-58630420D01*
X173625713Y-57924923D01*
X173613938Y-57918493D01*
X173601923Y-57927789D01*
X173566069Y-57978994D01*
X173560586Y-57988489D01*
X173468510Y-58185947D01*
X173464764Y-58196239D01*
X173408375Y-58406688D01*
X173406472Y-58417481D01*
X173387483Y-58634525D01*
X173387483Y-58645475D01*
X150355507Y-58645475D01*
X150355534Y-58643522D01*
X150355534Y-58643518D01*
X150355583Y-58640000D01*
X150335480Y-58434970D01*
X150275935Y-58237749D01*
X150179218Y-58055849D01*
X150105859Y-57965902D01*
X150052906Y-57900975D01*
X150052903Y-57900972D01*
X150049011Y-57896200D01*
X150031786Y-57881950D01*
X149895025Y-57768811D01*
X149895021Y-57768809D01*
X149890275Y-57764882D01*
X149709055Y-57666897D01*
X149512254Y-57605977D01*
X149506129Y-57605333D01*
X149506128Y-57605333D01*
X149313498Y-57585087D01*
X149313496Y-57585087D01*
X149307369Y-57584443D01*
X149220529Y-57592346D01*
X149108342Y-57602555D01*
X149108339Y-57602556D01*
X149102203Y-57603114D01*
X148904572Y-57661280D01*
X148722002Y-57756726D01*
X148717201Y-57760586D01*
X148717198Y-57760588D01*
X148706971Y-57768811D01*
X148561447Y-57885815D01*
X148429024Y-58043630D01*
X148426056Y-58049028D01*
X148426053Y-58049033D01*
X148419315Y-58061290D01*
X148329776Y-58224162D01*
X148267484Y-58420532D01*
X148266798Y-58426649D01*
X148266797Y-58426653D01*
X148245207Y-58619137D01*
X148244520Y-58625262D01*
X147750500Y-58625262D01*
X147750500Y-57552988D01*
X173978576Y-57552988D01*
X173985644Y-57566434D01*
X174687188Y-58267978D01*
X174701132Y-58275592D01*
X174702965Y-58275461D01*
X174709580Y-58271210D01*
X175415077Y-57565713D01*
X175421507Y-57553938D01*
X175412211Y-57541923D01*
X175361006Y-57506069D01*
X175351511Y-57500586D01*
X175154053Y-57408510D01*
X175143761Y-57404764D01*
X174933312Y-57348375D01*
X174922519Y-57346472D01*
X174705475Y-57327483D01*
X174694525Y-57327483D01*
X174477481Y-57346472D01*
X174466688Y-57348375D01*
X174256239Y-57404764D01*
X174245947Y-57408510D01*
X174048489Y-57500586D01*
X174038994Y-57506069D01*
X173986952Y-57542509D01*
X173978576Y-57552988D01*
X147750500Y-57552988D01*
X147750500Y-56376500D01*
X147770502Y-56308379D01*
X147824158Y-56261886D01*
X147876500Y-56250500D01*
X176623500Y-56250500D01*
X176691621Y-56270502D01*
G37*
%TD.AperFunction*%
%TD*%
M02*
