M48
; DRILL file {KiCad (6.0.6-0)} date Friday, July 29, 2022 at 04:47:48 PM
; FORMAT={-:-/ absolute / inch / decimal}
; #@! TF.CreationDate,2022-07-29T16:47:48-07:00
; #@! TF.GenerationSoftware,Kicad,Pcbnew,(6.0.6-0)
; #@! TF.FileFunction,Plated,1,2,PTH
FMAT,2
INCH
; #@! TA.AperFunction,Plated,PTH,ViaDrill
T1C0.0157
; #@! TA.AperFunction,Plated,PTH,ComponentDrill
T2C0.0394
%
G90
G05
T1
X5.9606Y-2.4567
X6.0197Y-3.4961
X6.0276Y-3.0236
X6.1339Y-3.1929
X6.1339Y-4.0512
X6.2795Y-2.8898
X6.2795Y-3.9331
X6.3504Y-3.9528
X6.3858Y-3.0945
X6.4862Y-3.8878
X6.5256Y-3.9469
X6.5453Y-3.7657
X6.5502Y-3.4596
X6.5512Y-3.1378
X6.5846Y-3.8169
X6.5846Y-3.9665
X6.6339Y-4.0354
X6.6969Y-2.4567
X6.9488Y-2.8543
X6.9646Y-3.0551
X7.1175Y-3.5242
X7.6772Y-3.2185
T2
X5.878Y-2.3087
X5.878Y-2.4087
X5.878Y-2.5087
X5.878Y-2.6087
X5.878Y-2.7087
X5.878Y-2.8087
X5.878Y-2.9087
X5.878Y-3.0087
X5.878Y-3.1087
X5.878Y-3.2087
X5.878Y-3.3087
X5.878Y-3.4087
X5.878Y-3.5087
X5.878Y-3.6087
X5.878Y-3.7087
X5.878Y-3.8087
X5.878Y-3.9087
X5.878Y-4.0087
X5.878Y-4.1087
X6.878Y-2.3087
X6.878Y-2.4087
X6.878Y-2.5087
X6.878Y-2.6087
X6.878Y-2.7087
X6.878Y-2.8087
X6.878Y-2.9087
X6.878Y-3.0087
X6.878Y-3.1087
X6.878Y-3.2087
X6.878Y-3.3087
X6.878Y-3.4087
X6.878Y-3.5087
X6.878Y-3.6087
X6.878Y-3.7087
X6.878Y-3.8087
X6.878Y-3.9087
X6.878Y-4.0087
X6.878Y-4.1087
T0
M30
