%TF.GenerationSoftware,KiCad,Pcbnew,5.1.10-88a1d61d58~90~ubuntu20.04.1*%
%TF.CreationDate,2022-02-25T00:36:02-08:00*%
%TF.ProjectId,sd_bt_streamer,73645f62-745f-4737-9472-65616d65722e,rev?*%
%TF.SameCoordinates,Original*%
%TF.FileFunction,Soldermask,Top*%
%TF.FilePolarity,Negative*%
%FSLAX46Y46*%
G04 Gerber Fmt 4.6, Leading zero omitted, Abs format (unit mm)*
G04 Created by KiCad (PCBNEW 5.1.10-88a1d61d58~90~ubuntu20.04.1) date 2022-02-25 00:36:02*
%MOMM*%
%LPD*%
G01*
G04 APERTURE LIST*
%ADD10C,1.800000*%
%ADD11R,1.900000X1.350000*%
%ADD12R,1.200000X1.000000*%
%ADD13R,1.550000X1.350000*%
%ADD14R,1.170000X1.800000*%
%ADD15R,0.850000X1.100000*%
%ADD16R,0.750000X1.100000*%
G04 APERTURE END LIST*
D10*
%TO.C,U2*%
X174160000Y-77070000D03*
X174160000Y-79610000D03*
X174160000Y-82150000D03*
X174160000Y-84690000D03*
X174160000Y-87230000D03*
X174160000Y-89770000D03*
X174160000Y-92310000D03*
X174160000Y-94850000D03*
X174160000Y-97390000D03*
X174160000Y-99930000D03*
X174160000Y-102470000D03*
X174160000Y-105010000D03*
X153840000Y-105010000D03*
X153840000Y-102470000D03*
X153840000Y-99930000D03*
X153840000Y-97390000D03*
X153840000Y-94850000D03*
X153840000Y-92310000D03*
X153840000Y-89770000D03*
X153840000Y-87230000D03*
X153840000Y-84690000D03*
X153840000Y-82150000D03*
X153840000Y-79610000D03*
X153840000Y-77070000D03*
X153840000Y-74530000D03*
X153840000Y-71990000D03*
X153840000Y-69450000D03*
X153840000Y-66910000D03*
%TD*%
D11*
%TO.C,J1*%
X160270000Y-93375000D03*
X166240000Y-93375000D03*
D12*
X169740000Y-98050000D03*
X169740000Y-94350000D03*
D13*
X169565000Y-104075000D03*
D14*
X158245000Y-103850000D03*
D15*
X160505000Y-104200000D03*
X161605000Y-104200000D03*
X162705000Y-104200000D03*
X163805000Y-104200000D03*
X164905000Y-104200000D03*
X166005000Y-104200000D03*
D16*
X159455000Y-104200000D03*
D15*
X167105000Y-104200000D03*
%TD*%
M02*
