M48
; DRILL file {KiCad 5.1.10-88a1d61d58~90~ubuntu20.04.1} date Fri Feb 25 00:36:05 2022
; FORMAT={-:-/ absolute / inch / decimal}
; #@! TF.CreationDate,2022-02-25T00:36:05-08:00
; #@! TF.GenerationSoftware,Kicad,Pcbnew,5.1.10-88a1d61d58~90~ubuntu20.04.1
; #@! TF.FileFunction,Plated,1,2,PTH
FMAT,2
INCH
T1C0.0157
T2C0.0433
%
G90
G05
T1
X6.1516Y-3.6024
X6.1614Y-4.0945
X6.1811Y-3.4843
X6.2008Y-3.9272
X6.2894Y-3.9862
X6.3386Y-3.5728
X6.4272Y-3.3563
X6.4272Y-3.878
X6.437Y-2.874
X6.4862Y-3.8878
X6.5256Y-3.9469
X6.5846Y-3.9665
X6.6339Y-4.0354
X6.6437Y-3.1791
X6.752Y-3.6614
X6.752Y-3.9567
X7.6772Y-3.2185
X7.9626Y-3.0217
X7.9626Y-3.3071
T2
X6.0567Y-2.6343
X6.0567Y-2.7343
X6.0567Y-2.8343
X6.0567Y-2.9343
X6.0567Y-3.0343
X6.0567Y-3.1343
X6.0567Y-3.2343
X6.0567Y-3.3343
X6.0567Y-3.4343
X6.0567Y-3.5343
X6.0567Y-3.6343
X6.0567Y-3.7343
X6.0567Y-3.8343
X6.0567Y-3.9343
X6.0567Y-4.0343
X6.0567Y-4.1343
X6.8567Y-3.0343
X6.8567Y-3.1343
X6.8567Y-3.2343
X6.8567Y-3.3343
X6.8567Y-3.4343
X6.8567Y-3.5343
X6.8567Y-3.6343
X6.8567Y-3.7343
X6.8567Y-3.8343
X6.8567Y-3.9343
X6.8567Y-4.0343
X6.8567Y-4.1343
T0
M30
