%TF.GenerationSoftware,KiCad,Pcbnew,5.1.10-88a1d61d58~90~ubuntu20.04.1*%
%TF.CreationDate,2022-02-25T00:36:02-08:00*%
%TF.ProjectId,sd_bt_streamer,73645f62-745f-4737-9472-65616d65722e,rev?*%
%TF.SameCoordinates,Original*%
%TF.FileFunction,Copper,L2,Bot*%
%TF.FilePolarity,Positive*%
%FSLAX46Y46*%
G04 Gerber Fmt 4.6, Leading zero omitted, Abs format (unit mm)*
G04 Created by KiCad (PCBNEW 5.1.10-88a1d61d58~90~ubuntu20.04.1) date 2022-02-25 00:36:02*
%MOMM*%
%LPD*%
G01*
G04 APERTURE LIST*
%TA.AperFunction,EtchedComponent*%
%ADD10C,0.100000*%
%TD*%
%TA.AperFunction,SMDPad,CuDef*%
%ADD11C,0.500000*%
%TD*%
%TA.AperFunction,ComponentPad*%
%ADD12C,1.800000*%
%TD*%
%TA.AperFunction,SMDPad,CuDef*%
%ADD13R,5.000000X2.000000*%
%TD*%
%TA.AperFunction,SMDPad,CuDef*%
%ADD14R,6.000000X1.250000*%
%TD*%
%TA.AperFunction,SMDPad,CuDef*%
%ADD15R,6.000000X1.750000*%
%TD*%
%TA.AperFunction,ViaPad*%
%ADD16C,0.800000*%
%TD*%
%TA.AperFunction,Conductor*%
%ADD17C,0.200000*%
%TD*%
%TA.AperFunction,Conductor*%
%ADD18C,1.000000*%
%TD*%
%TA.AperFunction,Conductor*%
%ADD19C,0.500000*%
%TD*%
%TA.AperFunction,Conductor*%
%ADD20C,0.254000*%
%TD*%
%TA.AperFunction,Conductor*%
%ADD21C,0.100000*%
%TD*%
G04 APERTURE END LIST*
D10*
%TO.C,NT2*%
G36*
X170750000Y-79500000D02*
G01*
X169750000Y-79500000D01*
X169750000Y-80000000D01*
X170750000Y-80000000D01*
X170750000Y-79500000D01*
G37*
%TO.C,NT4*%
G36*
X176750000Y-91000000D02*
G01*
X177750000Y-91000000D01*
X177750000Y-90500000D01*
X176750000Y-90500000D01*
X176750000Y-91000000D01*
G37*
%TO.C,NT3*%
G36*
X176750000Y-74500000D02*
G01*
X177750000Y-74500000D01*
X177750000Y-74000000D01*
X176750000Y-74000000D01*
X176750000Y-74500000D01*
G37*
%TO.C,NT1*%
G36*
X176750000Y-77750000D02*
G01*
X177750000Y-77750000D01*
X177750000Y-77250000D01*
X176750000Y-77250000D01*
X176750000Y-77750000D01*
G37*
%TD*%
D11*
%TO.P,NT2,2*%
%TO.N,GND*%
X169750000Y-79750000D03*
%TO.P,NT2,1*%
%TO.N,/REG_EN*%
X170750000Y-79750000D03*
%TD*%
%TO.P,NT4,2*%
%TO.N,/DAT2_T*%
X177750000Y-90750000D03*
%TO.P,NT4,1*%
%TO.N,/DAT2*%
X176750000Y-90750000D03*
%TD*%
%TO.P,NT3,2*%
%TO.N,/DAT1_T*%
X177750000Y-74250000D03*
%TO.P,NT3,1*%
%TO.N,/DAT1*%
X176750000Y-74250000D03*
%TD*%
%TO.P,NT1,2*%
%TO.N,/MISO*%
X177750000Y-77500000D03*
%TO.P,NT1,1*%
%TO.N,/MISO_FEATHER*%
X176750000Y-77500000D03*
%TD*%
D12*
%TO.P,U2,28*%
%TO.N,Net-(U2-Pad28)*%
X174160000Y-77070000D03*
%TO.P,U2,27*%
%TO.N,/REG_EN*%
X174160000Y-79610000D03*
%TO.P,U2,26*%
%TO.N,Net-(U2-Pad26)*%
X174160000Y-82150000D03*
%TO.P,U2,25*%
%TO.N,Net-(U2-Pad25)*%
X174160000Y-84690000D03*
%TO.P,U2,24*%
%TO.N,Net-(U2-Pad24)*%
X174160000Y-87230000D03*
%TO.P,U2,23*%
%TO.N,Net-(U2-Pad23)*%
X174160000Y-89770000D03*
%TO.P,U2,22*%
%TO.N,Net-(U2-Pad22)*%
X174160000Y-92310000D03*
%TO.P,U2,21*%
%TO.N,Net-(U2-Pad21)*%
X174160000Y-94850000D03*
%TO.P,U2,20*%
%TO.N,Net-(U2-Pad20)*%
X174160000Y-97390000D03*
%TO.P,U2,19*%
%TO.N,Net-(U2-Pad19)*%
X174160000Y-99930000D03*
%TO.P,U2,18*%
%TO.N,Net-(U2-Pad18)*%
X174160000Y-102470000D03*
%TO.P,U2,17*%
%TO.N,Net-(U2-Pad17)*%
X174160000Y-105010000D03*
%TO.P,U2,16*%
%TO.N,Net-(U2-Pad16)*%
X153840000Y-105010000D03*
%TO.P,U2,15*%
%TO.N,Net-(U2-Pad15)*%
X153840000Y-102470000D03*
%TO.P,U2,14*%
%TO.N,Net-(U2-Pad14)*%
X153840000Y-99930000D03*
%TO.P,U2,13*%
%TO.N,/MISO_FEATHER*%
X153840000Y-97390000D03*
%TO.P,U2,12*%
%TO.N,/MOSI*%
X153840000Y-94850000D03*
%TO.P,U2,11*%
%TO.N,/CLK*%
X153840000Y-92310000D03*
%TO.P,U2,10*%
%TO.N,/CS*%
X153840000Y-89770000D03*
%TO.P,U2,9*%
%TO.N,Net-(U2-Pad9)*%
X153840000Y-87230000D03*
%TO.P,U2,8*%
%TO.N,Net-(U2-Pad8)*%
X153840000Y-84690000D03*
%TO.P,U2,7*%
%TO.N,Net-(U2-Pad7)*%
X153840000Y-82150000D03*
%TO.P,U2,6*%
%TO.N,Net-(U2-Pad6)*%
X153840000Y-79610000D03*
%TO.P,U2,5*%
%TO.N,Net-(U2-Pad5)*%
X153840000Y-77070000D03*
%TO.P,U2,4*%
%TO.N,GND*%
X153840000Y-74530000D03*
%TO.P,U2,3*%
%TO.N,+3V3*%
X153840000Y-71990000D03*
%TO.P,U2,2*%
X153840000Y-69450000D03*
%TO.P,U2,1*%
%TO.N,Net-(U2-Pad1)*%
X153840000Y-66910000D03*
%TD*%
D13*
%TO.P,U1,9*%
%TO.N,/DAT2_T*%
X205030000Y-92300000D03*
D14*
%TO.P,U1,8*%
%TO.N,/DAT1_T*%
X207703000Y-72340000D03*
D15*
%TO.P,U1,7*%
%TO.N,/MISO*%
X207703000Y-74340000D03*
%TO.P,U1,6*%
%TO.N,GND*%
X207703000Y-76740000D03*
%TO.P,U1,5*%
%TO.N,/CLK*%
X207703000Y-79305000D03*
%TO.P,U1,4*%
%TO.N,+3V3*%
X207703000Y-81840000D03*
%TO.P,U1,3*%
%TO.N,GND*%
X207703000Y-84370000D03*
%TO.P,U1,2*%
%TO.N,/MOSI*%
X207703000Y-86965000D03*
%TO.P,U1,1*%
%TO.N,/CS*%
X207703000Y-89514600D03*
%TD*%
D16*
%TO.N,GND*%
X168750000Y-80750000D03*
X202250000Y-76750000D03*
X202250000Y-84000000D03*
X156500000Y-104000000D03*
%TO.N,/MISO*%
X163250000Y-98500000D03*
%TO.N,/CLK*%
X164750000Y-98750000D03*
%TO.N,+3V3*%
X195000000Y-81750000D03*
X163500000Y-73000000D03*
X171500000Y-93000000D03*
X171500000Y-100500000D03*
%TO.N,/MOSI*%
X165750000Y-100250000D03*
X157500000Y-99750000D03*
%TO.N,/CS*%
X167250000Y-100750000D03*
X161000000Y-90750000D03*
X157000000Y-88500000D03*
%TO.N,/DAT1*%
X159750000Y-101250000D03*
%TO.N,/DAT2*%
X168500000Y-102500000D03*
%TO.N,/MISO_FEATHER*%
X163250000Y-85250000D03*
X156250000Y-91500000D03*
%TD*%
D17*
%TO.N,GND*%
X169750000Y-79750000D02*
X168750000Y-80750000D01*
D18*
X202260000Y-76740000D02*
X202250000Y-76750000D01*
X207703000Y-76740000D02*
X202260000Y-76740000D01*
X202620000Y-84370000D02*
X202250000Y-84000000D01*
X207703000Y-84370000D02*
X202620000Y-84370000D01*
D17*
%TO.N,/MISO*%
X177750000Y-77500000D02*
X178250000Y-77500000D01*
X181410000Y-74340000D02*
X207703000Y-74340000D01*
X178250000Y-77500000D02*
X181410000Y-74340000D01*
X177750000Y-77500000D02*
X177750000Y-78750000D01*
X175689999Y-80810001D02*
X170939999Y-80810001D01*
X177750000Y-78750000D02*
X175689999Y-80810001D01*
X163250000Y-88500000D02*
X163250000Y-98500000D01*
X170939999Y-80810001D02*
X163250000Y-88500000D01*
%TO.N,/CLK*%
X207703000Y-79305000D02*
X183695000Y-79305000D01*
X179510001Y-83489999D02*
X170760001Y-83489999D01*
X183695000Y-79305000D02*
X179510001Y-83489999D01*
X164750000Y-89500000D02*
X164750000Y-98750000D01*
X170760001Y-83489999D02*
X164750000Y-89500000D01*
D18*
%TO.N,+3V3*%
X195090000Y-81840000D02*
X195000000Y-81750000D01*
X207703000Y-81840000D02*
X195090000Y-81840000D01*
X159950000Y-69450000D02*
X153840000Y-69450000D01*
X163500000Y-73000000D02*
X159950000Y-69450000D01*
X153840000Y-71990000D02*
X153840000Y-69450000D01*
D19*
X171500000Y-93000000D02*
X171500000Y-100500000D01*
D17*
%TO.N,/MOSI*%
X207703000Y-86965000D02*
X183785000Y-86965000D01*
X182849999Y-86029999D02*
X172220001Y-86029999D01*
X183785000Y-86965000D02*
X182849999Y-86029999D01*
X172220001Y-86029999D02*
X166250000Y-92000000D01*
X166250000Y-92000000D02*
X166250000Y-99750000D01*
X166250000Y-99750000D02*
X165750000Y-100250000D01*
X165750000Y-101000000D02*
X165750000Y-100250000D01*
X163750000Y-103000000D02*
X165750000Y-101000000D01*
X158500000Y-103000000D02*
X163750000Y-103000000D01*
X157500000Y-102000000D02*
X158500000Y-103000000D01*
X157500000Y-99750000D02*
X157500000Y-102000000D01*
%TO.N,/CS*%
X207703000Y-89514600D02*
X177264600Y-89514600D01*
X176319999Y-88569999D02*
X172180001Y-88569999D01*
X177264600Y-89514600D02*
X176319999Y-88569999D01*
X172180001Y-88569999D02*
X167250000Y-93500000D01*
X167250000Y-93500000D02*
X167250000Y-100750000D01*
X158750000Y-88500000D02*
X157000000Y-88500000D01*
X161000000Y-90750000D02*
X158750000Y-88500000D01*
%TO.N,/DAT1*%
X159750000Y-99750000D02*
X159750000Y-101250000D01*
X162250000Y-97250000D02*
X159750000Y-99750000D01*
X162250000Y-82500000D02*
X162250000Y-97250000D01*
X170500000Y-74250000D02*
X162250000Y-82500000D01*
X176750000Y-74250000D02*
X170500000Y-74250000D01*
%TO.N,/DAT2*%
X176750000Y-90750000D02*
X176250000Y-90750000D01*
X176250000Y-90750000D02*
X176000000Y-91000000D01*
X176000000Y-91000000D02*
X176000000Y-103250000D01*
X175440001Y-103809999D02*
X172309999Y-103809999D01*
X176000000Y-103250000D02*
X175440001Y-103809999D01*
X171000000Y-102500000D02*
X168500000Y-102500000D01*
X172309999Y-103809999D02*
X171000000Y-102500000D01*
%TO.N,/MISO_FEATHER*%
X175979999Y-78270001D02*
X167729999Y-78270001D01*
X176750000Y-77500000D02*
X175979999Y-78270001D01*
X163250000Y-82750000D02*
X163250000Y-85250000D01*
X167729999Y-78270001D02*
X163250000Y-82750000D01*
X156250000Y-91500000D02*
X156250000Y-96750000D01*
X155610000Y-97390000D02*
X153840000Y-97390000D01*
X156250000Y-96750000D02*
X155610000Y-97390000D01*
%TO.N,/REG_EN*%
X174020000Y-79750000D02*
X174160000Y-79610000D01*
X170750000Y-79750000D02*
X174020000Y-79750000D01*
%TO.N,/DAT1_T*%
X179660000Y-72340000D02*
X177750000Y-74250000D01*
X207703000Y-72340000D02*
X179660000Y-72340000D01*
%TO.N,/DAT2_T*%
X179300000Y-92300000D02*
X177750000Y-90750000D01*
X205030000Y-92300000D02*
X179300000Y-92300000D01*
%TD*%
D20*
%TO.N,GND*%
X176598000Y-70050253D02*
X176596055Y-70070000D01*
X176603817Y-70148806D01*
X176626803Y-70224583D01*
X176664132Y-70294420D01*
X176690870Y-70327000D01*
X176714368Y-70355632D01*
X176775580Y-70405868D01*
X176845417Y-70443197D01*
X176921194Y-70466183D01*
X177000000Y-70473945D01*
X177019747Y-70472000D01*
X210368194Y-70472000D01*
X210368619Y-71336176D01*
X204703000Y-71336176D01*
X204629095Y-71343455D01*
X204558030Y-71365012D01*
X204492537Y-71400019D01*
X204435131Y-71447131D01*
X204388019Y-71504537D01*
X204353012Y-71570030D01*
X204331455Y-71641095D01*
X204324176Y-71715000D01*
X204324176Y-71863000D01*
X179683415Y-71863000D01*
X179660000Y-71860694D01*
X179636585Y-71863000D01*
X179636577Y-71863000D01*
X179566492Y-71869903D01*
X179476577Y-71897178D01*
X179393711Y-71941471D01*
X179321079Y-72001079D01*
X179306149Y-72019271D01*
X177702421Y-73623000D01*
X176688246Y-73623000D01*
X176567111Y-73647095D01*
X176453004Y-73694360D01*
X176350311Y-73762977D01*
X176340288Y-73773000D01*
X170523415Y-73773000D01*
X170500000Y-73770694D01*
X170476585Y-73773000D01*
X170476577Y-73773000D01*
X170406492Y-73779903D01*
X170316577Y-73807178D01*
X170233711Y-73851471D01*
X170161079Y-73911079D01*
X170146150Y-73929270D01*
X161929276Y-82146145D01*
X161911079Y-82161079D01*
X161851471Y-82233711D01*
X161807178Y-82316578D01*
X161779903Y-82406493D01*
X161773000Y-82476578D01*
X161773000Y-82476585D01*
X161770694Y-82500000D01*
X161773000Y-82523415D01*
X161773001Y-90653365D01*
X161747141Y-90523357D01*
X161688569Y-90381952D01*
X161603536Y-90254691D01*
X161495309Y-90146464D01*
X161368048Y-90061431D01*
X161226643Y-90002859D01*
X161076528Y-89973000D01*
X160923472Y-89973000D01*
X160901876Y-89977296D01*
X159103855Y-88179276D01*
X159088921Y-88161079D01*
X159016289Y-88101471D01*
X158933423Y-88057178D01*
X158843508Y-88029903D01*
X158773423Y-88023000D01*
X158773415Y-88023000D01*
X158750000Y-88020694D01*
X158726585Y-88023000D01*
X157615770Y-88023000D01*
X157603536Y-88004691D01*
X157495309Y-87896464D01*
X157368048Y-87811431D01*
X157226643Y-87752859D01*
X157076528Y-87723000D01*
X156923472Y-87723000D01*
X156773357Y-87752859D01*
X156631952Y-87811431D01*
X156504691Y-87896464D01*
X156396464Y-88004691D01*
X156311431Y-88131952D01*
X156252859Y-88273357D01*
X156223000Y-88423472D01*
X156223000Y-88576528D01*
X156252859Y-88726643D01*
X156311431Y-88868048D01*
X156396464Y-88995309D01*
X156504691Y-89103536D01*
X156631952Y-89188569D01*
X156773357Y-89247141D01*
X156923472Y-89277000D01*
X157076528Y-89277000D01*
X157226643Y-89247141D01*
X157368048Y-89188569D01*
X157495309Y-89103536D01*
X157603536Y-88995309D01*
X157615770Y-88977000D01*
X158552421Y-88977000D01*
X160227296Y-90651876D01*
X160223000Y-90673472D01*
X160223000Y-90826528D01*
X160252859Y-90976643D01*
X160311431Y-91118048D01*
X160396464Y-91245309D01*
X160504691Y-91353536D01*
X160631952Y-91438569D01*
X160773357Y-91497141D01*
X160923472Y-91527000D01*
X161076528Y-91527000D01*
X161226643Y-91497141D01*
X161368048Y-91438569D01*
X161495309Y-91353536D01*
X161603536Y-91245309D01*
X161688569Y-91118048D01*
X161747141Y-90976643D01*
X161773001Y-90846635D01*
X161773001Y-97052419D01*
X159429276Y-99396145D01*
X159411079Y-99411079D01*
X159351471Y-99483711D01*
X159307178Y-99566578D01*
X159279903Y-99656493D01*
X159273000Y-99726578D01*
X159273000Y-99726585D01*
X159270694Y-99750000D01*
X159273000Y-99773415D01*
X159273001Y-100634230D01*
X159254691Y-100646464D01*
X159146464Y-100754691D01*
X159061431Y-100881952D01*
X159002859Y-101023357D01*
X158973000Y-101173472D01*
X158973000Y-101326528D01*
X159002859Y-101476643D01*
X159061431Y-101618048D01*
X159146464Y-101745309D01*
X159254691Y-101853536D01*
X159381952Y-101938569D01*
X159523357Y-101997141D01*
X159673472Y-102027000D01*
X159826528Y-102027000D01*
X159976643Y-101997141D01*
X160118048Y-101938569D01*
X160245309Y-101853536D01*
X160353536Y-101745309D01*
X160438569Y-101618048D01*
X160497141Y-101476643D01*
X160527000Y-101326528D01*
X160527000Y-101173472D01*
X160497141Y-101023357D01*
X160438569Y-100881952D01*
X160353536Y-100754691D01*
X160245309Y-100646464D01*
X160227000Y-100634230D01*
X160227000Y-99947579D01*
X162570729Y-97603851D01*
X162588921Y-97588921D01*
X162648529Y-97516289D01*
X162692822Y-97433423D01*
X162720097Y-97343508D01*
X162727000Y-97273423D01*
X162727000Y-97273415D01*
X162729306Y-97250000D01*
X162727000Y-97226585D01*
X162727000Y-85825845D01*
X162754691Y-85853536D01*
X162881952Y-85938569D01*
X163023357Y-85997141D01*
X163173472Y-86027000D01*
X163326528Y-86027000D01*
X163476643Y-85997141D01*
X163618048Y-85938569D01*
X163745309Y-85853536D01*
X163853536Y-85745309D01*
X163938569Y-85618048D01*
X163997141Y-85476643D01*
X164027000Y-85326528D01*
X164027000Y-85173472D01*
X163997141Y-85023357D01*
X163938569Y-84881952D01*
X163853536Y-84754691D01*
X163745309Y-84646464D01*
X163727000Y-84634230D01*
X163727000Y-82947579D01*
X167927579Y-78747001D01*
X173217048Y-78747001D01*
X173168089Y-78795960D01*
X173028337Y-79005114D01*
X172932074Y-79237513D01*
X172925015Y-79273000D01*
X171159712Y-79273000D01*
X171149689Y-79262977D01*
X171046996Y-79194360D01*
X170932889Y-79147095D01*
X170811754Y-79123000D01*
X170171555Y-79123000D01*
X170168174Y-78965173D01*
X170007026Y-78898672D01*
X169836002Y-78864887D01*
X169661672Y-78865116D01*
X169490736Y-78899351D01*
X169331826Y-78965173D01*
X169327784Y-79153836D01*
X169448980Y-79275032D01*
X169438932Y-79287007D01*
X169438294Y-79288167D01*
X169437453Y-79289184D01*
X169420607Y-79320340D01*
X169403486Y-79351484D01*
X169403086Y-79352746D01*
X169402458Y-79353907D01*
X169391985Y-79387738D01*
X169381238Y-79421617D01*
X169381090Y-79422933D01*
X169380700Y-79424194D01*
X169376990Y-79459488D01*
X169373037Y-79494736D01*
X169373019Y-79497271D01*
X169373009Y-79497368D01*
X169373018Y-79497465D01*
X169373000Y-79500000D01*
X169373000Y-79546948D01*
X169153836Y-79327784D01*
X168965173Y-79331826D01*
X168898672Y-79492974D01*
X168864887Y-79663998D01*
X168865116Y-79838328D01*
X168899351Y-80009264D01*
X168965173Y-80168174D01*
X169153836Y-80172216D01*
X169373000Y-79953052D01*
X169373000Y-80000000D01*
X169376462Y-80035308D01*
X169379678Y-80070643D01*
X169380051Y-80071910D01*
X169380180Y-80073226D01*
X169390445Y-80107225D01*
X169400452Y-80141227D01*
X169401063Y-80142396D01*
X169401446Y-80143664D01*
X169418126Y-80175034D01*
X169434540Y-80206431D01*
X169435368Y-80207460D01*
X169435989Y-80208629D01*
X169449164Y-80224784D01*
X169327784Y-80346164D01*
X169331826Y-80534827D01*
X169492974Y-80601328D01*
X169663998Y-80635113D01*
X169838328Y-80634884D01*
X170009264Y-80600649D01*
X170168174Y-80534827D01*
X170171555Y-80377000D01*
X170738202Y-80377000D01*
X170673710Y-80411472D01*
X170601078Y-80471080D01*
X170586149Y-80489271D01*
X162929276Y-88146145D01*
X162911079Y-88161079D01*
X162851471Y-88233711D01*
X162807178Y-88316578D01*
X162779903Y-88406493D01*
X162773000Y-88476578D01*
X162773000Y-88476585D01*
X162770694Y-88500000D01*
X162773000Y-88523415D01*
X162773001Y-97884230D01*
X162754691Y-97896464D01*
X162646464Y-98004691D01*
X162561431Y-98131952D01*
X162502859Y-98273357D01*
X162473000Y-98423472D01*
X162473000Y-98576528D01*
X162502859Y-98726643D01*
X162561431Y-98868048D01*
X162646464Y-98995309D01*
X162754691Y-99103536D01*
X162881952Y-99188569D01*
X163023357Y-99247141D01*
X163173472Y-99277000D01*
X163326528Y-99277000D01*
X163476643Y-99247141D01*
X163618048Y-99188569D01*
X163745309Y-99103536D01*
X163853536Y-98995309D01*
X163938569Y-98868048D01*
X163973000Y-98784924D01*
X163973000Y-98826528D01*
X164002859Y-98976643D01*
X164061431Y-99118048D01*
X164146464Y-99245309D01*
X164254691Y-99353536D01*
X164381952Y-99438569D01*
X164523357Y-99497141D01*
X164673472Y-99527000D01*
X164826528Y-99527000D01*
X164976643Y-99497141D01*
X165118048Y-99438569D01*
X165245309Y-99353536D01*
X165353536Y-99245309D01*
X165438569Y-99118048D01*
X165497141Y-98976643D01*
X165527000Y-98826528D01*
X165527000Y-98673472D01*
X165497141Y-98523357D01*
X165438569Y-98381952D01*
X165353536Y-98254691D01*
X165245309Y-98146464D01*
X165227000Y-98134230D01*
X165227000Y-89697579D01*
X170957581Y-83966999D01*
X173107259Y-83966999D01*
X173028337Y-84085114D01*
X172932074Y-84317513D01*
X172883000Y-84564226D01*
X172883000Y-84815774D01*
X172932074Y-85062487D01*
X173028337Y-85294886D01*
X173168089Y-85504040D01*
X173217048Y-85552999D01*
X172243415Y-85552999D01*
X172220000Y-85550693D01*
X172196585Y-85552999D01*
X172196578Y-85552999D01*
X172135339Y-85559031D01*
X172126492Y-85559902D01*
X172099217Y-85568176D01*
X172036578Y-85587177D01*
X171953712Y-85631470D01*
X171881080Y-85691078D01*
X171866151Y-85709269D01*
X165929276Y-91646145D01*
X165911079Y-91661079D01*
X165851471Y-91733711D01*
X165807178Y-91816578D01*
X165779903Y-91906493D01*
X165773000Y-91976578D01*
X165773000Y-91976585D01*
X165770694Y-92000000D01*
X165773000Y-92023415D01*
X165773001Y-99473000D01*
X165673472Y-99473000D01*
X165523357Y-99502859D01*
X165381952Y-99561431D01*
X165254691Y-99646464D01*
X165146464Y-99754691D01*
X165061431Y-99881952D01*
X165002859Y-100023357D01*
X164973000Y-100173472D01*
X164973000Y-100326528D01*
X165002859Y-100476643D01*
X165061431Y-100618048D01*
X165146464Y-100745309D01*
X165238288Y-100837133D01*
X163552421Y-102523000D01*
X158697580Y-102523000D01*
X157977000Y-101802421D01*
X157977000Y-100365770D01*
X157995309Y-100353536D01*
X158103536Y-100245309D01*
X158188569Y-100118048D01*
X158247141Y-99976643D01*
X158277000Y-99826528D01*
X158277000Y-99673472D01*
X158247141Y-99523357D01*
X158188569Y-99381952D01*
X158103536Y-99254691D01*
X157995309Y-99146464D01*
X157868048Y-99061431D01*
X157726643Y-99002859D01*
X157576528Y-98973000D01*
X157423472Y-98973000D01*
X157273357Y-99002859D01*
X157131952Y-99061431D01*
X157004691Y-99146464D01*
X156896464Y-99254691D01*
X156811431Y-99381952D01*
X156752859Y-99523357D01*
X156723000Y-99673472D01*
X156723000Y-99826528D01*
X156752859Y-99976643D01*
X156811431Y-100118048D01*
X156896464Y-100245309D01*
X157004691Y-100353536D01*
X157023000Y-100365770D01*
X157023001Y-101976575D01*
X157020694Y-102000000D01*
X157029903Y-102093507D01*
X157057178Y-102183422D01*
X157057179Y-102183423D01*
X157101472Y-102266289D01*
X157107273Y-102273357D01*
X157142743Y-102316577D01*
X157161080Y-102338921D01*
X157179271Y-102353850D01*
X158146149Y-103320729D01*
X158161079Y-103338921D01*
X158233711Y-103398529D01*
X158316577Y-103442822D01*
X158406492Y-103470097D01*
X158476577Y-103477000D01*
X158476585Y-103477000D01*
X158500000Y-103479306D01*
X158523415Y-103477000D01*
X163726585Y-103477000D01*
X163750000Y-103479306D01*
X163773415Y-103477000D01*
X163773423Y-103477000D01*
X163843508Y-103470097D01*
X163933423Y-103442822D01*
X164016289Y-103398529D01*
X164088921Y-103338921D01*
X164103855Y-103320724D01*
X166070729Y-101353851D01*
X166088921Y-101338921D01*
X166148529Y-101266289D01*
X166192822Y-101183423D01*
X166220097Y-101093508D01*
X166227000Y-101023423D01*
X166227000Y-101023416D01*
X166229306Y-101000001D01*
X166227000Y-100976586D01*
X166227000Y-100865770D01*
X166245309Y-100853536D01*
X166353536Y-100745309D01*
X166438569Y-100618048D01*
X166497141Y-100476643D01*
X166527000Y-100326528D01*
X166527000Y-100173472D01*
X166522704Y-100151876D01*
X166570729Y-100103851D01*
X166588921Y-100088921D01*
X166607259Y-100066577D01*
X166648529Y-100016289D01*
X166692822Y-99933423D01*
X166720097Y-99843508D01*
X166723966Y-99804226D01*
X166727000Y-99773423D01*
X166727000Y-99773415D01*
X166729306Y-99750000D01*
X166727000Y-99726585D01*
X166727000Y-92197579D01*
X172417581Y-86506999D01*
X173107259Y-86506999D01*
X173028337Y-86625114D01*
X172932074Y-86857513D01*
X172883000Y-87104226D01*
X172883000Y-87355774D01*
X172932074Y-87602487D01*
X173028337Y-87834886D01*
X173168089Y-88044040D01*
X173217048Y-88092999D01*
X172203415Y-88092999D01*
X172180000Y-88090693D01*
X172156585Y-88092999D01*
X172156578Y-88092999D01*
X172086493Y-88099902D01*
X171996578Y-88127177D01*
X171913712Y-88171470D01*
X171841080Y-88231078D01*
X171826151Y-88249269D01*
X166929276Y-93146145D01*
X166911079Y-93161079D01*
X166851471Y-93233711D01*
X166807178Y-93316578D01*
X166779903Y-93406493D01*
X166773000Y-93476578D01*
X166773000Y-93476585D01*
X166770694Y-93500000D01*
X166773000Y-93523415D01*
X166773001Y-100134230D01*
X166754691Y-100146464D01*
X166646464Y-100254691D01*
X166561431Y-100381952D01*
X166502859Y-100523357D01*
X166473000Y-100673472D01*
X166473000Y-100826528D01*
X166502859Y-100976643D01*
X166561431Y-101118048D01*
X166646464Y-101245309D01*
X166754691Y-101353536D01*
X166881952Y-101438569D01*
X167023357Y-101497141D01*
X167173472Y-101527000D01*
X167326528Y-101527000D01*
X167476643Y-101497141D01*
X167618048Y-101438569D01*
X167745309Y-101353536D01*
X167853536Y-101245309D01*
X167938569Y-101118048D01*
X167997141Y-100976643D01*
X168027000Y-100826528D01*
X168027000Y-100673472D01*
X167997141Y-100523357D01*
X167938569Y-100381952D01*
X167853536Y-100254691D01*
X167745309Y-100146464D01*
X167727000Y-100134230D01*
X167727000Y-93697579D01*
X168501107Y-92923472D01*
X170723000Y-92923472D01*
X170723000Y-93076528D01*
X170752859Y-93226643D01*
X170811431Y-93368048D01*
X170873000Y-93460193D01*
X170873001Y-100039806D01*
X170811431Y-100131952D01*
X170752859Y-100273357D01*
X170723000Y-100423472D01*
X170723000Y-100576528D01*
X170752859Y-100726643D01*
X170811431Y-100868048D01*
X170896464Y-100995309D01*
X171004691Y-101103536D01*
X171131952Y-101188569D01*
X171273357Y-101247141D01*
X171423472Y-101277000D01*
X171576528Y-101277000D01*
X171726643Y-101247141D01*
X171868048Y-101188569D01*
X171995309Y-101103536D01*
X172103536Y-100995309D01*
X172188569Y-100868048D01*
X172247141Y-100726643D01*
X172277000Y-100576528D01*
X172277000Y-100423472D01*
X172247141Y-100273357D01*
X172188569Y-100131952D01*
X172127000Y-100039807D01*
X172127000Y-93460193D01*
X172188569Y-93368048D01*
X172247141Y-93226643D01*
X172277000Y-93076528D01*
X172277000Y-92923472D01*
X172247141Y-92773357D01*
X172188569Y-92631952D01*
X172103536Y-92504691D01*
X171995309Y-92396464D01*
X171868048Y-92311431D01*
X171726643Y-92252859D01*
X171576528Y-92223000D01*
X171423472Y-92223000D01*
X171273357Y-92252859D01*
X171131952Y-92311431D01*
X171004691Y-92396464D01*
X170896464Y-92504691D01*
X170811431Y-92631952D01*
X170752859Y-92773357D01*
X170723000Y-92923472D01*
X168501107Y-92923472D01*
X172377581Y-89046999D01*
X173107259Y-89046999D01*
X173028337Y-89165114D01*
X172932074Y-89397513D01*
X172883000Y-89644226D01*
X172883000Y-89895774D01*
X172932074Y-90142487D01*
X173028337Y-90374886D01*
X173168089Y-90584040D01*
X173345960Y-90761911D01*
X173555114Y-90901663D01*
X173787513Y-90997926D01*
X173999034Y-91040000D01*
X173787513Y-91082074D01*
X173555114Y-91178337D01*
X173345960Y-91318089D01*
X173168089Y-91495960D01*
X173028337Y-91705114D01*
X172932074Y-91937513D01*
X172883000Y-92184226D01*
X172883000Y-92435774D01*
X172932074Y-92682487D01*
X173028337Y-92914886D01*
X173168089Y-93124040D01*
X173345960Y-93301911D01*
X173555114Y-93441663D01*
X173787513Y-93537926D01*
X173999034Y-93580000D01*
X173787513Y-93622074D01*
X173555114Y-93718337D01*
X173345960Y-93858089D01*
X173168089Y-94035960D01*
X173028337Y-94245114D01*
X172932074Y-94477513D01*
X172883000Y-94724226D01*
X172883000Y-94975774D01*
X172932074Y-95222487D01*
X173028337Y-95454886D01*
X173168089Y-95664040D01*
X173345960Y-95841911D01*
X173555114Y-95981663D01*
X173787513Y-96077926D01*
X173999034Y-96120000D01*
X173787513Y-96162074D01*
X173555114Y-96258337D01*
X173345960Y-96398089D01*
X173168089Y-96575960D01*
X173028337Y-96785114D01*
X172932074Y-97017513D01*
X172883000Y-97264226D01*
X172883000Y-97515774D01*
X172932074Y-97762487D01*
X173028337Y-97994886D01*
X173168089Y-98204040D01*
X173345960Y-98381911D01*
X173555114Y-98521663D01*
X173787513Y-98617926D01*
X173999034Y-98660000D01*
X173787513Y-98702074D01*
X173555114Y-98798337D01*
X173345960Y-98938089D01*
X173168089Y-99115960D01*
X173028337Y-99325114D01*
X172932074Y-99557513D01*
X172883000Y-99804226D01*
X172883000Y-100055774D01*
X172932074Y-100302487D01*
X173028337Y-100534886D01*
X173168089Y-100744040D01*
X173345960Y-100921911D01*
X173555114Y-101061663D01*
X173787513Y-101157926D01*
X173999034Y-101200000D01*
X173787513Y-101242074D01*
X173555114Y-101338337D01*
X173345960Y-101478089D01*
X173168089Y-101655960D01*
X173028337Y-101865114D01*
X172932074Y-102097513D01*
X172883000Y-102344226D01*
X172883000Y-102595774D01*
X172932074Y-102842487D01*
X173028337Y-103074886D01*
X173168089Y-103284040D01*
X173217048Y-103332999D01*
X172507579Y-103332999D01*
X171353855Y-102179276D01*
X171338921Y-102161079D01*
X171266289Y-102101471D01*
X171183423Y-102057178D01*
X171093508Y-102029903D01*
X171023423Y-102023000D01*
X171023415Y-102023000D01*
X171000000Y-102020694D01*
X170976585Y-102023000D01*
X169115770Y-102023000D01*
X169103536Y-102004691D01*
X168995309Y-101896464D01*
X168868048Y-101811431D01*
X168726643Y-101752859D01*
X168576528Y-101723000D01*
X168423472Y-101723000D01*
X168273357Y-101752859D01*
X168131952Y-101811431D01*
X168004691Y-101896464D01*
X167896464Y-102004691D01*
X167811431Y-102131952D01*
X167752859Y-102273357D01*
X167723000Y-102423472D01*
X167723000Y-102576528D01*
X167752859Y-102726643D01*
X167811431Y-102868048D01*
X167896464Y-102995309D01*
X168004691Y-103103536D01*
X168131952Y-103188569D01*
X168273357Y-103247141D01*
X168423472Y-103277000D01*
X168576528Y-103277000D01*
X168726643Y-103247141D01*
X168868048Y-103188569D01*
X168995309Y-103103536D01*
X169103536Y-102995309D01*
X169115770Y-102977000D01*
X170802421Y-102977000D01*
X171956148Y-104130728D01*
X171971078Y-104148920D01*
X172043710Y-104208528D01*
X172126576Y-104252821D01*
X172189215Y-104271822D01*
X172216490Y-104280096D01*
X172225337Y-104280967D01*
X172286576Y-104286999D01*
X172286583Y-104286999D01*
X172309998Y-104289305D01*
X172333413Y-104286999D01*
X173107259Y-104286999D01*
X173028337Y-104405114D01*
X172932074Y-104637513D01*
X172883000Y-104884226D01*
X172883000Y-105135774D01*
X172932074Y-105382487D01*
X173028337Y-105614886D01*
X173168089Y-105824040D01*
X173345960Y-106001911D01*
X173489768Y-106098000D01*
X154510232Y-106098000D01*
X154654040Y-106001911D01*
X154831911Y-105824040D01*
X154971663Y-105614886D01*
X155067926Y-105382487D01*
X155117000Y-105135774D01*
X155117000Y-104884226D01*
X155067926Y-104637513D01*
X154971663Y-104405114D01*
X154831911Y-104195960D01*
X154654040Y-104018089D01*
X154444886Y-103878337D01*
X154212487Y-103782074D01*
X154000966Y-103740000D01*
X154212487Y-103697926D01*
X154444886Y-103601663D01*
X154654040Y-103461911D01*
X154831911Y-103284040D01*
X154971663Y-103074886D01*
X155067926Y-102842487D01*
X155117000Y-102595774D01*
X155117000Y-102344226D01*
X155067926Y-102097513D01*
X154971663Y-101865114D01*
X154831911Y-101655960D01*
X154654040Y-101478089D01*
X154444886Y-101338337D01*
X154212487Y-101242074D01*
X154000966Y-101200000D01*
X154212487Y-101157926D01*
X154444886Y-101061663D01*
X154654040Y-100921911D01*
X154831911Y-100744040D01*
X154971663Y-100534886D01*
X155067926Y-100302487D01*
X155117000Y-100055774D01*
X155117000Y-99804226D01*
X155067926Y-99557513D01*
X154971663Y-99325114D01*
X154831911Y-99115960D01*
X154654040Y-98938089D01*
X154444886Y-98798337D01*
X154212487Y-98702074D01*
X154000966Y-98660000D01*
X154212487Y-98617926D01*
X154444886Y-98521663D01*
X154654040Y-98381911D01*
X154831911Y-98204040D01*
X154971663Y-97994886D01*
X155024635Y-97867000D01*
X155586585Y-97867000D01*
X155610000Y-97869306D01*
X155633415Y-97867000D01*
X155633423Y-97867000D01*
X155703508Y-97860097D01*
X155793423Y-97832822D01*
X155876289Y-97788529D01*
X155948921Y-97728921D01*
X155963855Y-97710724D01*
X156570729Y-97103851D01*
X156588921Y-97088921D01*
X156619978Y-97051079D01*
X156648529Y-97016289D01*
X156692822Y-96933423D01*
X156720097Y-96843508D01*
X156725848Y-96785114D01*
X156727000Y-96773423D01*
X156727000Y-96773415D01*
X156729306Y-96750000D01*
X156727000Y-96726585D01*
X156727000Y-92115770D01*
X156745309Y-92103536D01*
X156853536Y-91995309D01*
X156938569Y-91868048D01*
X156997141Y-91726643D01*
X157027000Y-91576528D01*
X157027000Y-91423472D01*
X156997141Y-91273357D01*
X156938569Y-91131952D01*
X156853536Y-91004691D01*
X156745309Y-90896464D01*
X156618048Y-90811431D01*
X156476643Y-90752859D01*
X156326528Y-90723000D01*
X156173472Y-90723000D01*
X156023357Y-90752859D01*
X155881952Y-90811431D01*
X155754691Y-90896464D01*
X155646464Y-91004691D01*
X155561431Y-91131952D01*
X155502859Y-91273357D01*
X155473000Y-91423472D01*
X155473000Y-91576528D01*
X155502859Y-91726643D01*
X155561431Y-91868048D01*
X155646464Y-91995309D01*
X155754691Y-92103536D01*
X155773000Y-92115770D01*
X155773001Y-96552419D01*
X155412421Y-96913000D01*
X155024635Y-96913000D01*
X154971663Y-96785114D01*
X154831911Y-96575960D01*
X154654040Y-96398089D01*
X154444886Y-96258337D01*
X154212487Y-96162074D01*
X154000966Y-96120000D01*
X154212487Y-96077926D01*
X154444886Y-95981663D01*
X154654040Y-95841911D01*
X154831911Y-95664040D01*
X154971663Y-95454886D01*
X155067926Y-95222487D01*
X155117000Y-94975774D01*
X155117000Y-94724226D01*
X155067926Y-94477513D01*
X154971663Y-94245114D01*
X154831911Y-94035960D01*
X154654040Y-93858089D01*
X154444886Y-93718337D01*
X154212487Y-93622074D01*
X154000966Y-93580000D01*
X154212487Y-93537926D01*
X154444886Y-93441663D01*
X154654040Y-93301911D01*
X154831911Y-93124040D01*
X154971663Y-92914886D01*
X155067926Y-92682487D01*
X155117000Y-92435774D01*
X155117000Y-92184226D01*
X155067926Y-91937513D01*
X154971663Y-91705114D01*
X154831911Y-91495960D01*
X154654040Y-91318089D01*
X154444886Y-91178337D01*
X154212487Y-91082074D01*
X154000966Y-91040000D01*
X154212487Y-90997926D01*
X154444886Y-90901663D01*
X154654040Y-90761911D01*
X154831911Y-90584040D01*
X154971663Y-90374886D01*
X155067926Y-90142487D01*
X155117000Y-89895774D01*
X155117000Y-89644226D01*
X155067926Y-89397513D01*
X154971663Y-89165114D01*
X154831911Y-88955960D01*
X154654040Y-88778089D01*
X154444886Y-88638337D01*
X154212487Y-88542074D01*
X154000966Y-88500000D01*
X154212487Y-88457926D01*
X154444886Y-88361663D01*
X154654040Y-88221911D01*
X154831911Y-88044040D01*
X154971663Y-87834886D01*
X155067926Y-87602487D01*
X155117000Y-87355774D01*
X155117000Y-87104226D01*
X155067926Y-86857513D01*
X154971663Y-86625114D01*
X154831911Y-86415960D01*
X154654040Y-86238089D01*
X154444886Y-86098337D01*
X154212487Y-86002074D01*
X154000966Y-85960000D01*
X154212487Y-85917926D01*
X154444886Y-85821663D01*
X154654040Y-85681911D01*
X154831911Y-85504040D01*
X154971663Y-85294886D01*
X155067926Y-85062487D01*
X155117000Y-84815774D01*
X155117000Y-84564226D01*
X155067926Y-84317513D01*
X154971663Y-84085114D01*
X154831911Y-83875960D01*
X154654040Y-83698089D01*
X154444886Y-83558337D01*
X154212487Y-83462074D01*
X154000966Y-83420000D01*
X154212487Y-83377926D01*
X154444886Y-83281663D01*
X154654040Y-83141911D01*
X154831911Y-82964040D01*
X154971663Y-82754886D01*
X155067926Y-82522487D01*
X155117000Y-82275774D01*
X155117000Y-82024226D01*
X155067926Y-81777513D01*
X154971663Y-81545114D01*
X154831911Y-81335960D01*
X154654040Y-81158089D01*
X154444886Y-81018337D01*
X154212487Y-80922074D01*
X154000966Y-80880000D01*
X154212487Y-80837926D01*
X154444886Y-80741663D01*
X154654040Y-80601911D01*
X154831911Y-80424040D01*
X154971663Y-80214886D01*
X155067926Y-79982487D01*
X155117000Y-79735774D01*
X155117000Y-79484226D01*
X155067926Y-79237513D01*
X154971663Y-79005114D01*
X154831911Y-78795960D01*
X154654040Y-78618089D01*
X154444886Y-78478337D01*
X154212487Y-78382074D01*
X154000966Y-78340000D01*
X154212487Y-78297926D01*
X154444886Y-78201663D01*
X154654040Y-78061911D01*
X154831911Y-77884040D01*
X154971663Y-77674886D01*
X155067926Y-77442487D01*
X155117000Y-77195774D01*
X155117000Y-76944226D01*
X155067926Y-76697513D01*
X154971663Y-76465114D01*
X154831911Y-76255960D01*
X154654040Y-76078089D01*
X154450917Y-75942366D01*
X154491199Y-75928222D01*
X154640792Y-75848261D01*
X154724475Y-75594080D01*
X153840000Y-74709605D01*
X153825858Y-74723748D01*
X153646253Y-74544143D01*
X153660395Y-74530000D01*
X154019605Y-74530000D01*
X154904080Y-75414475D01*
X155158261Y-75330792D01*
X155289158Y-75058225D01*
X155364365Y-74765358D01*
X155380991Y-74463447D01*
X155338397Y-74164093D01*
X155238222Y-73878801D01*
X155158261Y-73729208D01*
X154904080Y-73645525D01*
X154019605Y-74530000D01*
X153660395Y-74530000D01*
X153646253Y-74515858D01*
X153825858Y-74336253D01*
X153840000Y-74350395D01*
X154724475Y-73465920D01*
X154640792Y-73211739D01*
X154448374Y-73119333D01*
X154654040Y-72981911D01*
X154831911Y-72804040D01*
X154971663Y-72594886D01*
X155067926Y-72362487D01*
X155117000Y-72115774D01*
X155117000Y-71864226D01*
X155067926Y-71617513D01*
X154971663Y-71385114D01*
X154831911Y-71175960D01*
X154717000Y-71061049D01*
X154717000Y-70378951D01*
X154768951Y-70327000D01*
X159586735Y-70327000D01*
X162910328Y-73650593D01*
X163010407Y-73732726D01*
X163162762Y-73814161D01*
X163328077Y-73864309D01*
X163499999Y-73881243D01*
X163671922Y-73864309D01*
X163837236Y-73814161D01*
X163989592Y-73732726D01*
X164123132Y-73623132D01*
X164232726Y-73489592D01*
X164314161Y-73337236D01*
X164364309Y-73171922D01*
X164381243Y-72999999D01*
X164364309Y-72828077D01*
X164314161Y-72662762D01*
X164232726Y-72510407D01*
X164150593Y-72410328D01*
X160600597Y-68860332D01*
X160573133Y-68826867D01*
X160439592Y-68717273D01*
X160287237Y-68635838D01*
X160121922Y-68585690D01*
X159993079Y-68573000D01*
X159950000Y-68568757D01*
X159906921Y-68573000D01*
X154768951Y-68573000D01*
X154654040Y-68458089D01*
X154444886Y-68318337D01*
X154212487Y-68222074D01*
X154000966Y-68180000D01*
X154212487Y-68137926D01*
X154444886Y-68041663D01*
X154654040Y-67901911D01*
X154831911Y-67724040D01*
X154971663Y-67514886D01*
X155067926Y-67282487D01*
X155117000Y-67035774D01*
X155117000Y-66784226D01*
X155067926Y-66537513D01*
X154971663Y-66305114D01*
X154831911Y-66095960D01*
X154654040Y-65918089D01*
X154444886Y-65778337D01*
X154212487Y-65682074D01*
X153965774Y-65633000D01*
X153714226Y-65633000D01*
X153467513Y-65682074D01*
X153235114Y-65778337D01*
X153025960Y-65918089D01*
X152902000Y-66042049D01*
X152902000Y-60902000D01*
X176598001Y-60902000D01*
X176598000Y-70050253D01*
%TA.AperFunction,Conductor*%
D21*
G36*
X176598000Y-70050253D02*
G01*
X176596055Y-70070000D01*
X176603817Y-70148806D01*
X176626803Y-70224583D01*
X176664132Y-70294420D01*
X176690870Y-70327000D01*
X176714368Y-70355632D01*
X176775580Y-70405868D01*
X176845417Y-70443197D01*
X176921194Y-70466183D01*
X177000000Y-70473945D01*
X177019747Y-70472000D01*
X210368194Y-70472000D01*
X210368619Y-71336176D01*
X204703000Y-71336176D01*
X204629095Y-71343455D01*
X204558030Y-71365012D01*
X204492537Y-71400019D01*
X204435131Y-71447131D01*
X204388019Y-71504537D01*
X204353012Y-71570030D01*
X204331455Y-71641095D01*
X204324176Y-71715000D01*
X204324176Y-71863000D01*
X179683415Y-71863000D01*
X179660000Y-71860694D01*
X179636585Y-71863000D01*
X179636577Y-71863000D01*
X179566492Y-71869903D01*
X179476577Y-71897178D01*
X179393711Y-71941471D01*
X179321079Y-72001079D01*
X179306149Y-72019271D01*
X177702421Y-73623000D01*
X176688246Y-73623000D01*
X176567111Y-73647095D01*
X176453004Y-73694360D01*
X176350311Y-73762977D01*
X176340288Y-73773000D01*
X170523415Y-73773000D01*
X170500000Y-73770694D01*
X170476585Y-73773000D01*
X170476577Y-73773000D01*
X170406492Y-73779903D01*
X170316577Y-73807178D01*
X170233711Y-73851471D01*
X170161079Y-73911079D01*
X170146150Y-73929270D01*
X161929276Y-82146145D01*
X161911079Y-82161079D01*
X161851471Y-82233711D01*
X161807178Y-82316578D01*
X161779903Y-82406493D01*
X161773000Y-82476578D01*
X161773000Y-82476585D01*
X161770694Y-82500000D01*
X161773000Y-82523415D01*
X161773001Y-90653365D01*
X161747141Y-90523357D01*
X161688569Y-90381952D01*
X161603536Y-90254691D01*
X161495309Y-90146464D01*
X161368048Y-90061431D01*
X161226643Y-90002859D01*
X161076528Y-89973000D01*
X160923472Y-89973000D01*
X160901876Y-89977296D01*
X159103855Y-88179276D01*
X159088921Y-88161079D01*
X159016289Y-88101471D01*
X158933423Y-88057178D01*
X158843508Y-88029903D01*
X158773423Y-88023000D01*
X158773415Y-88023000D01*
X158750000Y-88020694D01*
X158726585Y-88023000D01*
X157615770Y-88023000D01*
X157603536Y-88004691D01*
X157495309Y-87896464D01*
X157368048Y-87811431D01*
X157226643Y-87752859D01*
X157076528Y-87723000D01*
X156923472Y-87723000D01*
X156773357Y-87752859D01*
X156631952Y-87811431D01*
X156504691Y-87896464D01*
X156396464Y-88004691D01*
X156311431Y-88131952D01*
X156252859Y-88273357D01*
X156223000Y-88423472D01*
X156223000Y-88576528D01*
X156252859Y-88726643D01*
X156311431Y-88868048D01*
X156396464Y-88995309D01*
X156504691Y-89103536D01*
X156631952Y-89188569D01*
X156773357Y-89247141D01*
X156923472Y-89277000D01*
X157076528Y-89277000D01*
X157226643Y-89247141D01*
X157368048Y-89188569D01*
X157495309Y-89103536D01*
X157603536Y-88995309D01*
X157615770Y-88977000D01*
X158552421Y-88977000D01*
X160227296Y-90651876D01*
X160223000Y-90673472D01*
X160223000Y-90826528D01*
X160252859Y-90976643D01*
X160311431Y-91118048D01*
X160396464Y-91245309D01*
X160504691Y-91353536D01*
X160631952Y-91438569D01*
X160773357Y-91497141D01*
X160923472Y-91527000D01*
X161076528Y-91527000D01*
X161226643Y-91497141D01*
X161368048Y-91438569D01*
X161495309Y-91353536D01*
X161603536Y-91245309D01*
X161688569Y-91118048D01*
X161747141Y-90976643D01*
X161773001Y-90846635D01*
X161773001Y-97052419D01*
X159429276Y-99396145D01*
X159411079Y-99411079D01*
X159351471Y-99483711D01*
X159307178Y-99566578D01*
X159279903Y-99656493D01*
X159273000Y-99726578D01*
X159273000Y-99726585D01*
X159270694Y-99750000D01*
X159273000Y-99773415D01*
X159273001Y-100634230D01*
X159254691Y-100646464D01*
X159146464Y-100754691D01*
X159061431Y-100881952D01*
X159002859Y-101023357D01*
X158973000Y-101173472D01*
X158973000Y-101326528D01*
X159002859Y-101476643D01*
X159061431Y-101618048D01*
X159146464Y-101745309D01*
X159254691Y-101853536D01*
X159381952Y-101938569D01*
X159523357Y-101997141D01*
X159673472Y-102027000D01*
X159826528Y-102027000D01*
X159976643Y-101997141D01*
X160118048Y-101938569D01*
X160245309Y-101853536D01*
X160353536Y-101745309D01*
X160438569Y-101618048D01*
X160497141Y-101476643D01*
X160527000Y-101326528D01*
X160527000Y-101173472D01*
X160497141Y-101023357D01*
X160438569Y-100881952D01*
X160353536Y-100754691D01*
X160245309Y-100646464D01*
X160227000Y-100634230D01*
X160227000Y-99947579D01*
X162570729Y-97603851D01*
X162588921Y-97588921D01*
X162648529Y-97516289D01*
X162692822Y-97433423D01*
X162720097Y-97343508D01*
X162727000Y-97273423D01*
X162727000Y-97273415D01*
X162729306Y-97250000D01*
X162727000Y-97226585D01*
X162727000Y-85825845D01*
X162754691Y-85853536D01*
X162881952Y-85938569D01*
X163023357Y-85997141D01*
X163173472Y-86027000D01*
X163326528Y-86027000D01*
X163476643Y-85997141D01*
X163618048Y-85938569D01*
X163745309Y-85853536D01*
X163853536Y-85745309D01*
X163938569Y-85618048D01*
X163997141Y-85476643D01*
X164027000Y-85326528D01*
X164027000Y-85173472D01*
X163997141Y-85023357D01*
X163938569Y-84881952D01*
X163853536Y-84754691D01*
X163745309Y-84646464D01*
X163727000Y-84634230D01*
X163727000Y-82947579D01*
X167927579Y-78747001D01*
X173217048Y-78747001D01*
X173168089Y-78795960D01*
X173028337Y-79005114D01*
X172932074Y-79237513D01*
X172925015Y-79273000D01*
X171159712Y-79273000D01*
X171149689Y-79262977D01*
X171046996Y-79194360D01*
X170932889Y-79147095D01*
X170811754Y-79123000D01*
X170171555Y-79123000D01*
X170168174Y-78965173D01*
X170007026Y-78898672D01*
X169836002Y-78864887D01*
X169661672Y-78865116D01*
X169490736Y-78899351D01*
X169331826Y-78965173D01*
X169327784Y-79153836D01*
X169448980Y-79275032D01*
X169438932Y-79287007D01*
X169438294Y-79288167D01*
X169437453Y-79289184D01*
X169420607Y-79320340D01*
X169403486Y-79351484D01*
X169403086Y-79352746D01*
X169402458Y-79353907D01*
X169391985Y-79387738D01*
X169381238Y-79421617D01*
X169381090Y-79422933D01*
X169380700Y-79424194D01*
X169376990Y-79459488D01*
X169373037Y-79494736D01*
X169373019Y-79497271D01*
X169373009Y-79497368D01*
X169373018Y-79497465D01*
X169373000Y-79500000D01*
X169373000Y-79546948D01*
X169153836Y-79327784D01*
X168965173Y-79331826D01*
X168898672Y-79492974D01*
X168864887Y-79663998D01*
X168865116Y-79838328D01*
X168899351Y-80009264D01*
X168965173Y-80168174D01*
X169153836Y-80172216D01*
X169373000Y-79953052D01*
X169373000Y-80000000D01*
X169376462Y-80035308D01*
X169379678Y-80070643D01*
X169380051Y-80071910D01*
X169380180Y-80073226D01*
X169390445Y-80107225D01*
X169400452Y-80141227D01*
X169401063Y-80142396D01*
X169401446Y-80143664D01*
X169418126Y-80175034D01*
X169434540Y-80206431D01*
X169435368Y-80207460D01*
X169435989Y-80208629D01*
X169449164Y-80224784D01*
X169327784Y-80346164D01*
X169331826Y-80534827D01*
X169492974Y-80601328D01*
X169663998Y-80635113D01*
X169838328Y-80634884D01*
X170009264Y-80600649D01*
X170168174Y-80534827D01*
X170171555Y-80377000D01*
X170738202Y-80377000D01*
X170673710Y-80411472D01*
X170601078Y-80471080D01*
X170586149Y-80489271D01*
X162929276Y-88146145D01*
X162911079Y-88161079D01*
X162851471Y-88233711D01*
X162807178Y-88316578D01*
X162779903Y-88406493D01*
X162773000Y-88476578D01*
X162773000Y-88476585D01*
X162770694Y-88500000D01*
X162773000Y-88523415D01*
X162773001Y-97884230D01*
X162754691Y-97896464D01*
X162646464Y-98004691D01*
X162561431Y-98131952D01*
X162502859Y-98273357D01*
X162473000Y-98423472D01*
X162473000Y-98576528D01*
X162502859Y-98726643D01*
X162561431Y-98868048D01*
X162646464Y-98995309D01*
X162754691Y-99103536D01*
X162881952Y-99188569D01*
X163023357Y-99247141D01*
X163173472Y-99277000D01*
X163326528Y-99277000D01*
X163476643Y-99247141D01*
X163618048Y-99188569D01*
X163745309Y-99103536D01*
X163853536Y-98995309D01*
X163938569Y-98868048D01*
X163973000Y-98784924D01*
X163973000Y-98826528D01*
X164002859Y-98976643D01*
X164061431Y-99118048D01*
X164146464Y-99245309D01*
X164254691Y-99353536D01*
X164381952Y-99438569D01*
X164523357Y-99497141D01*
X164673472Y-99527000D01*
X164826528Y-99527000D01*
X164976643Y-99497141D01*
X165118048Y-99438569D01*
X165245309Y-99353536D01*
X165353536Y-99245309D01*
X165438569Y-99118048D01*
X165497141Y-98976643D01*
X165527000Y-98826528D01*
X165527000Y-98673472D01*
X165497141Y-98523357D01*
X165438569Y-98381952D01*
X165353536Y-98254691D01*
X165245309Y-98146464D01*
X165227000Y-98134230D01*
X165227000Y-89697579D01*
X170957581Y-83966999D01*
X173107259Y-83966999D01*
X173028337Y-84085114D01*
X172932074Y-84317513D01*
X172883000Y-84564226D01*
X172883000Y-84815774D01*
X172932074Y-85062487D01*
X173028337Y-85294886D01*
X173168089Y-85504040D01*
X173217048Y-85552999D01*
X172243415Y-85552999D01*
X172220000Y-85550693D01*
X172196585Y-85552999D01*
X172196578Y-85552999D01*
X172135339Y-85559031D01*
X172126492Y-85559902D01*
X172099217Y-85568176D01*
X172036578Y-85587177D01*
X171953712Y-85631470D01*
X171881080Y-85691078D01*
X171866151Y-85709269D01*
X165929276Y-91646145D01*
X165911079Y-91661079D01*
X165851471Y-91733711D01*
X165807178Y-91816578D01*
X165779903Y-91906493D01*
X165773000Y-91976578D01*
X165773000Y-91976585D01*
X165770694Y-92000000D01*
X165773000Y-92023415D01*
X165773001Y-99473000D01*
X165673472Y-99473000D01*
X165523357Y-99502859D01*
X165381952Y-99561431D01*
X165254691Y-99646464D01*
X165146464Y-99754691D01*
X165061431Y-99881952D01*
X165002859Y-100023357D01*
X164973000Y-100173472D01*
X164973000Y-100326528D01*
X165002859Y-100476643D01*
X165061431Y-100618048D01*
X165146464Y-100745309D01*
X165238288Y-100837133D01*
X163552421Y-102523000D01*
X158697580Y-102523000D01*
X157977000Y-101802421D01*
X157977000Y-100365770D01*
X157995309Y-100353536D01*
X158103536Y-100245309D01*
X158188569Y-100118048D01*
X158247141Y-99976643D01*
X158277000Y-99826528D01*
X158277000Y-99673472D01*
X158247141Y-99523357D01*
X158188569Y-99381952D01*
X158103536Y-99254691D01*
X157995309Y-99146464D01*
X157868048Y-99061431D01*
X157726643Y-99002859D01*
X157576528Y-98973000D01*
X157423472Y-98973000D01*
X157273357Y-99002859D01*
X157131952Y-99061431D01*
X157004691Y-99146464D01*
X156896464Y-99254691D01*
X156811431Y-99381952D01*
X156752859Y-99523357D01*
X156723000Y-99673472D01*
X156723000Y-99826528D01*
X156752859Y-99976643D01*
X156811431Y-100118048D01*
X156896464Y-100245309D01*
X157004691Y-100353536D01*
X157023000Y-100365770D01*
X157023001Y-101976575D01*
X157020694Y-102000000D01*
X157029903Y-102093507D01*
X157057178Y-102183422D01*
X157057179Y-102183423D01*
X157101472Y-102266289D01*
X157107273Y-102273357D01*
X157142743Y-102316577D01*
X157161080Y-102338921D01*
X157179271Y-102353850D01*
X158146149Y-103320729D01*
X158161079Y-103338921D01*
X158233711Y-103398529D01*
X158316577Y-103442822D01*
X158406492Y-103470097D01*
X158476577Y-103477000D01*
X158476585Y-103477000D01*
X158500000Y-103479306D01*
X158523415Y-103477000D01*
X163726585Y-103477000D01*
X163750000Y-103479306D01*
X163773415Y-103477000D01*
X163773423Y-103477000D01*
X163843508Y-103470097D01*
X163933423Y-103442822D01*
X164016289Y-103398529D01*
X164088921Y-103338921D01*
X164103855Y-103320724D01*
X166070729Y-101353851D01*
X166088921Y-101338921D01*
X166148529Y-101266289D01*
X166192822Y-101183423D01*
X166220097Y-101093508D01*
X166227000Y-101023423D01*
X166227000Y-101023416D01*
X166229306Y-101000001D01*
X166227000Y-100976586D01*
X166227000Y-100865770D01*
X166245309Y-100853536D01*
X166353536Y-100745309D01*
X166438569Y-100618048D01*
X166497141Y-100476643D01*
X166527000Y-100326528D01*
X166527000Y-100173472D01*
X166522704Y-100151876D01*
X166570729Y-100103851D01*
X166588921Y-100088921D01*
X166607259Y-100066577D01*
X166648529Y-100016289D01*
X166692822Y-99933423D01*
X166720097Y-99843508D01*
X166723966Y-99804226D01*
X166727000Y-99773423D01*
X166727000Y-99773415D01*
X166729306Y-99750000D01*
X166727000Y-99726585D01*
X166727000Y-92197579D01*
X172417581Y-86506999D01*
X173107259Y-86506999D01*
X173028337Y-86625114D01*
X172932074Y-86857513D01*
X172883000Y-87104226D01*
X172883000Y-87355774D01*
X172932074Y-87602487D01*
X173028337Y-87834886D01*
X173168089Y-88044040D01*
X173217048Y-88092999D01*
X172203415Y-88092999D01*
X172180000Y-88090693D01*
X172156585Y-88092999D01*
X172156578Y-88092999D01*
X172086493Y-88099902D01*
X171996578Y-88127177D01*
X171913712Y-88171470D01*
X171841080Y-88231078D01*
X171826151Y-88249269D01*
X166929276Y-93146145D01*
X166911079Y-93161079D01*
X166851471Y-93233711D01*
X166807178Y-93316578D01*
X166779903Y-93406493D01*
X166773000Y-93476578D01*
X166773000Y-93476585D01*
X166770694Y-93500000D01*
X166773000Y-93523415D01*
X166773001Y-100134230D01*
X166754691Y-100146464D01*
X166646464Y-100254691D01*
X166561431Y-100381952D01*
X166502859Y-100523357D01*
X166473000Y-100673472D01*
X166473000Y-100826528D01*
X166502859Y-100976643D01*
X166561431Y-101118048D01*
X166646464Y-101245309D01*
X166754691Y-101353536D01*
X166881952Y-101438569D01*
X167023357Y-101497141D01*
X167173472Y-101527000D01*
X167326528Y-101527000D01*
X167476643Y-101497141D01*
X167618048Y-101438569D01*
X167745309Y-101353536D01*
X167853536Y-101245309D01*
X167938569Y-101118048D01*
X167997141Y-100976643D01*
X168027000Y-100826528D01*
X168027000Y-100673472D01*
X167997141Y-100523357D01*
X167938569Y-100381952D01*
X167853536Y-100254691D01*
X167745309Y-100146464D01*
X167727000Y-100134230D01*
X167727000Y-93697579D01*
X168501107Y-92923472D01*
X170723000Y-92923472D01*
X170723000Y-93076528D01*
X170752859Y-93226643D01*
X170811431Y-93368048D01*
X170873000Y-93460193D01*
X170873001Y-100039806D01*
X170811431Y-100131952D01*
X170752859Y-100273357D01*
X170723000Y-100423472D01*
X170723000Y-100576528D01*
X170752859Y-100726643D01*
X170811431Y-100868048D01*
X170896464Y-100995309D01*
X171004691Y-101103536D01*
X171131952Y-101188569D01*
X171273357Y-101247141D01*
X171423472Y-101277000D01*
X171576528Y-101277000D01*
X171726643Y-101247141D01*
X171868048Y-101188569D01*
X171995309Y-101103536D01*
X172103536Y-100995309D01*
X172188569Y-100868048D01*
X172247141Y-100726643D01*
X172277000Y-100576528D01*
X172277000Y-100423472D01*
X172247141Y-100273357D01*
X172188569Y-100131952D01*
X172127000Y-100039807D01*
X172127000Y-93460193D01*
X172188569Y-93368048D01*
X172247141Y-93226643D01*
X172277000Y-93076528D01*
X172277000Y-92923472D01*
X172247141Y-92773357D01*
X172188569Y-92631952D01*
X172103536Y-92504691D01*
X171995309Y-92396464D01*
X171868048Y-92311431D01*
X171726643Y-92252859D01*
X171576528Y-92223000D01*
X171423472Y-92223000D01*
X171273357Y-92252859D01*
X171131952Y-92311431D01*
X171004691Y-92396464D01*
X170896464Y-92504691D01*
X170811431Y-92631952D01*
X170752859Y-92773357D01*
X170723000Y-92923472D01*
X168501107Y-92923472D01*
X172377581Y-89046999D01*
X173107259Y-89046999D01*
X173028337Y-89165114D01*
X172932074Y-89397513D01*
X172883000Y-89644226D01*
X172883000Y-89895774D01*
X172932074Y-90142487D01*
X173028337Y-90374886D01*
X173168089Y-90584040D01*
X173345960Y-90761911D01*
X173555114Y-90901663D01*
X173787513Y-90997926D01*
X173999034Y-91040000D01*
X173787513Y-91082074D01*
X173555114Y-91178337D01*
X173345960Y-91318089D01*
X173168089Y-91495960D01*
X173028337Y-91705114D01*
X172932074Y-91937513D01*
X172883000Y-92184226D01*
X172883000Y-92435774D01*
X172932074Y-92682487D01*
X173028337Y-92914886D01*
X173168089Y-93124040D01*
X173345960Y-93301911D01*
X173555114Y-93441663D01*
X173787513Y-93537926D01*
X173999034Y-93580000D01*
X173787513Y-93622074D01*
X173555114Y-93718337D01*
X173345960Y-93858089D01*
X173168089Y-94035960D01*
X173028337Y-94245114D01*
X172932074Y-94477513D01*
X172883000Y-94724226D01*
X172883000Y-94975774D01*
X172932074Y-95222487D01*
X173028337Y-95454886D01*
X173168089Y-95664040D01*
X173345960Y-95841911D01*
X173555114Y-95981663D01*
X173787513Y-96077926D01*
X173999034Y-96120000D01*
X173787513Y-96162074D01*
X173555114Y-96258337D01*
X173345960Y-96398089D01*
X173168089Y-96575960D01*
X173028337Y-96785114D01*
X172932074Y-97017513D01*
X172883000Y-97264226D01*
X172883000Y-97515774D01*
X172932074Y-97762487D01*
X173028337Y-97994886D01*
X173168089Y-98204040D01*
X173345960Y-98381911D01*
X173555114Y-98521663D01*
X173787513Y-98617926D01*
X173999034Y-98660000D01*
X173787513Y-98702074D01*
X173555114Y-98798337D01*
X173345960Y-98938089D01*
X173168089Y-99115960D01*
X173028337Y-99325114D01*
X172932074Y-99557513D01*
X172883000Y-99804226D01*
X172883000Y-100055774D01*
X172932074Y-100302487D01*
X173028337Y-100534886D01*
X173168089Y-100744040D01*
X173345960Y-100921911D01*
X173555114Y-101061663D01*
X173787513Y-101157926D01*
X173999034Y-101200000D01*
X173787513Y-101242074D01*
X173555114Y-101338337D01*
X173345960Y-101478089D01*
X173168089Y-101655960D01*
X173028337Y-101865114D01*
X172932074Y-102097513D01*
X172883000Y-102344226D01*
X172883000Y-102595774D01*
X172932074Y-102842487D01*
X173028337Y-103074886D01*
X173168089Y-103284040D01*
X173217048Y-103332999D01*
X172507579Y-103332999D01*
X171353855Y-102179276D01*
X171338921Y-102161079D01*
X171266289Y-102101471D01*
X171183423Y-102057178D01*
X171093508Y-102029903D01*
X171023423Y-102023000D01*
X171023415Y-102023000D01*
X171000000Y-102020694D01*
X170976585Y-102023000D01*
X169115770Y-102023000D01*
X169103536Y-102004691D01*
X168995309Y-101896464D01*
X168868048Y-101811431D01*
X168726643Y-101752859D01*
X168576528Y-101723000D01*
X168423472Y-101723000D01*
X168273357Y-101752859D01*
X168131952Y-101811431D01*
X168004691Y-101896464D01*
X167896464Y-102004691D01*
X167811431Y-102131952D01*
X167752859Y-102273357D01*
X167723000Y-102423472D01*
X167723000Y-102576528D01*
X167752859Y-102726643D01*
X167811431Y-102868048D01*
X167896464Y-102995309D01*
X168004691Y-103103536D01*
X168131952Y-103188569D01*
X168273357Y-103247141D01*
X168423472Y-103277000D01*
X168576528Y-103277000D01*
X168726643Y-103247141D01*
X168868048Y-103188569D01*
X168995309Y-103103536D01*
X169103536Y-102995309D01*
X169115770Y-102977000D01*
X170802421Y-102977000D01*
X171956148Y-104130728D01*
X171971078Y-104148920D01*
X172043710Y-104208528D01*
X172126576Y-104252821D01*
X172189215Y-104271822D01*
X172216490Y-104280096D01*
X172225337Y-104280967D01*
X172286576Y-104286999D01*
X172286583Y-104286999D01*
X172309998Y-104289305D01*
X172333413Y-104286999D01*
X173107259Y-104286999D01*
X173028337Y-104405114D01*
X172932074Y-104637513D01*
X172883000Y-104884226D01*
X172883000Y-105135774D01*
X172932074Y-105382487D01*
X173028337Y-105614886D01*
X173168089Y-105824040D01*
X173345960Y-106001911D01*
X173489768Y-106098000D01*
X154510232Y-106098000D01*
X154654040Y-106001911D01*
X154831911Y-105824040D01*
X154971663Y-105614886D01*
X155067926Y-105382487D01*
X155117000Y-105135774D01*
X155117000Y-104884226D01*
X155067926Y-104637513D01*
X154971663Y-104405114D01*
X154831911Y-104195960D01*
X154654040Y-104018089D01*
X154444886Y-103878337D01*
X154212487Y-103782074D01*
X154000966Y-103740000D01*
X154212487Y-103697926D01*
X154444886Y-103601663D01*
X154654040Y-103461911D01*
X154831911Y-103284040D01*
X154971663Y-103074886D01*
X155067926Y-102842487D01*
X155117000Y-102595774D01*
X155117000Y-102344226D01*
X155067926Y-102097513D01*
X154971663Y-101865114D01*
X154831911Y-101655960D01*
X154654040Y-101478089D01*
X154444886Y-101338337D01*
X154212487Y-101242074D01*
X154000966Y-101200000D01*
X154212487Y-101157926D01*
X154444886Y-101061663D01*
X154654040Y-100921911D01*
X154831911Y-100744040D01*
X154971663Y-100534886D01*
X155067926Y-100302487D01*
X155117000Y-100055774D01*
X155117000Y-99804226D01*
X155067926Y-99557513D01*
X154971663Y-99325114D01*
X154831911Y-99115960D01*
X154654040Y-98938089D01*
X154444886Y-98798337D01*
X154212487Y-98702074D01*
X154000966Y-98660000D01*
X154212487Y-98617926D01*
X154444886Y-98521663D01*
X154654040Y-98381911D01*
X154831911Y-98204040D01*
X154971663Y-97994886D01*
X155024635Y-97867000D01*
X155586585Y-97867000D01*
X155610000Y-97869306D01*
X155633415Y-97867000D01*
X155633423Y-97867000D01*
X155703508Y-97860097D01*
X155793423Y-97832822D01*
X155876289Y-97788529D01*
X155948921Y-97728921D01*
X155963855Y-97710724D01*
X156570729Y-97103851D01*
X156588921Y-97088921D01*
X156619978Y-97051079D01*
X156648529Y-97016289D01*
X156692822Y-96933423D01*
X156720097Y-96843508D01*
X156725848Y-96785114D01*
X156727000Y-96773423D01*
X156727000Y-96773415D01*
X156729306Y-96750000D01*
X156727000Y-96726585D01*
X156727000Y-92115770D01*
X156745309Y-92103536D01*
X156853536Y-91995309D01*
X156938569Y-91868048D01*
X156997141Y-91726643D01*
X157027000Y-91576528D01*
X157027000Y-91423472D01*
X156997141Y-91273357D01*
X156938569Y-91131952D01*
X156853536Y-91004691D01*
X156745309Y-90896464D01*
X156618048Y-90811431D01*
X156476643Y-90752859D01*
X156326528Y-90723000D01*
X156173472Y-90723000D01*
X156023357Y-90752859D01*
X155881952Y-90811431D01*
X155754691Y-90896464D01*
X155646464Y-91004691D01*
X155561431Y-91131952D01*
X155502859Y-91273357D01*
X155473000Y-91423472D01*
X155473000Y-91576528D01*
X155502859Y-91726643D01*
X155561431Y-91868048D01*
X155646464Y-91995309D01*
X155754691Y-92103536D01*
X155773000Y-92115770D01*
X155773001Y-96552419D01*
X155412421Y-96913000D01*
X155024635Y-96913000D01*
X154971663Y-96785114D01*
X154831911Y-96575960D01*
X154654040Y-96398089D01*
X154444886Y-96258337D01*
X154212487Y-96162074D01*
X154000966Y-96120000D01*
X154212487Y-96077926D01*
X154444886Y-95981663D01*
X154654040Y-95841911D01*
X154831911Y-95664040D01*
X154971663Y-95454886D01*
X155067926Y-95222487D01*
X155117000Y-94975774D01*
X155117000Y-94724226D01*
X155067926Y-94477513D01*
X154971663Y-94245114D01*
X154831911Y-94035960D01*
X154654040Y-93858089D01*
X154444886Y-93718337D01*
X154212487Y-93622074D01*
X154000966Y-93580000D01*
X154212487Y-93537926D01*
X154444886Y-93441663D01*
X154654040Y-93301911D01*
X154831911Y-93124040D01*
X154971663Y-92914886D01*
X155067926Y-92682487D01*
X155117000Y-92435774D01*
X155117000Y-92184226D01*
X155067926Y-91937513D01*
X154971663Y-91705114D01*
X154831911Y-91495960D01*
X154654040Y-91318089D01*
X154444886Y-91178337D01*
X154212487Y-91082074D01*
X154000966Y-91040000D01*
X154212487Y-90997926D01*
X154444886Y-90901663D01*
X154654040Y-90761911D01*
X154831911Y-90584040D01*
X154971663Y-90374886D01*
X155067926Y-90142487D01*
X155117000Y-89895774D01*
X155117000Y-89644226D01*
X155067926Y-89397513D01*
X154971663Y-89165114D01*
X154831911Y-88955960D01*
X154654040Y-88778089D01*
X154444886Y-88638337D01*
X154212487Y-88542074D01*
X154000966Y-88500000D01*
X154212487Y-88457926D01*
X154444886Y-88361663D01*
X154654040Y-88221911D01*
X154831911Y-88044040D01*
X154971663Y-87834886D01*
X155067926Y-87602487D01*
X155117000Y-87355774D01*
X155117000Y-87104226D01*
X155067926Y-86857513D01*
X154971663Y-86625114D01*
X154831911Y-86415960D01*
X154654040Y-86238089D01*
X154444886Y-86098337D01*
X154212487Y-86002074D01*
X154000966Y-85960000D01*
X154212487Y-85917926D01*
X154444886Y-85821663D01*
X154654040Y-85681911D01*
X154831911Y-85504040D01*
X154971663Y-85294886D01*
X155067926Y-85062487D01*
X155117000Y-84815774D01*
X155117000Y-84564226D01*
X155067926Y-84317513D01*
X154971663Y-84085114D01*
X154831911Y-83875960D01*
X154654040Y-83698089D01*
X154444886Y-83558337D01*
X154212487Y-83462074D01*
X154000966Y-83420000D01*
X154212487Y-83377926D01*
X154444886Y-83281663D01*
X154654040Y-83141911D01*
X154831911Y-82964040D01*
X154971663Y-82754886D01*
X155067926Y-82522487D01*
X155117000Y-82275774D01*
X155117000Y-82024226D01*
X155067926Y-81777513D01*
X154971663Y-81545114D01*
X154831911Y-81335960D01*
X154654040Y-81158089D01*
X154444886Y-81018337D01*
X154212487Y-80922074D01*
X154000966Y-80880000D01*
X154212487Y-80837926D01*
X154444886Y-80741663D01*
X154654040Y-80601911D01*
X154831911Y-80424040D01*
X154971663Y-80214886D01*
X155067926Y-79982487D01*
X155117000Y-79735774D01*
X155117000Y-79484226D01*
X155067926Y-79237513D01*
X154971663Y-79005114D01*
X154831911Y-78795960D01*
X154654040Y-78618089D01*
X154444886Y-78478337D01*
X154212487Y-78382074D01*
X154000966Y-78340000D01*
X154212487Y-78297926D01*
X154444886Y-78201663D01*
X154654040Y-78061911D01*
X154831911Y-77884040D01*
X154971663Y-77674886D01*
X155067926Y-77442487D01*
X155117000Y-77195774D01*
X155117000Y-76944226D01*
X155067926Y-76697513D01*
X154971663Y-76465114D01*
X154831911Y-76255960D01*
X154654040Y-76078089D01*
X154450917Y-75942366D01*
X154491199Y-75928222D01*
X154640792Y-75848261D01*
X154724475Y-75594080D01*
X153840000Y-74709605D01*
X153825858Y-74723748D01*
X153646253Y-74544143D01*
X153660395Y-74530000D01*
X154019605Y-74530000D01*
X154904080Y-75414475D01*
X155158261Y-75330792D01*
X155289158Y-75058225D01*
X155364365Y-74765358D01*
X155380991Y-74463447D01*
X155338397Y-74164093D01*
X155238222Y-73878801D01*
X155158261Y-73729208D01*
X154904080Y-73645525D01*
X154019605Y-74530000D01*
X153660395Y-74530000D01*
X153646253Y-74515858D01*
X153825858Y-74336253D01*
X153840000Y-74350395D01*
X154724475Y-73465920D01*
X154640792Y-73211739D01*
X154448374Y-73119333D01*
X154654040Y-72981911D01*
X154831911Y-72804040D01*
X154971663Y-72594886D01*
X155067926Y-72362487D01*
X155117000Y-72115774D01*
X155117000Y-71864226D01*
X155067926Y-71617513D01*
X154971663Y-71385114D01*
X154831911Y-71175960D01*
X154717000Y-71061049D01*
X154717000Y-70378951D01*
X154768951Y-70327000D01*
X159586735Y-70327000D01*
X162910328Y-73650593D01*
X163010407Y-73732726D01*
X163162762Y-73814161D01*
X163328077Y-73864309D01*
X163499999Y-73881243D01*
X163671922Y-73864309D01*
X163837236Y-73814161D01*
X163989592Y-73732726D01*
X164123132Y-73623132D01*
X164232726Y-73489592D01*
X164314161Y-73337236D01*
X164364309Y-73171922D01*
X164381243Y-72999999D01*
X164364309Y-72828077D01*
X164314161Y-72662762D01*
X164232726Y-72510407D01*
X164150593Y-72410328D01*
X160600597Y-68860332D01*
X160573133Y-68826867D01*
X160439592Y-68717273D01*
X160287237Y-68635838D01*
X160121922Y-68585690D01*
X159993079Y-68573000D01*
X159950000Y-68568757D01*
X159906921Y-68573000D01*
X154768951Y-68573000D01*
X154654040Y-68458089D01*
X154444886Y-68318337D01*
X154212487Y-68222074D01*
X154000966Y-68180000D01*
X154212487Y-68137926D01*
X154444886Y-68041663D01*
X154654040Y-67901911D01*
X154831911Y-67724040D01*
X154971663Y-67514886D01*
X155067926Y-67282487D01*
X155117000Y-67035774D01*
X155117000Y-66784226D01*
X155067926Y-66537513D01*
X154971663Y-66305114D01*
X154831911Y-66095960D01*
X154654040Y-65918089D01*
X154444886Y-65778337D01*
X154212487Y-65682074D01*
X153965774Y-65633000D01*
X153714226Y-65633000D01*
X153467513Y-65682074D01*
X153235114Y-65778337D01*
X153025960Y-65918089D01*
X152902000Y-66042049D01*
X152902000Y-60902000D01*
X176598001Y-60902000D01*
X176598000Y-70050253D01*
G37*
%TD.AperFunction*%
D20*
X204324176Y-80180000D02*
X204331455Y-80253905D01*
X204353012Y-80324970D01*
X204388019Y-80390463D01*
X204435131Y-80447869D01*
X204492537Y-80494981D01*
X204558030Y-80529988D01*
X204629095Y-80551545D01*
X204703000Y-80558824D01*
X210373160Y-80558824D01*
X210373173Y-80586176D01*
X204703000Y-80586176D01*
X204629095Y-80593455D01*
X204558030Y-80615012D01*
X204492537Y-80650019D01*
X204435131Y-80697131D01*
X204388019Y-80754537D01*
X204353012Y-80820030D01*
X204331455Y-80891095D01*
X204324373Y-80963000D01*
X195388053Y-80963000D01*
X195337236Y-80935838D01*
X195171922Y-80885690D01*
X195000000Y-80868757D01*
X194828078Y-80885690D01*
X194662764Y-80935838D01*
X194510408Y-81017274D01*
X194376868Y-81126868D01*
X194267274Y-81260408D01*
X194185838Y-81412764D01*
X194135690Y-81578078D01*
X194118757Y-81750000D01*
X194135690Y-81921922D01*
X194185838Y-82087236D01*
X194267274Y-82239592D01*
X194349406Y-82339671D01*
X194439401Y-82429665D01*
X194466867Y-82463133D01*
X194600408Y-82572727D01*
X194752763Y-82654162D01*
X194918078Y-82704310D01*
X195046921Y-82717000D01*
X195046930Y-82717000D01*
X195089999Y-82721242D01*
X195133069Y-82717000D01*
X204324373Y-82717000D01*
X204331455Y-82788905D01*
X204353012Y-82859970D01*
X204388019Y-82925463D01*
X204398218Y-82937891D01*
X204348506Y-82964463D01*
X204251815Y-83043815D01*
X204172463Y-83140506D01*
X204113498Y-83250820D01*
X204077188Y-83370518D01*
X204064928Y-83495000D01*
X204068000Y-84084250D01*
X204226750Y-84243000D01*
X207576000Y-84243000D01*
X207576000Y-84223000D01*
X207830000Y-84223000D01*
X207830000Y-84243000D01*
X210374974Y-84243000D01*
X210375099Y-84497000D01*
X207830000Y-84497000D01*
X207830000Y-84517000D01*
X207576000Y-84517000D01*
X207576000Y-84497000D01*
X204226750Y-84497000D01*
X204068000Y-84655750D01*
X204064928Y-85245000D01*
X204077188Y-85369482D01*
X204113498Y-85489180D01*
X204172463Y-85599494D01*
X204251815Y-85696185D01*
X204348506Y-85775537D01*
X204435346Y-85821955D01*
X204435131Y-85822131D01*
X204388019Y-85879537D01*
X204353012Y-85945030D01*
X204331455Y-86016095D01*
X204324176Y-86090000D01*
X204324176Y-86488000D01*
X183982580Y-86488000D01*
X183203854Y-85709275D01*
X183188920Y-85691078D01*
X183116288Y-85631470D01*
X183033422Y-85587177D01*
X182943507Y-85559902D01*
X182873422Y-85552999D01*
X182873414Y-85552999D01*
X182849999Y-85550693D01*
X182826584Y-85552999D01*
X175102952Y-85552999D01*
X175151911Y-85504040D01*
X175291663Y-85294886D01*
X175387926Y-85062487D01*
X175437000Y-84815774D01*
X175437000Y-84564226D01*
X175387926Y-84317513D01*
X175291663Y-84085114D01*
X175212741Y-83966999D01*
X179486586Y-83966999D01*
X179510001Y-83969305D01*
X179533416Y-83966999D01*
X179533424Y-83966999D01*
X179603509Y-83960096D01*
X179693424Y-83932821D01*
X179776290Y-83888528D01*
X179848922Y-83828920D01*
X179863856Y-83810723D01*
X183892580Y-79782000D01*
X204324176Y-79782000D01*
X204324176Y-80180000D01*
%TA.AperFunction,Conductor*%
D21*
G36*
X204324176Y-80180000D02*
G01*
X204331455Y-80253905D01*
X204353012Y-80324970D01*
X204388019Y-80390463D01*
X204435131Y-80447869D01*
X204492537Y-80494981D01*
X204558030Y-80529988D01*
X204629095Y-80551545D01*
X204703000Y-80558824D01*
X210373160Y-80558824D01*
X210373173Y-80586176D01*
X204703000Y-80586176D01*
X204629095Y-80593455D01*
X204558030Y-80615012D01*
X204492537Y-80650019D01*
X204435131Y-80697131D01*
X204388019Y-80754537D01*
X204353012Y-80820030D01*
X204331455Y-80891095D01*
X204324373Y-80963000D01*
X195388053Y-80963000D01*
X195337236Y-80935838D01*
X195171922Y-80885690D01*
X195000000Y-80868757D01*
X194828078Y-80885690D01*
X194662764Y-80935838D01*
X194510408Y-81017274D01*
X194376868Y-81126868D01*
X194267274Y-81260408D01*
X194185838Y-81412764D01*
X194135690Y-81578078D01*
X194118757Y-81750000D01*
X194135690Y-81921922D01*
X194185838Y-82087236D01*
X194267274Y-82239592D01*
X194349406Y-82339671D01*
X194439401Y-82429665D01*
X194466867Y-82463133D01*
X194600408Y-82572727D01*
X194752763Y-82654162D01*
X194918078Y-82704310D01*
X195046921Y-82717000D01*
X195046930Y-82717000D01*
X195089999Y-82721242D01*
X195133069Y-82717000D01*
X204324373Y-82717000D01*
X204331455Y-82788905D01*
X204353012Y-82859970D01*
X204388019Y-82925463D01*
X204398218Y-82937891D01*
X204348506Y-82964463D01*
X204251815Y-83043815D01*
X204172463Y-83140506D01*
X204113498Y-83250820D01*
X204077188Y-83370518D01*
X204064928Y-83495000D01*
X204068000Y-84084250D01*
X204226750Y-84243000D01*
X207576000Y-84243000D01*
X207576000Y-84223000D01*
X207830000Y-84223000D01*
X207830000Y-84243000D01*
X210374974Y-84243000D01*
X210375099Y-84497000D01*
X207830000Y-84497000D01*
X207830000Y-84517000D01*
X207576000Y-84517000D01*
X207576000Y-84497000D01*
X204226750Y-84497000D01*
X204068000Y-84655750D01*
X204064928Y-85245000D01*
X204077188Y-85369482D01*
X204113498Y-85489180D01*
X204172463Y-85599494D01*
X204251815Y-85696185D01*
X204348506Y-85775537D01*
X204435346Y-85821955D01*
X204435131Y-85822131D01*
X204388019Y-85879537D01*
X204353012Y-85945030D01*
X204331455Y-86016095D01*
X204324176Y-86090000D01*
X204324176Y-86488000D01*
X183982580Y-86488000D01*
X183203854Y-85709275D01*
X183188920Y-85691078D01*
X183116288Y-85631470D01*
X183033422Y-85587177D01*
X182943507Y-85559902D01*
X182873422Y-85552999D01*
X182873414Y-85552999D01*
X182849999Y-85550693D01*
X182826584Y-85552999D01*
X175102952Y-85552999D01*
X175151911Y-85504040D01*
X175291663Y-85294886D01*
X175387926Y-85062487D01*
X175437000Y-84815774D01*
X175437000Y-84564226D01*
X175387926Y-84317513D01*
X175291663Y-84085114D01*
X175212741Y-83966999D01*
X179486586Y-83966999D01*
X179510001Y-83969305D01*
X179533416Y-83966999D01*
X179533424Y-83966999D01*
X179603509Y-83960096D01*
X179693424Y-83932821D01*
X179776290Y-83888528D01*
X179848922Y-83828920D01*
X179863856Y-83810723D01*
X183892580Y-79782000D01*
X204324176Y-79782000D01*
X204324176Y-80180000D01*
G37*
%TD.AperFunction*%
D20*
X204324176Y-75215000D02*
X204331455Y-75288905D01*
X204345919Y-75336586D01*
X204251815Y-75413815D01*
X204172463Y-75510506D01*
X204113498Y-75620820D01*
X204077188Y-75740518D01*
X204064928Y-75865000D01*
X204068000Y-76454250D01*
X204226750Y-76613000D01*
X207576000Y-76613000D01*
X207576000Y-76593000D01*
X207830000Y-76593000D01*
X207830000Y-76613000D01*
X210371217Y-76613000D01*
X210371342Y-76867000D01*
X207830000Y-76867000D01*
X207830000Y-76887000D01*
X207576000Y-76887000D01*
X207576000Y-76867000D01*
X204226750Y-76867000D01*
X204068000Y-77025750D01*
X204064928Y-77615000D01*
X204077188Y-77739482D01*
X204113498Y-77859180D01*
X204172463Y-77969494D01*
X204251815Y-78066185D01*
X204348506Y-78145537D01*
X204418184Y-78182781D01*
X204388019Y-78219537D01*
X204353012Y-78285030D01*
X204331455Y-78356095D01*
X204324176Y-78430000D01*
X204324176Y-78828000D01*
X183718414Y-78828000D01*
X183694999Y-78825694D01*
X183671584Y-78828000D01*
X183671577Y-78828000D01*
X183610338Y-78834032D01*
X183601491Y-78834903D01*
X183574216Y-78843177D01*
X183511577Y-78862178D01*
X183428711Y-78906471D01*
X183356079Y-78966079D01*
X183341150Y-78984271D01*
X179312422Y-83012999D01*
X175102952Y-83012999D01*
X175151911Y-82964040D01*
X175291663Y-82754886D01*
X175387926Y-82522487D01*
X175437000Y-82275774D01*
X175437000Y-82024226D01*
X175387926Y-81777513D01*
X175291663Y-81545114D01*
X175151911Y-81335960D01*
X175102952Y-81287001D01*
X175666584Y-81287001D01*
X175689999Y-81289307D01*
X175713414Y-81287001D01*
X175713422Y-81287001D01*
X175783507Y-81280098D01*
X175873422Y-81252823D01*
X175956288Y-81208530D01*
X176028920Y-81148922D01*
X176043854Y-81130725D01*
X178070729Y-79103851D01*
X178088921Y-79088921D01*
X178148529Y-79016289D01*
X178192822Y-78933423D01*
X178220097Y-78843508D01*
X178227000Y-78773423D01*
X178227000Y-78773416D01*
X178229306Y-78750001D01*
X178227000Y-78726586D01*
X178227000Y-77977041D01*
X178250000Y-77979306D01*
X178273415Y-77977000D01*
X178273423Y-77977000D01*
X178343508Y-77970097D01*
X178433423Y-77942822D01*
X178516289Y-77898529D01*
X178588921Y-77838921D01*
X178603855Y-77820724D01*
X181607580Y-74817000D01*
X204324176Y-74817000D01*
X204324176Y-75215000D01*
%TA.AperFunction,Conductor*%
D21*
G36*
X204324176Y-75215000D02*
G01*
X204331455Y-75288905D01*
X204345919Y-75336586D01*
X204251815Y-75413815D01*
X204172463Y-75510506D01*
X204113498Y-75620820D01*
X204077188Y-75740518D01*
X204064928Y-75865000D01*
X204068000Y-76454250D01*
X204226750Y-76613000D01*
X207576000Y-76613000D01*
X207576000Y-76593000D01*
X207830000Y-76593000D01*
X207830000Y-76613000D01*
X210371217Y-76613000D01*
X210371342Y-76867000D01*
X207830000Y-76867000D01*
X207830000Y-76887000D01*
X207576000Y-76887000D01*
X207576000Y-76867000D01*
X204226750Y-76867000D01*
X204068000Y-77025750D01*
X204064928Y-77615000D01*
X204077188Y-77739482D01*
X204113498Y-77859180D01*
X204172463Y-77969494D01*
X204251815Y-78066185D01*
X204348506Y-78145537D01*
X204418184Y-78182781D01*
X204388019Y-78219537D01*
X204353012Y-78285030D01*
X204331455Y-78356095D01*
X204324176Y-78430000D01*
X204324176Y-78828000D01*
X183718414Y-78828000D01*
X183694999Y-78825694D01*
X183671584Y-78828000D01*
X183671577Y-78828000D01*
X183610338Y-78834032D01*
X183601491Y-78834903D01*
X183574216Y-78843177D01*
X183511577Y-78862178D01*
X183428711Y-78906471D01*
X183356079Y-78966079D01*
X183341150Y-78984271D01*
X179312422Y-83012999D01*
X175102952Y-83012999D01*
X175151911Y-82964040D01*
X175291663Y-82754886D01*
X175387926Y-82522487D01*
X175437000Y-82275774D01*
X175437000Y-82024226D01*
X175387926Y-81777513D01*
X175291663Y-81545114D01*
X175151911Y-81335960D01*
X175102952Y-81287001D01*
X175666584Y-81287001D01*
X175689999Y-81289307D01*
X175713414Y-81287001D01*
X175713422Y-81287001D01*
X175783507Y-81280098D01*
X175873422Y-81252823D01*
X175956288Y-81208530D01*
X176028920Y-81148922D01*
X176043854Y-81130725D01*
X178070729Y-79103851D01*
X178088921Y-79088921D01*
X178148529Y-79016289D01*
X178192822Y-78933423D01*
X178220097Y-78843508D01*
X178227000Y-78773423D01*
X178227000Y-78773416D01*
X178229306Y-78750001D01*
X178227000Y-78726586D01*
X178227000Y-77977041D01*
X178250000Y-77979306D01*
X178273415Y-77977000D01*
X178273423Y-77977000D01*
X178343508Y-77970097D01*
X178433423Y-77942822D01*
X178516289Y-77898529D01*
X178588921Y-77838921D01*
X178603855Y-77820724D01*
X181607580Y-74817000D01*
X204324176Y-74817000D01*
X204324176Y-75215000D01*
G37*
%TD.AperFunction*%
%TD*%
M02*
