%TF.GenerationSoftware,KiCad,Pcbnew,(6.0.6-0)*%
%TF.CreationDate,2022-08-03T19:16:28-07:00*%
%TF.ProjectId,sd_bt_streamer,73645f62-745f-4737-9472-65616d65722e,rev?*%
%TF.SameCoordinates,Original*%
%TF.FileFunction,Soldermask,Bot*%
%TF.FilePolarity,Negative*%
%FSLAX46Y46*%
G04 Gerber Fmt 4.6, Leading zero omitted, Abs format (unit mm)*
G04 Created by KiCad (PCBNEW (6.0.6-0)) date 2022-08-03 19:16:28*
%MOMM*%
%LPD*%
G01*
G04 APERTURE LIST*
%ADD10C,1.600000*%
%ADD11R,6.000000X1.750000*%
%ADD12R,6.000000X1.250000*%
%ADD13R,5.000000X2.000000*%
G04 APERTURE END LIST*
D10*
%TO.C,U2*%
X149300000Y-58640000D03*
X149300000Y-61180000D03*
X149300000Y-63720000D03*
X149300000Y-66260000D03*
X149300000Y-68800000D03*
X149300000Y-71340000D03*
X149300000Y-73880000D03*
X149300000Y-76420000D03*
X149300000Y-78960000D03*
X149300000Y-81500000D03*
X149300000Y-84040000D03*
X149300000Y-86580000D03*
X149300000Y-89120000D03*
X149300000Y-91660000D03*
X149300000Y-94200000D03*
X149300000Y-96740000D03*
X149300000Y-99280000D03*
X149300000Y-101820000D03*
X149300000Y-104360000D03*
X174700000Y-104360000D03*
X174700000Y-101820000D03*
X174700000Y-99280000D03*
X174700000Y-96740000D03*
X174700000Y-94200000D03*
X174700000Y-91660000D03*
X174700000Y-89120000D03*
X174700000Y-86580000D03*
X174700000Y-84040000D03*
X174700000Y-81500000D03*
X174700000Y-78960000D03*
X174700000Y-76420000D03*
X174700000Y-73880000D03*
X174700000Y-71340000D03*
X174700000Y-68800000D03*
X174700000Y-66260000D03*
X174700000Y-63720000D03*
X174700000Y-61180000D03*
X174700000Y-58640000D03*
%TD*%
D11*
%TO.C,U1*%
X207703000Y-89514600D03*
X207703000Y-86965000D03*
X207703000Y-84370000D03*
X207703000Y-81840000D03*
X207703000Y-79305000D03*
X207703000Y-76740000D03*
X207703000Y-74340000D03*
D12*
X207703000Y-72340000D03*
D13*
X205030000Y-92300000D03*
%TD*%
M02*
