%TF.GenerationSoftware,KiCad,Pcbnew,5.1.10-88a1d61d58~90~ubuntu20.04.1*%
%TF.CreationDate,2022-06-01T14:19:09-07:00*%
%TF.ProjectId,sd_bt_streamer,73645f62-745f-4737-9472-65616d65722e,rev?*%
%TF.SameCoordinates,Original*%
%TF.FileFunction,Copper,L1,Top*%
%TF.FilePolarity,Positive*%
%FSLAX46Y46*%
G04 Gerber Fmt 4.6, Leading zero omitted, Abs format (unit mm)*
G04 Created by KiCad (PCBNEW 5.1.10-88a1d61d58~90~ubuntu20.04.1) date 2022-06-01 14:19:09*
%MOMM*%
%LPD*%
G01*
G04 APERTURE LIST*
%TA.AperFunction,ComponentPad*%
%ADD10C,1.800000*%
%TD*%
%TA.AperFunction,SMDPad,CuDef*%
%ADD11R,1.900000X1.350000*%
%TD*%
%TA.AperFunction,SMDPad,CuDef*%
%ADD12R,1.200000X1.000000*%
%TD*%
%TA.AperFunction,SMDPad,CuDef*%
%ADD13R,1.550000X1.350000*%
%TD*%
%TA.AperFunction,SMDPad,CuDef*%
%ADD14R,1.170000X1.800000*%
%TD*%
%TA.AperFunction,SMDPad,CuDef*%
%ADD15R,0.850000X1.100000*%
%TD*%
%TA.AperFunction,SMDPad,CuDef*%
%ADD16R,0.750000X1.100000*%
%TD*%
%TA.AperFunction,ViaPad*%
%ADD17C,0.800000*%
%TD*%
%TA.AperFunction,Conductor*%
%ADD18C,0.500000*%
%TD*%
%TA.AperFunction,Conductor*%
%ADD19C,0.200000*%
%TD*%
%TA.AperFunction,Conductor*%
%ADD20C,1.000000*%
%TD*%
%TA.AperFunction,Conductor*%
%ADD21C,0.254000*%
%TD*%
%TA.AperFunction,Conductor*%
%ADD22C,0.100000*%
%TD*%
G04 APERTURE END LIST*
D10*
%TO.P,U2,28*%
%TO.N,Net-(U2-Pad28)*%
X174160000Y-77070000D03*
%TO.P,U2,27*%
%TO.N,/REG_EN*%
X174160000Y-79610000D03*
%TO.P,U2,26*%
%TO.N,Net-(U2-Pad26)*%
X174160000Y-82150000D03*
%TO.P,U2,25*%
%TO.N,Net-(U2-Pad25)*%
X174160000Y-84690000D03*
%TO.P,U2,24*%
%TO.N,Net-(U2-Pad24)*%
X174160000Y-87230000D03*
%TO.P,U2,23*%
%TO.N,Net-(U2-Pad23)*%
X174160000Y-89770000D03*
%TO.P,U2,22*%
%TO.N,Net-(U2-Pad22)*%
X174160000Y-92310000D03*
%TO.P,U2,21*%
%TO.N,Net-(U2-Pad21)*%
X174160000Y-94850000D03*
%TO.P,U2,20*%
%TO.N,Net-(U2-Pad20)*%
X174160000Y-97390000D03*
%TO.P,U2,19*%
%TO.N,Net-(U2-Pad19)*%
X174160000Y-99930000D03*
%TO.P,U2,18*%
%TO.N,Net-(U2-Pad18)*%
X174160000Y-102470000D03*
%TO.P,U2,17*%
%TO.N,Net-(U2-Pad17)*%
X174160000Y-105010000D03*
%TO.P,U2,16*%
%TO.N,Net-(U2-Pad16)*%
X153840000Y-105010000D03*
%TO.P,U2,15*%
%TO.N,Net-(U2-Pad15)*%
X153840000Y-102470000D03*
%TO.P,U2,14*%
%TO.N,Net-(U2-Pad14)*%
X153840000Y-99930000D03*
%TO.P,U2,13*%
%TO.N,/MISO_FEATHER*%
X153840000Y-97390000D03*
%TO.P,U2,12*%
%TO.N,/MOSI*%
X153840000Y-94850000D03*
%TO.P,U2,11*%
%TO.N,/CLK*%
X153840000Y-92310000D03*
%TO.P,U2,10*%
%TO.N,/CS*%
X153840000Y-89770000D03*
%TO.P,U2,9*%
%TO.N,Net-(U2-Pad9)*%
X153840000Y-87230000D03*
%TO.P,U2,8*%
%TO.N,Net-(U2-Pad8)*%
X153840000Y-84690000D03*
%TO.P,U2,7*%
%TO.N,Net-(U2-Pad7)*%
X153840000Y-82150000D03*
%TO.P,U2,6*%
%TO.N,Net-(U2-Pad6)*%
X153840000Y-79610000D03*
%TO.P,U2,5*%
%TO.N,Net-(U2-Pad5)*%
X153840000Y-77070000D03*
%TO.P,U2,4*%
%TO.N,GND*%
X153840000Y-74530000D03*
%TO.P,U2,3*%
%TO.N,+3V3*%
X153840000Y-71990000D03*
%TO.P,U2,2*%
X153840000Y-69450000D03*
%TO.P,U2,1*%
%TO.N,Net-(U2-Pad1)*%
X153840000Y-66910000D03*
%TD*%
D11*
%TO.P,J1,11*%
%TO.N,GND*%
X160270000Y-93375000D03*
X166240000Y-93375000D03*
D12*
%TO.P,J1,9*%
%TO.N,Net-(J1-Pad9)*%
X169740000Y-98050000D03*
%TO.P,J1,10*%
%TO.N,Net-(J1-Pad10)*%
X169740000Y-94350000D03*
D13*
%TO.P,J1,11*%
%TO.N,GND*%
X169565000Y-104075000D03*
D14*
X158245000Y-103850000D03*
D15*
%TO.P,J1,7*%
%TO.N,/MISO*%
X160505000Y-104200000D03*
%TO.P,J1,6*%
%TO.N,GND*%
X161605000Y-104200000D03*
%TO.P,J1,5*%
%TO.N,/CLK*%
X162705000Y-104200000D03*
%TO.P,J1,4*%
%TO.N,+3V3*%
X163805000Y-104200000D03*
%TO.P,J1,3*%
%TO.N,/MOSI*%
X164905000Y-104200000D03*
%TO.P,J1,2*%
%TO.N,/CS*%
X166005000Y-104200000D03*
D16*
%TO.P,J1,8*%
%TO.N,/DAT1*%
X159455000Y-104200000D03*
D15*
%TO.P,J1,1*%
%TO.N,/DAT2*%
X167105000Y-104200000D03*
%TD*%
D17*
%TO.N,GND*%
X168750000Y-80750000D03*
X202250000Y-76750000D03*
X202250000Y-84000000D03*
X156500000Y-104000000D03*
%TO.N,/MISO*%
X163250000Y-98500000D03*
%TO.N,/CLK*%
X164750000Y-98750000D03*
%TO.N,+3V3*%
X195000000Y-81750000D03*
X163500000Y-73000000D03*
X171500000Y-93000000D03*
X171500000Y-100500000D03*
%TO.N,/MOSI*%
X165750000Y-100250000D03*
X157500000Y-99750000D03*
%TO.N,/CS*%
X167250000Y-100750000D03*
X161000000Y-90750000D03*
X157000000Y-88500000D03*
%TO.N,/DAT1*%
X159750000Y-101250000D03*
%TO.N,/DAT2*%
X168500000Y-102500000D03*
%TO.N,/MISO_FEATHER*%
X163250000Y-85250000D03*
X156250000Y-91500000D03*
%TD*%
D18*
%TO.N,GND*%
X156650000Y-103850000D02*
X156500000Y-104000000D01*
X158245000Y-103850000D02*
X156650000Y-103850000D01*
D19*
%TO.N,/MISO*%
X160505000Y-101245000D02*
X160505000Y-104200000D01*
X163250000Y-98500000D02*
X160505000Y-101245000D01*
%TO.N,/CLK*%
X162705000Y-100795000D02*
X162705000Y-104200000D01*
X164750000Y-98750000D02*
X162705000Y-100795000D01*
X153840000Y-92310000D02*
X154780000Y-93250000D01*
X154780000Y-93250000D02*
X157500000Y-93250000D01*
X157500000Y-93250000D02*
X160500000Y-96250000D01*
X160500000Y-96250000D02*
X163250000Y-96250000D01*
X164750000Y-97750000D02*
X164750000Y-98750000D01*
X163250000Y-96250000D02*
X164750000Y-97750000D01*
D20*
%TO.N,+3V3*%
X195000000Y-81750000D02*
X186750000Y-73500000D01*
X164000000Y-73500000D02*
X163500000Y-73000000D01*
D18*
X171250000Y-92750000D02*
X171500000Y-93000000D01*
X171250000Y-73500000D02*
X171250000Y-92750000D01*
D20*
X186750000Y-73500000D02*
X171250000Y-73500000D01*
X171250000Y-73500000D02*
X164000000Y-73500000D01*
D18*
X171500000Y-104400002D02*
X170150002Y-105750000D01*
X171500000Y-100500000D02*
X171500000Y-104400002D01*
X163805000Y-104885002D02*
X163805000Y-104200000D01*
X164669998Y-105750000D02*
X163805000Y-104885002D01*
X170150002Y-105750000D02*
X164669998Y-105750000D01*
D19*
%TO.N,/MOSI*%
X164905000Y-101095000D02*
X164905000Y-104200000D01*
X165750000Y-100250000D02*
X164905000Y-101095000D01*
X153840000Y-94850000D02*
X156350000Y-94850000D01*
X157500000Y-96000000D02*
X157500000Y-99750000D01*
X156350000Y-94850000D02*
X157500000Y-96000000D01*
%TO.N,/CS*%
X166005000Y-101995000D02*
X166005000Y-104200000D01*
X167250000Y-100750000D02*
X166005000Y-101995000D01*
X167250000Y-100750000D02*
X167250000Y-98000000D01*
X167250000Y-98000000D02*
X163000000Y-93750000D01*
X163000000Y-92750000D02*
X161000000Y-90750000D01*
X163000000Y-93750000D02*
X163000000Y-92750000D01*
X155110000Y-88500000D02*
X153840000Y-89770000D01*
X157000000Y-88500000D02*
X155110000Y-88500000D01*
%TO.N,/DAT1*%
X159750000Y-101250000D02*
X159750000Y-101750000D01*
X159455000Y-102045000D02*
X159455000Y-104200000D01*
X159750000Y-101750000D02*
X159455000Y-102045000D01*
%TO.N,/DAT2*%
X167105000Y-104200000D02*
X167105000Y-103145000D01*
X167105000Y-103895000D02*
X167105000Y-104200000D01*
X168500000Y-102500000D02*
X167105000Y-103895000D01*
%TO.N,/MISO_FEATHER*%
X163250000Y-85250000D02*
X159000000Y-89500000D01*
X158250000Y-89500000D02*
X156250000Y-91500000D01*
X159000000Y-89500000D02*
X158250000Y-89500000D01*
%TD*%
D21*
%TO.N,GND*%
X176598000Y-70050253D02*
X176596055Y-70070000D01*
X176603817Y-70148806D01*
X176626803Y-70224583D01*
X176664132Y-70294420D01*
X176714368Y-70355632D01*
X176775580Y-70405868D01*
X176845417Y-70443197D01*
X176921194Y-70466183D01*
X177000000Y-70473945D01*
X177019747Y-70472000D01*
X215368000Y-70472000D01*
X215368001Y-90223795D01*
X211803177Y-93798000D01*
X177019747Y-93798000D01*
X177000000Y-93796055D01*
X176980253Y-93798000D01*
X176921194Y-93803817D01*
X176845417Y-93826803D01*
X176775580Y-93864132D01*
X176714368Y-93914368D01*
X176664132Y-93975580D01*
X176626803Y-94045417D01*
X176603817Y-94121194D01*
X176596055Y-94200000D01*
X176598000Y-94219747D01*
X176598001Y-99380244D01*
X176598000Y-99380254D01*
X176598001Y-106098000D01*
X174830232Y-106098000D01*
X174974040Y-106001911D01*
X175151911Y-105824040D01*
X175291663Y-105614886D01*
X175387926Y-105382487D01*
X175437000Y-105135774D01*
X175437000Y-104884226D01*
X175387926Y-104637513D01*
X175291663Y-104405114D01*
X175151911Y-104195960D01*
X174974040Y-104018089D01*
X174764886Y-103878337D01*
X174532487Y-103782074D01*
X174320966Y-103740000D01*
X174532487Y-103697926D01*
X174764886Y-103601663D01*
X174974040Y-103461911D01*
X175151911Y-103284040D01*
X175291663Y-103074886D01*
X175387926Y-102842487D01*
X175437000Y-102595774D01*
X175437000Y-102344226D01*
X175387926Y-102097513D01*
X175291663Y-101865114D01*
X175151911Y-101655960D01*
X174974040Y-101478089D01*
X174764886Y-101338337D01*
X174532487Y-101242074D01*
X174320966Y-101200000D01*
X174532487Y-101157926D01*
X174764886Y-101061663D01*
X174974040Y-100921911D01*
X175151911Y-100744040D01*
X175291663Y-100534886D01*
X175387926Y-100302487D01*
X175437000Y-100055774D01*
X175437000Y-99804226D01*
X175387926Y-99557513D01*
X175291663Y-99325114D01*
X175151911Y-99115960D01*
X174974040Y-98938089D01*
X174764886Y-98798337D01*
X174532487Y-98702074D01*
X174320966Y-98660000D01*
X174532487Y-98617926D01*
X174764886Y-98521663D01*
X174974040Y-98381911D01*
X175151911Y-98204040D01*
X175291663Y-97994886D01*
X175387926Y-97762487D01*
X175437000Y-97515774D01*
X175437000Y-97264226D01*
X175387926Y-97017513D01*
X175291663Y-96785114D01*
X175151911Y-96575960D01*
X174974040Y-96398089D01*
X174764886Y-96258337D01*
X174532487Y-96162074D01*
X174320966Y-96120000D01*
X174532487Y-96077926D01*
X174764886Y-95981663D01*
X174974040Y-95841911D01*
X175151911Y-95664040D01*
X175291663Y-95454886D01*
X175387926Y-95222487D01*
X175437000Y-94975774D01*
X175437000Y-94724226D01*
X175387926Y-94477513D01*
X175291663Y-94245114D01*
X175151911Y-94035960D01*
X174974040Y-93858089D01*
X174764886Y-93718337D01*
X174532487Y-93622074D01*
X174320966Y-93580000D01*
X174532487Y-93537926D01*
X174764886Y-93441663D01*
X174974040Y-93301911D01*
X175151911Y-93124040D01*
X175291663Y-92914886D01*
X175387926Y-92682487D01*
X175437000Y-92435774D01*
X175437000Y-92184226D01*
X175387926Y-91937513D01*
X175291663Y-91705114D01*
X175151911Y-91495960D01*
X174974040Y-91318089D01*
X174764886Y-91178337D01*
X174532487Y-91082074D01*
X174320966Y-91040000D01*
X174532487Y-90997926D01*
X174764886Y-90901663D01*
X174974040Y-90761911D01*
X175151911Y-90584040D01*
X175291663Y-90374886D01*
X175387926Y-90142487D01*
X175437000Y-89895774D01*
X175437000Y-89644226D01*
X175387926Y-89397513D01*
X175291663Y-89165114D01*
X175151911Y-88955960D01*
X174974040Y-88778089D01*
X174764886Y-88638337D01*
X174532487Y-88542074D01*
X174320966Y-88500000D01*
X174532487Y-88457926D01*
X174764886Y-88361663D01*
X174974040Y-88221911D01*
X175151911Y-88044040D01*
X175291663Y-87834886D01*
X175387926Y-87602487D01*
X175437000Y-87355774D01*
X175437000Y-87104226D01*
X175387926Y-86857513D01*
X175291663Y-86625114D01*
X175151911Y-86415960D01*
X174974040Y-86238089D01*
X174764886Y-86098337D01*
X174532487Y-86002074D01*
X174320966Y-85960000D01*
X174532487Y-85917926D01*
X174764886Y-85821663D01*
X174974040Y-85681911D01*
X175151911Y-85504040D01*
X175291663Y-85294886D01*
X175387926Y-85062487D01*
X175437000Y-84815774D01*
X175437000Y-84564226D01*
X175387926Y-84317513D01*
X175291663Y-84085114D01*
X175151911Y-83875960D01*
X174974040Y-83698089D01*
X174764886Y-83558337D01*
X174532487Y-83462074D01*
X174320966Y-83420000D01*
X174532487Y-83377926D01*
X174764886Y-83281663D01*
X174974040Y-83141911D01*
X175151911Y-82964040D01*
X175291663Y-82754886D01*
X175387926Y-82522487D01*
X175437000Y-82275774D01*
X175437000Y-82024226D01*
X175387926Y-81777513D01*
X175291663Y-81545114D01*
X175151911Y-81335960D01*
X174974040Y-81158089D01*
X174764886Y-81018337D01*
X174532487Y-80922074D01*
X174320966Y-80880000D01*
X174532487Y-80837926D01*
X174764886Y-80741663D01*
X174974040Y-80601911D01*
X175151911Y-80424040D01*
X175291663Y-80214886D01*
X175387926Y-79982487D01*
X175437000Y-79735774D01*
X175437000Y-79484226D01*
X175387926Y-79237513D01*
X175291663Y-79005114D01*
X175151911Y-78795960D01*
X174974040Y-78618089D01*
X174764886Y-78478337D01*
X174532487Y-78382074D01*
X174320966Y-78340000D01*
X174532487Y-78297926D01*
X174764886Y-78201663D01*
X174974040Y-78061911D01*
X175151911Y-77884040D01*
X175291663Y-77674886D01*
X175387926Y-77442487D01*
X175437000Y-77195774D01*
X175437000Y-76944226D01*
X175387926Y-76697513D01*
X175291663Y-76465114D01*
X175151911Y-76255960D01*
X174974040Y-76078089D01*
X174764886Y-75938337D01*
X174532487Y-75842074D01*
X174285774Y-75793000D01*
X174034226Y-75793000D01*
X173787513Y-75842074D01*
X173555114Y-75938337D01*
X173345960Y-76078089D01*
X173168089Y-76255960D01*
X173028337Y-76465114D01*
X172932074Y-76697513D01*
X172883000Y-76944226D01*
X172883000Y-77195774D01*
X172932074Y-77442487D01*
X173028337Y-77674886D01*
X173168089Y-77884040D01*
X173345960Y-78061911D01*
X173555114Y-78201663D01*
X173787513Y-78297926D01*
X173999034Y-78340000D01*
X173787513Y-78382074D01*
X173555114Y-78478337D01*
X173345960Y-78618089D01*
X173168089Y-78795960D01*
X173028337Y-79005114D01*
X172932074Y-79237513D01*
X172883000Y-79484226D01*
X172883000Y-79735774D01*
X172932074Y-79982487D01*
X173028337Y-80214886D01*
X173168089Y-80424040D01*
X173345960Y-80601911D01*
X173555114Y-80741663D01*
X173787513Y-80837926D01*
X173999034Y-80880000D01*
X173787513Y-80922074D01*
X173555114Y-81018337D01*
X173345960Y-81158089D01*
X173168089Y-81335960D01*
X173028337Y-81545114D01*
X172932074Y-81777513D01*
X172883000Y-82024226D01*
X172883000Y-82275774D01*
X172932074Y-82522487D01*
X173028337Y-82754886D01*
X173168089Y-82964040D01*
X173345960Y-83141911D01*
X173555114Y-83281663D01*
X173787513Y-83377926D01*
X173999034Y-83420000D01*
X173787513Y-83462074D01*
X173555114Y-83558337D01*
X173345960Y-83698089D01*
X173168089Y-83875960D01*
X173028337Y-84085114D01*
X172932074Y-84317513D01*
X172883000Y-84564226D01*
X172883000Y-84815774D01*
X172932074Y-85062487D01*
X173028337Y-85294886D01*
X173168089Y-85504040D01*
X173345960Y-85681911D01*
X173555114Y-85821663D01*
X173787513Y-85917926D01*
X173999034Y-85960000D01*
X173787513Y-86002074D01*
X173555114Y-86098337D01*
X173345960Y-86238089D01*
X173168089Y-86415960D01*
X173028337Y-86625114D01*
X172932074Y-86857513D01*
X172883000Y-87104226D01*
X172883000Y-87355774D01*
X172932074Y-87602487D01*
X173028337Y-87834886D01*
X173168089Y-88044040D01*
X173345960Y-88221911D01*
X173555114Y-88361663D01*
X173787513Y-88457926D01*
X173999034Y-88500000D01*
X173787513Y-88542074D01*
X173555114Y-88638337D01*
X173345960Y-88778089D01*
X173168089Y-88955960D01*
X173028337Y-89165114D01*
X172932074Y-89397513D01*
X172883000Y-89644226D01*
X172883000Y-89895774D01*
X172932074Y-90142487D01*
X173028337Y-90374886D01*
X173168089Y-90584040D01*
X173345960Y-90761911D01*
X173555114Y-90901663D01*
X173787513Y-90997926D01*
X173999034Y-91040000D01*
X173787513Y-91082074D01*
X173555114Y-91178337D01*
X173345960Y-91318089D01*
X173168089Y-91495960D01*
X173028337Y-91705114D01*
X172932074Y-91937513D01*
X172883000Y-92184226D01*
X172883000Y-92435774D01*
X172932074Y-92682487D01*
X173028337Y-92914886D01*
X173168089Y-93124040D01*
X173345960Y-93301911D01*
X173555114Y-93441663D01*
X173787513Y-93537926D01*
X173999034Y-93580000D01*
X173787513Y-93622074D01*
X173555114Y-93718337D01*
X173345960Y-93858089D01*
X173168089Y-94035960D01*
X173028337Y-94245114D01*
X172932074Y-94477513D01*
X172883000Y-94724226D01*
X172883000Y-94975774D01*
X172932074Y-95222487D01*
X173028337Y-95454886D01*
X173168089Y-95664040D01*
X173345960Y-95841911D01*
X173555114Y-95981663D01*
X173787513Y-96077926D01*
X173999034Y-96120000D01*
X173787513Y-96162074D01*
X173555114Y-96258337D01*
X173345960Y-96398089D01*
X173168089Y-96575960D01*
X173028337Y-96785114D01*
X172932074Y-97017513D01*
X172883000Y-97264226D01*
X172883000Y-97515774D01*
X172932074Y-97762487D01*
X173028337Y-97994886D01*
X173168089Y-98204040D01*
X173345960Y-98381911D01*
X173555114Y-98521663D01*
X173787513Y-98617926D01*
X173999034Y-98660000D01*
X173787513Y-98702074D01*
X173555114Y-98798337D01*
X173345960Y-98938089D01*
X173168089Y-99115960D01*
X173028337Y-99325114D01*
X172932074Y-99557513D01*
X172883000Y-99804226D01*
X172883000Y-100055774D01*
X172932074Y-100302487D01*
X173028337Y-100534886D01*
X173168089Y-100744040D01*
X173345960Y-100921911D01*
X173555114Y-101061663D01*
X173787513Y-101157926D01*
X173999034Y-101200000D01*
X173787513Y-101242074D01*
X173555114Y-101338337D01*
X173345960Y-101478089D01*
X173168089Y-101655960D01*
X173028337Y-101865114D01*
X172932074Y-102097513D01*
X172883000Y-102344226D01*
X172883000Y-102595774D01*
X172932074Y-102842487D01*
X173028337Y-103074886D01*
X173168089Y-103284040D01*
X173345960Y-103461911D01*
X173555114Y-103601663D01*
X173787513Y-103697926D01*
X173999034Y-103740000D01*
X173787513Y-103782074D01*
X173555114Y-103878337D01*
X173345960Y-104018089D01*
X173168089Y-104195960D01*
X173028337Y-104405114D01*
X172932074Y-104637513D01*
X172883000Y-104884226D01*
X172883000Y-105135774D01*
X172932074Y-105382487D01*
X173028337Y-105614886D01*
X173168089Y-105824040D01*
X173345960Y-106001911D01*
X173489768Y-106098000D01*
X170688713Y-106098000D01*
X171921578Y-104865136D01*
X171945501Y-104845503D01*
X172023853Y-104750030D01*
X172082075Y-104641105D01*
X172117927Y-104522915D01*
X172127000Y-104430796D01*
X172127000Y-104430795D01*
X172130033Y-104400003D01*
X172127000Y-104369211D01*
X172127000Y-100960193D01*
X172188569Y-100868048D01*
X172247141Y-100726643D01*
X172277000Y-100576528D01*
X172277000Y-100423472D01*
X172247141Y-100273357D01*
X172188569Y-100131952D01*
X172103536Y-100004691D01*
X171995309Y-99896464D01*
X171868048Y-99811431D01*
X171726643Y-99752859D01*
X171576528Y-99723000D01*
X171423472Y-99723000D01*
X171273357Y-99752859D01*
X171131952Y-99811431D01*
X171004691Y-99896464D01*
X170896464Y-100004691D01*
X170811431Y-100131952D01*
X170752859Y-100273357D01*
X170723000Y-100423472D01*
X170723000Y-100576528D01*
X170752859Y-100726643D01*
X170811431Y-100868048D01*
X170873000Y-100960193D01*
X170873001Y-103050115D01*
X170870537Y-103045506D01*
X170791185Y-102948815D01*
X170694494Y-102869463D01*
X170584180Y-102810498D01*
X170464482Y-102774188D01*
X170340000Y-102761928D01*
X169850750Y-102765000D01*
X169692000Y-102923750D01*
X169692000Y-103948000D01*
X169712000Y-103948000D01*
X169712000Y-104202000D01*
X169692000Y-104202000D01*
X169692000Y-104222000D01*
X169438000Y-104222000D01*
X169438000Y-104202000D01*
X168313750Y-104202000D01*
X168155000Y-104360750D01*
X168151928Y-104750000D01*
X168164188Y-104874482D01*
X168200498Y-104994180D01*
X168259463Y-105104494D01*
X168274650Y-105123000D01*
X167589132Y-105123000D01*
X167603905Y-105121545D01*
X167674970Y-105099988D01*
X167740463Y-105064981D01*
X167797869Y-105017869D01*
X167844981Y-104960463D01*
X167879988Y-104894970D01*
X167901545Y-104823905D01*
X167908824Y-104750000D01*
X167908824Y-103765755D01*
X168152888Y-103521691D01*
X168155000Y-103789250D01*
X168313750Y-103948000D01*
X169438000Y-103948000D01*
X169438000Y-102923750D01*
X169279250Y-102765000D01*
X169231377Y-102764699D01*
X169247141Y-102726643D01*
X169277000Y-102576528D01*
X169277000Y-102423472D01*
X169247141Y-102273357D01*
X169188569Y-102131952D01*
X169103536Y-102004691D01*
X168995309Y-101896464D01*
X168868048Y-101811431D01*
X168726643Y-101752859D01*
X168576528Y-101723000D01*
X168423472Y-101723000D01*
X168273357Y-101752859D01*
X168131952Y-101811431D01*
X168004691Y-101896464D01*
X167896464Y-102004691D01*
X167811431Y-102131952D01*
X167752859Y-102273357D01*
X167723000Y-102423472D01*
X167723000Y-102576528D01*
X167727296Y-102598125D01*
X167477917Y-102847503D01*
X167443921Y-102806079D01*
X167371289Y-102746471D01*
X167288423Y-102702178D01*
X167198508Y-102674903D01*
X167105000Y-102665693D01*
X167011493Y-102674903D01*
X166921578Y-102702178D01*
X166838712Y-102746471D01*
X166766080Y-102806079D01*
X166706472Y-102878711D01*
X166662179Y-102961577D01*
X166634904Y-103051492D01*
X166628001Y-103121577D01*
X166628001Y-103276297D01*
X166606095Y-103278455D01*
X166555000Y-103293954D01*
X166503905Y-103278455D01*
X166482000Y-103276298D01*
X166482000Y-102192579D01*
X167151875Y-101522704D01*
X167173472Y-101527000D01*
X167326528Y-101527000D01*
X167476643Y-101497141D01*
X167618048Y-101438569D01*
X167745309Y-101353536D01*
X167853536Y-101245309D01*
X167938569Y-101118048D01*
X167997141Y-100976643D01*
X168027000Y-100826528D01*
X168027000Y-100673472D01*
X167997141Y-100523357D01*
X167938569Y-100381952D01*
X167853536Y-100254691D01*
X167745309Y-100146464D01*
X167727000Y-100134230D01*
X167727000Y-98023415D01*
X167729306Y-98000000D01*
X167727000Y-97976585D01*
X167727000Y-97976577D01*
X167720097Y-97906492D01*
X167692822Y-97816577D01*
X167648529Y-97733711D01*
X167588921Y-97661079D01*
X167570729Y-97646150D01*
X167474579Y-97550000D01*
X168761176Y-97550000D01*
X168761176Y-98550000D01*
X168768455Y-98623905D01*
X168790012Y-98694970D01*
X168825019Y-98760463D01*
X168872131Y-98817869D01*
X168929537Y-98864981D01*
X168995030Y-98899988D01*
X169066095Y-98921545D01*
X169140000Y-98928824D01*
X170340000Y-98928824D01*
X170413905Y-98921545D01*
X170484970Y-98899988D01*
X170550463Y-98864981D01*
X170607869Y-98817869D01*
X170654981Y-98760463D01*
X170689988Y-98694970D01*
X170711545Y-98623905D01*
X170718824Y-98550000D01*
X170718824Y-97550000D01*
X170711545Y-97476095D01*
X170689988Y-97405030D01*
X170654981Y-97339537D01*
X170607869Y-97282131D01*
X170550463Y-97235019D01*
X170484970Y-97200012D01*
X170413905Y-97178455D01*
X170340000Y-97171176D01*
X169140000Y-97171176D01*
X169066095Y-97178455D01*
X168995030Y-97200012D01*
X168929537Y-97235019D01*
X168872131Y-97282131D01*
X168825019Y-97339537D01*
X168790012Y-97405030D01*
X168768455Y-97476095D01*
X168761176Y-97550000D01*
X167474579Y-97550000D01*
X163974579Y-94050000D01*
X164651928Y-94050000D01*
X164664188Y-94174482D01*
X164700498Y-94294180D01*
X164759463Y-94404494D01*
X164838815Y-94501185D01*
X164935506Y-94580537D01*
X165045820Y-94639502D01*
X165165518Y-94675812D01*
X165290000Y-94688072D01*
X165954250Y-94685000D01*
X166113000Y-94526250D01*
X166113000Y-93502000D01*
X166367000Y-93502000D01*
X166367000Y-94526250D01*
X166525750Y-94685000D01*
X167190000Y-94688072D01*
X167314482Y-94675812D01*
X167434180Y-94639502D01*
X167544494Y-94580537D01*
X167641185Y-94501185D01*
X167720537Y-94404494D01*
X167779502Y-94294180D01*
X167815812Y-94174482D01*
X167828072Y-94050000D01*
X167826494Y-93850000D01*
X168761176Y-93850000D01*
X168761176Y-94850000D01*
X168768455Y-94923905D01*
X168790012Y-94994970D01*
X168825019Y-95060463D01*
X168872131Y-95117869D01*
X168929537Y-95164981D01*
X168995030Y-95199988D01*
X169066095Y-95221545D01*
X169140000Y-95228824D01*
X170340000Y-95228824D01*
X170413905Y-95221545D01*
X170484970Y-95199988D01*
X170550463Y-95164981D01*
X170607869Y-95117869D01*
X170654981Y-95060463D01*
X170689988Y-94994970D01*
X170711545Y-94923905D01*
X170718824Y-94850000D01*
X170718824Y-93850000D01*
X170711545Y-93776095D01*
X170689988Y-93705030D01*
X170654981Y-93639537D01*
X170607869Y-93582131D01*
X170550463Y-93535019D01*
X170484970Y-93500012D01*
X170413905Y-93478455D01*
X170340000Y-93471176D01*
X169140000Y-93471176D01*
X169066095Y-93478455D01*
X168995030Y-93500012D01*
X168929537Y-93535019D01*
X168872131Y-93582131D01*
X168825019Y-93639537D01*
X168790012Y-93705030D01*
X168768455Y-93776095D01*
X168761176Y-93850000D01*
X167826494Y-93850000D01*
X167825000Y-93660750D01*
X167666250Y-93502000D01*
X166367000Y-93502000D01*
X166113000Y-93502000D01*
X164813750Y-93502000D01*
X164655000Y-93660750D01*
X164651928Y-94050000D01*
X163974579Y-94050000D01*
X163477000Y-93552421D01*
X163477000Y-92773414D01*
X163479306Y-92749999D01*
X163477000Y-92726584D01*
X163477000Y-92726577D01*
X163474383Y-92700000D01*
X164651928Y-92700000D01*
X164655000Y-93089250D01*
X164813750Y-93248000D01*
X166113000Y-93248000D01*
X166113000Y-92223750D01*
X166367000Y-92223750D01*
X166367000Y-93248000D01*
X167666250Y-93248000D01*
X167825000Y-93089250D01*
X167828072Y-92700000D01*
X167815812Y-92575518D01*
X167779502Y-92455820D01*
X167720537Y-92345506D01*
X167641185Y-92248815D01*
X167544494Y-92169463D01*
X167434180Y-92110498D01*
X167314482Y-92074188D01*
X167190000Y-92061928D01*
X166525750Y-92065000D01*
X166367000Y-92223750D01*
X166113000Y-92223750D01*
X165954250Y-92065000D01*
X165290000Y-92061928D01*
X165165518Y-92074188D01*
X165045820Y-92110498D01*
X164935506Y-92169463D01*
X164838815Y-92248815D01*
X164759463Y-92345506D01*
X164700498Y-92455820D01*
X164664188Y-92575518D01*
X164651928Y-92700000D01*
X163474383Y-92700000D01*
X163470097Y-92656492D01*
X163442822Y-92566577D01*
X163398529Y-92483711D01*
X163338921Y-92411079D01*
X163320729Y-92396149D01*
X161772704Y-90848125D01*
X161777000Y-90826528D01*
X161777000Y-90673472D01*
X161747141Y-90523357D01*
X161688569Y-90381952D01*
X161603536Y-90254691D01*
X161495309Y-90146464D01*
X161368048Y-90061431D01*
X161226643Y-90002859D01*
X161076528Y-89973000D01*
X160923472Y-89973000D01*
X160773357Y-90002859D01*
X160631952Y-90061431D01*
X160504691Y-90146464D01*
X160396464Y-90254691D01*
X160311431Y-90381952D01*
X160252859Y-90523357D01*
X160223000Y-90673472D01*
X160223000Y-90826528D01*
X160252859Y-90976643D01*
X160311431Y-91118048D01*
X160396464Y-91245309D01*
X160504691Y-91353536D01*
X160631952Y-91438569D01*
X160773357Y-91497141D01*
X160923472Y-91527000D01*
X161076528Y-91527000D01*
X161098125Y-91522704D01*
X162523001Y-92947581D01*
X162523000Y-93726585D01*
X162520694Y-93750000D01*
X162523000Y-93773415D01*
X162523000Y-93773422D01*
X162529903Y-93843507D01*
X162557178Y-93933422D01*
X162601471Y-94016289D01*
X162661079Y-94088921D01*
X162679276Y-94103855D01*
X166773001Y-98197581D01*
X166773000Y-100134230D01*
X166754691Y-100146464D01*
X166646464Y-100254691D01*
X166561431Y-100381952D01*
X166502859Y-100523357D01*
X166473000Y-100673472D01*
X166473000Y-100826528D01*
X166477296Y-100848125D01*
X165684276Y-101641145D01*
X165666079Y-101656079D01*
X165606471Y-101728711D01*
X165562178Y-101811578D01*
X165534903Y-101901493D01*
X165528000Y-101971578D01*
X165528000Y-101971585D01*
X165525694Y-101995000D01*
X165528000Y-102018415D01*
X165528001Y-103276297D01*
X165506095Y-103278455D01*
X165455000Y-103293954D01*
X165403905Y-103278455D01*
X165382000Y-103276298D01*
X165382000Y-101292579D01*
X165651875Y-101022704D01*
X165673472Y-101027000D01*
X165826528Y-101027000D01*
X165976643Y-100997141D01*
X166118048Y-100938569D01*
X166245309Y-100853536D01*
X166353536Y-100745309D01*
X166438569Y-100618048D01*
X166497141Y-100476643D01*
X166527000Y-100326528D01*
X166527000Y-100173472D01*
X166497141Y-100023357D01*
X166438569Y-99881952D01*
X166353536Y-99754691D01*
X166245309Y-99646464D01*
X166118048Y-99561431D01*
X165976643Y-99502859D01*
X165826528Y-99473000D01*
X165673472Y-99473000D01*
X165523357Y-99502859D01*
X165381952Y-99561431D01*
X165254691Y-99646464D01*
X165146464Y-99754691D01*
X165061431Y-99881952D01*
X165002859Y-100023357D01*
X164973000Y-100173472D01*
X164973000Y-100326528D01*
X164977296Y-100348125D01*
X164584276Y-100741145D01*
X164566079Y-100756079D01*
X164506471Y-100828711D01*
X164462178Y-100911578D01*
X164434903Y-101001493D01*
X164428000Y-101071578D01*
X164428000Y-101071585D01*
X164425694Y-101095000D01*
X164428000Y-101118415D01*
X164428001Y-103276297D01*
X164406095Y-103278455D01*
X164355000Y-103293954D01*
X164303905Y-103278455D01*
X164230000Y-103271176D01*
X163380000Y-103271176D01*
X163306095Y-103278455D01*
X163255000Y-103293954D01*
X163203905Y-103278455D01*
X163182000Y-103276298D01*
X163182000Y-100992579D01*
X164651875Y-99522704D01*
X164673472Y-99527000D01*
X164826528Y-99527000D01*
X164976643Y-99497141D01*
X165118048Y-99438569D01*
X165245309Y-99353536D01*
X165353536Y-99245309D01*
X165438569Y-99118048D01*
X165497141Y-98976643D01*
X165527000Y-98826528D01*
X165527000Y-98673472D01*
X165497141Y-98523357D01*
X165438569Y-98381952D01*
X165353536Y-98254691D01*
X165245309Y-98146464D01*
X165227000Y-98134230D01*
X165227000Y-97773414D01*
X165229306Y-97749999D01*
X165227000Y-97726584D01*
X165227000Y-97726577D01*
X165220097Y-97656492D01*
X165192822Y-97566577D01*
X165148529Y-97483711D01*
X165088921Y-97411079D01*
X165070729Y-97396149D01*
X163603855Y-95929276D01*
X163588921Y-95911079D01*
X163516289Y-95851471D01*
X163433423Y-95807178D01*
X163343508Y-95779903D01*
X163273423Y-95773000D01*
X163273415Y-95773000D01*
X163250000Y-95770694D01*
X163226585Y-95773000D01*
X160697580Y-95773000D01*
X159611304Y-94686725D01*
X159984250Y-94685000D01*
X160143000Y-94526250D01*
X160143000Y-93502000D01*
X160397000Y-93502000D01*
X160397000Y-94526250D01*
X160555750Y-94685000D01*
X161220000Y-94688072D01*
X161344482Y-94675812D01*
X161464180Y-94639502D01*
X161574494Y-94580537D01*
X161671185Y-94501185D01*
X161750537Y-94404494D01*
X161809502Y-94294180D01*
X161845812Y-94174482D01*
X161858072Y-94050000D01*
X161855000Y-93660750D01*
X161696250Y-93502000D01*
X160397000Y-93502000D01*
X160143000Y-93502000D01*
X158843750Y-93502000D01*
X158685000Y-93660750D01*
X158684220Y-93759640D01*
X157853855Y-92929276D01*
X157838921Y-92911079D01*
X157766289Y-92851471D01*
X157683423Y-92807178D01*
X157593508Y-92779903D01*
X157523423Y-92773000D01*
X157523415Y-92773000D01*
X157500000Y-92770694D01*
X157476585Y-92773000D01*
X155030434Y-92773000D01*
X155060671Y-92700000D01*
X158681928Y-92700000D01*
X158685000Y-93089250D01*
X158843750Y-93248000D01*
X160143000Y-93248000D01*
X160143000Y-92223750D01*
X160397000Y-92223750D01*
X160397000Y-93248000D01*
X161696250Y-93248000D01*
X161855000Y-93089250D01*
X161858072Y-92700000D01*
X161845812Y-92575518D01*
X161809502Y-92455820D01*
X161750537Y-92345506D01*
X161671185Y-92248815D01*
X161574494Y-92169463D01*
X161464180Y-92110498D01*
X161344482Y-92074188D01*
X161220000Y-92061928D01*
X160555750Y-92065000D01*
X160397000Y-92223750D01*
X160143000Y-92223750D01*
X159984250Y-92065000D01*
X159320000Y-92061928D01*
X159195518Y-92074188D01*
X159075820Y-92110498D01*
X158965506Y-92169463D01*
X158868815Y-92248815D01*
X158789463Y-92345506D01*
X158730498Y-92455820D01*
X158694188Y-92575518D01*
X158681928Y-92700000D01*
X155060671Y-92700000D01*
X155067926Y-92682487D01*
X155117000Y-92435774D01*
X155117000Y-92184226D01*
X155067926Y-91937513D01*
X154971663Y-91705114D01*
X154831911Y-91495960D01*
X154759423Y-91423472D01*
X155473000Y-91423472D01*
X155473000Y-91576528D01*
X155502859Y-91726643D01*
X155561431Y-91868048D01*
X155646464Y-91995309D01*
X155754691Y-92103536D01*
X155881952Y-92188569D01*
X156023357Y-92247141D01*
X156173472Y-92277000D01*
X156326528Y-92277000D01*
X156476643Y-92247141D01*
X156618048Y-92188569D01*
X156745309Y-92103536D01*
X156853536Y-91995309D01*
X156938569Y-91868048D01*
X156997141Y-91726643D01*
X157027000Y-91576528D01*
X157027000Y-91423472D01*
X157022704Y-91401875D01*
X158447580Y-89977000D01*
X158976585Y-89977000D01*
X159000000Y-89979306D01*
X159023415Y-89977000D01*
X159023423Y-89977000D01*
X159093508Y-89970097D01*
X159183423Y-89942822D01*
X159266289Y-89898529D01*
X159338921Y-89838921D01*
X159353855Y-89820724D01*
X163151876Y-86022704D01*
X163173472Y-86027000D01*
X163326528Y-86027000D01*
X163476643Y-85997141D01*
X163618048Y-85938569D01*
X163745309Y-85853536D01*
X163853536Y-85745309D01*
X163938569Y-85618048D01*
X163997141Y-85476643D01*
X164027000Y-85326528D01*
X164027000Y-85173472D01*
X163997141Y-85023357D01*
X163938569Y-84881952D01*
X163853536Y-84754691D01*
X163745309Y-84646464D01*
X163618048Y-84561431D01*
X163476643Y-84502859D01*
X163326528Y-84473000D01*
X163173472Y-84473000D01*
X163023357Y-84502859D01*
X162881952Y-84561431D01*
X162754691Y-84646464D01*
X162646464Y-84754691D01*
X162561431Y-84881952D01*
X162502859Y-85023357D01*
X162473000Y-85173472D01*
X162473000Y-85326528D01*
X162477296Y-85348124D01*
X158802421Y-89023000D01*
X158273414Y-89023000D01*
X158249999Y-89020694D01*
X158226584Y-89023000D01*
X158226577Y-89023000D01*
X158156492Y-89029903D01*
X158066577Y-89057178D01*
X157983711Y-89101471D01*
X157911079Y-89161079D01*
X157896149Y-89179271D01*
X156348125Y-90727296D01*
X156326528Y-90723000D01*
X156173472Y-90723000D01*
X156023357Y-90752859D01*
X155881952Y-90811431D01*
X155754691Y-90896464D01*
X155646464Y-91004691D01*
X155561431Y-91131952D01*
X155502859Y-91273357D01*
X155473000Y-91423472D01*
X154759423Y-91423472D01*
X154654040Y-91318089D01*
X154444886Y-91178337D01*
X154212487Y-91082074D01*
X154000966Y-91040000D01*
X154212487Y-90997926D01*
X154444886Y-90901663D01*
X154654040Y-90761911D01*
X154831911Y-90584040D01*
X154971663Y-90374886D01*
X155067926Y-90142487D01*
X155117000Y-89895774D01*
X155117000Y-89644226D01*
X155067926Y-89397513D01*
X155014953Y-89269626D01*
X155307580Y-88977000D01*
X156384230Y-88977000D01*
X156396464Y-88995309D01*
X156504691Y-89103536D01*
X156631952Y-89188569D01*
X156773357Y-89247141D01*
X156923472Y-89277000D01*
X157076528Y-89277000D01*
X157226643Y-89247141D01*
X157368048Y-89188569D01*
X157495309Y-89103536D01*
X157603536Y-88995309D01*
X157688569Y-88868048D01*
X157747141Y-88726643D01*
X157777000Y-88576528D01*
X157777000Y-88423472D01*
X157747141Y-88273357D01*
X157688569Y-88131952D01*
X157603536Y-88004691D01*
X157495309Y-87896464D01*
X157368048Y-87811431D01*
X157226643Y-87752859D01*
X157076528Y-87723000D01*
X156923472Y-87723000D01*
X156773357Y-87752859D01*
X156631952Y-87811431D01*
X156504691Y-87896464D01*
X156396464Y-88004691D01*
X156384230Y-88023000D01*
X155133414Y-88023000D01*
X155109999Y-88020694D01*
X155086584Y-88023000D01*
X155086577Y-88023000D01*
X155016492Y-88029903D01*
X154926577Y-88057178D01*
X154843711Y-88101471D01*
X154771079Y-88161079D01*
X154756149Y-88179271D01*
X154340374Y-88595047D01*
X154212487Y-88542074D01*
X154000966Y-88500000D01*
X154212487Y-88457926D01*
X154444886Y-88361663D01*
X154654040Y-88221911D01*
X154831911Y-88044040D01*
X154971663Y-87834886D01*
X155067926Y-87602487D01*
X155117000Y-87355774D01*
X155117000Y-87104226D01*
X155067926Y-86857513D01*
X154971663Y-86625114D01*
X154831911Y-86415960D01*
X154654040Y-86238089D01*
X154444886Y-86098337D01*
X154212487Y-86002074D01*
X154000966Y-85960000D01*
X154212487Y-85917926D01*
X154444886Y-85821663D01*
X154654040Y-85681911D01*
X154831911Y-85504040D01*
X154971663Y-85294886D01*
X155067926Y-85062487D01*
X155117000Y-84815774D01*
X155117000Y-84564226D01*
X155067926Y-84317513D01*
X154971663Y-84085114D01*
X154831911Y-83875960D01*
X154654040Y-83698089D01*
X154444886Y-83558337D01*
X154212487Y-83462074D01*
X154000966Y-83420000D01*
X154212487Y-83377926D01*
X154444886Y-83281663D01*
X154654040Y-83141911D01*
X154831911Y-82964040D01*
X154971663Y-82754886D01*
X155067926Y-82522487D01*
X155117000Y-82275774D01*
X155117000Y-82024226D01*
X155067926Y-81777513D01*
X154971663Y-81545114D01*
X154831911Y-81335960D01*
X154654040Y-81158089D01*
X154444886Y-81018337D01*
X154212487Y-80922074D01*
X154000966Y-80880000D01*
X154212487Y-80837926D01*
X154444886Y-80741663D01*
X154654040Y-80601911D01*
X154831911Y-80424040D01*
X154971663Y-80214886D01*
X155067926Y-79982487D01*
X155117000Y-79735774D01*
X155117000Y-79484226D01*
X155067926Y-79237513D01*
X154971663Y-79005114D01*
X154831911Y-78795960D01*
X154654040Y-78618089D01*
X154444886Y-78478337D01*
X154212487Y-78382074D01*
X154000966Y-78340000D01*
X154212487Y-78297926D01*
X154444886Y-78201663D01*
X154654040Y-78061911D01*
X154831911Y-77884040D01*
X154971663Y-77674886D01*
X155067926Y-77442487D01*
X155117000Y-77195774D01*
X155117000Y-76944226D01*
X155067926Y-76697513D01*
X154971663Y-76465114D01*
X154831911Y-76255960D01*
X154654040Y-76078089D01*
X154450917Y-75942366D01*
X154491199Y-75928222D01*
X154640792Y-75848261D01*
X154724475Y-75594080D01*
X153840000Y-74709605D01*
X153825858Y-74723748D01*
X153646253Y-74544143D01*
X153660395Y-74530000D01*
X154019605Y-74530000D01*
X154904080Y-75414475D01*
X155158261Y-75330792D01*
X155289158Y-75058225D01*
X155364365Y-74765358D01*
X155380991Y-74463447D01*
X155338397Y-74164093D01*
X155238222Y-73878801D01*
X155158261Y-73729208D01*
X154904080Y-73645525D01*
X154019605Y-74530000D01*
X153660395Y-74530000D01*
X153646253Y-74515858D01*
X153825858Y-74336253D01*
X153840000Y-74350395D01*
X154724475Y-73465920D01*
X154640792Y-73211739D01*
X154448374Y-73119333D01*
X154626967Y-73000000D01*
X162618757Y-73000000D01*
X162635690Y-73171922D01*
X162685838Y-73337236D01*
X162767274Y-73489592D01*
X162849406Y-73589671D01*
X163349403Y-74089668D01*
X163376867Y-74123133D01*
X163510408Y-74232727D01*
X163662763Y-74314162D01*
X163828077Y-74364310D01*
X164000000Y-74381243D01*
X164043079Y-74377000D01*
X170623000Y-74377000D01*
X170623001Y-92719196D01*
X170619967Y-92750000D01*
X170632073Y-92872912D01*
X170649170Y-92929272D01*
X170667926Y-92991103D01*
X170726148Y-93100028D01*
X170728163Y-93102483D01*
X170752859Y-93226643D01*
X170811431Y-93368048D01*
X170896464Y-93495309D01*
X171004691Y-93603536D01*
X171131952Y-93688569D01*
X171273357Y-93747141D01*
X171423472Y-93777000D01*
X171576528Y-93777000D01*
X171726643Y-93747141D01*
X171868048Y-93688569D01*
X171995309Y-93603536D01*
X172103536Y-93495309D01*
X172188569Y-93368048D01*
X172247141Y-93226643D01*
X172277000Y-93076528D01*
X172277000Y-92923472D01*
X172247141Y-92773357D01*
X172188569Y-92631952D01*
X172103536Y-92504691D01*
X171995309Y-92396464D01*
X171877000Y-92317413D01*
X171877000Y-74377000D01*
X186386735Y-74377000D01*
X194410328Y-82400594D01*
X194510407Y-82482726D01*
X194662763Y-82564162D01*
X194828077Y-82614310D01*
X195000000Y-82631243D01*
X195171922Y-82614310D01*
X195337236Y-82564162D01*
X195489592Y-82482726D01*
X195623132Y-82373132D01*
X195732726Y-82239592D01*
X195814162Y-82087236D01*
X195864310Y-81921922D01*
X195881243Y-81750000D01*
X195864310Y-81578077D01*
X195814162Y-81412763D01*
X195732726Y-81260407D01*
X195650594Y-81160328D01*
X187400594Y-72910329D01*
X187373133Y-72876867D01*
X187239592Y-72767273D01*
X187087237Y-72685838D01*
X186921922Y-72635690D01*
X186793079Y-72623000D01*
X186750000Y-72618757D01*
X186706921Y-72623000D01*
X164363265Y-72623000D01*
X164089671Y-72349406D01*
X163989592Y-72267274D01*
X163837236Y-72185838D01*
X163671922Y-72135690D01*
X163500000Y-72118757D01*
X163328078Y-72135690D01*
X163162764Y-72185838D01*
X163010408Y-72267274D01*
X162876868Y-72376868D01*
X162767274Y-72510408D01*
X162685838Y-72662764D01*
X162635690Y-72828078D01*
X162618757Y-73000000D01*
X154626967Y-73000000D01*
X154654040Y-72981911D01*
X154831911Y-72804040D01*
X154971663Y-72594886D01*
X155067926Y-72362487D01*
X155117000Y-72115774D01*
X155117000Y-71864226D01*
X155067926Y-71617513D01*
X154971663Y-71385114D01*
X154831911Y-71175960D01*
X154654040Y-70998089D01*
X154444886Y-70858337D01*
X154212487Y-70762074D01*
X154000966Y-70720000D01*
X154212487Y-70677926D01*
X154444886Y-70581663D01*
X154654040Y-70441911D01*
X154831911Y-70264040D01*
X154971663Y-70054886D01*
X155067926Y-69822487D01*
X155117000Y-69575774D01*
X155117000Y-69324226D01*
X155067926Y-69077513D01*
X154971663Y-68845114D01*
X154831911Y-68635960D01*
X154654040Y-68458089D01*
X154444886Y-68318337D01*
X154212487Y-68222074D01*
X154000966Y-68180000D01*
X154212487Y-68137926D01*
X154444886Y-68041663D01*
X154654040Y-67901911D01*
X154831911Y-67724040D01*
X154971663Y-67514886D01*
X155067926Y-67282487D01*
X155117000Y-67035774D01*
X155117000Y-66784226D01*
X155067926Y-66537513D01*
X154971663Y-66305114D01*
X154831911Y-66095960D01*
X154654040Y-65918089D01*
X154444886Y-65778337D01*
X154212487Y-65682074D01*
X153965774Y-65633000D01*
X153714226Y-65633000D01*
X153467513Y-65682074D01*
X153235114Y-65778337D01*
X153025960Y-65918089D01*
X152902000Y-66042049D01*
X152902000Y-60902000D01*
X176598001Y-60902000D01*
X176598000Y-70050253D01*
%TA.AperFunction,Conductor*%
D22*
G36*
X176598000Y-70050253D02*
G01*
X176596055Y-70070000D01*
X176603817Y-70148806D01*
X176626803Y-70224583D01*
X176664132Y-70294420D01*
X176714368Y-70355632D01*
X176775580Y-70405868D01*
X176845417Y-70443197D01*
X176921194Y-70466183D01*
X177000000Y-70473945D01*
X177019747Y-70472000D01*
X215368000Y-70472000D01*
X215368001Y-90223795D01*
X211803177Y-93798000D01*
X177019747Y-93798000D01*
X177000000Y-93796055D01*
X176980253Y-93798000D01*
X176921194Y-93803817D01*
X176845417Y-93826803D01*
X176775580Y-93864132D01*
X176714368Y-93914368D01*
X176664132Y-93975580D01*
X176626803Y-94045417D01*
X176603817Y-94121194D01*
X176596055Y-94200000D01*
X176598000Y-94219747D01*
X176598001Y-99380244D01*
X176598000Y-99380254D01*
X176598001Y-106098000D01*
X174830232Y-106098000D01*
X174974040Y-106001911D01*
X175151911Y-105824040D01*
X175291663Y-105614886D01*
X175387926Y-105382487D01*
X175437000Y-105135774D01*
X175437000Y-104884226D01*
X175387926Y-104637513D01*
X175291663Y-104405114D01*
X175151911Y-104195960D01*
X174974040Y-104018089D01*
X174764886Y-103878337D01*
X174532487Y-103782074D01*
X174320966Y-103740000D01*
X174532487Y-103697926D01*
X174764886Y-103601663D01*
X174974040Y-103461911D01*
X175151911Y-103284040D01*
X175291663Y-103074886D01*
X175387926Y-102842487D01*
X175437000Y-102595774D01*
X175437000Y-102344226D01*
X175387926Y-102097513D01*
X175291663Y-101865114D01*
X175151911Y-101655960D01*
X174974040Y-101478089D01*
X174764886Y-101338337D01*
X174532487Y-101242074D01*
X174320966Y-101200000D01*
X174532487Y-101157926D01*
X174764886Y-101061663D01*
X174974040Y-100921911D01*
X175151911Y-100744040D01*
X175291663Y-100534886D01*
X175387926Y-100302487D01*
X175437000Y-100055774D01*
X175437000Y-99804226D01*
X175387926Y-99557513D01*
X175291663Y-99325114D01*
X175151911Y-99115960D01*
X174974040Y-98938089D01*
X174764886Y-98798337D01*
X174532487Y-98702074D01*
X174320966Y-98660000D01*
X174532487Y-98617926D01*
X174764886Y-98521663D01*
X174974040Y-98381911D01*
X175151911Y-98204040D01*
X175291663Y-97994886D01*
X175387926Y-97762487D01*
X175437000Y-97515774D01*
X175437000Y-97264226D01*
X175387926Y-97017513D01*
X175291663Y-96785114D01*
X175151911Y-96575960D01*
X174974040Y-96398089D01*
X174764886Y-96258337D01*
X174532487Y-96162074D01*
X174320966Y-96120000D01*
X174532487Y-96077926D01*
X174764886Y-95981663D01*
X174974040Y-95841911D01*
X175151911Y-95664040D01*
X175291663Y-95454886D01*
X175387926Y-95222487D01*
X175437000Y-94975774D01*
X175437000Y-94724226D01*
X175387926Y-94477513D01*
X175291663Y-94245114D01*
X175151911Y-94035960D01*
X174974040Y-93858089D01*
X174764886Y-93718337D01*
X174532487Y-93622074D01*
X174320966Y-93580000D01*
X174532487Y-93537926D01*
X174764886Y-93441663D01*
X174974040Y-93301911D01*
X175151911Y-93124040D01*
X175291663Y-92914886D01*
X175387926Y-92682487D01*
X175437000Y-92435774D01*
X175437000Y-92184226D01*
X175387926Y-91937513D01*
X175291663Y-91705114D01*
X175151911Y-91495960D01*
X174974040Y-91318089D01*
X174764886Y-91178337D01*
X174532487Y-91082074D01*
X174320966Y-91040000D01*
X174532487Y-90997926D01*
X174764886Y-90901663D01*
X174974040Y-90761911D01*
X175151911Y-90584040D01*
X175291663Y-90374886D01*
X175387926Y-90142487D01*
X175437000Y-89895774D01*
X175437000Y-89644226D01*
X175387926Y-89397513D01*
X175291663Y-89165114D01*
X175151911Y-88955960D01*
X174974040Y-88778089D01*
X174764886Y-88638337D01*
X174532487Y-88542074D01*
X174320966Y-88500000D01*
X174532487Y-88457926D01*
X174764886Y-88361663D01*
X174974040Y-88221911D01*
X175151911Y-88044040D01*
X175291663Y-87834886D01*
X175387926Y-87602487D01*
X175437000Y-87355774D01*
X175437000Y-87104226D01*
X175387926Y-86857513D01*
X175291663Y-86625114D01*
X175151911Y-86415960D01*
X174974040Y-86238089D01*
X174764886Y-86098337D01*
X174532487Y-86002074D01*
X174320966Y-85960000D01*
X174532487Y-85917926D01*
X174764886Y-85821663D01*
X174974040Y-85681911D01*
X175151911Y-85504040D01*
X175291663Y-85294886D01*
X175387926Y-85062487D01*
X175437000Y-84815774D01*
X175437000Y-84564226D01*
X175387926Y-84317513D01*
X175291663Y-84085114D01*
X175151911Y-83875960D01*
X174974040Y-83698089D01*
X174764886Y-83558337D01*
X174532487Y-83462074D01*
X174320966Y-83420000D01*
X174532487Y-83377926D01*
X174764886Y-83281663D01*
X174974040Y-83141911D01*
X175151911Y-82964040D01*
X175291663Y-82754886D01*
X175387926Y-82522487D01*
X175437000Y-82275774D01*
X175437000Y-82024226D01*
X175387926Y-81777513D01*
X175291663Y-81545114D01*
X175151911Y-81335960D01*
X174974040Y-81158089D01*
X174764886Y-81018337D01*
X174532487Y-80922074D01*
X174320966Y-80880000D01*
X174532487Y-80837926D01*
X174764886Y-80741663D01*
X174974040Y-80601911D01*
X175151911Y-80424040D01*
X175291663Y-80214886D01*
X175387926Y-79982487D01*
X175437000Y-79735774D01*
X175437000Y-79484226D01*
X175387926Y-79237513D01*
X175291663Y-79005114D01*
X175151911Y-78795960D01*
X174974040Y-78618089D01*
X174764886Y-78478337D01*
X174532487Y-78382074D01*
X174320966Y-78340000D01*
X174532487Y-78297926D01*
X174764886Y-78201663D01*
X174974040Y-78061911D01*
X175151911Y-77884040D01*
X175291663Y-77674886D01*
X175387926Y-77442487D01*
X175437000Y-77195774D01*
X175437000Y-76944226D01*
X175387926Y-76697513D01*
X175291663Y-76465114D01*
X175151911Y-76255960D01*
X174974040Y-76078089D01*
X174764886Y-75938337D01*
X174532487Y-75842074D01*
X174285774Y-75793000D01*
X174034226Y-75793000D01*
X173787513Y-75842074D01*
X173555114Y-75938337D01*
X173345960Y-76078089D01*
X173168089Y-76255960D01*
X173028337Y-76465114D01*
X172932074Y-76697513D01*
X172883000Y-76944226D01*
X172883000Y-77195774D01*
X172932074Y-77442487D01*
X173028337Y-77674886D01*
X173168089Y-77884040D01*
X173345960Y-78061911D01*
X173555114Y-78201663D01*
X173787513Y-78297926D01*
X173999034Y-78340000D01*
X173787513Y-78382074D01*
X173555114Y-78478337D01*
X173345960Y-78618089D01*
X173168089Y-78795960D01*
X173028337Y-79005114D01*
X172932074Y-79237513D01*
X172883000Y-79484226D01*
X172883000Y-79735774D01*
X172932074Y-79982487D01*
X173028337Y-80214886D01*
X173168089Y-80424040D01*
X173345960Y-80601911D01*
X173555114Y-80741663D01*
X173787513Y-80837926D01*
X173999034Y-80880000D01*
X173787513Y-80922074D01*
X173555114Y-81018337D01*
X173345960Y-81158089D01*
X173168089Y-81335960D01*
X173028337Y-81545114D01*
X172932074Y-81777513D01*
X172883000Y-82024226D01*
X172883000Y-82275774D01*
X172932074Y-82522487D01*
X173028337Y-82754886D01*
X173168089Y-82964040D01*
X173345960Y-83141911D01*
X173555114Y-83281663D01*
X173787513Y-83377926D01*
X173999034Y-83420000D01*
X173787513Y-83462074D01*
X173555114Y-83558337D01*
X173345960Y-83698089D01*
X173168089Y-83875960D01*
X173028337Y-84085114D01*
X172932074Y-84317513D01*
X172883000Y-84564226D01*
X172883000Y-84815774D01*
X172932074Y-85062487D01*
X173028337Y-85294886D01*
X173168089Y-85504040D01*
X173345960Y-85681911D01*
X173555114Y-85821663D01*
X173787513Y-85917926D01*
X173999034Y-85960000D01*
X173787513Y-86002074D01*
X173555114Y-86098337D01*
X173345960Y-86238089D01*
X173168089Y-86415960D01*
X173028337Y-86625114D01*
X172932074Y-86857513D01*
X172883000Y-87104226D01*
X172883000Y-87355774D01*
X172932074Y-87602487D01*
X173028337Y-87834886D01*
X173168089Y-88044040D01*
X173345960Y-88221911D01*
X173555114Y-88361663D01*
X173787513Y-88457926D01*
X173999034Y-88500000D01*
X173787513Y-88542074D01*
X173555114Y-88638337D01*
X173345960Y-88778089D01*
X173168089Y-88955960D01*
X173028337Y-89165114D01*
X172932074Y-89397513D01*
X172883000Y-89644226D01*
X172883000Y-89895774D01*
X172932074Y-90142487D01*
X173028337Y-90374886D01*
X173168089Y-90584040D01*
X173345960Y-90761911D01*
X173555114Y-90901663D01*
X173787513Y-90997926D01*
X173999034Y-91040000D01*
X173787513Y-91082074D01*
X173555114Y-91178337D01*
X173345960Y-91318089D01*
X173168089Y-91495960D01*
X173028337Y-91705114D01*
X172932074Y-91937513D01*
X172883000Y-92184226D01*
X172883000Y-92435774D01*
X172932074Y-92682487D01*
X173028337Y-92914886D01*
X173168089Y-93124040D01*
X173345960Y-93301911D01*
X173555114Y-93441663D01*
X173787513Y-93537926D01*
X173999034Y-93580000D01*
X173787513Y-93622074D01*
X173555114Y-93718337D01*
X173345960Y-93858089D01*
X173168089Y-94035960D01*
X173028337Y-94245114D01*
X172932074Y-94477513D01*
X172883000Y-94724226D01*
X172883000Y-94975774D01*
X172932074Y-95222487D01*
X173028337Y-95454886D01*
X173168089Y-95664040D01*
X173345960Y-95841911D01*
X173555114Y-95981663D01*
X173787513Y-96077926D01*
X173999034Y-96120000D01*
X173787513Y-96162074D01*
X173555114Y-96258337D01*
X173345960Y-96398089D01*
X173168089Y-96575960D01*
X173028337Y-96785114D01*
X172932074Y-97017513D01*
X172883000Y-97264226D01*
X172883000Y-97515774D01*
X172932074Y-97762487D01*
X173028337Y-97994886D01*
X173168089Y-98204040D01*
X173345960Y-98381911D01*
X173555114Y-98521663D01*
X173787513Y-98617926D01*
X173999034Y-98660000D01*
X173787513Y-98702074D01*
X173555114Y-98798337D01*
X173345960Y-98938089D01*
X173168089Y-99115960D01*
X173028337Y-99325114D01*
X172932074Y-99557513D01*
X172883000Y-99804226D01*
X172883000Y-100055774D01*
X172932074Y-100302487D01*
X173028337Y-100534886D01*
X173168089Y-100744040D01*
X173345960Y-100921911D01*
X173555114Y-101061663D01*
X173787513Y-101157926D01*
X173999034Y-101200000D01*
X173787513Y-101242074D01*
X173555114Y-101338337D01*
X173345960Y-101478089D01*
X173168089Y-101655960D01*
X173028337Y-101865114D01*
X172932074Y-102097513D01*
X172883000Y-102344226D01*
X172883000Y-102595774D01*
X172932074Y-102842487D01*
X173028337Y-103074886D01*
X173168089Y-103284040D01*
X173345960Y-103461911D01*
X173555114Y-103601663D01*
X173787513Y-103697926D01*
X173999034Y-103740000D01*
X173787513Y-103782074D01*
X173555114Y-103878337D01*
X173345960Y-104018089D01*
X173168089Y-104195960D01*
X173028337Y-104405114D01*
X172932074Y-104637513D01*
X172883000Y-104884226D01*
X172883000Y-105135774D01*
X172932074Y-105382487D01*
X173028337Y-105614886D01*
X173168089Y-105824040D01*
X173345960Y-106001911D01*
X173489768Y-106098000D01*
X170688713Y-106098000D01*
X171921578Y-104865136D01*
X171945501Y-104845503D01*
X172023853Y-104750030D01*
X172082075Y-104641105D01*
X172117927Y-104522915D01*
X172127000Y-104430796D01*
X172127000Y-104430795D01*
X172130033Y-104400003D01*
X172127000Y-104369211D01*
X172127000Y-100960193D01*
X172188569Y-100868048D01*
X172247141Y-100726643D01*
X172277000Y-100576528D01*
X172277000Y-100423472D01*
X172247141Y-100273357D01*
X172188569Y-100131952D01*
X172103536Y-100004691D01*
X171995309Y-99896464D01*
X171868048Y-99811431D01*
X171726643Y-99752859D01*
X171576528Y-99723000D01*
X171423472Y-99723000D01*
X171273357Y-99752859D01*
X171131952Y-99811431D01*
X171004691Y-99896464D01*
X170896464Y-100004691D01*
X170811431Y-100131952D01*
X170752859Y-100273357D01*
X170723000Y-100423472D01*
X170723000Y-100576528D01*
X170752859Y-100726643D01*
X170811431Y-100868048D01*
X170873000Y-100960193D01*
X170873001Y-103050115D01*
X170870537Y-103045506D01*
X170791185Y-102948815D01*
X170694494Y-102869463D01*
X170584180Y-102810498D01*
X170464482Y-102774188D01*
X170340000Y-102761928D01*
X169850750Y-102765000D01*
X169692000Y-102923750D01*
X169692000Y-103948000D01*
X169712000Y-103948000D01*
X169712000Y-104202000D01*
X169692000Y-104202000D01*
X169692000Y-104222000D01*
X169438000Y-104222000D01*
X169438000Y-104202000D01*
X168313750Y-104202000D01*
X168155000Y-104360750D01*
X168151928Y-104750000D01*
X168164188Y-104874482D01*
X168200498Y-104994180D01*
X168259463Y-105104494D01*
X168274650Y-105123000D01*
X167589132Y-105123000D01*
X167603905Y-105121545D01*
X167674970Y-105099988D01*
X167740463Y-105064981D01*
X167797869Y-105017869D01*
X167844981Y-104960463D01*
X167879988Y-104894970D01*
X167901545Y-104823905D01*
X167908824Y-104750000D01*
X167908824Y-103765755D01*
X168152888Y-103521691D01*
X168155000Y-103789250D01*
X168313750Y-103948000D01*
X169438000Y-103948000D01*
X169438000Y-102923750D01*
X169279250Y-102765000D01*
X169231377Y-102764699D01*
X169247141Y-102726643D01*
X169277000Y-102576528D01*
X169277000Y-102423472D01*
X169247141Y-102273357D01*
X169188569Y-102131952D01*
X169103536Y-102004691D01*
X168995309Y-101896464D01*
X168868048Y-101811431D01*
X168726643Y-101752859D01*
X168576528Y-101723000D01*
X168423472Y-101723000D01*
X168273357Y-101752859D01*
X168131952Y-101811431D01*
X168004691Y-101896464D01*
X167896464Y-102004691D01*
X167811431Y-102131952D01*
X167752859Y-102273357D01*
X167723000Y-102423472D01*
X167723000Y-102576528D01*
X167727296Y-102598125D01*
X167477917Y-102847503D01*
X167443921Y-102806079D01*
X167371289Y-102746471D01*
X167288423Y-102702178D01*
X167198508Y-102674903D01*
X167105000Y-102665693D01*
X167011493Y-102674903D01*
X166921578Y-102702178D01*
X166838712Y-102746471D01*
X166766080Y-102806079D01*
X166706472Y-102878711D01*
X166662179Y-102961577D01*
X166634904Y-103051492D01*
X166628001Y-103121577D01*
X166628001Y-103276297D01*
X166606095Y-103278455D01*
X166555000Y-103293954D01*
X166503905Y-103278455D01*
X166482000Y-103276298D01*
X166482000Y-102192579D01*
X167151875Y-101522704D01*
X167173472Y-101527000D01*
X167326528Y-101527000D01*
X167476643Y-101497141D01*
X167618048Y-101438569D01*
X167745309Y-101353536D01*
X167853536Y-101245309D01*
X167938569Y-101118048D01*
X167997141Y-100976643D01*
X168027000Y-100826528D01*
X168027000Y-100673472D01*
X167997141Y-100523357D01*
X167938569Y-100381952D01*
X167853536Y-100254691D01*
X167745309Y-100146464D01*
X167727000Y-100134230D01*
X167727000Y-98023415D01*
X167729306Y-98000000D01*
X167727000Y-97976585D01*
X167727000Y-97976577D01*
X167720097Y-97906492D01*
X167692822Y-97816577D01*
X167648529Y-97733711D01*
X167588921Y-97661079D01*
X167570729Y-97646150D01*
X167474579Y-97550000D01*
X168761176Y-97550000D01*
X168761176Y-98550000D01*
X168768455Y-98623905D01*
X168790012Y-98694970D01*
X168825019Y-98760463D01*
X168872131Y-98817869D01*
X168929537Y-98864981D01*
X168995030Y-98899988D01*
X169066095Y-98921545D01*
X169140000Y-98928824D01*
X170340000Y-98928824D01*
X170413905Y-98921545D01*
X170484970Y-98899988D01*
X170550463Y-98864981D01*
X170607869Y-98817869D01*
X170654981Y-98760463D01*
X170689988Y-98694970D01*
X170711545Y-98623905D01*
X170718824Y-98550000D01*
X170718824Y-97550000D01*
X170711545Y-97476095D01*
X170689988Y-97405030D01*
X170654981Y-97339537D01*
X170607869Y-97282131D01*
X170550463Y-97235019D01*
X170484970Y-97200012D01*
X170413905Y-97178455D01*
X170340000Y-97171176D01*
X169140000Y-97171176D01*
X169066095Y-97178455D01*
X168995030Y-97200012D01*
X168929537Y-97235019D01*
X168872131Y-97282131D01*
X168825019Y-97339537D01*
X168790012Y-97405030D01*
X168768455Y-97476095D01*
X168761176Y-97550000D01*
X167474579Y-97550000D01*
X163974579Y-94050000D01*
X164651928Y-94050000D01*
X164664188Y-94174482D01*
X164700498Y-94294180D01*
X164759463Y-94404494D01*
X164838815Y-94501185D01*
X164935506Y-94580537D01*
X165045820Y-94639502D01*
X165165518Y-94675812D01*
X165290000Y-94688072D01*
X165954250Y-94685000D01*
X166113000Y-94526250D01*
X166113000Y-93502000D01*
X166367000Y-93502000D01*
X166367000Y-94526250D01*
X166525750Y-94685000D01*
X167190000Y-94688072D01*
X167314482Y-94675812D01*
X167434180Y-94639502D01*
X167544494Y-94580537D01*
X167641185Y-94501185D01*
X167720537Y-94404494D01*
X167779502Y-94294180D01*
X167815812Y-94174482D01*
X167828072Y-94050000D01*
X167826494Y-93850000D01*
X168761176Y-93850000D01*
X168761176Y-94850000D01*
X168768455Y-94923905D01*
X168790012Y-94994970D01*
X168825019Y-95060463D01*
X168872131Y-95117869D01*
X168929537Y-95164981D01*
X168995030Y-95199988D01*
X169066095Y-95221545D01*
X169140000Y-95228824D01*
X170340000Y-95228824D01*
X170413905Y-95221545D01*
X170484970Y-95199988D01*
X170550463Y-95164981D01*
X170607869Y-95117869D01*
X170654981Y-95060463D01*
X170689988Y-94994970D01*
X170711545Y-94923905D01*
X170718824Y-94850000D01*
X170718824Y-93850000D01*
X170711545Y-93776095D01*
X170689988Y-93705030D01*
X170654981Y-93639537D01*
X170607869Y-93582131D01*
X170550463Y-93535019D01*
X170484970Y-93500012D01*
X170413905Y-93478455D01*
X170340000Y-93471176D01*
X169140000Y-93471176D01*
X169066095Y-93478455D01*
X168995030Y-93500012D01*
X168929537Y-93535019D01*
X168872131Y-93582131D01*
X168825019Y-93639537D01*
X168790012Y-93705030D01*
X168768455Y-93776095D01*
X168761176Y-93850000D01*
X167826494Y-93850000D01*
X167825000Y-93660750D01*
X167666250Y-93502000D01*
X166367000Y-93502000D01*
X166113000Y-93502000D01*
X164813750Y-93502000D01*
X164655000Y-93660750D01*
X164651928Y-94050000D01*
X163974579Y-94050000D01*
X163477000Y-93552421D01*
X163477000Y-92773414D01*
X163479306Y-92749999D01*
X163477000Y-92726584D01*
X163477000Y-92726577D01*
X163474383Y-92700000D01*
X164651928Y-92700000D01*
X164655000Y-93089250D01*
X164813750Y-93248000D01*
X166113000Y-93248000D01*
X166113000Y-92223750D01*
X166367000Y-92223750D01*
X166367000Y-93248000D01*
X167666250Y-93248000D01*
X167825000Y-93089250D01*
X167828072Y-92700000D01*
X167815812Y-92575518D01*
X167779502Y-92455820D01*
X167720537Y-92345506D01*
X167641185Y-92248815D01*
X167544494Y-92169463D01*
X167434180Y-92110498D01*
X167314482Y-92074188D01*
X167190000Y-92061928D01*
X166525750Y-92065000D01*
X166367000Y-92223750D01*
X166113000Y-92223750D01*
X165954250Y-92065000D01*
X165290000Y-92061928D01*
X165165518Y-92074188D01*
X165045820Y-92110498D01*
X164935506Y-92169463D01*
X164838815Y-92248815D01*
X164759463Y-92345506D01*
X164700498Y-92455820D01*
X164664188Y-92575518D01*
X164651928Y-92700000D01*
X163474383Y-92700000D01*
X163470097Y-92656492D01*
X163442822Y-92566577D01*
X163398529Y-92483711D01*
X163338921Y-92411079D01*
X163320729Y-92396149D01*
X161772704Y-90848125D01*
X161777000Y-90826528D01*
X161777000Y-90673472D01*
X161747141Y-90523357D01*
X161688569Y-90381952D01*
X161603536Y-90254691D01*
X161495309Y-90146464D01*
X161368048Y-90061431D01*
X161226643Y-90002859D01*
X161076528Y-89973000D01*
X160923472Y-89973000D01*
X160773357Y-90002859D01*
X160631952Y-90061431D01*
X160504691Y-90146464D01*
X160396464Y-90254691D01*
X160311431Y-90381952D01*
X160252859Y-90523357D01*
X160223000Y-90673472D01*
X160223000Y-90826528D01*
X160252859Y-90976643D01*
X160311431Y-91118048D01*
X160396464Y-91245309D01*
X160504691Y-91353536D01*
X160631952Y-91438569D01*
X160773357Y-91497141D01*
X160923472Y-91527000D01*
X161076528Y-91527000D01*
X161098125Y-91522704D01*
X162523001Y-92947581D01*
X162523000Y-93726585D01*
X162520694Y-93750000D01*
X162523000Y-93773415D01*
X162523000Y-93773422D01*
X162529903Y-93843507D01*
X162557178Y-93933422D01*
X162601471Y-94016289D01*
X162661079Y-94088921D01*
X162679276Y-94103855D01*
X166773001Y-98197581D01*
X166773000Y-100134230D01*
X166754691Y-100146464D01*
X166646464Y-100254691D01*
X166561431Y-100381952D01*
X166502859Y-100523357D01*
X166473000Y-100673472D01*
X166473000Y-100826528D01*
X166477296Y-100848125D01*
X165684276Y-101641145D01*
X165666079Y-101656079D01*
X165606471Y-101728711D01*
X165562178Y-101811578D01*
X165534903Y-101901493D01*
X165528000Y-101971578D01*
X165528000Y-101971585D01*
X165525694Y-101995000D01*
X165528000Y-102018415D01*
X165528001Y-103276297D01*
X165506095Y-103278455D01*
X165455000Y-103293954D01*
X165403905Y-103278455D01*
X165382000Y-103276298D01*
X165382000Y-101292579D01*
X165651875Y-101022704D01*
X165673472Y-101027000D01*
X165826528Y-101027000D01*
X165976643Y-100997141D01*
X166118048Y-100938569D01*
X166245309Y-100853536D01*
X166353536Y-100745309D01*
X166438569Y-100618048D01*
X166497141Y-100476643D01*
X166527000Y-100326528D01*
X166527000Y-100173472D01*
X166497141Y-100023357D01*
X166438569Y-99881952D01*
X166353536Y-99754691D01*
X166245309Y-99646464D01*
X166118048Y-99561431D01*
X165976643Y-99502859D01*
X165826528Y-99473000D01*
X165673472Y-99473000D01*
X165523357Y-99502859D01*
X165381952Y-99561431D01*
X165254691Y-99646464D01*
X165146464Y-99754691D01*
X165061431Y-99881952D01*
X165002859Y-100023357D01*
X164973000Y-100173472D01*
X164973000Y-100326528D01*
X164977296Y-100348125D01*
X164584276Y-100741145D01*
X164566079Y-100756079D01*
X164506471Y-100828711D01*
X164462178Y-100911578D01*
X164434903Y-101001493D01*
X164428000Y-101071578D01*
X164428000Y-101071585D01*
X164425694Y-101095000D01*
X164428000Y-101118415D01*
X164428001Y-103276297D01*
X164406095Y-103278455D01*
X164355000Y-103293954D01*
X164303905Y-103278455D01*
X164230000Y-103271176D01*
X163380000Y-103271176D01*
X163306095Y-103278455D01*
X163255000Y-103293954D01*
X163203905Y-103278455D01*
X163182000Y-103276298D01*
X163182000Y-100992579D01*
X164651875Y-99522704D01*
X164673472Y-99527000D01*
X164826528Y-99527000D01*
X164976643Y-99497141D01*
X165118048Y-99438569D01*
X165245309Y-99353536D01*
X165353536Y-99245309D01*
X165438569Y-99118048D01*
X165497141Y-98976643D01*
X165527000Y-98826528D01*
X165527000Y-98673472D01*
X165497141Y-98523357D01*
X165438569Y-98381952D01*
X165353536Y-98254691D01*
X165245309Y-98146464D01*
X165227000Y-98134230D01*
X165227000Y-97773414D01*
X165229306Y-97749999D01*
X165227000Y-97726584D01*
X165227000Y-97726577D01*
X165220097Y-97656492D01*
X165192822Y-97566577D01*
X165148529Y-97483711D01*
X165088921Y-97411079D01*
X165070729Y-97396149D01*
X163603855Y-95929276D01*
X163588921Y-95911079D01*
X163516289Y-95851471D01*
X163433423Y-95807178D01*
X163343508Y-95779903D01*
X163273423Y-95773000D01*
X163273415Y-95773000D01*
X163250000Y-95770694D01*
X163226585Y-95773000D01*
X160697580Y-95773000D01*
X159611304Y-94686725D01*
X159984250Y-94685000D01*
X160143000Y-94526250D01*
X160143000Y-93502000D01*
X160397000Y-93502000D01*
X160397000Y-94526250D01*
X160555750Y-94685000D01*
X161220000Y-94688072D01*
X161344482Y-94675812D01*
X161464180Y-94639502D01*
X161574494Y-94580537D01*
X161671185Y-94501185D01*
X161750537Y-94404494D01*
X161809502Y-94294180D01*
X161845812Y-94174482D01*
X161858072Y-94050000D01*
X161855000Y-93660750D01*
X161696250Y-93502000D01*
X160397000Y-93502000D01*
X160143000Y-93502000D01*
X158843750Y-93502000D01*
X158685000Y-93660750D01*
X158684220Y-93759640D01*
X157853855Y-92929276D01*
X157838921Y-92911079D01*
X157766289Y-92851471D01*
X157683423Y-92807178D01*
X157593508Y-92779903D01*
X157523423Y-92773000D01*
X157523415Y-92773000D01*
X157500000Y-92770694D01*
X157476585Y-92773000D01*
X155030434Y-92773000D01*
X155060671Y-92700000D01*
X158681928Y-92700000D01*
X158685000Y-93089250D01*
X158843750Y-93248000D01*
X160143000Y-93248000D01*
X160143000Y-92223750D01*
X160397000Y-92223750D01*
X160397000Y-93248000D01*
X161696250Y-93248000D01*
X161855000Y-93089250D01*
X161858072Y-92700000D01*
X161845812Y-92575518D01*
X161809502Y-92455820D01*
X161750537Y-92345506D01*
X161671185Y-92248815D01*
X161574494Y-92169463D01*
X161464180Y-92110498D01*
X161344482Y-92074188D01*
X161220000Y-92061928D01*
X160555750Y-92065000D01*
X160397000Y-92223750D01*
X160143000Y-92223750D01*
X159984250Y-92065000D01*
X159320000Y-92061928D01*
X159195518Y-92074188D01*
X159075820Y-92110498D01*
X158965506Y-92169463D01*
X158868815Y-92248815D01*
X158789463Y-92345506D01*
X158730498Y-92455820D01*
X158694188Y-92575518D01*
X158681928Y-92700000D01*
X155060671Y-92700000D01*
X155067926Y-92682487D01*
X155117000Y-92435774D01*
X155117000Y-92184226D01*
X155067926Y-91937513D01*
X154971663Y-91705114D01*
X154831911Y-91495960D01*
X154759423Y-91423472D01*
X155473000Y-91423472D01*
X155473000Y-91576528D01*
X155502859Y-91726643D01*
X155561431Y-91868048D01*
X155646464Y-91995309D01*
X155754691Y-92103536D01*
X155881952Y-92188569D01*
X156023357Y-92247141D01*
X156173472Y-92277000D01*
X156326528Y-92277000D01*
X156476643Y-92247141D01*
X156618048Y-92188569D01*
X156745309Y-92103536D01*
X156853536Y-91995309D01*
X156938569Y-91868048D01*
X156997141Y-91726643D01*
X157027000Y-91576528D01*
X157027000Y-91423472D01*
X157022704Y-91401875D01*
X158447580Y-89977000D01*
X158976585Y-89977000D01*
X159000000Y-89979306D01*
X159023415Y-89977000D01*
X159023423Y-89977000D01*
X159093508Y-89970097D01*
X159183423Y-89942822D01*
X159266289Y-89898529D01*
X159338921Y-89838921D01*
X159353855Y-89820724D01*
X163151876Y-86022704D01*
X163173472Y-86027000D01*
X163326528Y-86027000D01*
X163476643Y-85997141D01*
X163618048Y-85938569D01*
X163745309Y-85853536D01*
X163853536Y-85745309D01*
X163938569Y-85618048D01*
X163997141Y-85476643D01*
X164027000Y-85326528D01*
X164027000Y-85173472D01*
X163997141Y-85023357D01*
X163938569Y-84881952D01*
X163853536Y-84754691D01*
X163745309Y-84646464D01*
X163618048Y-84561431D01*
X163476643Y-84502859D01*
X163326528Y-84473000D01*
X163173472Y-84473000D01*
X163023357Y-84502859D01*
X162881952Y-84561431D01*
X162754691Y-84646464D01*
X162646464Y-84754691D01*
X162561431Y-84881952D01*
X162502859Y-85023357D01*
X162473000Y-85173472D01*
X162473000Y-85326528D01*
X162477296Y-85348124D01*
X158802421Y-89023000D01*
X158273414Y-89023000D01*
X158249999Y-89020694D01*
X158226584Y-89023000D01*
X158226577Y-89023000D01*
X158156492Y-89029903D01*
X158066577Y-89057178D01*
X157983711Y-89101471D01*
X157911079Y-89161079D01*
X157896149Y-89179271D01*
X156348125Y-90727296D01*
X156326528Y-90723000D01*
X156173472Y-90723000D01*
X156023357Y-90752859D01*
X155881952Y-90811431D01*
X155754691Y-90896464D01*
X155646464Y-91004691D01*
X155561431Y-91131952D01*
X155502859Y-91273357D01*
X155473000Y-91423472D01*
X154759423Y-91423472D01*
X154654040Y-91318089D01*
X154444886Y-91178337D01*
X154212487Y-91082074D01*
X154000966Y-91040000D01*
X154212487Y-90997926D01*
X154444886Y-90901663D01*
X154654040Y-90761911D01*
X154831911Y-90584040D01*
X154971663Y-90374886D01*
X155067926Y-90142487D01*
X155117000Y-89895774D01*
X155117000Y-89644226D01*
X155067926Y-89397513D01*
X155014953Y-89269626D01*
X155307580Y-88977000D01*
X156384230Y-88977000D01*
X156396464Y-88995309D01*
X156504691Y-89103536D01*
X156631952Y-89188569D01*
X156773357Y-89247141D01*
X156923472Y-89277000D01*
X157076528Y-89277000D01*
X157226643Y-89247141D01*
X157368048Y-89188569D01*
X157495309Y-89103536D01*
X157603536Y-88995309D01*
X157688569Y-88868048D01*
X157747141Y-88726643D01*
X157777000Y-88576528D01*
X157777000Y-88423472D01*
X157747141Y-88273357D01*
X157688569Y-88131952D01*
X157603536Y-88004691D01*
X157495309Y-87896464D01*
X157368048Y-87811431D01*
X157226643Y-87752859D01*
X157076528Y-87723000D01*
X156923472Y-87723000D01*
X156773357Y-87752859D01*
X156631952Y-87811431D01*
X156504691Y-87896464D01*
X156396464Y-88004691D01*
X156384230Y-88023000D01*
X155133414Y-88023000D01*
X155109999Y-88020694D01*
X155086584Y-88023000D01*
X155086577Y-88023000D01*
X155016492Y-88029903D01*
X154926577Y-88057178D01*
X154843711Y-88101471D01*
X154771079Y-88161079D01*
X154756149Y-88179271D01*
X154340374Y-88595047D01*
X154212487Y-88542074D01*
X154000966Y-88500000D01*
X154212487Y-88457926D01*
X154444886Y-88361663D01*
X154654040Y-88221911D01*
X154831911Y-88044040D01*
X154971663Y-87834886D01*
X155067926Y-87602487D01*
X155117000Y-87355774D01*
X155117000Y-87104226D01*
X155067926Y-86857513D01*
X154971663Y-86625114D01*
X154831911Y-86415960D01*
X154654040Y-86238089D01*
X154444886Y-86098337D01*
X154212487Y-86002074D01*
X154000966Y-85960000D01*
X154212487Y-85917926D01*
X154444886Y-85821663D01*
X154654040Y-85681911D01*
X154831911Y-85504040D01*
X154971663Y-85294886D01*
X155067926Y-85062487D01*
X155117000Y-84815774D01*
X155117000Y-84564226D01*
X155067926Y-84317513D01*
X154971663Y-84085114D01*
X154831911Y-83875960D01*
X154654040Y-83698089D01*
X154444886Y-83558337D01*
X154212487Y-83462074D01*
X154000966Y-83420000D01*
X154212487Y-83377926D01*
X154444886Y-83281663D01*
X154654040Y-83141911D01*
X154831911Y-82964040D01*
X154971663Y-82754886D01*
X155067926Y-82522487D01*
X155117000Y-82275774D01*
X155117000Y-82024226D01*
X155067926Y-81777513D01*
X154971663Y-81545114D01*
X154831911Y-81335960D01*
X154654040Y-81158089D01*
X154444886Y-81018337D01*
X154212487Y-80922074D01*
X154000966Y-80880000D01*
X154212487Y-80837926D01*
X154444886Y-80741663D01*
X154654040Y-80601911D01*
X154831911Y-80424040D01*
X154971663Y-80214886D01*
X155067926Y-79982487D01*
X155117000Y-79735774D01*
X155117000Y-79484226D01*
X155067926Y-79237513D01*
X154971663Y-79005114D01*
X154831911Y-78795960D01*
X154654040Y-78618089D01*
X154444886Y-78478337D01*
X154212487Y-78382074D01*
X154000966Y-78340000D01*
X154212487Y-78297926D01*
X154444886Y-78201663D01*
X154654040Y-78061911D01*
X154831911Y-77884040D01*
X154971663Y-77674886D01*
X155067926Y-77442487D01*
X155117000Y-77195774D01*
X155117000Y-76944226D01*
X155067926Y-76697513D01*
X154971663Y-76465114D01*
X154831911Y-76255960D01*
X154654040Y-76078089D01*
X154450917Y-75942366D01*
X154491199Y-75928222D01*
X154640792Y-75848261D01*
X154724475Y-75594080D01*
X153840000Y-74709605D01*
X153825858Y-74723748D01*
X153646253Y-74544143D01*
X153660395Y-74530000D01*
X154019605Y-74530000D01*
X154904080Y-75414475D01*
X155158261Y-75330792D01*
X155289158Y-75058225D01*
X155364365Y-74765358D01*
X155380991Y-74463447D01*
X155338397Y-74164093D01*
X155238222Y-73878801D01*
X155158261Y-73729208D01*
X154904080Y-73645525D01*
X154019605Y-74530000D01*
X153660395Y-74530000D01*
X153646253Y-74515858D01*
X153825858Y-74336253D01*
X153840000Y-74350395D01*
X154724475Y-73465920D01*
X154640792Y-73211739D01*
X154448374Y-73119333D01*
X154626967Y-73000000D01*
X162618757Y-73000000D01*
X162635690Y-73171922D01*
X162685838Y-73337236D01*
X162767274Y-73489592D01*
X162849406Y-73589671D01*
X163349403Y-74089668D01*
X163376867Y-74123133D01*
X163510408Y-74232727D01*
X163662763Y-74314162D01*
X163828077Y-74364310D01*
X164000000Y-74381243D01*
X164043079Y-74377000D01*
X170623000Y-74377000D01*
X170623001Y-92719196D01*
X170619967Y-92750000D01*
X170632073Y-92872912D01*
X170649170Y-92929272D01*
X170667926Y-92991103D01*
X170726148Y-93100028D01*
X170728163Y-93102483D01*
X170752859Y-93226643D01*
X170811431Y-93368048D01*
X170896464Y-93495309D01*
X171004691Y-93603536D01*
X171131952Y-93688569D01*
X171273357Y-93747141D01*
X171423472Y-93777000D01*
X171576528Y-93777000D01*
X171726643Y-93747141D01*
X171868048Y-93688569D01*
X171995309Y-93603536D01*
X172103536Y-93495309D01*
X172188569Y-93368048D01*
X172247141Y-93226643D01*
X172277000Y-93076528D01*
X172277000Y-92923472D01*
X172247141Y-92773357D01*
X172188569Y-92631952D01*
X172103536Y-92504691D01*
X171995309Y-92396464D01*
X171877000Y-92317413D01*
X171877000Y-74377000D01*
X186386735Y-74377000D01*
X194410328Y-82400594D01*
X194510407Y-82482726D01*
X194662763Y-82564162D01*
X194828077Y-82614310D01*
X195000000Y-82631243D01*
X195171922Y-82614310D01*
X195337236Y-82564162D01*
X195489592Y-82482726D01*
X195623132Y-82373132D01*
X195732726Y-82239592D01*
X195814162Y-82087236D01*
X195864310Y-81921922D01*
X195881243Y-81750000D01*
X195864310Y-81578077D01*
X195814162Y-81412763D01*
X195732726Y-81260407D01*
X195650594Y-81160328D01*
X187400594Y-72910329D01*
X187373133Y-72876867D01*
X187239592Y-72767273D01*
X187087237Y-72685838D01*
X186921922Y-72635690D01*
X186793079Y-72623000D01*
X186750000Y-72618757D01*
X186706921Y-72623000D01*
X164363265Y-72623000D01*
X164089671Y-72349406D01*
X163989592Y-72267274D01*
X163837236Y-72185838D01*
X163671922Y-72135690D01*
X163500000Y-72118757D01*
X163328078Y-72135690D01*
X163162764Y-72185838D01*
X163010408Y-72267274D01*
X162876868Y-72376868D01*
X162767274Y-72510408D01*
X162685838Y-72662764D01*
X162635690Y-72828078D01*
X162618757Y-73000000D01*
X154626967Y-73000000D01*
X154654040Y-72981911D01*
X154831911Y-72804040D01*
X154971663Y-72594886D01*
X155067926Y-72362487D01*
X155117000Y-72115774D01*
X155117000Y-71864226D01*
X155067926Y-71617513D01*
X154971663Y-71385114D01*
X154831911Y-71175960D01*
X154654040Y-70998089D01*
X154444886Y-70858337D01*
X154212487Y-70762074D01*
X154000966Y-70720000D01*
X154212487Y-70677926D01*
X154444886Y-70581663D01*
X154654040Y-70441911D01*
X154831911Y-70264040D01*
X154971663Y-70054886D01*
X155067926Y-69822487D01*
X155117000Y-69575774D01*
X155117000Y-69324226D01*
X155067926Y-69077513D01*
X154971663Y-68845114D01*
X154831911Y-68635960D01*
X154654040Y-68458089D01*
X154444886Y-68318337D01*
X154212487Y-68222074D01*
X154000966Y-68180000D01*
X154212487Y-68137926D01*
X154444886Y-68041663D01*
X154654040Y-67901911D01*
X154831911Y-67724040D01*
X154971663Y-67514886D01*
X155067926Y-67282487D01*
X155117000Y-67035774D01*
X155117000Y-66784226D01*
X155067926Y-66537513D01*
X154971663Y-66305114D01*
X154831911Y-66095960D01*
X154654040Y-65918089D01*
X154444886Y-65778337D01*
X154212487Y-65682074D01*
X153965774Y-65633000D01*
X153714226Y-65633000D01*
X153467513Y-65682074D01*
X153235114Y-65778337D01*
X153025960Y-65918089D01*
X152902000Y-66042049D01*
X152902000Y-60902000D01*
X176598001Y-60902000D01*
X176598000Y-70050253D01*
G37*
%TD.AperFunction*%
D21*
X154426147Y-93570727D02*
X154441079Y-93588921D01*
X154513711Y-93648529D01*
X154596577Y-93692822D01*
X154686492Y-93720097D01*
X154756577Y-93727000D01*
X154756585Y-93727000D01*
X154780000Y-93729306D01*
X154803415Y-93727000D01*
X157302421Y-93727000D01*
X160146147Y-96570727D01*
X160161079Y-96588921D01*
X160233711Y-96648529D01*
X160316577Y-96692822D01*
X160406492Y-96720097D01*
X160476577Y-96727000D01*
X160476585Y-96727000D01*
X160500000Y-96729306D01*
X160523415Y-96727000D01*
X163052421Y-96727000D01*
X164273000Y-97947580D01*
X164273000Y-98134230D01*
X164254691Y-98146464D01*
X164146464Y-98254691D01*
X164061431Y-98381952D01*
X164027000Y-98465076D01*
X164027000Y-98423472D01*
X163997141Y-98273357D01*
X163938569Y-98131952D01*
X163853536Y-98004691D01*
X163745309Y-97896464D01*
X163618048Y-97811431D01*
X163476643Y-97752859D01*
X163326528Y-97723000D01*
X163173472Y-97723000D01*
X163023357Y-97752859D01*
X162881952Y-97811431D01*
X162754691Y-97896464D01*
X162646464Y-98004691D01*
X162561431Y-98131952D01*
X162502859Y-98273357D01*
X162473000Y-98423472D01*
X162473000Y-98576528D01*
X162477296Y-98598124D01*
X160337133Y-100738288D01*
X160245309Y-100646464D01*
X160118048Y-100561431D01*
X159976643Y-100502859D01*
X159826528Y-100473000D01*
X159673472Y-100473000D01*
X159523357Y-100502859D01*
X159381952Y-100561431D01*
X159254691Y-100646464D01*
X159146464Y-100754691D01*
X159061431Y-100881952D01*
X159002859Y-101023357D01*
X158973000Y-101173472D01*
X158973000Y-101326528D01*
X159002859Y-101476643D01*
X159061431Y-101618048D01*
X159118774Y-101703867D01*
X159116079Y-101706079D01*
X159056471Y-101778711D01*
X159012178Y-101861578D01*
X158984903Y-101951493D01*
X158978000Y-102021578D01*
X158978000Y-102021585D01*
X158975694Y-102045000D01*
X158978000Y-102068415D01*
X158978000Y-102331322D01*
X158954482Y-102324188D01*
X158830000Y-102311928D01*
X158530750Y-102315000D01*
X158372000Y-102473750D01*
X158372000Y-103723000D01*
X158392000Y-103723000D01*
X158392000Y-103977000D01*
X158372000Y-103977000D01*
X158372000Y-105226250D01*
X158530750Y-105385000D01*
X158830000Y-105388072D01*
X158954482Y-105375812D01*
X159074180Y-105339502D01*
X159184494Y-105280537D01*
X159281185Y-105201185D01*
X159340570Y-105128824D01*
X159830000Y-105128824D01*
X159903905Y-105121545D01*
X159955000Y-105106046D01*
X160006095Y-105121545D01*
X160080000Y-105128824D01*
X160669430Y-105128824D01*
X160728815Y-105201185D01*
X160825506Y-105280537D01*
X160935820Y-105339502D01*
X161055518Y-105375812D01*
X161180000Y-105388072D01*
X161319250Y-105385000D01*
X161478000Y-105226250D01*
X161478000Y-104327000D01*
X161458000Y-104327000D01*
X161458000Y-104073000D01*
X161478000Y-104073000D01*
X161478000Y-103173750D01*
X161319250Y-103015000D01*
X161180000Y-103011928D01*
X161055518Y-103024188D01*
X160982000Y-103046489D01*
X160982000Y-101442579D01*
X163151876Y-99272704D01*
X163173472Y-99277000D01*
X163326528Y-99277000D01*
X163476643Y-99247141D01*
X163618048Y-99188569D01*
X163674715Y-99150705D01*
X162384276Y-100441145D01*
X162366079Y-100456079D01*
X162306471Y-100528711D01*
X162262178Y-100611578D01*
X162234903Y-100701493D01*
X162228000Y-100771578D01*
X162228000Y-100771585D01*
X162225694Y-100795000D01*
X162228000Y-100818415D01*
X162228001Y-103046490D01*
X162154482Y-103024188D01*
X162030000Y-103011928D01*
X161890750Y-103015000D01*
X161732000Y-103173750D01*
X161732000Y-104073000D01*
X161752000Y-104073000D01*
X161752000Y-104327000D01*
X161732000Y-104327000D01*
X161732000Y-105226250D01*
X161890750Y-105385000D01*
X162030000Y-105388072D01*
X162154482Y-105375812D01*
X162274180Y-105339502D01*
X162384494Y-105280537D01*
X162481185Y-105201185D01*
X162540570Y-105128824D01*
X163130000Y-105128824D01*
X163203905Y-105121545D01*
X163220056Y-105116646D01*
X163222925Y-105126104D01*
X163281147Y-105235029D01*
X163359499Y-105330503D01*
X163383427Y-105350140D01*
X164131286Y-106098000D01*
X154510232Y-106098000D01*
X154654040Y-106001911D01*
X154831911Y-105824040D01*
X154971663Y-105614886D01*
X155067926Y-105382487D01*
X155117000Y-105135774D01*
X155117000Y-104884226D01*
X155090301Y-104750000D01*
X157021928Y-104750000D01*
X157034188Y-104874482D01*
X157070498Y-104994180D01*
X157129463Y-105104494D01*
X157208815Y-105201185D01*
X157305506Y-105280537D01*
X157415820Y-105339502D01*
X157535518Y-105375812D01*
X157660000Y-105388072D01*
X157959250Y-105385000D01*
X158118000Y-105226250D01*
X158118000Y-103977000D01*
X157183750Y-103977000D01*
X157025000Y-104135750D01*
X157021928Y-104750000D01*
X155090301Y-104750000D01*
X155067926Y-104637513D01*
X154971663Y-104405114D01*
X154831911Y-104195960D01*
X154654040Y-104018089D01*
X154444886Y-103878337D01*
X154212487Y-103782074D01*
X154000966Y-103740000D01*
X154212487Y-103697926D01*
X154444886Y-103601663D01*
X154654040Y-103461911D01*
X154831911Y-103284040D01*
X154971663Y-103074886D01*
X155023392Y-102950000D01*
X157021928Y-102950000D01*
X157025000Y-103564250D01*
X157183750Y-103723000D01*
X158118000Y-103723000D01*
X158118000Y-102473750D01*
X157959250Y-102315000D01*
X157660000Y-102311928D01*
X157535518Y-102324188D01*
X157415820Y-102360498D01*
X157305506Y-102419463D01*
X157208815Y-102498815D01*
X157129463Y-102595506D01*
X157070498Y-102705820D01*
X157034188Y-102825518D01*
X157021928Y-102950000D01*
X155023392Y-102950000D01*
X155067926Y-102842487D01*
X155117000Y-102595774D01*
X155117000Y-102344226D01*
X155067926Y-102097513D01*
X154971663Y-101865114D01*
X154831911Y-101655960D01*
X154654040Y-101478089D01*
X154444886Y-101338337D01*
X154212487Y-101242074D01*
X154000966Y-101200000D01*
X154212487Y-101157926D01*
X154444886Y-101061663D01*
X154654040Y-100921911D01*
X154831911Y-100744040D01*
X154971663Y-100534886D01*
X155067926Y-100302487D01*
X155117000Y-100055774D01*
X155117000Y-99804226D01*
X155067926Y-99557513D01*
X154971663Y-99325114D01*
X154831911Y-99115960D01*
X154654040Y-98938089D01*
X154444886Y-98798337D01*
X154212487Y-98702074D01*
X154000966Y-98660000D01*
X154212487Y-98617926D01*
X154444886Y-98521663D01*
X154654040Y-98381911D01*
X154831911Y-98204040D01*
X154971663Y-97994886D01*
X155067926Y-97762487D01*
X155117000Y-97515774D01*
X155117000Y-97264226D01*
X155067926Y-97017513D01*
X154971663Y-96785114D01*
X154831911Y-96575960D01*
X154654040Y-96398089D01*
X154444886Y-96258337D01*
X154212487Y-96162074D01*
X154000966Y-96120000D01*
X154212487Y-96077926D01*
X154444886Y-95981663D01*
X154654040Y-95841911D01*
X154831911Y-95664040D01*
X154971663Y-95454886D01*
X155024635Y-95327000D01*
X156152421Y-95327000D01*
X157023000Y-96197580D01*
X157023001Y-99134230D01*
X157004691Y-99146464D01*
X156896464Y-99254691D01*
X156811431Y-99381952D01*
X156752859Y-99523357D01*
X156723000Y-99673472D01*
X156723000Y-99826528D01*
X156752859Y-99976643D01*
X156811431Y-100118048D01*
X156896464Y-100245309D01*
X157004691Y-100353536D01*
X157131952Y-100438569D01*
X157273357Y-100497141D01*
X157423472Y-100527000D01*
X157576528Y-100527000D01*
X157726643Y-100497141D01*
X157868048Y-100438569D01*
X157995309Y-100353536D01*
X158103536Y-100245309D01*
X158188569Y-100118048D01*
X158247141Y-99976643D01*
X158277000Y-99826528D01*
X158277000Y-99673472D01*
X158247141Y-99523357D01*
X158188569Y-99381952D01*
X158103536Y-99254691D01*
X157995309Y-99146464D01*
X157977000Y-99134230D01*
X157977000Y-96023415D01*
X157979306Y-96000000D01*
X157977000Y-95976585D01*
X157977000Y-95976577D01*
X157970097Y-95906492D01*
X157942822Y-95816577D01*
X157898529Y-95733711D01*
X157838921Y-95661079D01*
X157820729Y-95646149D01*
X156703855Y-94529276D01*
X156688921Y-94511079D01*
X156616289Y-94451471D01*
X156533423Y-94407178D01*
X156443508Y-94379903D01*
X156373423Y-94373000D01*
X156373415Y-94373000D01*
X156350000Y-94370694D01*
X156326585Y-94373000D01*
X155024635Y-94373000D01*
X154971663Y-94245114D01*
X154831911Y-94035960D01*
X154654040Y-93858089D01*
X154444886Y-93718337D01*
X154212487Y-93622074D01*
X154000966Y-93580000D01*
X154212487Y-93537926D01*
X154340374Y-93484954D01*
X154426147Y-93570727D01*
%TA.AperFunction,Conductor*%
D22*
G36*
X154426147Y-93570727D02*
G01*
X154441079Y-93588921D01*
X154513711Y-93648529D01*
X154596577Y-93692822D01*
X154686492Y-93720097D01*
X154756577Y-93727000D01*
X154756585Y-93727000D01*
X154780000Y-93729306D01*
X154803415Y-93727000D01*
X157302421Y-93727000D01*
X160146147Y-96570727D01*
X160161079Y-96588921D01*
X160233711Y-96648529D01*
X160316577Y-96692822D01*
X160406492Y-96720097D01*
X160476577Y-96727000D01*
X160476585Y-96727000D01*
X160500000Y-96729306D01*
X160523415Y-96727000D01*
X163052421Y-96727000D01*
X164273000Y-97947580D01*
X164273000Y-98134230D01*
X164254691Y-98146464D01*
X164146464Y-98254691D01*
X164061431Y-98381952D01*
X164027000Y-98465076D01*
X164027000Y-98423472D01*
X163997141Y-98273357D01*
X163938569Y-98131952D01*
X163853536Y-98004691D01*
X163745309Y-97896464D01*
X163618048Y-97811431D01*
X163476643Y-97752859D01*
X163326528Y-97723000D01*
X163173472Y-97723000D01*
X163023357Y-97752859D01*
X162881952Y-97811431D01*
X162754691Y-97896464D01*
X162646464Y-98004691D01*
X162561431Y-98131952D01*
X162502859Y-98273357D01*
X162473000Y-98423472D01*
X162473000Y-98576528D01*
X162477296Y-98598124D01*
X160337133Y-100738288D01*
X160245309Y-100646464D01*
X160118048Y-100561431D01*
X159976643Y-100502859D01*
X159826528Y-100473000D01*
X159673472Y-100473000D01*
X159523357Y-100502859D01*
X159381952Y-100561431D01*
X159254691Y-100646464D01*
X159146464Y-100754691D01*
X159061431Y-100881952D01*
X159002859Y-101023357D01*
X158973000Y-101173472D01*
X158973000Y-101326528D01*
X159002859Y-101476643D01*
X159061431Y-101618048D01*
X159118774Y-101703867D01*
X159116079Y-101706079D01*
X159056471Y-101778711D01*
X159012178Y-101861578D01*
X158984903Y-101951493D01*
X158978000Y-102021578D01*
X158978000Y-102021585D01*
X158975694Y-102045000D01*
X158978000Y-102068415D01*
X158978000Y-102331322D01*
X158954482Y-102324188D01*
X158830000Y-102311928D01*
X158530750Y-102315000D01*
X158372000Y-102473750D01*
X158372000Y-103723000D01*
X158392000Y-103723000D01*
X158392000Y-103977000D01*
X158372000Y-103977000D01*
X158372000Y-105226250D01*
X158530750Y-105385000D01*
X158830000Y-105388072D01*
X158954482Y-105375812D01*
X159074180Y-105339502D01*
X159184494Y-105280537D01*
X159281185Y-105201185D01*
X159340570Y-105128824D01*
X159830000Y-105128824D01*
X159903905Y-105121545D01*
X159955000Y-105106046D01*
X160006095Y-105121545D01*
X160080000Y-105128824D01*
X160669430Y-105128824D01*
X160728815Y-105201185D01*
X160825506Y-105280537D01*
X160935820Y-105339502D01*
X161055518Y-105375812D01*
X161180000Y-105388072D01*
X161319250Y-105385000D01*
X161478000Y-105226250D01*
X161478000Y-104327000D01*
X161458000Y-104327000D01*
X161458000Y-104073000D01*
X161478000Y-104073000D01*
X161478000Y-103173750D01*
X161319250Y-103015000D01*
X161180000Y-103011928D01*
X161055518Y-103024188D01*
X160982000Y-103046489D01*
X160982000Y-101442579D01*
X163151876Y-99272704D01*
X163173472Y-99277000D01*
X163326528Y-99277000D01*
X163476643Y-99247141D01*
X163618048Y-99188569D01*
X163674715Y-99150705D01*
X162384276Y-100441145D01*
X162366079Y-100456079D01*
X162306471Y-100528711D01*
X162262178Y-100611578D01*
X162234903Y-100701493D01*
X162228000Y-100771578D01*
X162228000Y-100771585D01*
X162225694Y-100795000D01*
X162228000Y-100818415D01*
X162228001Y-103046490D01*
X162154482Y-103024188D01*
X162030000Y-103011928D01*
X161890750Y-103015000D01*
X161732000Y-103173750D01*
X161732000Y-104073000D01*
X161752000Y-104073000D01*
X161752000Y-104327000D01*
X161732000Y-104327000D01*
X161732000Y-105226250D01*
X161890750Y-105385000D01*
X162030000Y-105388072D01*
X162154482Y-105375812D01*
X162274180Y-105339502D01*
X162384494Y-105280537D01*
X162481185Y-105201185D01*
X162540570Y-105128824D01*
X163130000Y-105128824D01*
X163203905Y-105121545D01*
X163220056Y-105116646D01*
X163222925Y-105126104D01*
X163281147Y-105235029D01*
X163359499Y-105330503D01*
X163383427Y-105350140D01*
X164131286Y-106098000D01*
X154510232Y-106098000D01*
X154654040Y-106001911D01*
X154831911Y-105824040D01*
X154971663Y-105614886D01*
X155067926Y-105382487D01*
X155117000Y-105135774D01*
X155117000Y-104884226D01*
X155090301Y-104750000D01*
X157021928Y-104750000D01*
X157034188Y-104874482D01*
X157070498Y-104994180D01*
X157129463Y-105104494D01*
X157208815Y-105201185D01*
X157305506Y-105280537D01*
X157415820Y-105339502D01*
X157535518Y-105375812D01*
X157660000Y-105388072D01*
X157959250Y-105385000D01*
X158118000Y-105226250D01*
X158118000Y-103977000D01*
X157183750Y-103977000D01*
X157025000Y-104135750D01*
X157021928Y-104750000D01*
X155090301Y-104750000D01*
X155067926Y-104637513D01*
X154971663Y-104405114D01*
X154831911Y-104195960D01*
X154654040Y-104018089D01*
X154444886Y-103878337D01*
X154212487Y-103782074D01*
X154000966Y-103740000D01*
X154212487Y-103697926D01*
X154444886Y-103601663D01*
X154654040Y-103461911D01*
X154831911Y-103284040D01*
X154971663Y-103074886D01*
X155023392Y-102950000D01*
X157021928Y-102950000D01*
X157025000Y-103564250D01*
X157183750Y-103723000D01*
X158118000Y-103723000D01*
X158118000Y-102473750D01*
X157959250Y-102315000D01*
X157660000Y-102311928D01*
X157535518Y-102324188D01*
X157415820Y-102360498D01*
X157305506Y-102419463D01*
X157208815Y-102498815D01*
X157129463Y-102595506D01*
X157070498Y-102705820D01*
X157034188Y-102825518D01*
X157021928Y-102950000D01*
X155023392Y-102950000D01*
X155067926Y-102842487D01*
X155117000Y-102595774D01*
X155117000Y-102344226D01*
X155067926Y-102097513D01*
X154971663Y-101865114D01*
X154831911Y-101655960D01*
X154654040Y-101478089D01*
X154444886Y-101338337D01*
X154212487Y-101242074D01*
X154000966Y-101200000D01*
X154212487Y-101157926D01*
X154444886Y-101061663D01*
X154654040Y-100921911D01*
X154831911Y-100744040D01*
X154971663Y-100534886D01*
X155067926Y-100302487D01*
X155117000Y-100055774D01*
X155117000Y-99804226D01*
X155067926Y-99557513D01*
X154971663Y-99325114D01*
X154831911Y-99115960D01*
X154654040Y-98938089D01*
X154444886Y-98798337D01*
X154212487Y-98702074D01*
X154000966Y-98660000D01*
X154212487Y-98617926D01*
X154444886Y-98521663D01*
X154654040Y-98381911D01*
X154831911Y-98204040D01*
X154971663Y-97994886D01*
X155067926Y-97762487D01*
X155117000Y-97515774D01*
X155117000Y-97264226D01*
X155067926Y-97017513D01*
X154971663Y-96785114D01*
X154831911Y-96575960D01*
X154654040Y-96398089D01*
X154444886Y-96258337D01*
X154212487Y-96162074D01*
X154000966Y-96120000D01*
X154212487Y-96077926D01*
X154444886Y-95981663D01*
X154654040Y-95841911D01*
X154831911Y-95664040D01*
X154971663Y-95454886D01*
X155024635Y-95327000D01*
X156152421Y-95327000D01*
X157023000Y-96197580D01*
X157023001Y-99134230D01*
X157004691Y-99146464D01*
X156896464Y-99254691D01*
X156811431Y-99381952D01*
X156752859Y-99523357D01*
X156723000Y-99673472D01*
X156723000Y-99826528D01*
X156752859Y-99976643D01*
X156811431Y-100118048D01*
X156896464Y-100245309D01*
X157004691Y-100353536D01*
X157131952Y-100438569D01*
X157273357Y-100497141D01*
X157423472Y-100527000D01*
X157576528Y-100527000D01*
X157726643Y-100497141D01*
X157868048Y-100438569D01*
X157995309Y-100353536D01*
X158103536Y-100245309D01*
X158188569Y-100118048D01*
X158247141Y-99976643D01*
X158277000Y-99826528D01*
X158277000Y-99673472D01*
X158247141Y-99523357D01*
X158188569Y-99381952D01*
X158103536Y-99254691D01*
X157995309Y-99146464D01*
X157977000Y-99134230D01*
X157977000Y-96023415D01*
X157979306Y-96000000D01*
X157977000Y-95976585D01*
X157977000Y-95976577D01*
X157970097Y-95906492D01*
X157942822Y-95816577D01*
X157898529Y-95733711D01*
X157838921Y-95661079D01*
X157820729Y-95646149D01*
X156703855Y-94529276D01*
X156688921Y-94511079D01*
X156616289Y-94451471D01*
X156533423Y-94407178D01*
X156443508Y-94379903D01*
X156373423Y-94373000D01*
X156373415Y-94373000D01*
X156350000Y-94370694D01*
X156326585Y-94373000D01*
X155024635Y-94373000D01*
X154971663Y-94245114D01*
X154831911Y-94035960D01*
X154654040Y-93858089D01*
X154444886Y-93718337D01*
X154212487Y-93622074D01*
X154000966Y-93580000D01*
X154212487Y-93537926D01*
X154340374Y-93484954D01*
X154426147Y-93570727D01*
G37*
%TD.AperFunction*%
%TD*%
M02*
