%TF.GenerationSoftware,KiCad,Pcbnew,(6.0.6-0)*%
%TF.CreationDate,2022-08-03T21:57:51-07:00*%
%TF.ProjectId,sd_bt_streamer,73645f62-745f-4737-9472-65616d65722e,rev?*%
%TF.SameCoordinates,Original*%
%TF.FileFunction,Legend,Top*%
%TF.FilePolarity,Positive*%
%FSLAX46Y46*%
G04 Gerber Fmt 4.6, Leading zero omitted, Abs format (unit mm)*
G04 Created by KiCad (PCBNEW (6.0.6-0)) date 2022-08-03 21:57:51*
%MOMM*%
%LPD*%
G01*
G04 APERTURE LIST*
%ADD10C,0.150000*%
%ADD11C,0.120000*%
G04 APERTURE END LIST*
D10*
%TO.C,J1*%
X163666666Y-105382380D02*
X163666666Y-106096666D01*
X163619047Y-106239523D01*
X163523809Y-106334761D01*
X163380952Y-106382380D01*
X163285714Y-106382380D01*
X164666666Y-106382380D02*
X164095238Y-106382380D01*
X164380952Y-106382380D02*
X164380952Y-105382380D01*
X164285714Y-105525238D01*
X164190476Y-105620476D01*
X164095238Y-105668095D01*
%TO.C,U2*%
X161238095Y-80452380D02*
X161238095Y-81261904D01*
X161285714Y-81357142D01*
X161333333Y-81404761D01*
X161428571Y-81452380D01*
X161619047Y-81452380D01*
X161714285Y-81404761D01*
X161761904Y-81357142D01*
X161809523Y-81261904D01*
X161809523Y-80452380D01*
X162238095Y-80547619D02*
X162285714Y-80500000D01*
X162380952Y-80452380D01*
X162619047Y-80452380D01*
X162714285Y-80500000D01*
X162761904Y-80547619D01*
X162809523Y-80642857D01*
X162809523Y-80738095D01*
X162761904Y-80880952D01*
X162190476Y-81452380D01*
X162809523Y-81452380D01*
%TO.C,D1*%
X160361904Y-66652380D02*
X160361904Y-65652380D01*
X160600000Y-65652380D01*
X160742857Y-65700000D01*
X160838095Y-65795238D01*
X160885714Y-65890476D01*
X160933333Y-66080952D01*
X160933333Y-66223809D01*
X160885714Y-66414285D01*
X160838095Y-66509523D01*
X160742857Y-66604761D01*
X160600000Y-66652380D01*
X160361904Y-66652380D01*
X161885714Y-66652380D02*
X161314285Y-66652380D01*
X161600000Y-66652380D02*
X161600000Y-65652380D01*
X161504761Y-65795238D01*
X161409523Y-65890476D01*
X161314285Y-65938095D01*
D11*
%TO.C,J1*%
X159120000Y-92930000D02*
X157890000Y-92930000D01*
X157890000Y-92930000D02*
X157890000Y-102750000D01*
X170070000Y-93650000D02*
X170070000Y-92930000D01*
X170070000Y-103200000D02*
X170070000Y-98750000D01*
X168590000Y-104570000D02*
X167730000Y-104570000D01*
X165090000Y-92930000D02*
X161420000Y-92930000D01*
X170070000Y-97350000D02*
X170070000Y-95050000D01*
X170070000Y-92930000D02*
X167390000Y-92930000D01*
%TO.C,D1*%
X155050000Y-65200000D02*
X155050000Y-67200000D01*
X155050000Y-65200000D02*
X158950000Y-65200000D01*
X155050000Y-67200000D02*
X158950000Y-67200000D01*
%TD*%
M02*
