%TF.GenerationSoftware,KiCad,Pcbnew,(6.0.6-0)*%
%TF.CreationDate,2022-08-03T21:57:51-07:00*%
%TF.ProjectId,sd_bt_streamer,73645f62-745f-4737-9472-65616d65722e,rev?*%
%TF.SameCoordinates,Original*%
%TF.FileFunction,Legend,Bot*%
%TF.FilePolarity,Positive*%
%FSLAX46Y46*%
G04 Gerber Fmt 4.6, Leading zero omitted, Abs format (unit mm)*
G04 Created by KiCad (PCBNEW (6.0.6-0)) date 2022-08-03 21:57:51*
%MOMM*%
%LPD*%
G01*
G04 APERTURE LIST*
%ADD10C,0.150000*%
G04 APERTURE END LIST*
D10*
X169240595Y-69095000D02*
X169335833Y-69047380D01*
X169478690Y-69047380D01*
X169621547Y-69095000D01*
X169716785Y-69190238D01*
X169764404Y-69285476D01*
X169812023Y-69475952D01*
X169812023Y-69618809D01*
X169764404Y-69809285D01*
X169716785Y-69904523D01*
X169621547Y-69999761D01*
X169478690Y-70047380D01*
X169383452Y-70047380D01*
X169240595Y-69999761D01*
X169192976Y-69952142D01*
X169192976Y-69618809D01*
X169383452Y-69618809D01*
X168859642Y-69047380D02*
X168240595Y-69047380D01*
X168573928Y-69428333D01*
X168431071Y-69428333D01*
X168335833Y-69475952D01*
X168288214Y-69523571D01*
X168240595Y-69618809D01*
X168240595Y-69856904D01*
X168288214Y-69952142D01*
X168335833Y-69999761D01*
X168431071Y-70047380D01*
X168716785Y-70047380D01*
X168812023Y-69999761D01*
X168859642Y-69952142D01*
X167907261Y-69047380D02*
X167240595Y-70047380D01*
X167240595Y-69047380D02*
X167907261Y-70047380D01*
X165764404Y-69523571D02*
X165621547Y-69571190D01*
X165573928Y-69618809D01*
X165526309Y-69714047D01*
X165526309Y-69856904D01*
X165573928Y-69952142D01*
X165621547Y-69999761D01*
X165716785Y-70047380D01*
X166097738Y-70047380D01*
X166097738Y-69047380D01*
X165764404Y-69047380D01*
X165669166Y-69095000D01*
X165621547Y-69142619D01*
X165573928Y-69237857D01*
X165573928Y-69333095D01*
X165621547Y-69428333D01*
X165669166Y-69475952D01*
X165764404Y-69523571D01*
X166097738Y-69523571D01*
X165240595Y-69047380D02*
X164669166Y-69047380D01*
X164954880Y-70047380D02*
X164954880Y-69047380D01*
X163621547Y-69999761D02*
X163478690Y-70047380D01*
X163240595Y-70047380D01*
X163145357Y-69999761D01*
X163097738Y-69952142D01*
X163050119Y-69856904D01*
X163050119Y-69761666D01*
X163097738Y-69666428D01*
X163145357Y-69618809D01*
X163240595Y-69571190D01*
X163431071Y-69523571D01*
X163526309Y-69475952D01*
X163573928Y-69428333D01*
X163621547Y-69333095D01*
X163621547Y-69237857D01*
X163573928Y-69142619D01*
X163526309Y-69095000D01*
X163431071Y-69047380D01*
X163192976Y-69047380D01*
X163050119Y-69095000D01*
X162621547Y-70047380D02*
X162621547Y-69047380D01*
X162050119Y-70047380D01*
X162050119Y-69047380D01*
X161573928Y-70047380D02*
X161573928Y-69047380D01*
X160764404Y-69523571D02*
X161097738Y-69523571D01*
X161097738Y-70047380D02*
X161097738Y-69047380D01*
X160621547Y-69047380D01*
X159907261Y-69523571D02*
X160240595Y-69523571D01*
X160240595Y-70047380D02*
X160240595Y-69047380D01*
X159764404Y-69047380D01*
X158716785Y-69380714D02*
X158478690Y-70047380D01*
X158240595Y-69380714D01*
X157335833Y-70047380D02*
X157907261Y-70047380D01*
X157621547Y-70047380D02*
X157621547Y-69047380D01*
X157716785Y-69190238D01*
X157812023Y-69285476D01*
X157907261Y-69333095D01*
X156907261Y-69952142D02*
X156859642Y-69999761D01*
X156907261Y-70047380D01*
X156954880Y-69999761D01*
X156907261Y-69952142D01*
X156907261Y-70047380D01*
X156240595Y-69047380D02*
X156145357Y-69047380D01*
X156050119Y-69095000D01*
X156002500Y-69142619D01*
X155954880Y-69237857D01*
X155907261Y-69428333D01*
X155907261Y-69666428D01*
X155954880Y-69856904D01*
X156002500Y-69952142D01*
X156050119Y-69999761D01*
X156145357Y-70047380D01*
X156240595Y-70047380D01*
X156335833Y-69999761D01*
X156383452Y-69952142D01*
X156431071Y-69856904D01*
X156478690Y-69666428D01*
X156478690Y-69428333D01*
X156431071Y-69237857D01*
X156383452Y-69142619D01*
X156335833Y-69095000D01*
X156240595Y-69047380D01*
X169764404Y-71133571D02*
X169431071Y-71133571D01*
X169288214Y-71657380D02*
X169764404Y-71657380D01*
X169764404Y-70657380D01*
X169288214Y-70657380D01*
X168907261Y-71609761D02*
X168764404Y-71657380D01*
X168526309Y-71657380D01*
X168431071Y-71609761D01*
X168383452Y-71562142D01*
X168335833Y-71466904D01*
X168335833Y-71371666D01*
X168383452Y-71276428D01*
X168431071Y-71228809D01*
X168526309Y-71181190D01*
X168716785Y-71133571D01*
X168812023Y-71085952D01*
X168859642Y-71038333D01*
X168907261Y-70943095D01*
X168907261Y-70847857D01*
X168859642Y-70752619D01*
X168812023Y-70705000D01*
X168716785Y-70657380D01*
X168478690Y-70657380D01*
X168335833Y-70705000D01*
X167907261Y-71657380D02*
X167907261Y-70657380D01*
X167526309Y-70657380D01*
X167431071Y-70705000D01*
X167383452Y-70752619D01*
X167335833Y-70847857D01*
X167335833Y-70990714D01*
X167383452Y-71085952D01*
X167431071Y-71133571D01*
X167526309Y-71181190D01*
X167907261Y-71181190D01*
X167002500Y-70657380D02*
X166383452Y-70657380D01*
X166716785Y-71038333D01*
X166573928Y-71038333D01*
X166478690Y-71085952D01*
X166431071Y-71133571D01*
X166383452Y-71228809D01*
X166383452Y-71466904D01*
X166431071Y-71562142D01*
X166478690Y-71609761D01*
X166573928Y-71657380D01*
X166859642Y-71657380D01*
X166954880Y-71609761D01*
X167002500Y-71562142D01*
X166002500Y-70752619D02*
X165954880Y-70705000D01*
X165859642Y-70657380D01*
X165621547Y-70657380D01*
X165526309Y-70705000D01*
X165478690Y-70752619D01*
X165431071Y-70847857D01*
X165431071Y-70943095D01*
X165478690Y-71085952D01*
X166050119Y-71657380D01*
X165431071Y-71657380D01*
X165002500Y-71276428D02*
X164240595Y-71276428D01*
X163192976Y-71562142D02*
X163240595Y-71609761D01*
X163383452Y-71657380D01*
X163478690Y-71657380D01*
X163621547Y-71609761D01*
X163716785Y-71514523D01*
X163764404Y-71419285D01*
X163812023Y-71228809D01*
X163812023Y-71085952D01*
X163764404Y-70895476D01*
X163716785Y-70800238D01*
X163621547Y-70705000D01*
X163478690Y-70657380D01*
X163383452Y-70657380D01*
X163240595Y-70705000D01*
X163192976Y-70752619D01*
X162859642Y-70657380D02*
X162240595Y-70657380D01*
X162573928Y-71038333D01*
X162431071Y-71038333D01*
X162335833Y-71085952D01*
X162288214Y-71133571D01*
X162240595Y-71228809D01*
X162240595Y-71466904D01*
X162288214Y-71562142D01*
X162335833Y-71609761D01*
X162431071Y-71657380D01*
X162716785Y-71657380D01*
X162812023Y-71609761D01*
X162859642Y-71562142D01*
X162050119Y-71752619D02*
X161288214Y-71752619D01*
X161050119Y-71657380D02*
X161050119Y-70657380D01*
X160812023Y-70657380D01*
X160669166Y-70705000D01*
X160573928Y-70800238D01*
X160526309Y-70895476D01*
X160478690Y-71085952D01*
X160478690Y-71228809D01*
X160526309Y-71419285D01*
X160573928Y-71514523D01*
X160669166Y-71609761D01*
X160812023Y-71657380D01*
X161050119Y-71657380D01*
X159669166Y-71609761D02*
X159764404Y-71657380D01*
X159954880Y-71657380D01*
X160050119Y-71609761D01*
X160097738Y-71514523D01*
X160097738Y-71133571D01*
X160050119Y-71038333D01*
X159954880Y-70990714D01*
X159764404Y-70990714D01*
X159669166Y-71038333D01*
X159621547Y-71133571D01*
X159621547Y-71228809D01*
X160097738Y-71324047D01*
X159288214Y-70990714D02*
X159050119Y-71657380D01*
X158812023Y-70990714D01*
X158431071Y-71657380D02*
X158431071Y-70657380D01*
X157859642Y-71657380D02*
X158288214Y-71085952D01*
X157859642Y-70657380D02*
X158431071Y-71228809D01*
X157431071Y-71657380D02*
X157431071Y-70990714D01*
X157431071Y-70657380D02*
X157478690Y-70705000D01*
X157431071Y-70752619D01*
X157383452Y-70705000D01*
X157431071Y-70657380D01*
X157431071Y-70752619D01*
X157097738Y-70990714D02*
X156716785Y-70990714D01*
X156954880Y-70657380D02*
X156954880Y-71514523D01*
X156907261Y-71609761D01*
X156812023Y-71657380D01*
X156716785Y-71657380D01*
X155812023Y-71562142D02*
X155859642Y-71609761D01*
X156002500Y-71657380D01*
X156097738Y-71657380D01*
X156240595Y-71609761D01*
X156335833Y-71514523D01*
X156383452Y-71419285D01*
X156431071Y-71228809D01*
X156431071Y-71085952D01*
X156383452Y-70895476D01*
X156335833Y-70800238D01*
X156240595Y-70705000D01*
X156097738Y-70657380D01*
X156002500Y-70657380D01*
X155859642Y-70705000D01*
X155812023Y-70752619D01*
X155383452Y-71276428D02*
X154621547Y-71276428D01*
X153954880Y-70657380D02*
X153859642Y-70657380D01*
X153764404Y-70705000D01*
X153716785Y-70752619D01*
X153669166Y-70847857D01*
X153621547Y-71038333D01*
X153621547Y-71276428D01*
X153669166Y-71466904D01*
X153716785Y-71562142D01*
X153764404Y-71609761D01*
X153859642Y-71657380D01*
X153954880Y-71657380D01*
X154050119Y-71609761D01*
X154097738Y-71562142D01*
X154145357Y-71466904D01*
X154192976Y-71276428D01*
X154192976Y-71038333D01*
X154145357Y-70847857D01*
X154097738Y-70752619D01*
X154050119Y-70705000D01*
X153954880Y-70657380D01*
X153240595Y-70752619D02*
X153192976Y-70705000D01*
X153097738Y-70657380D01*
X152859642Y-70657380D01*
X152764404Y-70705000D01*
X152716785Y-70752619D01*
X152669166Y-70847857D01*
X152669166Y-70943095D01*
X152716785Y-71085952D01*
X153288214Y-71657380D01*
X152669166Y-71657380D01*
%TO.C,U1*%
X191952380Y-80738095D02*
X192761904Y-80738095D01*
X192857142Y-80785714D01*
X192904761Y-80833333D01*
X192952380Y-80928571D01*
X192952380Y-81119047D01*
X192904761Y-81214285D01*
X192857142Y-81261904D01*
X192761904Y-81309523D01*
X191952380Y-81309523D01*
X192952380Y-82309523D02*
X192952380Y-81738095D01*
X192952380Y-82023809D02*
X191952380Y-82023809D01*
X192095238Y-81928571D01*
X192190476Y-81833333D01*
X192238095Y-81738095D01*
%TO.C,NT1*%
X181042857Y-76052380D02*
X181042857Y-75052380D01*
X180471428Y-76052380D01*
X180471428Y-75052380D01*
X180138095Y-75052380D02*
X179566666Y-75052380D01*
X179852380Y-76052380D02*
X179852380Y-75052380D01*
X178709523Y-76052380D02*
X179280952Y-76052380D01*
X178995238Y-76052380D02*
X178995238Y-75052380D01*
X179090476Y-75195238D01*
X179185714Y-75290476D01*
X179280952Y-75338095D01*
%TO.C,NT3*%
X181242857Y-72152380D02*
X181242857Y-71152380D01*
X180671428Y-72152380D01*
X180671428Y-71152380D01*
X180338095Y-71152380D02*
X179766666Y-71152380D01*
X180052380Y-72152380D02*
X180052380Y-71152380D01*
X179528571Y-71152380D02*
X178909523Y-71152380D01*
X179242857Y-71533333D01*
X179100000Y-71533333D01*
X179004761Y-71580952D01*
X178957142Y-71628571D01*
X178909523Y-71723809D01*
X178909523Y-71961904D01*
X178957142Y-72057142D01*
X179004761Y-72104761D01*
X179100000Y-72152380D01*
X179385714Y-72152380D01*
X179480952Y-72104761D01*
X179528571Y-72057142D01*
%TO.C,NT4*%
X181242857Y-93752380D02*
X181242857Y-92752380D01*
X180671428Y-93752380D01*
X180671428Y-92752380D01*
X180338095Y-92752380D02*
X179766666Y-92752380D01*
X180052380Y-93752380D02*
X180052380Y-92752380D01*
X179004761Y-93085714D02*
X179004761Y-93752380D01*
X179242857Y-92704761D02*
X179480952Y-93419047D01*
X178861904Y-93419047D01*
%TD*%
M02*
