%TF.GenerationSoftware,KiCad,Pcbnew,(6.0.6-0)*%
%TF.CreationDate,2022-08-03T21:57:51-07:00*%
%TF.ProjectId,sd_bt_streamer,73645f62-745f-4737-9472-65616d65722e,rev?*%
%TF.SameCoordinates,Original*%
%TF.FileFunction,Soldermask,Top*%
%TF.FilePolarity,Negative*%
%FSLAX46Y46*%
G04 Gerber Fmt 4.6, Leading zero omitted, Abs format (unit mm)*
G04 Created by KiCad (PCBNEW (6.0.6-0)) date 2022-08-03 21:57:51*
%MOMM*%
%LPD*%
G01*
G04 APERTURE LIST*
%ADD10R,0.850000X1.100000*%
%ADD11R,0.750000X1.100000*%
%ADD12R,1.200000X1.000000*%
%ADD13R,1.900000X1.350000*%
%ADD14R,1.170000X1.800000*%
%ADD15R,1.550000X1.350000*%
%ADD16C,1.600000*%
%ADD17R,0.900000X1.200000*%
G04 APERTURE END LIST*
D10*
%TO.C,J1*%
X167105000Y-104200000D03*
X166005000Y-104200000D03*
X164905000Y-104200000D03*
X163805000Y-104200000D03*
X162705000Y-104200000D03*
X161605000Y-104200000D03*
X160505000Y-104200000D03*
D11*
X159455000Y-104200000D03*
D12*
X169740000Y-98050000D03*
X169740000Y-94350000D03*
D13*
X160270000Y-93375000D03*
X166240000Y-93375000D03*
D14*
X158245000Y-103850000D03*
D15*
X169565000Y-104075000D03*
%TD*%
D16*
%TO.C,U2*%
X150570000Y-63720000D03*
X150570000Y-66260000D03*
X150570000Y-68800000D03*
X150570000Y-71340000D03*
X150570000Y-73880000D03*
X150570000Y-76420000D03*
X150570000Y-78960000D03*
X150570000Y-81500000D03*
X150570000Y-84040000D03*
X150570000Y-86580000D03*
X150570000Y-89120000D03*
X150570000Y-91660000D03*
X150570000Y-94200000D03*
X150570000Y-96740000D03*
X150570000Y-99280000D03*
X173430000Y-99280000D03*
X173430000Y-96740000D03*
X173430000Y-94200000D03*
X173430000Y-91660000D03*
X173430000Y-89120000D03*
X173430000Y-86580000D03*
X173430000Y-84040000D03*
X173430000Y-81500000D03*
X173430000Y-78960000D03*
X173430000Y-76420000D03*
X173430000Y-73880000D03*
X173430000Y-71340000D03*
X173430000Y-68800000D03*
X173430000Y-66260000D03*
X173430000Y-63720000D03*
%TD*%
D17*
%TO.C,D1*%
X155650000Y-66200000D03*
X158950000Y-66200000D03*
%TD*%
M02*
